<svg width="20" height="20" viewBox="0 0 20 20" fill="none" xmlns="http://www.w3.org/2000/svg">
<path d="M8.43663 3.47694C8.90141 3.16574 9.44468 3 9.99998 3C10.5553 3 11.0985 3.16574 11.5633 3.47694L17.7413 7.61321C17.8202 7.66603 17.8851 7.73801 17.9302 7.82273C17.9753 7.90745 17.9993 8.0023 18 8.09881C18.0007 8.19532 17.978 8.29051 17.9341 8.37589C17.8901 8.46128 17.8263 8.5342 17.7481 8.58818L11.6022 12.8485C11.1294 13.1763 10.5715 13.3515 10.0005 13.3515C9.42959 13.3515 8.87172 13.1763 8.39892 12.8485L3.14319 9.20733V12.9024C3.14319 13.0576 3.08299 13.2064 2.97583 13.3162C2.86867 13.4259 2.72334 13.4876 2.57179 13.4876C2.42025 13.4876 2.27491 13.4259 2.16775 13.3162C2.06059 13.2064 2.00039 13.0576 2.00039 12.9024V8.22066C2.00039 8.20194 2.00039 8.18204 2.00268 8.16214C1.99259 8.05562 2.01111 7.9483 2.05622 7.85177C2.10133 7.75523 2.17133 7.67315 2.25867 7.61438L8.43663 3.47694ZM4.28599 14.0716V11.4112L7.75781 13.8188C8.41971 14.2777 9.20068 14.523 9.99998 14.523C10.7993 14.523 11.5802 14.2777 12.2421 13.8188L15.714 11.4112V14.0728C15.714 14.2117 15.6658 14.3461 15.578 14.452L15.5768 14.4543L15.5745 14.4567L15.5677 14.4649L15.5448 14.4906C15.427 14.6223 15.3039 14.7488 15.1757 14.8698C14.9243 15.1074 14.5563 15.4211 14.0809 15.7359C13.1324 16.3633 11.7393 17 10.0011 17C8.26064 17 6.86871 16.3633 5.91905 15.7359C5.53028 15.4798 5.16362 15.19 4.8231 14.8698C4.69529 14.7488 4.57252 14.6223 4.45512 14.4906L4.43227 14.4649L4.42541 14.4567L4.42312 14.4543L4.85739 14.0739C4.42198 14.452 4.42312 14.4532 4.42312 14.4532C4.33487 14.347 4.28628 14.2122 4.28599 14.0728V14.0716Z" fill="#8C8C92"/>
</svg>