<svg width="20" height="21" viewBox="0 0 20 21" fill="none" xmlns="http://www.w3.org/2000/svg">
<path fill-rule="evenodd" clip-rule="evenodd" d="M6.44444 6.05556C6.44444 5.11256 6.81905 4.20819 7.48584 3.5414C8.15264 2.8746 9.05701 2.5 10 2.5C10.943 2.5 11.8474 2.8746 12.5142 3.5414C13.181 4.20819 13.5556 5.11256 13.5556 6.05556C13.5556 6.99855 13.181 7.90292 12.5142 8.56971C11.8474 9.23651 10.943 9.61111 10 9.61111C9.05701 9.61111 8.15264 9.23651 7.48584 8.56971C6.81905 7.90292 6.44444 6.99855 6.44444 6.05556ZM6.44444 11.3889C5.2657 11.3889 4.13524 11.8571 3.30175 12.6906C2.46825 13.5241 2 14.6546 2 15.8333C2 16.5406 2.28095 17.2189 2.78105 17.719C3.28115 18.219 3.95942 18.5 4.66667 18.5H15.3333C16.0406 18.5 16.7189 18.219 17.219 17.719C17.719 17.2189 18 16.5406 18 15.8333C18 14.6546 17.5317 13.5241 16.6983 12.6906C15.8648 11.8571 14.7343 11.3889 13.5556 11.3889H6.44444Z" fill="#8C8C92"/>
</svg>
