<svg width="20" height="21" viewBox="0 0 20 21" fill="none" xmlns="http://www.w3.org/2000/svg">
<g clip-path="url(#clip0_1172_22462)">
<path fill-rule="evenodd" clip-rule="evenodd" d="M6.42703 1.51333C6.70632 0.915467 7.3088 0.5 8.00504 0.5H11.995C12.6912 0.5 13.2927 0.915467 13.573 1.51333C14.2543 1.51941 14.7859 1.55083 15.2607 1.73931C15.8275 1.96454 16.3204 2.34732 16.6831 2.84384C17.0492 3.34443 17.2218 3.98587 17.4572 4.86848L18.1973 7.62677L18.4766 8.47899L18.5005 8.50939C19.3993 9.67877 18.9713 11.4177 18.1155 14.8944C17.5709 17.1065 17.2996 18.2121 16.4876 18.8565C15.6757 19.5 14.5535 19.5 12.3092 19.5H7.69083C5.4465 19.5 4.32434 19.5 3.51239 18.8565C2.70044 18.2121 2.42813 17.1065 1.8845 14.8944C1.02867 11.4177 0.600746 9.67877 1.49948 8.50939L1.52342 8.47899L1.80271 7.62677L2.54284 4.86848C2.77924 3.98587 2.95181 3.34341 3.31688 2.84283C3.6797 2.34668 4.17262 1.96426 4.73929 1.73931C5.21409 1.55083 5.74475 1.5184 6.42703 1.51333ZM6.42902 3.03536C5.76869 3.04245 5.50336 3.06779 5.28392 3.15493C4.97865 3.27621 4.71317 3.48235 4.51785 3.74976C4.34229 3.98992 4.23856 4.32533 3.94929 5.40656L3.38072 7.52341C4.39815 7.34 5.78864 7.34 7.68984 7.34H12.3092C14.2114 7.34 15.6009 7.34 16.6183 7.5224L16.0507 5.40555C15.7614 4.32432 15.6577 3.98891 15.4822 3.74875C15.2868 3.48134 15.0213 3.2752 14.7161 3.15392C14.4966 3.06677 14.2313 3.04144 13.571 3.03435C13.4293 3.33718 13.2061 3.59302 12.9272 3.77219C12.6482 3.95137 12.325 4.04654 11.995 4.04667H8.00504C7.67512 4.04663 7.35196 3.95161 7.07303 3.77262C6.79409 3.59363 6.57079 3.338 6.42902 3.03536Z" fill="#32A752"/>
<path d="M7 13.5L9.11765 15.5L13 11.5" stroke="white" stroke-width="1.6" stroke-linecap="round" stroke-linejoin="round"/>
</g>
<defs>
<clipPath id="clip0_1172_22462">
<rect width="20" height="20" fill="white" transform="translate(0 0.5)"/>
</clipPath>
</defs>
</svg>
