<svg width="128" height="24" viewBox="0 0 128 24" fill="none" xmlns="http://www.w3.org/2000/svg">
<path d="M11.1432 1.42372C11.5319 0.777902 12.4681 0.777901 12.8568 1.42372L15.7315 6.20042C15.8711 6.43243 16.0988 6.5979 16.3626 6.65899L21.7939 7.91688C22.5282 8.08695 22.8175 8.97742 22.3234 9.54662L18.6688 13.7567C18.4913 13.9612 18.4043 14.2289 18.4277 14.4987L18.9098 20.0528C18.9749 20.8037 18.2174 21.354 17.5234 21.06L12.3901 18.8853C12.1408 18.7796 11.8592 18.7796 11.6099 18.8853L6.47659 21.06C5.78256 21.354 5.02508 20.8037 5.09025 20.0528L5.57227 14.4987C5.59568 14.2289 5.50869 13.9612 5.33118 13.7567L1.67659 9.54662C1.18248 8.97742 1.47182 8.08695 2.20613 7.91688L7.63735 6.65899C7.90116 6.5979 8.12891 6.43243 8.26853 6.20042L11.1432 1.42372Z" fill="#E8E8EA"/>
<path d="M37.1432 1.42372C37.5319 0.777902 38.4681 0.777901 38.8568 1.42372L41.7315 6.20042C41.8711 6.43243 42.0988 6.5979 42.3626 6.65899L47.7939 7.91688C48.5282 8.08695 48.8175 8.97742 48.3234 9.54662L44.6688 13.7567C44.4913 13.9612 44.4043 14.2289 44.4277 14.4987L44.9098 20.0528C44.9749 20.8037 44.2174 21.354 43.5234 21.06L38.3901 18.8853C38.1408 18.7796 37.8592 18.7796 37.6099 18.8853L32.4766 21.06C31.7826 21.354 31.0251 20.8037 31.0902 20.0528L31.5723 14.4987C31.5957 14.2289 31.5087 13.9612 31.3312 13.7567L27.6766 9.54662C27.1825 8.97742 27.4718 8.08695 28.2061 7.91688L33.6374 6.65899C33.9012 6.5979 34.1289 6.43243 34.2685 6.20042L37.1432 1.42372Z" fill="#E8E8EA"/>
<path d="M63.1432 1.42372C63.5319 0.777902 64.4681 0.777901 64.8568 1.42372L67.7315 6.20042C67.8711 6.43243 68.0988 6.5979 68.3626 6.65899L73.7939 7.91688C74.5282 8.08695 74.8175 8.97742 74.3234 9.54662L70.6688 13.7567C70.4913 13.9612 70.4043 14.2289 70.4277 14.4987L70.9098 20.0528C70.9749 20.8037 70.2174 21.354 69.5234 21.06L64.3901 18.8853C64.1408 18.7796 63.8592 18.7796 63.6099 18.8853L58.4766 21.06C57.7826 21.354 57.0251 20.8037 57.0902 20.0528L57.5723 14.4987C57.5957 14.2289 57.5087 13.9612 57.3312 13.7567L53.6766 9.54662C53.1825 8.97742 53.4718 8.08695 54.2061 7.91688L59.6374 6.65899C59.9012 6.5979 60.1289 6.43243 60.2685 6.20042L63.1432 1.42372Z" fill="#E8E8EA"/>
<path d="M89.1432 1.42372C89.5319 0.777902 90.4681 0.777901 90.8568 1.42372L93.7315 6.20042C93.8711 6.43243 94.0988 6.5979 94.3626 6.65899L99.7939 7.91688C100.528 8.08695 100.818 8.97742 100.323 9.54662L96.6688 13.7567C96.4913 13.9612 96.4043 14.2289 96.4277 14.4987L96.9098 20.0528C96.9749 20.8037 96.2174 21.354 95.5234 21.06L90.3901 18.8853C90.1408 18.7796 89.8592 18.7796 89.6099 18.8853L84.4766 21.06C83.7826 21.354 83.0251 20.8037 83.0902 20.0528L83.5723 14.4987C83.5957 14.2289 83.5087 13.9612 83.3312 13.7567L79.6766 9.54662C79.1825 8.97742 79.4718 8.08695 80.2061 7.91688L85.6374 6.65899C85.9012 6.5979 86.1289 6.43243 86.2685 6.20042L89.1432 1.42372Z" fill="#E8E8EA"/>
<path d="M115.143 1.42372C115.532 0.777902 116.468 0.777901 116.857 1.42372L119.731 6.20042C119.871 6.43243 120.099 6.5979 120.363 6.65899L125.794 7.91688C126.528 8.08695 126.818 8.97742 126.323 9.54662L122.669 13.7567C122.491 13.9612 122.404 14.2289 122.428 14.4987L122.91 20.0528C122.975 20.8037 122.217 21.354 121.523 21.06L116.39 18.8853C116.141 18.7796 115.859 18.7796 115.61 18.8853L110.477 21.06C109.783 21.354 109.025 20.8037 109.09 20.0528L109.572 14.4987C109.596 14.2289 109.509 13.9612 109.331 13.7567L105.677 9.54662C105.182 8.97742 105.472 8.08695 106.206 7.91688L111.637 6.65899C111.901 6.5979 112.129 6.43243 112.269 6.20042L115.143 1.42372Z" fill="#E8E8EA"/>
</svg>
