<svg width="40" height="40" viewBox="0 0 40 40" fill="none" xmlns="http://www.w3.org/2000/svg">
<circle cx="20" cy="20" r="17" fill="#F27E38"/>
<path d="M19.0919 11.9687C19.4494 11.1938 20.5506 11.1938 20.9081 11.9687L22.5869 15.6084C22.7326 15.9242 23.0319 16.1417 23.3772 16.1826L27.3576 16.6546C28.205 16.755 28.5454 17.8024 27.9189 18.3818L24.976 21.1032C24.7207 21.3394 24.6064 21.6912 24.6742 22.0323L25.4553 25.9637C25.6216 26.8007 24.7307 27.448 23.9861 27.0312L20.4884 25.0734C20.185 24.9035 19.815 24.9035 19.5116 25.0734L16.0139 27.0312C15.2693 27.448 14.3784 26.8007 14.5447 25.9637L15.3258 22.0323C15.3936 21.6912 15.2793 21.3394 15.024 21.1032L12.0811 18.3818C11.4546 17.8024 11.795 16.755 12.6424 16.6546L16.6228 16.1826C16.9681 16.1417 17.2674 15.9242 17.4131 15.6084L19.0919 11.9687Z" fill="white"/>
</svg>
