<svg width="20" height="19" viewBox="0 0 20 19" fill="none" xmlns="http://www.w3.org/2000/svg">
<path d="M9.05544 1.21739C9.36673 0.321828 10.6333 0.321827 10.9446 1.21739L12.5929 5.95943C12.7302 6.3545 13.0989 6.62237 13.5171 6.6309L18.5364 6.73318C19.4843 6.7525 19.8757 7.95704 19.1202 8.52985L15.1196 11.5629C14.7863 11.8156 14.6455 12.249 14.7666 12.6493L16.2204 17.4546C16.4949 18.3621 15.4703 19.1065 14.692 18.565L10.5712 15.6975C10.2279 15.4586 9.77214 15.4586 9.42882 15.6975L5.30799 18.565C4.52975 19.1065 3.5051 18.3621 3.77965 17.4546L5.23342 12.6493C5.35454 12.249 5.21371 11.8156 4.88042 11.5629L0.879825 8.52985C0.124293 7.95704 0.515672 6.7525 1.4636 6.73318L6.48291 6.6309C6.90108 6.62237 7.26978 6.3545 7.4071 5.95943L9.05544 1.21739Z" fill="#F27E38"/>
</svg>
