<svg width="185" height="37" viewBox="0 0 185 37" fill="none" xmlns="http://www.w3.org/2000/svg">
<g clip-path="url(#clip0_1001_4151)">
<path d="M112.592 33.552C112.592 33.912 112.476 34.188 112.244 34.38C112.02 34.564 111.764 34.656 111.476 34.656C111.188 34.656 110.928 34.564 110.696 34.38C110.472 34.188 110.36 33.912 110.36 33.552C110.36 33.192 110.472 32.92 110.696 32.736C110.928 32.544 111.188 32.448 111.476 32.448C111.764 32.448 112.02 32.544 112.244 32.736C112.476 32.92 112.592 33.192 112.592 33.552ZM125.541 26.184L125.157 27.756H122.721L121.101 34.5H119.229L120.849 27.756H118.413L118.797 26.184H125.541ZM133.401 27.6C133.033 27.6 132.689 27.696 132.369 27.888C132.057 28.08 131.781 28.336 131.541 28.656C131.309 28.976 131.125 29.344 130.989 29.76C130.861 30.176 130.797 30.604 130.797 31.044C130.797 31.644 130.921 32.132 131.169 32.508C131.425 32.876 131.837 33.06 132.405 33.06C132.773 33.06 133.113 32.964 133.425 32.772C133.745 32.58 134.021 32.324 134.253 32.004C134.493 31.684 134.677 31.32 134.805 30.912C134.941 30.496 135.009 30.064 135.009 29.616C135.009 29.016 134.881 28.532 134.625 28.164C134.377 27.788 133.969 27.6 133.401 27.6ZM132.213 34.668C131.725 34.668 131.277 34.588 130.869 34.428C130.461 34.268 130.109 34.04 129.813 33.744C129.517 33.44 129.285 33.072 129.117 32.64C128.957 32.208 128.877 31.72 128.877 31.176C128.877 30.552 128.985 29.932 129.201 29.316C129.417 28.7 129.725 28.148 130.125 27.66C130.533 27.164 131.029 26.764 131.613 26.46C132.197 26.148 132.857 25.992 133.593 25.992C134.081 25.992 134.529 26.072 134.937 26.232C135.345 26.392 135.697 26.624 135.993 26.928C136.289 27.224 136.517 27.588 136.677 28.02C136.845 28.452 136.929 28.94 136.929 29.484C136.929 30.108 136.821 30.732 136.605 31.356C136.397 31.972 136.089 32.528 135.681 33.024C135.281 33.512 134.789 33.908 134.205 34.212C133.621 34.516 132.957 34.668 132.213 34.668ZM143.287 33C143.375 33.008 143.463 33.016 143.551 33.024C143.647 33.024 143.775 33.024 143.935 33.024C144.455 33.024 144.923 32.944 145.339 32.784C145.763 32.624 146.119 32.396 146.407 32.1C146.703 31.796 146.931 31.428 147.091 30.996C147.251 30.556 147.331 30.064 147.331 29.52C147.331 29.24 147.295 28.988 147.223 28.764C147.151 28.532 147.031 28.336 146.863 28.176C146.703 28.008 146.491 27.88 146.227 27.792C145.971 27.704 145.659 27.66 145.291 27.66C145.051 27.66 144.807 27.672 144.559 27.696L143.287 33ZM149.251 29.424C149.251 30.232 149.119 30.956 148.855 31.596C148.591 32.236 148.211 32.78 147.715 33.228C147.227 33.668 146.631 34.008 145.927 34.248C145.223 34.488 144.427 34.608 143.539 34.608C143.203 34.608 142.815 34.588 142.375 34.548C141.935 34.508 141.511 34.444 141.103 34.356L143.035 26.328C143.491 26.24 143.927 26.18 144.343 26.148C144.767 26.108 145.147 26.088 145.483 26.088C146.075 26.088 146.603 26.168 147.067 26.328C147.539 26.488 147.935 26.716 148.255 27.012C148.583 27.308 148.831 27.66 148.999 28.068C149.167 28.476 149.251 28.928 149.251 29.424ZM158.92 34.5C158.904 34.188 158.884 33.884 158.86 33.588C158.844 33.284 158.824 32.984 158.8 32.688H155.68C155.52 32.984 155.352 33.284 155.176 33.588C155 33.884 154.832 34.188 154.672 34.5H152.716C153.236 33.604 153.72 32.776 154.168 32.016C154.624 31.256 155.06 30.54 155.476 29.868C155.9 29.196 156.312 28.56 156.712 27.96C157.112 27.352 157.52 26.76 157.936 26.184H159.604C159.732 26.76 159.852 27.4 159.964 28.104C160.084 28.8 160.192 29.516 160.288 30.252C160.392 30.98 160.484 31.712 160.564 32.448C160.652 33.176 160.732 33.86 160.804 34.5H158.92ZM158.368 28.008C158.032 28.544 157.7 29.076 157.372 29.604C157.052 30.132 156.74 30.672 156.436 31.224H158.68C158.64 30.736 158.596 30.216 158.548 29.664C158.508 29.112 158.448 28.56 158.368 28.008ZM168.701 29.604C168.933 29.308 169.153 29.024 169.361 28.752C169.577 28.472 169.785 28.196 169.985 27.924C170.185 27.644 170.381 27.364 170.573 27.084C170.773 26.796 170.977 26.496 171.185 26.184H173.249C172.913 26.656 172.589 27.104 172.277 27.528C171.965 27.952 171.653 28.368 171.341 28.776C171.029 29.176 170.709 29.576 170.381 29.976C170.053 30.376 169.705 30.788 169.337 31.212L168.545 34.5H166.673L167.465 31.212C167.129 30.364 166.825 29.536 166.553 28.728C166.281 27.92 166.025 27.072 165.785 26.184H167.777C167.905 26.76 168.045 27.324 168.197 27.876C168.349 28.428 168.517 29.004 168.701 29.604Z" fill="#2F39C1"/>
<path d="M44.7249 3.65567L38.3784 22.8464H37.9388L33.4468 11.8567L29.0372 22.8189H28.5701L22.1686 3.65567H25.9601L29.2982 14.769L33.2957 3.65567H33.7627L37.8152 14.7278L40.961 3.65567H44.7249ZM46.3399 9.12303H49.4445L49.6093 11.5408C49.9024 10.8356 50.3649 10.2312 50.9968 9.72746C51.6287 9.21461 52.5216 8.95819 53.6755 8.95819C54.1334 8.95819 54.5547 9.03145 54.9393 9.17798L54.17 12.7771C54.0143 12.6214 53.8266 12.5115 53.6068 12.4474C53.3962 12.3741 53.1352 12.3375 52.8238 12.3375C52.1827 12.3375 51.6287 12.4749 51.1616 12.7496C50.7037 13.0152 50.3557 13.3266 50.1176 13.6837C49.8886 14.0409 49.7742 14.334 49.7742 14.5629V22.8052H46.3399V9.12303ZM56.858 3.24356H60.7044V6.89762H56.858V3.24356ZM56.9954 9.12303H60.567V22.8052H56.9954V9.12303ZM69.1739 23.2173C68.1574 23.2173 67.3606 23.0433 66.7837 22.6953C66.2067 22.3473 65.7992 21.8253 65.5611 21.1293C65.3321 20.4241 65.2177 19.4991 65.2177 18.3544V12.0078H63.4318V9.12303H65.355L65.5473 6.23824L68.542 4.94696V9.12303H71.9214V12.0078H68.542V18.2719C68.542 19.0412 68.6473 19.5861 68.858 19.9066C69.0686 20.2272 69.3846 20.3874 69.8058 20.3874C70.1813 20.3874 70.5889 20.2913 71.0284 20.099C71.4772 19.8975 71.8481 19.6731 72.1411 19.4259L72.8005 22.2007C72.3976 22.4846 71.816 22.7228 71.0559 22.9151C70.305 23.1165 69.6776 23.2173 69.1739 23.2173ZM80.6281 23.1623C79.1537 23.1623 77.9356 22.851 76.974 22.2282C76.0124 21.5963 75.3073 20.7538 74.8585 19.7006C74.4189 18.6474 74.1991 17.4569 74.1991 16.1289C74.1991 14.7736 74.4464 13.5418 74.9409 12.4337C75.4446 11.3164 76.1773 10.4326 77.1389 9.78241C78.1005 9.12303 79.2452 8.79334 80.5731 8.79334C82.5513 8.79334 83.9662 9.36572 84.8179 10.5105C85.6696 11.6461 86.0955 13.3449 86.0955 15.6069C86.0955 16.0465 86.0771 16.5411 86.0405 17.0905H77.7983C77.8532 18.1987 78.16 19.0549 78.7186 19.6594C79.2864 20.2547 80.1152 20.5523 81.2051 20.5523C81.7729 20.5523 82.3819 20.4287 83.0321 20.1814C83.6823 19.925 84.1631 19.6182 84.4745 19.261L85.5735 21.8711C84.2822 22.7319 82.6337 23.1623 80.6281 23.1623ZM82.6062 14.9476C82.6062 13.6013 82.4368 12.6764 82.098 12.1727C81.7683 11.6598 81.2875 11.4034 80.6556 11.4034C79.7672 11.4034 79.0758 11.7331 78.5813 12.3925C78.0959 13.0518 77.8257 13.9035 77.7708 14.9476H82.6062ZM105.617 3.32598V22.8052H102.211V14.5904L102.334 11.3484L101.359 12.832L97.5949 17.2554L93.8309 12.832L92.8556 11.3484L93.0067 14.5904V22.8052H89.5999V3.32598H89.8747L97.6224 12.4611L105.315 3.32598H105.617ZM112.897 21.8711L107.76 9.12303H111.579L113.612 15.2223L114.491 18.3818L115.37 15.2223L117.431 9.12303H121.03L114.051 27.9978H110.672L112.897 21.8711ZM133.686 19.7006V22.8052H123.136V3.65567H133.136V6.65036H126.57V11.1286H131.79V14.0409H126.57V19.7006H133.686ZM140.578 23.0524C139.268 23.0524 138.238 22.8922 137.487 22.5716C136.745 22.242 136.219 21.8894 135.907 21.5139L136.924 18.9038C138.096 19.8746 139.342 20.36 140.66 20.36C141.256 20.36 141.695 20.2409 141.979 20.0028C142.272 19.7555 142.419 19.4533 142.419 19.0962C142.419 18.7115 142.167 18.3589 141.663 18.0384C141.169 17.7087 140.432 17.3287 139.452 16.8982C138.82 16.6235 138.27 16.335 137.803 16.0328C137.336 15.7306 136.929 15.323 136.581 14.8102C136.242 14.2882 136.072 13.6563 136.072 12.9145C136.072 12.0902 136.274 11.3713 136.677 10.7577C137.089 10.1442 137.684 9.67252 138.463 9.34283C139.241 9.01314 140.175 8.84829 141.265 8.84829C141.915 8.84829 142.524 8.92156 143.092 9.06808C143.669 9.20545 144.159 9.37946 144.562 9.59009C144.965 9.79157 145.258 9.98389 145.441 10.1671L144.507 12.6397C144.086 12.3192 143.6 12.049 143.051 11.8292C142.51 11.6003 141.952 11.4858 141.375 11.4858C140.688 11.4858 140.203 11.5774 139.919 11.7606C139.644 11.9346 139.507 12.2276 139.507 12.6397C139.507 13.0518 139.708 13.3953 140.111 13.67C140.523 13.9448 141.155 14.2515 142.007 14.5904C143.234 15.0758 144.177 15.6527 144.837 16.3213C145.496 16.9806 145.826 17.7866 145.826 18.739C145.826 19.5357 145.642 20.2592 145.276 20.9095C144.919 21.5505 144.347 22.068 143.559 22.4617C142.781 22.8555 141.787 23.0524 140.578 23.0524ZM152.571 23.0524C151.262 23.0524 150.231 22.8922 149.48 22.5716C148.739 22.242 148.212 21.8894 147.901 21.5139L148.917 18.9038C150.089 19.8746 151.335 20.36 152.654 20.36C153.249 20.36 153.688 20.2409 153.972 20.0028C154.265 19.7555 154.412 19.4533 154.412 19.0962C154.412 18.7115 154.16 18.3589 153.656 18.0384C153.162 17.7087 152.425 17.3287 151.445 16.8982C150.813 16.6235 150.263 16.335 149.796 16.0328C149.329 15.7306 148.922 15.323 148.574 14.8102C148.235 14.2882 148.065 13.6563 148.065 12.9145C148.065 12.0902 148.267 11.3713 148.67 10.7577C149.082 10.1442 149.677 9.67252 150.456 9.34283C151.234 9.01314 152.168 8.84829 153.258 8.84829C153.908 8.84829 154.517 8.92156 155.085 9.06808C155.662 9.20545 156.152 9.37946 156.555 9.59009C156.958 9.79157 157.251 9.98389 157.434 10.1671L156.5 12.6397C156.079 12.3192 155.593 12.049 155.044 11.8292C154.504 11.6003 153.945 11.4858 153.368 11.4858C152.681 11.4858 152.196 11.5774 151.912 11.7606C151.637 11.9346 151.5 12.2276 151.5 12.6397C151.5 13.0518 151.701 13.3953 152.104 13.67C152.516 13.9448 153.148 14.2515 154 14.5904C155.227 15.0758 156.17 15.6527 156.83 16.3213C157.489 16.9806 157.819 17.7866 157.819 18.739C157.819 19.5357 157.636 20.2592 157.269 20.9095C156.912 21.5505 156.34 22.068 155.552 22.4617C154.774 22.8555 153.78 23.0524 152.571 23.0524ZM163.575 23.1898C162.76 23.1898 162.073 23.0067 161.515 22.6403C160.956 22.274 160.535 21.7795 160.251 21.1567C159.976 20.534 159.839 19.838 159.839 19.0687C159.839 18.4001 160.059 17.7362 160.498 17.0768C160.947 16.4083 161.739 15.8405 162.875 15.3734C164.01 14.9063 165.544 14.6728 167.477 14.6728V14.0409C167.477 13.29 167.293 12.7084 166.927 12.2963C166.57 11.8842 165.938 11.6781 165.031 11.6781C164.317 11.6781 163.616 11.8018 162.93 12.049C162.252 12.2871 161.753 12.5848 161.432 12.9419L160.333 10.3044C160.956 9.88315 161.73 9.52599 162.655 9.23293C163.58 8.93987 164.564 8.79334 165.608 8.79334C166.918 8.79334 167.953 8.99482 168.713 9.39777C169.482 9.80073 170.023 10.3685 170.334 11.1012C170.645 11.8338 170.801 12.7405 170.801 13.8211V22.8052H167.861L167.614 20.8545C167.129 21.6421 166.552 22.2282 165.883 22.6129C165.224 22.9975 164.454 23.1898 163.575 23.1898ZM165.031 20.5523C165.453 20.5523 165.897 20.3829 166.364 20.044C166.831 19.7052 167.202 19.2793 167.477 18.7665V16.8158C167.348 16.7975 167.129 16.7883 166.817 16.7883C165.892 16.7883 165.063 16.944 164.331 17.2554C163.607 17.5576 163.246 18.0521 163.246 18.739C163.246 19.3892 163.387 19.8563 163.671 20.1402C163.964 20.4149 164.418 20.5523 165.031 20.5523ZM176.888 21.8711L171.75 9.12303H175.569L177.602 15.2223L178.481 18.3818L179.36 15.2223L181.421 9.12303H185.02L178.041 27.9978H174.662L176.888 21.8711Z" fill="#191825"/>
<g clip-path="url(#clip1_1001_4151)">
<path d="M2.66315 19.8801C2.66579 18.329 2.68429 17.5654 2.72128 17.5019C2.82433 17.3355 3.02251 17.206 3.21804 17.1849C3.31845 17.1743 5.77319 17.1664 8.67184 17.169C14.3846 17.1743 14.1071 17.1611 14.3106 17.4491C14.382 17.5574 14.3925 17.827 14.3952 19.8536L14.3952 22.1366L14.1706 22.3612L13.946 22.5858L8.51595 22.5832L3.08592 22.5858L2.87454 22.3744L2.66315 22.163L2.66315 19.8801Z" fill="#2F39C1"/>
<path d="M2.58652 13.335C2.10825 11.8527 1.70133 10.5685 1.68284 10.4813C1.65906 10.3729 1.67227 10.2699 1.71983 10.1642C1.80174 9.99244 7.9267 1.53165 7.97162 1.52901C7.98747 1.52901 8.00068 4.00489 8.00068 7.02245L8.00068 12.5185L7.88178 12.6374C7.48278 13.0417 7.6149 13.7869 8.1328 14.0299C8.59521 14.2493 9.17917 14.0194 9.35357 13.549C9.47247 13.2293 9.38792 12.8224 9.15275 12.5872C9.06291 12.4974 9.05762 12.2384 9.05762 6.99602C9.05762 2.77355 9.07083 1.51316 9.1184 1.56072C9.24787 1.69019 15.3121 10.0902 15.3623 10.2038C15.3887 10.2725 15.3993 10.3835 15.3887 10.4522C15.3755 10.5236 14.9606 11.8262 14.4639 13.3482L13.5655 16.1121H8.55029C5.79168 16.1121 3.51662 16.0936 3.49813 16.0698C3.47699 16.0487 3.06743 14.8147 2.58652 13.335Z" fill="#2F39C1"/>
</g>
</g>
<defs>
<clipPath id="clip0_1001_4151">
<rect width="185" height="36" fill="white" transform="translate(0 0.5)"/>
</clipPath>
<clipPath id="clip1_1001_4151">
<rect width="19.1326" height="19.17" fill="white" transform="translate(8.52881 28.0288) rotate(-135)"/>
</clipPath>
</defs>
</svg>
