<svg width="190" height="34" viewBox="0 0 190 34" fill="none" xmlns="http://www.w3.org/2000/svg">
<g clip-path="url(#clip0_140_38618)">
<path d="M112.592 32.052C112.592 32.412 112.476 32.688 112.244 32.88C112.02 33.064 111.764 33.156 111.476 33.156C111.188 33.156 110.928 33.064 110.696 32.88C110.472 32.688 110.36 32.412 110.36 32.052C110.36 31.692 110.472 31.42 110.696 31.236C110.928 31.044 111.188 30.948 111.476 30.948C111.764 30.948 112.02 31.044 112.244 31.236C112.476 31.42 112.592 31.692 112.592 32.052ZM125.541 24.684L125.157 26.256H122.721L121.101 33H119.229L120.849 26.256H118.413L118.797 24.684H125.541ZM133.401 26.1C133.033 26.1 132.689 26.196 132.369 26.388C132.057 26.58 131.781 26.836 131.541 27.156C131.309 27.476 131.125 27.844 130.989 28.26C130.861 28.676 130.797 29.104 130.797 29.544C130.797 30.144 130.921 30.632 131.169 31.008C131.425 31.376 131.837 31.56 132.405 31.56C132.773 31.56 133.113 31.464 133.425 31.272C133.745 31.08 134.021 30.824 134.253 30.504C134.493 30.184 134.677 29.82 134.805 29.412C134.941 28.996 135.009 28.564 135.009 28.116C135.009 27.516 134.881 27.032 134.625 26.664C134.377 26.288 133.969 26.1 133.401 26.1ZM132.213 33.168C131.725 33.168 131.277 33.088 130.869 32.928C130.461 32.768 130.109 32.54 129.813 32.244C129.517 31.94 129.285 31.572 129.117 31.14C128.957 30.708 128.877 30.22 128.877 29.676C128.877 29.052 128.985 28.432 129.201 27.816C129.417 27.2 129.725 26.648 130.125 26.16C130.533 25.664 131.029 25.264 131.613 24.96C132.197 24.648 132.857 24.492 133.593 24.492C134.081 24.492 134.529 24.572 134.937 24.732C135.345 24.892 135.697 25.124 135.993 25.428C136.289 25.724 136.517 26.088 136.677 26.52C136.845 26.952 136.929 27.44 136.929 27.984C136.929 28.608 136.821 29.232 136.605 29.856C136.397 30.472 136.089 31.028 135.681 31.524C135.281 32.012 134.789 32.408 134.205 32.712C133.621 33.016 132.957 33.168 132.213 33.168ZM143.287 31.5C143.375 31.508 143.463 31.516 143.551 31.524C143.647 31.524 143.775 31.524 143.935 31.524C144.455 31.524 144.923 31.444 145.339 31.284C145.763 31.124 146.119 30.896 146.407 30.6C146.703 30.296 146.931 29.928 147.091 29.496C147.251 29.056 147.331 28.564 147.331 28.02C147.331 27.74 147.295 27.488 147.223 27.264C147.151 27.032 147.031 26.836 146.863 26.676C146.703 26.508 146.491 26.38 146.227 26.292C145.971 26.204 145.659 26.16 145.291 26.16C145.051 26.16 144.807 26.172 144.559 26.196L143.287 31.5ZM149.251 27.924C149.251 28.732 149.119 29.456 148.855 30.096C148.591 30.736 148.211 31.28 147.715 31.728C147.227 32.168 146.631 32.508 145.927 32.748C145.223 32.988 144.427 33.108 143.539 33.108C143.203 33.108 142.815 33.088 142.375 33.048C141.935 33.008 141.511 32.944 141.103 32.856L143.035 24.828C143.491 24.74 143.927 24.68 144.343 24.648C144.767 24.608 145.147 24.588 145.483 24.588C146.075 24.588 146.603 24.668 147.067 24.828C147.539 24.988 147.935 25.216 148.255 25.512C148.583 25.808 148.831 26.16 148.999 26.568C149.167 26.976 149.251 27.428 149.251 27.924ZM158.92 33C158.904 32.688 158.884 32.384 158.86 32.088C158.844 31.784 158.824 31.484 158.8 31.188H155.68C155.52 31.484 155.352 31.784 155.176 32.088C155 32.384 154.832 32.688 154.672 33H152.716C153.236 32.104 153.72 31.276 154.168 30.516C154.624 29.756 155.06 29.04 155.476 28.368C155.9 27.696 156.312 27.06 156.712 26.46C157.112 25.852 157.52 25.26 157.936 24.684H159.604C159.732 25.26 159.852 25.9 159.964 26.604C160.084 27.3 160.192 28.016 160.288 28.752C160.392 29.48 160.484 30.212 160.564 30.948C160.652 31.676 160.732 32.36 160.804 33H158.92ZM158.368 26.508C158.032 27.044 157.7 27.576 157.372 28.104C157.052 28.632 156.74 29.172 156.436 29.724H158.68C158.64 29.236 158.596 28.716 158.548 28.164C158.508 27.612 158.448 27.06 158.368 26.508ZM168.701 28.104C168.933 27.808 169.153 27.524 169.361 27.252C169.577 26.972 169.785 26.696 169.985 26.424C170.185 26.144 170.381 25.864 170.573 25.584C170.773 25.296 170.977 24.996 171.185 24.684H173.249C172.913 25.156 172.589 25.604 172.277 26.028C171.965 26.452 171.653 26.868 171.341 27.276C171.029 27.676 170.709 28.076 170.381 28.476C170.053 28.876 169.705 29.288 169.337 29.712L168.545 33H166.673L167.465 29.712C167.129 28.864 166.825 28.036 166.553 27.228C166.281 26.42 166.025 25.572 165.785 24.684H167.777C167.905 25.26 168.045 25.824 168.197 26.376C168.349 26.928 168.517 27.504 168.701 28.104Z" fill="#2F39C1"/>
<path d="M44.7249 2.15567L38.3784 21.3464H37.9388L33.4468 10.3567L29.0372 21.3189H28.5701L22.1686 2.15567H25.9601L29.2982 13.269L33.2957 2.15567H33.7627L37.8152 13.2278L40.961 2.15567H44.7249ZM46.3399 7.62303H49.4445L49.6093 10.0408C49.9024 9.33559 50.3649 8.73116 50.9968 8.22746C51.6287 7.71461 52.5216 7.45819 53.6755 7.45819C54.1334 7.45819 54.5547 7.53145 54.9393 7.67798L54.17 11.2771C54.0143 11.1214 53.8266 11.0115 53.6068 10.9474C53.3962 10.8741 53.1352 10.8375 52.8238 10.8375C52.1827 10.8375 51.6287 10.9749 51.1616 11.2496C50.7037 11.5152 50.3557 11.8266 50.1176 12.1837C49.8886 12.5409 49.7742 12.834 49.7742 13.0629V21.3052H46.3399V7.62303ZM56.858 1.74356H60.7044V5.39762H56.858V1.74356ZM56.9954 7.62303H60.567V21.3052H56.9954V7.62303ZM69.1739 21.7173C68.1574 21.7173 67.3606 21.5433 66.7837 21.1953C66.2067 20.8473 65.7992 20.3253 65.5611 19.6293C65.3321 18.9241 65.2177 17.9991 65.2177 16.8544V10.5078H63.4318V7.62303H65.355L65.5473 4.73824L68.542 3.44696V7.62303H71.9214V10.5078H68.542V16.7719C68.542 17.5412 68.6473 18.0861 68.858 18.4066C69.0686 18.7272 69.3846 18.8874 69.8058 18.8874C70.1813 18.8874 70.5889 18.7913 71.0284 18.599C71.4772 18.3975 71.8481 18.1731 72.1411 17.9259L72.8005 20.7007C72.3976 20.9846 71.816 21.2228 71.0559 21.4151C70.305 21.6165 69.6776 21.7173 69.1739 21.7173ZM80.6281 21.6623C79.1537 21.6623 77.9356 21.351 76.974 20.7282C76.0124 20.0963 75.3073 19.2538 74.8585 18.2006C74.4189 17.1474 74.1991 15.9569 74.1991 14.6289C74.1991 13.2736 74.4464 12.0418 74.9409 10.9337C75.4446 9.81639 76.1773 8.93264 77.1389 8.28241C78.1005 7.62303 79.2452 7.29334 80.5731 7.29334C82.5513 7.29334 83.9662 7.86572 84.8179 9.01048C85.6696 10.1461 86.0955 11.8449 86.0955 14.1069C86.0955 14.5465 86.0771 15.0411 86.0405 15.5905H77.7983C77.8532 16.6987 78.16 17.5549 78.7186 18.1594C79.2864 18.7547 80.1152 19.0523 81.2051 19.0523C81.7729 19.0523 82.3819 18.9287 83.0321 18.6814C83.6823 18.425 84.1631 18.1182 84.4745 17.761L85.5735 20.3711C84.2822 21.2319 82.6337 21.6623 80.6281 21.6623ZM82.6062 13.4476C82.6062 12.1013 82.4368 11.1764 82.098 10.6727C81.7683 10.1598 81.2875 9.90339 80.6556 9.90339C79.7672 9.90339 79.0758 10.2331 78.5813 10.8925C78.0959 11.5518 77.8257 12.4035 77.7708 13.4476H82.6062ZM105.617 1.82598V21.3052H102.211V13.0904L102.334 9.84844L101.359 11.332L97.5949 15.7554L93.8309 11.332L92.8556 9.84844L93.0067 13.0904V21.3052H89.5999V1.82598H89.8747L97.6224 10.9611L105.315 1.82598H105.617ZM112.897 20.3711L107.76 7.62303H111.579L113.612 13.7223L114.491 16.8818L115.37 13.7223L117.431 7.62303H121.03L114.051 26.4978H110.672L112.897 20.3711ZM133.686 18.2006V21.3052H123.136V2.15567H133.136V5.15036H126.57V9.62865H131.79V12.5409H126.57V18.2006H133.686ZM140.578 21.5524C139.268 21.5524 138.238 21.3922 137.487 21.0716C136.745 20.742 136.219 20.3894 135.907 20.0139L136.924 17.4038C138.096 18.3746 139.342 18.86 140.66 18.86C141.256 18.86 141.695 18.7409 141.979 18.5028C142.272 18.2555 142.419 17.9533 142.419 17.5962C142.419 17.2115 142.167 16.8589 141.663 16.5384C141.169 16.2087 140.432 15.8287 139.452 15.3982C138.82 15.1235 138.27 14.835 137.803 14.5328C137.336 14.2306 136.929 13.823 136.581 13.3102C136.242 12.7882 136.072 12.1563 136.072 11.4145C136.072 10.5902 136.274 9.87134 136.677 9.25775C137.089 8.64416 137.684 8.17252 138.463 7.84283C139.241 7.51314 140.175 7.34829 141.265 7.34829C141.915 7.34829 142.524 7.42156 143.092 7.56808C143.669 7.70545 144.159 7.87946 144.562 8.09009C144.965 8.29157 145.258 8.48389 145.441 8.66705L144.507 11.1397C144.086 10.8192 143.6 10.549 143.051 10.3292C142.51 10.1003 141.952 9.98581 141.375 9.98581C140.688 9.98581 140.203 10.0774 139.919 10.2606C139.644 10.4346 139.507 10.7276 139.507 11.1397C139.507 11.5518 139.708 11.8953 140.111 12.17C140.523 12.4448 141.155 12.7515 142.007 13.0904C143.234 13.5758 144.177 14.1527 144.837 14.8213C145.496 15.4806 145.826 16.2866 145.826 17.239C145.826 18.0357 145.642 18.7592 145.276 19.4095C144.919 20.0505 144.347 20.568 143.559 20.9617C142.781 21.3555 141.787 21.5524 140.578 21.5524ZM152.571 21.5524C151.262 21.5524 150.231 21.3922 149.48 21.0716C148.739 20.742 148.212 20.3894 147.901 20.0139L148.917 17.4038C150.089 18.3746 151.335 18.86 152.654 18.86C153.249 18.86 153.688 18.7409 153.972 18.5028C154.265 18.2555 154.412 17.9533 154.412 17.5962C154.412 17.2115 154.16 16.8589 153.656 16.5384C153.162 16.2087 152.425 15.8287 151.445 15.3982C150.813 15.1235 150.263 14.835 149.796 14.5328C149.329 14.2306 148.922 13.823 148.574 13.3102C148.235 12.7882 148.065 12.1563 148.065 11.4145C148.065 10.5902 148.267 9.87134 148.67 9.25775C149.082 8.64416 149.677 8.17252 150.456 7.84283C151.234 7.51314 152.168 7.34829 153.258 7.34829C153.908 7.34829 154.517 7.42156 155.085 7.56808C155.662 7.70545 156.152 7.87946 156.555 8.09009C156.958 8.29157 157.251 8.48389 157.434 8.66705L156.5 11.1397C156.079 10.8192 155.593 10.549 155.044 10.3292C154.504 10.1003 153.945 9.98581 153.368 9.98581C152.681 9.98581 152.196 10.0774 151.912 10.2606C151.637 10.4346 151.5 10.7276 151.5 11.1397C151.5 11.5518 151.701 11.8953 152.104 12.17C152.516 12.4448 153.148 12.7515 154 13.0904C155.227 13.5758 156.17 14.1527 156.83 14.8213C157.489 15.4806 157.819 16.2866 157.819 17.239C157.819 18.0357 157.636 18.7592 157.269 19.4095C156.912 20.0505 156.34 20.568 155.552 20.9617C154.774 21.3555 153.78 21.5524 152.571 21.5524ZM163.575 21.6898C162.76 21.6898 162.073 21.5067 161.515 21.1403C160.956 20.774 160.535 20.2795 160.251 19.6567C159.976 19.034 159.839 18.338 159.839 17.5687C159.839 16.9001 160.059 16.2362 160.498 15.5768C160.947 14.9083 161.739 14.3405 162.875 13.8734C164.01 13.4063 165.544 13.1728 167.477 13.1728V12.5409C167.477 11.79 167.293 11.2084 166.927 10.7963C166.57 10.3842 165.938 10.1781 165.031 10.1781C164.317 10.1781 163.616 10.3018 162.93 10.549C162.252 10.7871 161.753 11.0848 161.432 11.4419L160.333 8.80442C160.956 8.38315 161.73 8.02599 162.655 7.73293C163.58 7.43987 164.564 7.29334 165.608 7.29334C166.918 7.29334 167.953 7.49482 168.713 7.89777C169.482 8.30073 170.023 8.86853 170.334 9.60117C170.645 10.3338 170.801 11.2405 170.801 12.3211V21.3052H167.861L167.614 19.3545C167.129 20.1421 166.552 20.7282 165.883 21.1129C165.224 21.4975 164.454 21.6898 163.575 21.6898ZM165.031 19.0523C165.453 19.0523 165.897 18.8829 166.364 18.544C166.831 18.2052 167.202 17.7793 167.477 17.2665V15.3158C167.348 15.2975 167.129 15.2883 166.817 15.2883C165.892 15.2883 165.063 15.444 164.331 15.7554C163.607 16.0576 163.246 16.5521 163.246 17.239C163.246 17.8892 163.387 18.3563 163.671 18.6402C163.964 18.9149 164.418 19.0523 165.031 19.0523ZM176.888 20.3711L171.75 7.62303H175.569L177.602 13.7223L178.481 16.8818L179.36 13.7223L181.421 7.62303H185.02L178.041 26.4978H174.662L176.888 20.3711Z" fill="#191825"/>
<g clip-path="url(#clip1_140_38618)">
<path d="M2.66309 19.3801C2.66573 17.829 2.68423 17.0654 2.72122 17.0019C2.82427 16.8355 3.02245 16.706 3.21798 16.6849C3.31839 16.6743 5.77313 16.6664 8.67178 16.669C14.3845 16.6743 14.1071 16.6611 14.3105 16.9491C14.3819 17.0574 14.3925 17.327 14.3951 19.3536L14.3951 21.6366L14.1705 21.8612L13.9459 22.0858L8.51588 22.0832L3.08586 22.0858L2.87448 21.8744L2.66309 21.663L2.66309 19.3801Z" fill="#2F39C1"/>
<path d="M2.58646 12.835C2.10819 11.3527 1.70127 10.0685 1.68278 9.98128C1.65899 9.87294 1.67221 9.76989 1.71977 9.66419C1.80168 9.49244 7.92664 1.03165 7.97156 1.02901C7.98741 1.02901 8.00062 3.50489 8.00062 6.52245L8.00062 12.0185L7.88172 12.1374C7.48272 12.5417 7.61484 13.2869 8.13274 13.5299C8.59515 13.7493 9.17911 13.5194 9.3535 13.049C9.47241 12.7293 9.38786 12.3224 9.15269 12.0872C9.06285 11.9974 9.05756 11.7384 9.05756 6.49602C9.05756 2.27355 9.07077 1.01316 9.11834 1.06072C9.24781 1.19019 15.312 9.59021 15.3622 9.70383C15.3886 9.77253 15.3992 9.88351 15.3886 9.95221C15.3754 10.0236 14.9606 11.3262 14.4638 12.8482L13.5654 15.6121H8.55023C5.79162 15.6121 3.51656 15.5936 3.49807 15.5698C3.47693 15.5487 3.06737 14.3147 2.58646 12.835Z" fill="#2F39C1"/>
</g>
</g>
<defs>
<clipPath id="clip0_140_38618">
<rect width="190" height="34" fill="white"/>
</clipPath>
<clipPath id="clip1_140_38618">
<rect width="19.1326" height="19.17" fill="white" transform="translate(8.52881 27.5288) rotate(-135)"/>
</clipPath>
</defs>
</svg>
