<svg width="22" height="84" viewBox="0 0 22 84" fill="none" xmlns="http://www.w3.org/2000/svg">
<path d="M11 79L11 4" stroke="#E8E8EA" stroke-width="8" stroke-linecap="round"/>
<path d="M11 79L11 29" stroke="#8C8C92" stroke-width="8" stroke-linecap="round"/>
<circle cx="11" cy="29" r="10" fill="white" stroke="#8C8C92" stroke-width="2"/>
<path d="M11.2446 31.847V31.3665C11.2446 30.981 11.3359 30.6251 11.5186 30.2989C11.7045 29.9727 11.9736 29.7103 12.3258 29.5116C12.6781 29.3129 13.107 29.2135 13.6125 29.2135C14.1311 29.2135 14.5665 29.3114 14.9188 29.5071C15.2743 29.7028 15.5434 29.9638 15.726 30.29C15.9087 30.6163 16 30.9751 16 31.3665V31.847C16 32.2325 15.907 32.5884 15.7211 32.9146C15.5385 33.2408 15.2694 33.5033 14.9139 33.702C14.5584 33.9007 14.1246 34 13.6125 34C13.1005 34 12.6683 33.9007 12.316 33.702C11.9638 33.5033 11.6963 33.2408 11.5137 32.9146C11.3343 32.5884 11.2446 32.2325 11.2446 31.847ZM12.9472 31.3665V31.847C12.9472 32.016 12.9928 32.1836 13.0841 32.3496C13.1787 32.5128 13.3549 32.5943 13.6125 32.5943C13.8832 32.5943 14.061 32.5142 14.1458 32.3541C14.2339 32.194 14.2779 32.0249 14.2779 31.847V31.3665C14.2779 31.1886 14.2371 31.0166 14.1556 30.8505C14.074 30.6845 13.893 30.6014 13.6125 30.6014C13.3549 30.6014 13.1787 30.6845 13.0841 30.8505C12.9928 31.0166 12.9472 31.1886 12.9472 31.3665ZM6 26.6335V26.153C6 25.7616 6.09295 25.4027 6.27886 25.0765C6.46804 24.7503 6.73875 24.4893 7.091 24.2936C7.44325 24.0979 7.86888 24 8.36791 24C8.8865 24 9.32192 24.0979 9.67417 24.2936C10.0297 24.4893 10.2988 24.7503 10.4814 25.0765C10.6641 25.4027 10.7554 25.7616 10.7554 26.153V26.6335C10.7554 27.0249 10.6624 27.3823 10.4765 27.7055C10.2939 28.0288 10.0248 28.2868 9.66928 28.4795C9.31376 28.6723 8.87997 28.7687 8.36791 28.7687C7.85584 28.7687 7.42368 28.6708 7.07143 28.4751C6.71918 28.2794 6.45173 28.0199 6.26908 27.6966C6.08969 27.3734 6 27.019 6 26.6335ZM7.72211 26.153V26.6335C7.72211 26.8114 7.76778 26.9804 7.8591 27.1406C7.95042 27.3007 8.12003 27.3808 8.36791 27.3808C8.63862 27.3808 8.81637 27.3007 8.90117 27.1406C8.98924 26.9804 9.03327 26.8114 9.03327 26.6335V26.153C9.03327 25.9751 8.9925 25.8031 8.91096 25.637C8.82942 25.4709 8.6484 25.3879 8.36791 25.3879C8.11024 25.3879 7.93738 25.4739 7.84932 25.6459C7.76451 25.8149 7.72211 25.984 7.72211 26.153ZM6.8317 33.5552L13.7202 24.4448H15.1096L8.22113 33.5552H6.8317Z" fill="#8C8C92"/>
</svg>
