<svg width="22" height="84" viewBox="0 0 22 84" fill="none" xmlns="http://www.w3.org/2000/svg">
<path d="M11 79L11 4" stroke="#E8E8EA" stroke-width="8" stroke-linecap="round"/>
<path d="M11 79L11 54" stroke="#8C8C92" stroke-width="8" stroke-linecap="round"/>
<circle cx="11" cy="51" r="10" fill="white" stroke="#8C8C92" stroke-width="2"/>
<path d="M11.2446 53.847V53.3665C11.2446 52.981 11.3359 52.6251 11.5186 52.2989C11.7045 51.9727 11.9736 51.7103 12.3258 51.5116C12.6781 51.3129 13.107 51.2135 13.6125 51.2135C14.1311 51.2135 14.5665 51.3114 14.9188 51.5071C15.2743 51.7028 15.5434 51.9638 15.726 52.29C15.9087 52.6163 16 52.9751 16 53.3665V53.847C16 54.2325 15.907 54.5884 15.7211 54.9146C15.5385 55.2408 15.2694 55.5033 14.9139 55.702C14.5584 55.9007 14.1246 56 13.6125 56C13.1005 56 12.6683 55.9007 12.316 55.702C11.9638 55.5033 11.6963 55.2408 11.5137 54.9146C11.3343 54.5884 11.2446 54.2325 11.2446 53.847ZM12.9472 53.3665V53.847C12.9472 54.016 12.9928 54.1836 13.0841 54.3496C13.1787 54.5128 13.3549 54.5943 13.6125 54.5943C13.8832 54.5943 14.061 54.5142 14.1458 54.3541C14.2339 54.194 14.2779 54.0249 14.2779 53.847V53.3665C14.2779 53.1886 14.2371 53.0166 14.1556 52.8505C14.074 52.6845 13.893 52.6014 13.6125 52.6014C13.3549 52.6014 13.1787 52.6845 13.0841 52.8505C12.9928 53.0166 12.9472 53.1886 12.9472 53.3665ZM6 48.6335V48.153C6 47.7616 6.09295 47.4027 6.27886 47.0765C6.46804 46.7503 6.73875 46.4893 7.091 46.2936C7.44325 46.0979 7.86888 46 8.36791 46C8.8865 46 9.32192 46.0979 9.67417 46.2936C10.0297 46.4893 10.2988 46.7503 10.4814 47.0765C10.6641 47.4027 10.7554 47.7616 10.7554 48.153V48.6335C10.7554 49.0249 10.6624 49.3823 10.4765 49.7055C10.2939 50.0288 10.0248 50.2868 9.66928 50.4795C9.31376 50.6723 8.87997 50.7687 8.36791 50.7687C7.85584 50.7687 7.42368 50.6708 7.07143 50.4751C6.71918 50.2794 6.45173 50.0199 6.26908 49.6966C6.08969 49.3734 6 49.019 6 48.6335ZM7.72211 48.153V48.6335C7.72211 48.8114 7.76778 48.9804 7.8591 49.1406C7.95042 49.3007 8.12003 49.3808 8.36791 49.3808C8.63862 49.3808 8.81637 49.3007 8.90117 49.1406C8.98924 48.9804 9.03327 48.8114 9.03327 48.6335V48.153C9.03327 47.9751 8.9925 47.8031 8.91096 47.637C8.82942 47.4709 8.6484 47.3879 8.36791 47.3879C8.11024 47.3879 7.93738 47.4739 7.84932 47.6459C7.76451 47.8149 7.72211 47.984 7.72211 48.153ZM6.8317 55.5552L13.7202 46.4448H15.1096L8.22113 55.5552H6.8317Z" fill="#8C8C92"/>
</svg>
