<svg width="22" height="91" viewBox="0 0 22 91" fill="none" xmlns="http://www.w3.org/2000/svg">
<path d="M11 86L11 11" stroke="#E8E8EA" stroke-width="8" stroke-linecap="round"/>
<path d="M11 86L11 11" stroke="#8C8C92" stroke-width="8" stroke-linecap="round"/>
<circle cx="11" cy="11" r="10" fill="#8C8C92" stroke="#8C8C92" stroke-width="2"/>
<path d="M11.2935 14.4164V13.8399C11.2935 13.3772 11.4031 12.9502 11.6223 12.5587C11.8454 12.1673 12.1683 11.8523 12.591 11.6139C13.0137 11.3754 13.5284 11.2562 14.135 11.2562C14.7573 11.2562 15.2798 11.3737 15.7025 11.6085C16.1292 11.8434 16.4521 12.1566 16.6712 12.548C16.8904 12.9395 17 13.3701 17 13.8399V14.4164C17 14.879 16.8885 15.3061 16.6654 15.6975C16.4462 16.089 16.1233 16.4039 15.6967 16.6423C15.2701 16.8808 14.7495 17 14.135 17C13.5205 17 13.002 16.8808 12.5793 16.6423C12.1566 16.4039 11.8356 16.089 11.6164 15.6975C11.4012 15.3061 11.2935 14.879 11.2935 14.4164ZM13.3366 13.8399V14.4164C13.3366 14.6192 13.3914 14.8203 13.501 15.0196C13.6145 15.2153 13.8258 15.3132 14.135 15.3132C14.4599 15.3132 14.6732 15.2171 14.775 15.0249C14.8806 14.8327 14.9335 14.6299 14.9335 14.4164V13.8399C14.9335 13.6263 14.8845 13.4199 14.7867 13.2206C14.6888 13.0214 14.4716 12.9217 14.135 12.9217C13.8258 12.9217 13.6145 13.0214 13.501 13.2206C13.3914 13.4199 13.3366 13.6263 13.3366 13.8399ZM5 8.16014V7.58363C5 7.11388 5.11155 6.68327 5.33464 6.29181C5.56164 5.90036 5.8865 5.58719 6.3092 5.35231C6.7319 5.11744 7.24266 5 7.84149 5C8.4638 5 8.9863 5.11744 9.409 5.35231C9.83562 5.58719 10.1585 5.90036 10.3777 6.29181C10.5969 6.68327 10.7065 7.11388 10.7065 7.58363V8.16014C10.7065 8.62989 10.5949 9.05872 10.3718 9.44662C10.1526 9.83452 9.82975 10.1441 9.40313 10.3754C8.97652 10.6068 8.45597 10.7224 7.84149 10.7224C7.22701 10.7224 6.70841 10.605 6.28571 10.3701C5.86301 10.1352 5.54207 9.82384 5.3229 9.43594C5.10763 9.04804 5 8.62278 5 8.16014ZM7.06654 7.58363V8.16014C7.06654 8.37367 7.12133 8.57651 7.23092 8.76868C7.34051 8.96085 7.54403 9.05694 7.84149 9.05694C8.16634 9.05694 8.37965 8.96085 8.48141 8.76868C8.58708 8.57651 8.63992 8.37367 8.63992 8.16014V7.58363C8.63992 7.37011 8.591 7.1637 8.49315 6.96441C8.3953 6.76512 8.17808 6.66548 7.84149 6.66548C7.53229 6.66548 7.32485 6.76868 7.21918 6.97509C7.11742 7.17794 7.06654 7.38078 7.06654 7.58363ZM5.99804 16.4662L14.2642 5.53381H15.9315L7.66536 16.4662H5.99804Z" fill="white"/>
</svg>