<svg width="140" height="135" viewBox="0 0 140 135" fill="none" xmlns="http://www.w3.org/2000/svg">
<mask id="mask0_819_562923" style="mask-type:alpha" maskUnits="userSpaceOnUse" x="0" y="0" width="140" height="135">
<rect width="140" height="135" fill="#D9D9D9"/>
</mask>
<g mask="url(#mask0_819_562923)">
<path d="M43.8059 29.0093C43.3827 24.6933 42.353 20.448 42.1406 16.116C41.9283 11.7839 42.6407 7.18506 45.2891 3.8189C47.9374 0.45354 52.8989 -1.19539 56.5264 0.990322L57.5437 4.60238C57.6379 21.3858 59.2821 38.2985 59.3762 55.0819C59.3886 57.2869 57.8401 59.426 57.046 61.4727C56.2518 63.5186 54.4575 65.3122 52.3249 65.3733C49.5342 65.4528 47.4614 62.7134 46.3624 60.0609C42.3786 50.4477 44.8255 39.4131 43.8059 29.0093Z" fill="#263238"/>
<path d="M51.9243 5.6823C52.44 4.5589 52.9712 3.41702 53.7933 2.50899C54.6154 1.60095 55.7899 0.946845 56.9869 1.06979C57.5508 1.12765 58.1427 1.40087 58.376 1.93444C58.6101 2.46721 58.2749 3.23944 57.7087 3.24345L57.5982 3.36078C56.4448 4.62078 55.2672 5.85667 54.0663 7.06845C53.7646 7.37301 53.4503 7.68399 53.0583 7.84872C52.6663 8.01346 52.1748 7.99899 51.8676 7.69925C51.3597 7.20265 51.6257 6.33399 51.9243 5.6823Z" fill="#FF8E49"/>
<path d="M49.933 10.1414C53.6461 4.49474 58.9817 0.949384 65.5523 0.230991C69.2592 -0.174009 70.8646 0.481704 73.6023 0.980722C76.3401 1.47974 78.8803 2.73894 80.677 4.93108C82.8112 7.53465 84.6709 10.499 85.3203 13.8443C85.9877 17.2804 86.0242 20.6996 85.6268 23.5555C85.1446 27.0245 83.3354 32.4261 81.5956 35.4347L75.959 36.6746C71.2394 37.2772 66.453 37.8799 61.7443 37.1889C57.0357 36.4978 52.3332 34.3466 49.5021 30.3979C45.5697 24.9111 46.2191 15.7873 49.933 10.1414Z" fill="#263238"/>
<path d="M57.5494 9.38055L68.5728 3.63501L71.5891 3.71858C78.3091 3.12475 83.6026 10.3521 84.1315 15.9698C84.7195 22.2104 85.1986 29.8531 84.6355 34.5452C83.5031 43.9791 75.9228 45.4537 75.9228 45.4537C75.9228 45.4537 76.5046 50.3715 76.8305 53.4749L59.2208 53.7811L54.8015 12.8295C54.7128 11.1163 55.9067 9.6184 57.5494 9.38055Z" fill="#FFBF9D"/>
<path d="M71.0093 33.6156C71.0295 33.1222 71.2543 32.6666 71.5638 32.3395C72.1822 31.6854 73.1559 31.5375 73.9166 31.9827C74.6773 32.4279 75.1782 33.4372 75.1268 34.4232C74.7745 35.0315 74.1919 35.4734 73.516 35.5972C73.411 35.6165 73.3053 35.6301 73.1979 35.6374C72.6807 35.6711 72.1394 35.5393 71.7108 35.1825C71.283 34.825 70.9844 34.2247 71.0093 33.6156Z" fill="#FF9A6C"/>
<path d="M82.3696 23.8205C82.4124 24.4553 81.9271 25.0162 81.2862 25.074C80.6468 25.1327 80.0923 24.6666 80.0495 24.0318C80.0067 23.397 80.492 22.8361 81.1314 22.7774C81.7723 22.7188 82.3268 23.1857 82.3696 23.8205Z" fill="#263238"/>
<path d="M82.3326 19.2789C82.1933 19.4412 81.2888 18.7975 80.035 18.8449C78.7828 18.8739 77.8844 19.5722 77.7437 19.4187C77.6744 19.3512 77.8129 19.0627 78.2026 18.7469C78.5868 18.4335 79.2502 18.1177 80.0311 18.0936C80.812 18.0711 81.4786 18.3443 81.8659 18.6352C82.2618 18.9269 82.4018 19.2065 82.3326 19.2789Z" fill="#263238"/>
<path d="M75.2222 30.125C75.2136 30.0519 75.9883 29.8856 77.2452 29.6742C77.5641 29.6284 77.8651 29.5521 77.9117 29.3247C77.9794 29.0828 77.834 28.7316 77.666 28.3523C77.3385 27.5624 76.9963 26.7348 76.6362 25.8677C75.2043 22.3296 74.1551 19.415 74.2935 19.3564C74.432 19.2977 75.706 22.119 77.1386 25.6572C77.484 26.5298 77.8145 27.3623 78.1287 28.1579C78.2625 28.5299 78.4842 28.9486 78.3372 29.45C78.2594 29.7007 78.03 29.888 77.827 29.9523C77.624 30.0238 77.4443 30.0342 77.2864 30.0495C76.0171 30.1644 75.2292 30.1982 75.2222 30.125Z" fill="#263238"/>
<path d="M75.9335 45.4417C75.9335 45.4417 69.8373 46.0637 63.6602 42.5183C63.6602 42.5183 67.115 48.9083 76.1762 47.7102L75.9335 45.4417Z" fill="#FF9A6C"/>
<path d="M71.5767 31.1499C71.7797 31.1306 71.8287 32.536 73.0265 33.4923C74.2212 34.4525 75.6671 34.2436 75.6842 34.4397C75.706 34.5273 75.37 34.7241 74.7586 34.7627C74.159 34.8053 73.2754 34.6365 72.5427 34.0515C71.8116 33.4649 71.4795 32.659 71.4142 32.0844C71.3426 31.4986 71.4826 31.145 71.5767 31.1499Z" fill="#263238"/>
<path d="M81.5699 14.806C81.37 15.1299 80.4025 14.9523 79.2848 15.0881C78.1625 15.1869 77.2478 15.5614 76.9919 15.2857C76.8776 15.1507 76.9896 14.8382 77.3683 14.5063C77.7409 14.176 78.3935 13.8594 79.1635 13.7782C79.9335 13.6987 80.6311 13.8731 81.0574 14.1198C81.489 14.3665 81.6562 14.6493 81.5699 14.806Z" fill="#263238"/>
<path d="M68.696 24.5236C68.7185 25.16 69.2575 25.6647 69.9008 25.6526C70.5424 25.6406 71.0464 25.1174 71.0239 24.4818C71.0013 23.8462 70.4615 23.3407 69.8199 23.352C69.1774 23.3632 68.6742 23.888 68.696 24.5236Z" fill="#263238"/>
<path d="M65.4602 20.3346C65.615 20.4809 66.4496 19.7424 67.7002 19.6524C68.9486 19.5447 69.913 20.1417 70.0375 19.9738C70.0997 19.8991 69.9325 19.6275 69.5125 19.3559C69.0979 19.0859 68.4065 18.844 67.6279 18.905C66.8486 18.9669 66.2139 19.3125 65.8585 19.6435C65.4952 19.977 65.384 20.2695 65.4602 20.3346Z" fill="#263238"/>
<path d="M65.8301 16.1375C66.0969 16.4123 67.0411 16.037 68.2 15.9366C69.3566 15.7992 70.3568 15.9752 70.5621 15.6513C70.6508 15.4946 70.4758 15.2126 70.027 14.9659C69.5845 14.7208 68.8619 14.5464 68.0655 14.6276C67.2698 14.7103 66.597 15.0269 66.2143 15.3572C65.8247 15.6899 65.7111 16.0025 65.8301 16.1375Z" fill="#263238"/>
<path d="M57.696 28.3765C57.6711 27.6782 56.835 26.0582 56.1638 25.9739C54.371 25.7497 51.1603 26.0108 51.2848 30.6916C51.4551 37.0905 57.6384 35.5942 57.6447 35.4102C57.6493 35.2664 57.7815 30.7897 57.696 28.3765Z" fill="#FFBF9D"/>
<path d="M55.8821 33.1218C55.8541 33.1018 55.7763 33.203 55.5967 33.2946C55.4209 33.3838 55.1168 33.4505 54.7901 33.3348C54.129 33.105 53.5495 32.0475 53.4889 30.8951C53.4578 30.3134 53.5604 29.7557 53.7479 29.2904C53.9244 28.8171 54.2091 28.482 54.5373 28.4121C54.8632 28.3245 55.1012 28.5214 55.1821 28.699C55.27 28.8758 55.2342 29.0051 55.2669 29.0148C55.2848 29.0309 55.3975 28.9039 55.34 28.6411C55.3112 28.5142 55.2342 28.3655 55.0849 28.2466C54.9332 28.126 54.7131 28.0682 54.4837 28.1003C54.0069 28.1485 53.5892 28.6146 53.3831 29.1249C53.1513 29.6384 53.0214 30.266 53.0564 30.9193C53.1303 32.2074 53.8015 33.3959 54.7038 33.6377C55.1424 33.7422 55.5025 33.5968 55.6861 33.4401C55.8751 33.2769 55.9039 33.1323 55.8821 33.1218Z" fill="#FF9A6C"/>
<path d="M55.9279 26.0149L57.6375 27.5481C63.8193 20.2421 75.5839 2.29108 74.9321 3.35582C74.9321 3.35582 70.1325 1.81457 65.1835 3.16216C60.2345 4.50975 50.9268 7.986 51.6011 14.0964C52.2763 20.2067 55.9279 26.0149 55.9279 26.0149Z" fill="#263238"/>
<path d="M46.8543 25.4341C46.8434 25.4317 46.8652 25.3023 46.9165 25.0573C46.9702 24.813 47.0721 24.4562 47.2502 24.015C47.6064 23.1375 48.3274 21.9281 49.5664 20.7855C50.7829 19.6171 52.5212 18.5941 54.5271 17.7327C56.5275 16.8496 58.8041 16.0974 60.9966 14.876C63.2079 13.6907 65.1453 12.2475 66.7786 10.7939C68.405 9.32734 69.7241 7.84074 70.7391 6.51886C71.7541 5.19538 72.4759 4.04707 72.9604 3.2443C73.1813 2.86341 73.361 2.55403 73.5025 2.30975C73.6285 2.0968 73.6993 1.98752 73.7086 1.99234C73.7187 1.99797 73.6666 2.1177 73.5585 2.34109C73.4481 2.56287 73.2933 2.89556 73.0662 3.30859C72.6127 4.13386 71.9159 5.30948 70.9156 6.66028C69.9154 8.01028 68.6025 9.52663 66.9707 11.0205C65.3327 12.5006 63.379 13.9672 61.1436 15.1653C58.9223 16.402 56.6286 17.1493 54.6391 18.0107C52.6402 18.8521 50.9275 19.834 49.7142 20.959C48.4806 22.0583 47.7472 23.2211 47.3622 24.0681C46.9811 24.9223 46.8877 25.4438 46.8543 25.4341Z" fill="#455A64"/>
<path d="M48.7364 26.2715C48.7364 26.2715 48.629 25.7564 48.8554 24.8588C49.0685 23.9693 49.6961 22.7294 50.9118 21.6494C52.1127 20.5388 53.8954 19.7561 55.8725 19.094C57.8589 18.4455 60.0071 17.6524 62.0791 16.4117C64.1488 15.1798 65.9781 13.7495 67.4606 12.2556C68.9531 10.7698 70.1299 9.26231 71.0228 7.93159C71.9289 6.6065 72.5115 5.4357 72.933 4.64016C73.1135 4.25847 73.2613 3.94749 73.3787 3.70079C73.4837 3.48704 73.5436 3.37695 73.5537 3.38097C73.5638 3.38498 73.5234 3.50391 73.437 3.7273C73.3336 3.98204 73.2037 4.30266 73.0443 4.69561C72.6554 5.51204 72.0985 6.70856 71.2087 8.06097C70.3321 9.41981 69.1616 10.9578 67.6644 12.4718C66.1773 13.9945 64.3316 15.449 62.237 16.6961C60.144 17.9505 57.9476 18.7509 55.9643 19.3809C53.9887 20.0245 52.241 20.7703 51.058 21.8253C49.8571 22.8547 49.2186 24.0376 48.9751 24.8934C48.7161 25.7564 48.7784 26.2747 48.7364 26.2715Z" fill="#455A64"/>
<path d="M57.0622 36.7718C57.0645 36.7284 56.5302 36.7067 55.5976 36.5443C54.6689 36.3668 53.3358 35.9119 51.9786 34.8713C50.6089 33.8492 49.3248 32.1801 48.3402 30.1045C47.3594 28.0265 46.6625 25.5426 46.3708 22.8852C46.23 21.5569 46.2168 20.2511 46.3358 18.9984C46.4704 17.7472 46.7255 16.5595 47.0599 15.4554C47.7576 13.2536 48.7796 11.4215 49.8086 10.0273C51.8783 7.22524 53.6983 6.00541 53.622 5.92265C53.6135 5.91059 53.5023 5.98532 53.2969 6.1372C53.0955 6.2947 52.7828 6.50765 52.4188 6.83229C51.6753 7.45988 50.6502 8.44667 49.5799 9.84568C48.5066 11.2383 47.4364 13.0897 46.7037 15.3341C46.3522 16.4591 46.0823 17.6741 45.9399 18.955C45.8132 20.2367 45.8233 21.5778 45.9672 22.9326C46.2643 25.6367 46.9837 28.1623 48.0049 30.2773C49.0293 32.3891 50.3748 34.0886 51.8106 35.1124C53.2324 36.1554 54.6207 36.5765 55.5735 36.7067C56.0479 36.7967 56.429 36.7653 56.6803 36.7854C56.9299 36.7902 57.0622 36.7862 57.0622 36.7718Z" fill="#455A64"/>
<path d="M48.5703 56.7871L60.5201 50.2356L76.3938 50.831L86.0786 54.3451L71.2814 64.0337L63.2104 65.6023L48.5703 57.2837" fill="#FFBF9D"/>
<path d="M47.4454 117.953C47.4454 117.953 39.0392 137.526 38.3711 146.876C37.703 156.227 43.7953 172.664 46.9678 193.058C49.526 209.503 50.4881 239.616 52.2692 249.422C54.0511 259.229 60.5315 284.51 60.5315 284.51L74.7641 285.418C74.7641 285.418 74.8053 218.229 74.8053 210.246C74.8053 202.264 74.4848 163.211 74.4848 163.211L94.4294 226.525L103.823 287.036L120.358 286.265C120.358 286.265 118.091 234.832 117.245 225.242C115.992 211.058 110.289 158.974 107.617 149.851C104.944 140.729 94.5282 117.871 94.5282 117.871L47.4454 117.953Z" fill="#263238"/>
<path d="M36.4766 66.332C36.4766 66.332 41.3104 60.2707 44.4962 58.228C47.682 56.1853 53.7246 53.4942 53.7246 53.4942C53.7246 53.4942 62.0732 60.6114 69.2132 58.3413C76.354 56.0712 80.0391 51.437 80.0391 51.437L96.0178 53.3471C96.0178 53.3471 98.6544 91.029 97.5554 95.6824C96.4572 100.336 96.1982 120.284 96.1982 120.284L45.9795 119.273L47.5008 78.5776L36.4766 66.332Z" fill="#FF8E49"/>
<path d="M53.7617 72.3805L54.8304 126.601H91.6193L91.5858 72.28L53.7617 72.3805Z" fill="#E0E0E0"/>
<path d="M90.822 92.9399C90.8165 92.968 90.4168 92.8876 89.6965 92.7181C89.3131 92.6249 88.8775 92.518 88.3852 92.3983C87.868 92.2922 87.3033 92.0881 86.6819 91.8518C84.172 91.0226 80.7809 89.3744 77.7351 86.5941C77.3586 86.2437 76.9869 85.8982 76.6198 85.5575C76.2643 85.2047 75.9446 84.8254 75.6141 84.4694C74.9366 83.7719 74.4023 82.9917 73.8446 82.2926C72.8242 80.8204 71.9772 79.4383 71.4086 78.2C70.8105 76.9785 70.4279 75.9411 70.2015 75.2139C69.9666 74.4891 69.899 74.068 69.9223 74.0624C69.9534 74.0543 70.0716 74.4561 70.3493 75.1584C70.6192 75.8632 71.0392 76.8733 71.663 78.0642C72.2572 79.2719 73.1198 80.6203 74.1425 82.0603C74.7002 82.7434 75.233 83.5076 75.905 84.1906C76.2324 84.5393 76.549 84.9122 76.8998 85.2585C77.2614 85.5936 77.6285 85.9343 77.9995 86.2783C80.9979 89.016 84.3143 90.681 86.7775 91.5738C87.3865 91.8253 87.9403 92.0479 88.4482 92.1741C88.9304 92.3195 89.3582 92.4473 89.7339 92.5606C90.4393 92.7776 90.8282 92.9118 90.822 92.9399Z" fill="#263238"/>
<path d="M50.9219 85.6642L51.7837 123.996H82.0563L80.7885 85.2463L50.9219 85.6642Z" fill="#455A64"/>
<path d="M54.0557 123.853C54.0417 123.853 54.0277 123.724 54.0129 123.479C54.0012 123.184 53.9864 122.829 53.9693 122.404C53.939 121.404 53.8993 120.07 53.8503 118.453C53.722 115.055 53.5485 110.478 53.3572 105.422C53.1511 100.33 53.0095 95.7176 52.9823 92.3771C52.9668 90.7073 52.9699 89.3557 52.9924 88.4211C53.0057 87.9953 53.0158 87.6409 53.0251 87.346C53.0368 87.1001 53.05 86.9707 53.064 86.9707C53.078 86.9707 53.092 87.1001 53.1068 87.3452C53.1184 87.6401 53.1332 87.9944 53.1503 88.4195C53.1807 89.42 53.2203 90.7531 53.2693 92.3699C53.3977 95.7682 53.5711 100.345 53.7624 105.403C53.9685 110.492 54.1101 115.105 54.1373 118.445C54.1529 120.115 54.1498 121.467 54.1272 122.401C54.114 122.827 54.1031 123.181 54.0945 123.477C54.0829 123.724 54.0697 123.853 54.0557 123.853Z" fill="#263238"/>
<path d="M73.691 91.8677H58.7227V97.0523H73.691V91.8677Z" fill="white"/>
<path d="M105.776 66.6068C106.093 66.5337 112.06 99.8281 112.06 105.269C112.06 110.71 111.409 117.314 105.126 118.882C98.842 120.449 58.7266 116.815 58.7266 116.815L72.1899 107.799L80.1512 107.096L99.2846 104.12L95.7006 76.6812C95.7006 76.6812 101.875 67.502 105.776 66.6068Z" fill="#FFBF9D"/>
<path d="M104.296 108.797C104.228 108.806 104.157 108.359 103.878 107.714C103.603 107.068 103.067 106.245 102.251 105.578C101.431 104.916 100.53 104.571 99.8592 104.447C99.1864 104.318 98.7493 104.352 98.7423 104.282C98.7338 104.239 99.1701 104.095 99.8981 104.154C100.621 104.207 101.619 104.535 102.502 105.249C103.381 105.967 103.925 106.892 104.145 107.605C104.372 108.323 104.339 108.795 104.296 108.797Z" fill="#FF9A6C"/>
<path d="M92.75 52.9573C92.75 52.9573 98.4044 52.864 102.305 56.4327C106.206 60.0022 107.614 69.0311 107.614 69.0311L95.263 78.2473L92.75 52.9573Z" fill="#FF8E49"/>
<path d="M31.8828 76.5687L48.164 81.9366L44.4953 58.228C44.4953 58.228 33.6165 62.4653 31.8828 76.5687Z" fill="#FF8E49"/>
<path d="M43.7954 68.6729C43.8506 68.6568 44.1011 69.3985 44.4853 70.6022C44.9169 71.9458 45.4287 73.5385 45.9942 75.2991C46.5853 77.0509 47.1196 78.6363 47.5707 79.9735C47.9767 81.1692 48.2163 81.9157 48.1626 81.9374C48.1121 81.9583 47.7792 81.2512 47.3032 80.0796C46.8279 78.908 46.2158 77.2703 45.6107 75.4341C45.0072 73.5988 44.5249 71.9145 44.2107 70.6866C43.8965 69.4588 43.7425 68.6881 43.7954 68.6729Z" fill="#263238"/>
<path d="M84.4565 94.6925L48.6966 101.455L48.0371 81.6064L33.2499 76.928C32.2948 86.0557 34.1312 114.841 37.8326 116.815C41.5333 118.788 52.2783 118.788 58.7245 116.815C65.1707 114.841 83.8102 105.238 83.8102 105.238L84.4565 94.6925Z" fill="#FFBF9D"/>
<path d="M80.1484 96.2958L84.4565 94.6927C84.4565 94.6927 86.2571 91.7299 87.7909 90.1452C89.3247 88.5606 98.4814 84.6721 98.4814 84.6721C98.4814 84.6721 100.762 84.9558 99.043 87.1632C97.3241 89.3706 95.928 90.2577 95.928 90.2577C95.928 90.2577 98.3959 90.49 98.8626 91.1786C99.3292 91.8673 98.9955 94.2796 98.7957 95.0374C98.7957 95.0374 99.596 96.9668 98.7957 99.1027L98.7288 99.723C98.7288 99.723 98.9955 101.239 97.328 102.824C97.328 102.824 97.9899 104.233 96.2585 104.838C94.5272 105.442 83.6562 105.236 83.6562 105.236L80.1484 96.2958Z" fill="#FFBF9D"/>
<path d="M83.6562 105.235C83.6562 105.224 83.7527 105.216 83.9386 105.209C84.1571 105.204 84.427 105.198 84.7584 105.191C85.5198 105.182 86.5597 105.171 87.8578 105.157C89.1894 105.137 90.804 105.116 92.6458 105.038C93.5644 104.993 94.5475 104.948 95.5547 104.806C96.0501 104.741 96.551 104.597 96.9166 104.26C97.2884 103.942 97.363 103.367 97.1662 102.904L97.1118 102.776L97.2067 102.686C97.5956 102.315 97.9409 101.876 98.1937 101.376C98.4402 100.885 98.5981 100.287 98.5414 99.7574L98.5375 99.7205L98.5398 99.7004C98.56 99.5083 98.5826 99.2946 98.6051 99.08L98.6075 99.0543L98.6168 99.0294C99.0586 97.8425 99.0734 96.3921 98.6129 95.1176L98.588 95.0485L98.6036 94.9818C98.7646 94.3028 98.8579 93.5563 98.8906 92.8194C98.9022 92.4514 98.903 92.0729 98.84 91.7241C98.8089 91.5506 98.7576 91.3874 98.6798 91.2798C98.6082 91.1761 98.448 91.0869 98.2979 91.0106C97.5645 90.6875 96.7112 90.559 95.9101 90.4641L95.3672 90.3998L95.8222 90.0792C96.8878 89.3287 97.8149 88.3515 98.6246 87.3664C99.029 86.8746 99.4202 86.3595 99.4879 85.8147C99.5548 85.2763 98.98 84.9436 98.4597 84.864L98.5538 84.8512C96.1878 85.8605 94.0116 86.8424 92.0975 87.7746C91.1424 88.2439 90.2502 88.6987 89.4452 89.1583C88.6356 89.6276 87.934 90.072 87.4456 90.6988C86.4166 91.876 85.7119 92.9166 85.2196 93.6141C84.9932 93.942 84.8089 94.2088 84.6627 94.4209C84.5359 94.6041 84.4667 94.6965 84.4574 94.6909C84.448 94.6853 84.4994 94.58 84.6098 94.3856C84.7202 94.1911 84.8898 93.9066 85.1185 93.5426C85.582 92.8194 86.2556 91.7563 87.2745 90.5397C87.7505 89.8968 88.5158 89.3801 89.3091 88.9092C90.1165 88.4319 91.0063 87.9626 91.9606 87.4789C93.8724 86.5194 96.0424 85.5173 98.4107 84.4904L98.4597 84.4695L98.5056 84.4775C98.8354 84.5338 99.1434 84.6326 99.428 84.852C99.7135 85.0585 99.918 85.4643 99.8745 85.8436C99.7819 86.5861 99.3254 87.1253 98.9279 87.6275C98.0965 88.6408 97.1802 89.6244 96.0354 90.4336L95.9482 90.0487C96.7898 90.1507 97.6314 90.2648 98.4698 90.6305C98.6518 90.7277 98.8416 90.8153 99.001 91.0226C99.1465 91.2259 99.2009 91.4445 99.239 91.6462C99.3114 92.0552 99.3075 92.4473 99.295 92.8355C99.2577 93.6117 99.1659 94.3526 98.9901 95.0903L98.9808 94.9545C99.4864 96.3664 99.4552 97.8819 98.9769 99.1732L98.9886 99.1234C98.9652 99.338 98.9411 99.5517 98.9201 99.743L98.9178 99.6859C99.0236 101.071 98.259 102.185 97.4517 102.959L97.4921 102.74C97.7589 103.341 97.6352 104.112 97.1515 104.524C96.6965 104.936 96.1232 105.079 95.6045 105.145C94.5638 105.281 93.583 105.313 92.6575 105.346C90.8087 105.398 89.1925 105.39 87.8594 105.378C86.5262 105.362 85.4755 105.335 84.7584 105.308C84.4278 105.292 84.1579 105.279 83.9386 105.268C83.7519 105.257 83.6562 105.245 83.6562 105.235Z" fill="#FF9A6C"/>
<path d="M45.0789 108.753C45.0338 108.76 44.9132 108.284 44.9366 107.496C44.9568 106.711 45.1699 105.617 45.7066 104.541C46.2479 103.467 46.9899 102.656 47.5981 102.185C48.2079 101.71 48.6528 101.537 48.6738 101.579C48.7539 101.682 47.084 102.653 46.0659 104.733C45.0097 106.792 45.2064 108.761 45.0789 108.753Z" fill="#FF9A6C"/>
<path d="M83.6093 105.314C83.6226 105.34 83.2134 105.592 82.4629 106.027C81.7131 106.465 80.6133 107.068 79.2406 107.788C76.4966 109.23 72.638 111.091 68.2708 112.886C63.9004 114.677 59.8576 116.059 56.9036 116.956C55.4266 117.405 54.2257 117.746 53.3896 117.959C52.5542 118.175 52.0899 118.281 52.0821 118.253C52.0751 118.225 52.5254 118.066 53.3468 117.802C54.2311 117.515 55.4017 117.134 56.8188 116.673C59.7456 115.705 63.762 114.284 68.1207 112.497C72.4754 110.708 76.3418 108.894 79.113 107.523C80.45 106.854 81.5544 106.301 82.389 105.883C83.1621 105.492 83.5961 105.288 83.6093 105.314Z" fill="#FF9A6C"/>
</g>
</svg>
