<svg width="141" height="135" viewBox="0 0 141 135" fill="none" xmlns="http://www.w3.org/2000/svg">
<mask id="mask0_819_563461" style="mask-type:alpha" maskUnits="userSpaceOnUse" x="0" y="0" width="141" height="135">
<rect x="0.664062" width="140" height="135" fill="#D9D9D9"/>
</mask>
<g mask="url(#mask0_819_563461)">
<path d="M61.9441 39.9644C62.9451 39.3617 64.2074 39.3826 65.2201 38.8016C66.2312 38.2214 66.8659 37.0981 67.1326 35.9353C67.3994 34.7725 67.3419 33.5591 67.2602 32.3674L74.4741 46.3448C73.4879 47.5453 72.4425 48.7442 71.1001 49.4883C69.7569 50.2324 68.0442 50.4478 66.729 49.6515C65.4145 48.8551 64.7799 46.8751 65.6774 45.6031C64.1981 46.5738 62.0024 46.1792 60.9952 44.6966C59.988 43.2148 60.4298 40.8756 61.9441 39.9644Z" fill="#263238"/>
<path d="M95.4491 9.56104C97.4176 11.7146 97.4876 13.4985 97.4137 14.4339C97.392 14.7079 97.2869 15.0422 97.0233 15.0784C96.8949 15.096 96.7713 15.0326 96.6562 14.9715C94.2591 13.689 91.862 12.4073 89.4648 11.1248" fill="#263238"/>
<path d="M68.8919 36.2515C67.7455 32.748 66.613 29.2179 66.067 25.5632C65.521 21.9078 65.5856 18.0908 66.7935 14.6089C66.9762 14.081 68.5481 10.5364 69.0887 10.5855C69.4753 10.62 68.5194 13.9211 68.7185 14.265C70.6186 17.5468 71.17 21.5148 70.9157 25.3302C70.6614 29.1439 69.9326 32.5816 68.8919 36.2515Z" fill="#263238"/>
<path d="M69.0771 56.2454L68.3973 22.1483C68.0014 12.8823 72.8898 4.9205 81.8661 4.76782L82.6968 4.80318C91.0524 5.16479 97.7421 12.0924 98.0649 20.7268C98.3651 28.7601 98.5976 37.6403 98.3721 41.933C97.9054 50.8205 89.241 51.8306 89.241 51.8306C89.2215 51.8306 89.2106 60.8828 89.2138 63.4944L76.2404 62.7407L73.1394 62.4401L69.0771 56.2454Z" fill="#FFBF9D"/>
<path d="M89.2123 51.8296C89.2123 51.8296 83.7741 51.9237 78.1445 47.9219C78.1445 47.9219 80.5697 54.7241 89.1898 54.2942L89.2123 51.8296Z" fill="#FF9A6C"/>
<path d="M95.1648 29.1218C95.161 29.7936 94.6072 30.3432 93.9274 30.352C93.2499 30.3601 92.7024 29.8241 92.7071 29.1523C92.7109 28.4805 93.2647 27.9301 93.943 27.9212C94.6212 27.9132 95.1687 28.4508 95.1648 29.1218Z" fill="#263238"/>
<path d="M96.089 24.573C95.9303 24.7321 95.0273 23.9799 93.7051 23.9261C92.3844 23.853 91.3858 24.5143 91.2489 24.3408C91.1812 24.2636 91.3484 23.9711 91.784 23.6714C92.2126 23.3733 92.9351 23.0952 93.7588 23.1346C94.5824 23.1748 95.263 23.5179 95.648 23.8562C96.0416 24.1961 96.1668 24.5015 96.089 24.573Z" fill="#263238"/>
<path d="M83.7078 28.6911C83.7039 29.3629 83.1494 29.9125 82.4704 29.9206C81.7929 29.9294 81.2454 29.3926 81.25 28.7208C81.2547 28.049 81.8085 27.4986 82.4859 27.4906C83.1649 27.4825 83.7125 28.0201 83.7078 28.6911Z" fill="#263238"/>
<path d="M83.1208 24.3292C82.9614 24.4883 82.0576 23.7362 80.7362 23.6823C79.4163 23.6092 78.4168 24.2706 78.2799 24.0962C78.2131 24.019 78.3787 23.7273 78.8158 23.4276C79.2444 23.1287 79.9662 22.8522 80.7906 22.8908C81.6143 22.9318 82.2948 23.2749 82.6798 23.6124C83.0726 23.9531 83.1986 24.2585 83.1208 24.3292Z" fill="#263238"/>
<path d="M87.4301 35.0347C87.427 34.9567 88.2553 34.845 89.5947 34.7269C89.9338 34.706 90.2566 34.6506 90.3227 34.4143C90.4121 34.166 90.2861 33.7835 90.1391 33.3705C89.856 32.5123 89.5589 31.6131 89.2478 30.6705C88.0142 26.827 87.1361 23.6738 87.2862 23.6232C87.4371 23.5733 88.5587 26.6478 89.7922 30.4905C90.0886 31.4379 90.3717 32.3411 90.6408 33.2049C90.752 33.6067 90.9542 34.0664 90.7606 34.5823C90.6587 34.8394 90.4036 35.0178 90.1842 35.0684C89.9649 35.1271 89.7744 35.1231 89.6071 35.1263C88.2639 35.1424 87.4325 35.1126 87.4301 35.0347Z" fill="#263238"/>
<path d="M83.6777 20.0735C83.4841 20.4142 82.2155 19.9923 80.6545 19.8903C79.0951 19.7553 77.7806 19.9811 77.6375 19.6146C77.5753 19.4403 77.8514 19.1373 78.413 18.8786C78.9698 18.6198 79.8176 18.4342 80.7533 18.5049C81.6882 18.5772 82.501 18.8882 83.0151 19.2281C83.5339 19.5688 83.7649 19.9103 83.6777 20.0735Z" fill="#263238"/>
<path d="M96.5926 20.8903C96.3095 21.1932 95.2401 20.8405 93.9451 20.7898C92.6517 20.699 91.5472 20.9321 91.303 20.6002C91.1964 20.4395 91.3769 20.1333 91.8645 19.8529C92.3444 19.5732 93.1409 19.3555 94.0306 19.4037C94.9204 19.4527 95.6842 19.7557 96.1268 20.0867C96.5763 20.4186 96.7179 20.7424 96.5926 20.8903Z" fill="#263238"/>
<path d="M68.8327 28.7621C68.6888 28.6898 62.9924 26.6993 62.934 32.7864C62.8757 38.8734 68.8031 37.6785 68.8148 37.5041C68.8265 37.3298 68.8327 28.7621 68.8327 28.7621Z" fill="#FFBF9D"/>
<path d="M67.0225 35.1793C66.9969 35.1592 66.9191 35.2524 66.7449 35.3327C66.5753 35.4107 66.2836 35.4629 65.9772 35.3408C65.3573 35.0989 64.8432 34.0719 64.8245 32.9743C64.8152 32.4206 64.9326 31.8935 65.1263 31.4587C65.3106 31.0152 65.5922 30.7066 65.9064 30.6527C66.2191 30.5812 66.4392 30.7773 66.5092 30.9493C66.5862 31.1204 66.5481 31.241 66.5792 31.2522C66.5955 31.2675 66.7068 31.151 66.6616 30.8994C66.6383 30.7781 66.5706 30.6343 66.4338 30.5153C66.2938 30.3948 66.0861 30.3321 65.8675 30.3546C65.4125 30.3819 64.9995 30.8102 64.7864 31.2876C64.5476 31.7665 64.4038 32.3587 64.4146 32.9807C64.4403 34.2077 65.0369 35.3617 65.8862 35.6244C66.3 35.741 66.6468 35.6148 66.8265 35.4734C67.0108 35.3263 67.0435 35.1905 67.0225 35.1793Z" fill="#FF9A6C"/>
<path d="M94.2563 10.6363C95.2107 10.0939 92.3523 6.89971 90.0097 5.79882C86.47 4.13462 81.0621 3.10605 77.7962 4.05909C73.863 5.20659 70.5948 7.22355 68.6169 10.9192C66.639 14.614 65.8923 18.9203 66.0028 23.1415C66.0362 24.4296 66.1645 25.7716 66.8288 26.8612C67.6501 28.208 68.8261 28.875 69.1574 30.9136C69.2663 31.583 69.3185 32.2773 69.7672 32.7731C70.8444 33.9592 72.1643 32.8478 72.7718 31.7317C74.0691 29.3491 74.2169 26.502 74.3335 23.7707C74.4168 21.8293 74.4946 19.8461 73.9672 17.981C73.6802 16.9661 73.2182 16.0066 72.9857 14.9772C72.7531 13.947 72.785 12.7786 73.4064 11.9381C73.5075 11.8015 73.6748 11.6295 73.8855 11.4383C75.5554 9.92917 77.8919 9.47918 79.9833 10.2466C83.2998 11.4632 88.9643 13.2809 90.4452 12.1189C92.5763 10.4475 93.0866 9.35704 93.0866 9.35704L94.2563 10.6363Z" fill="#263238"/>
<path d="M83.2547 35.8781C83.4577 35.8652 83.4655 37.2626 84.6267 38.2502C85.7864 39.241 87.2284 39.0779 87.2393 39.2732C87.2587 39.3607 86.9196 39.5456 86.3106 39.5657C85.7133 39.589 84.8406 39.3945 84.1297 38.791C83.4212 38.1851 83.114 37.3743 83.0657 36.8014C83.0128 36.2172 83.1622 35.87 83.2547 35.8781Z" fill="#263238"/>
<path d="M64.7402 28.4998C64.629 28.3953 64.4617 28.3736 64.3567 28.2699C57.4065 21.4179 62.9427 14.839 63.0353 12.8108C63.1628 9.99833 59.9133 13.5525 59.4979 9.84726C58.9481 4.94145 64.0153 2.85056 70.2499 0.749222C72.8617 -0.131492 79.2652 -0.391852 84.8792 0.831987C89.8889 1.92404 93.2247 5.606 95.1163 8.43538C95.1163 8.43538 96.2853 9.02359 96.5645 9.56199C97.4411 11.2503 97.0421 11.9422 97.0421 11.9422C97.0421 11.9422 85.979 5.98368 76.6915 13.7807C67.4041 21.5778 69.0693 28.3141 66.6208 28.3945L64.7402 28.4998Z" fill="#455A64"/>
<path d="M72.2782 4.92598C72.2814 4.93723 72.1071 5.01277 71.7898 5.13893C71.6304 5.2 71.4359 5.27714 71.2166 5.3808C70.9965 5.48286 70.7398 5.58571 70.4707 5.73116C69.9216 5.99875 69.2908 6.36518 68.6165 6.81357C67.9492 7.27241 67.2429 7.81964 66.5554 8.45929C65.8732 9.10536 65.2775 9.77955 64.7719 10.4216C64.2749 11.0717 63.8619 11.6856 63.5516 12.2248C63.3851 12.4876 63.2615 12.7415 63.1425 12.9577C63.0211 13.1738 62.9286 13.3659 62.8547 13.5242C62.703 13.8384 62.6136 14.0104 62.6027 14.0055C62.5918 14.0007 62.6603 13.8191 62.7948 13.4945C62.8594 13.3313 62.9441 13.1337 63.0585 12.9119C63.1705 12.6893 63.2879 12.4297 63.4481 12.1605C63.7476 11.6093 64.1544 10.9825 64.649 10.3204C65.153 9.66625 65.7519 8.98161 66.441 8.3283C67.1364 7.68223 67.8527 7.13259 68.5317 6.67696C69.2169 6.23178 69.8601 5.87339 70.4201 5.61866C70.6947 5.47884 70.956 5.38321 71.1816 5.29C71.4064 5.19438 71.6047 5.12607 71.768 5.07464C72.0931 4.96776 72.2744 4.91393 72.2782 4.92598Z" fill="#263238"/>
<path d="M95.4118 8.5991C95.4102 8.60232 95.3752 8.58946 95.3083 8.56134C95.2329 8.52919 95.1349 8.4874 95.012 8.43437C94.7538 8.31705 94.3672 8.15955 93.8694 7.95785C93.367 7.76902 92.7518 7.53759 92.0207 7.32544C91.2927 7.10526 90.4504 6.89553 89.5069 6.74366C87.6247 6.43107 85.3225 6.35553 82.8343 6.81276C81.5922 7.03776 80.3081 7.39294 79.024 7.89276C77.7422 8.39901 76.4643 9.05473 75.2362 9.86071C74.0159 10.6795 72.8982 11.5988 71.9322 12.6057C70.9678 13.6142 70.1379 14.687 69.4363 15.7702C68.0254 17.9374 67.117 20.1135 66.4396 21.9561C65.7753 23.8091 65.353 25.3504 65.066 26.4151C64.9291 26.9406 64.8218 27.3529 64.7456 27.6454C64.7098 27.7779 64.6818 27.884 64.6608 27.9652C64.6406 28.0367 64.6289 28.0737 64.6258 28.0729C64.6227 28.0721 64.6289 28.0343 64.6437 27.9612C64.6608 27.8792 64.6841 27.7723 64.7121 27.6373C64.7736 27.3529 64.8677 26.9342 65.0014 26.3982C65.2682 25.3271 65.6742 23.7778 66.326 21.9135C66.991 20.0588 67.8917 17.8675 69.3057 15.6802C70.0088 14.5873 70.8426 13.5033 71.814 12.4844C72.787 11.467 73.9132 10.5381 75.1445 9.71285C76.3827 8.90044 77.6722 8.2391 78.9657 7.73205C80.2607 7.23062 81.5565 6.87625 82.8087 6.65366C85.3155 6.20205 87.6364 6.29125 89.5271 6.62151C90.4752 6.78223 91.3191 7.00161 92.0479 7.23143C92.7798 7.45402 93.3935 7.69589 93.8936 7.89517C94.389 8.10732 94.7724 8.27527 95.026 8.40303C95.1466 8.4625 95.2422 8.5099 95.3153 8.54606C95.3807 8.57821 95.4133 8.59669 95.4118 8.5991Z" fill="#263238"/>
<path d="M68.5312 25.4969C68.5429 25.5387 67.7876 25.6424 66.9391 25.2928C66.0866 24.9521 65.6021 24.3446 65.6386 24.3221C65.6736 24.2811 66.1901 24.8058 67.0021 25.1289C67.8086 25.4624 68.532 25.4415 68.5312 25.4969Z" fill="#263238"/>
<path d="M71.6367 20.104C71.632 20.1241 71.3948 20.0944 71.0316 19.9642C70.6691 19.8348 70.1854 19.5881 69.7234 19.208C69.2629 18.8263 68.923 18.394 68.7208 18.0565C68.517 17.719 68.4377 17.486 68.4556 17.4771C68.5022 17.4458 68.9269 18.3345 69.8299 19.0698C70.7228 19.8179 71.6561 20.0502 71.6367 20.104Z" fill="#263238"/>
<path d="M76.9873 13.4611C76.9383 13.4844 76.5992 12.6294 75.8953 11.7776C75.1992 10.9186 74.4393 10.4316 74.4696 10.385C74.4844 10.3457 75.3073 10.7772 76.026 11.6635C76.7516 12.5426 77.0278 13.4523 76.9873 13.4611Z" fill="#263238"/>
<path d="M82.3225 10.7047C82.2696 10.7119 82.1818 9.8746 81.7859 8.93763C81.3993 7.99665 80.8712 7.35541 80.9124 7.32085C80.9389 7.28791 81.5424 7.89621 81.943 8.86773C82.3513 9.83683 82.3638 10.7071 82.3225 10.7047Z" fill="#263238"/>
<path d="M90.3605 10.1784C90.3069 10.1703 90.5659 9.33781 90.2952 8.3462C90.0432 7.34897 89.4124 6.76639 89.4552 6.73103C89.4676 6.71576 89.6426 6.83549 89.8604 7.09987C90.079 7.36264 90.324 7.78451 90.4601 8.2996C90.5946 8.81549 90.5892 9.30728 90.5293 9.64799C90.471 9.99031 90.3792 10.1848 90.3605 10.1784Z" fill="#263238"/>
<path d="M95.2151 11.3878C95.1653 11.3702 95.3839 10.7514 95.3675 9.95748C95.3613 9.16355 95.1257 8.55123 95.1747 8.53194C95.2104 8.50783 95.5309 9.11855 95.5387 9.95507C95.5542 10.7908 95.2509 11.4111 95.2151 11.3878Z" fill="#263238"/>
<path d="M68.5568 54.0422C68.5568 54.0422 73.5828 58.0914 80.5385 58.2039C87.1823 58.3116 90.3976 56.78 90.3976 56.78L91.7758 61.9574L98.1365 118.661L92.6244 156.446L59.7617 154.256L67.5667 110.23L67.0977 59.4077L68.5568 54.0422Z" fill="#F5F5F5"/>
<path d="M89.395 61.9579C89.3756 62.0182 90.4621 81.1874 90.4108 82.3638C89.7131 98.2199 83.5547 186.507 83.5547 186.507L104.588 185.706L105.237 179.465L103.757 125.08L106.568 90.4518L108.044 64.8588L93.4434 58.5508L90.7305 53.4393L89.1329 52.4485L89.395 61.9579Z" fill="#FF8E49"/>
<path d="M108.042 64.8589C108.042 64.8589 114.661 67.5589 117.35 83.9252C118.833 92.9469 120.404 113.753 120.404 113.753C120.404 113.753 122.524 132.162 120.404 135.363L118.284 136.19L104.938 132.134L104.386 127.93L106.054 122.712L106.056 119.413L101.648 103.16V77.1367L108.042 64.8589Z" fill="#FF8E49"/>
<path d="M108.044 76.1531C108.058 76.1531 108.07 76.3098 108.08 76.6095C108.086 76.955 108.093 77.3882 108.103 77.9185C108.122 79.0556 108.09 80.7013 108.013 82.7327C107.862 86.7972 107.384 92.3981 106.647 98.5518C105.91 104.707 105.197 110.269 104.781 114.306C104.569 116.324 104.406 117.958 104.307 119.09C104.254 119.617 104.211 120.047 104.176 120.39C104.142 120.688 104.117 120.844 104.103 120.842C104.089 120.841 104.086 120.684 104.095 120.384C104.11 120.039 104.127 119.606 104.15 119.077C104.201 117.941 104.321 116.3 104.496 114.276C104.84 110.226 105.51 104.652 106.246 98.5012C106.982 92.3523 107.504 86.7699 107.728 82.7183C107.841 80.6924 107.916 79.0516 107.946 77.9161C107.967 77.3866 107.984 76.9542 107.999 76.6095C108.015 76.3098 108.03 76.1531 108.044 76.1531Z" fill="#263238"/>
<path d="M105.798 131.553L101.883 156.913L108.764 164.014C108.764 164.014 112.264 155.335 113.622 150.772C115.061 145.938 118.879 134.645 118.879 134.645C118.879 134.645 111.085 130.133 105.798 131.553Z" fill="#FFBF9D"/>
<path d="M93.5742 58.5966C93.6178 58.5853 93.848 59.3447 94.2011 60.6417C94.5542 61.9386 95.0325 63.7724 95.5715 65.9091L95.7139 66.4732L95.2659 66.1148C94.4624 65.4719 93.666 64.6635 92.9753 63.7137C92.5996 63.1994 92.2722 62.665 91.9914 62.1339L92.3562 62.1001C91.5605 64.5366 90.985 66.7215 90.6023 68.2933C90.2189 69.865 90.0112 70.8213 89.9591 70.8109C89.935 70.806 89.9552 70.5609 90.0174 70.1166C90.0804 69.6722 90.1885 69.0301 90.3472 68.233C90.6622 66.6387 91.1934 64.4273 91.979 61.97L92.1221 61.5232L92.3438 61.9362C92.6183 62.4481 92.9372 62.9648 93.3012 63.4622C93.9693 64.3815 94.7354 65.169 95.5062 65.8014L95.2006 66.0071C94.6872 63.864 94.2594 62.0166 93.9709 60.7027C93.68 59.3889 93.5307 58.6078 93.5742 58.5966Z" fill="#263238"/>
<path d="M31.5061 117.79C31.5061 117.79 30.6303 133.7 31.1149 136.989C31.5994 140.278 42.4269 145.012 42.4269 145.012L50.9047 143.074C50.9047 143.074 52.587 126.957 52.6788 126.464C52.7705 125.971 52.6788 114.466 52.6788 114.466L31.5061 117.79Z" fill="#455A64"/>
<path d="M42.6196 60.657C42.6196 60.657 39.5209 62.2039 37.2272 69.3259C35.9237 73.3751 20.1815 101.605 20.106 107.533C20.0088 115.099 33.112 122.08 33.112 122.08L44.4007 105.863L39.5147 102.85L46.7169 96.3388L42.6196 60.657Z" fill="#FF8E49"/>
<path d="M60.7948 54.0814C60.7948 54.0814 43.8657 59.4597 42.6228 60.6562C41.3799 61.8528 46.1205 89.31 46.1205 89.31V127.72L37.2305 169.348C37.2305 169.348 55.2671 187.382 63.2674 185.579C63.2674 185.579 68.795 152.066 70.2495 138.841C71.7039 125.615 71.9948 103.223 71.7039 94.2062C71.413 85.1893 70.2495 66.2539 70.2495 65.8023C70.2495 65.4704 69.2586 54.7074 69.1622 49.8723H67.7761L65.3036 53.3285L60.7948 54.0814Z" fill="#FF8E49"/>
<path d="M52.2539 56.7019C52.2539 56.7019 59.1497 68.2195 59.5362 75.4074C59.9228 82.5962 61.7591 103.262 61.7591 103.262H67.8468C67.8468 103.262 66.1077 75.008 65.7211 68.618C65.3346 62.228 64.6579 53.0432 64.6579 53.0432C64.6579 53.0432 52.8987 54.873 52.2539 56.7019Z" fill="#455A64"/>
<path d="M75.0619 99.1931C74.8519 98.8074 74.6131 98.3944 74.2164 98.2272C73.7567 98.0336 73.238 98.2321 72.7806 98.433C71.733 98.8934 70.6946 99.3788 69.668 99.8866L72.1047 103.938C72.3995 103.42 73.9714 102.21 74.4544 101.873C74.9366 101.536 75.4181 101.078 75.4663 100.479C75.5036 100.022 75.2796 99.5925 75.0619 99.1931Z" fill="#FF9A6C"/>
<g opacity="0.3">
<path d="M68.2015 110.143C68.0366 109.804 67.8219 109.449 67.4735 109.325C66.8816 109.113 66.3091 109.665 65.9241 110.175C61.5188 116.017 59.313 123.767 53.5551 128.178C50.2488 130.711 46.1017 131.846 42.7565 134.324L42.6289 136.172C48.4677 136.466 53.8981 133.246 58.6954 129.795C61.8789 127.505 65.0304 124.985 67.09 121.589C69.1503 118.191 69.9421 113.726 68.2015 110.143Z" fill="black"/>
</g>
<path d="M41.8398 129.739C41.8398 129.739 51.7907 125.653 57.6046 121.22C63.4185 116.786 65.4096 105.245 65.4096 105.245L68.6242 103.262C68.6242 103.262 64.6622 122.636 59.2636 127.116C53.8651 131.596 41.8398 139.176 41.8398 139.176V129.739Z" fill="#455A64"/>
<path d="M26.396 104.021C26.3789 104.001 26.5134 103.842 26.788 103.589C27.0618 103.335 27.4856 102.997 28.0488 102.64C29.1656 101.924 30.9094 101.183 32.9418 101.045C34.9749 100.906 36.7972 101.406 37.995 101.965C38.5986 102.242 39.0613 102.52 39.3654 102.734C39.6696 102.948 39.8228 103.088 39.8088 103.11C39.7722 103.171 39.0924 102.712 37.8869 102.239C36.6899 101.763 34.9251 101.33 32.9682 101.463C31.0121 101.596 29.3173 102.263 28.1911 102.897C27.0555 103.529 26.4403 104.076 26.396 104.021Z" fill="#FF8E49"/>
<path d="M39.6364 104.975L55.4245 108.261C55.4245 108.261 60.3564 99.623 60.9017 99.2469C61.4469 98.8717 69.801 99.5113 69.801 99.5113C69.801 99.5113 72.9883 102.44 73.0793 104.317C73.1703 106.195 71.1707 108.261 71.1707 108.261C71.1707 108.261 71.3526 109.856 69.1718 111.453C69.1718 111.453 69.444 113.612 67.9903 114.364C67.9903 114.364 68.3535 116.523 67.1721 117.18C65.9907 117.838 64.264 116.523 64.264 116.523L61.6973 116.617C61.6973 116.617 60.0842 119.621 59.084 119.997C58.0845 120.372 32.4568 120.842 32.4568 120.842C32.4568 120.842 28.8214 118.87 30.1849 113.706C31.5483 108.543 36.1831 105.444 39.6364 104.975Z" fill="#FFBF9D"/>
<path d="M55.4444 115.136C55.3324 115.136 55.2422 113.596 55.2422 111.697C55.2422 109.797 55.3332 108.257 55.4444 108.257C55.5564 108.257 55.6466 109.797 55.6466 111.697C55.6474 113.596 55.5564 115.136 55.4444 115.136Z" fill="#FF9A6C"/>
<path d="M67.6125 114.609C67.5176 114.687 66.7788 113.753 65.5569 113.043C64.3443 112.316 63.1909 112.133 63.2072 112.008C63.201 111.902 64.4556 111.903 65.7576 112.679C67.0666 113.444 67.7043 114.56 67.6125 114.609Z" fill="#FF9A6C"/>
<path d="M64.6422 107.808C64.6811 107.707 65.91 108.161 67.1863 109.149C68.4681 110.131 69.2397 111.219 69.1572 111.286C69.0686 111.367 68.185 110.434 66.9444 109.485C65.7101 108.527 64.5924 107.919 64.6422 107.808Z" fill="#FF9A6C"/>
<path d="M65.8637 103.938C65.8637 103.834 67.4628 103.994 69.0736 105.094C70.6945 106.179 71.4754 107.629 71.3828 107.671C71.2833 107.749 70.3927 106.472 68.8512 105.444C67.3236 104.396 65.8342 104.063 65.8637 103.938Z" fill="#FF9A6C"/>
<path d="M42.6198 68.2813C42.6478 68.2773 42.7294 68.7112 42.8546 69.4979C42.9822 70.3609 43.1494 71.4835 43.3493 72.8351C43.7483 75.6557 44.2741 79.5562 44.7851 83.8746C45.2992 88.1938 45.6889 92.1136 45.9035 94.9574C46.014 96.379 46.0809 97.5313 46.1112 98.3284C46.1415 99.1256 46.1446 99.5667 46.1166 99.5691C46.0886 99.5707 46.0326 99.1328 45.9541 98.3405C45.867 97.4726 45.7542 96.3444 45.6181 94.9848C45.3303 92.1514 44.8963 88.242 44.383 83.9252C43.8728 79.6462 43.4107 75.7762 43.0646 72.8745C42.9161 71.5157 42.7924 70.3866 42.6975 69.5196C42.6213 68.7257 42.5918 68.2853 42.6198 68.2813Z" fill="#263238"/>
<path d="M29.1861 103.295C29.1511 103.273 29.4832 102.651 30.3302 101.937C31.1601 101.228 32.5749 100.48 34.2642 100.418C35.9535 100.359 37.415 101.005 38.2907 101.654C39.1829 102.305 39.5562 102.902 39.5228 102.926C39.4722 102.976 39.0289 102.462 38.1352 101.901C37.2548 101.34 35.8625 100.781 34.279 100.836C32.6954 100.894 31.3444 101.552 30.5036 102.174C29.6481 102.797 29.2397 103.342 29.1861 103.295Z" fill="#263238"/>
<path d="M70.17 67.6513C70.1381 67.6642 69.8752 67.0969 69.5081 66.0619C69.1425 65.0277 68.6813 63.5194 68.3072 61.6615L68.63 61.7145C67.832 63.1963 66.9134 64.9015 65.9319 66.7232L65.6114 67.3178L65.5546 66.6388C65.5344 66.401 65.5134 66.1462 65.4916 65.8899C65.2054 62.3686 65.1626 59.1672 65.214 56.8545C65.2389 55.6982 65.284 54.7628 65.3283 54.1176C65.3742 53.4723 65.4154 53.1163 65.4427 53.1179C65.4714 53.1187 65.4831 53.4771 65.4854 54.1232C65.4893 54.8544 65.494 55.7689 65.4994 56.8561C65.522 59.1624 65.6099 62.3485 65.8945 65.8553C65.9155 66.1109 65.9365 66.3648 65.9568 66.6011L65.5795 66.5175C66.579 64.7062 67.5139 63.0099 68.3267 61.5377L68.5623 61.1111L68.6494 61.5916C68.9846 63.4382 69.3945 64.9473 69.701 65.9952C70.009 67.0438 70.2073 67.6369 70.17 67.6513Z" fill="#263238"/>
<path d="M57.6039 121.219C57.6194 121.242 57.3667 121.462 56.8883 121.831C56.41 122.201 55.7038 122.715 54.8101 123.319C53.0189 124.515 50.4919 126.114 47.4671 127.415C45.9598 128.062 44.419 128.518 42.9809 128.576C41.5428 128.651 40.2563 128.37 39.2398 128.01C38.2201 127.646 37.4478 127.227 36.9313 126.916C36.4133 126.606 36.1442 126.406 36.1567 126.384C36.1963 126.302 37.3179 127.063 39.3277 127.729C40.3325 128.045 41.5778 128.284 42.9607 128.191C44.3459 128.114 45.8229 127.667 47.3139 127.028C50.2974 125.746 52.8369 124.196 54.6577 123.069C55.5054 122.526 56.221 122.068 56.7989 121.697C57.3037 121.37 57.5868 121.195 57.6039 121.219Z" fill="#263238"/>
<path d="M59.5027 126.905C59.519 126.928 59.2654 127.154 58.7926 127.542C58.3204 127.932 57.6244 128.477 56.7532 129.136C55.0118 130.455 52.5571 132.209 49.7696 134.026C46.9797 135.841 44.3881 137.371 42.4857 138.425C41.5344 138.953 40.7582 139.366 40.2146 139.639C39.6717 139.912 39.3652 140.051 39.352 140.025C39.3388 139.999 39.6203 139.812 40.1399 139.496C40.7341 139.138 41.4715 138.694 42.3465 138.167C44.21 137.049 46.772 135.482 49.5541 133.671C52.3347 131.86 54.808 130.148 56.5891 128.894C57.426 128.306 58.1322 127.81 58.7008 127.411C59.2017 127.063 59.4863 126.882 59.5027 126.905Z" fill="#263238"/>
</g>
</svg>
