<svg width="141" height="135" viewBox="0 0 141 135" fill="none" xmlns="http://www.w3.org/2000/svg">
<mask id="mask0_819_562498" style="mask-type:alpha" maskUnits="userSpaceOnUse" x="0" y="0" width="141" height="135">
<rect x="0.332031" width="140" height="135" fill="#D9D9D9"/>
</mask>
<g mask="url(#mask0_819_562498)">
<path d="M84.8259 77.1023L99.3458 100.94L118.208 87.9762L127.148 90.8723C127.148 90.8723 104.837 115.742 101.488 117.637C98.008 119.606 93.4649 121.745 89.5024 116.877C85.8943 112.447 72.2709 84.9797 72.2709 84.9797L84.8259 77.1023Z" fill="#FFBF9D"/>
<path d="M139.98 62.7188C139.684 62.3315 139.202 62.125 138.712 62.1748L130.379 63.0097C129.648 63.0949 128.988 63.4814 128.565 64.0728L110.416 89.4609L111.715 90.2323L120.895 90.2645L140.23 63.0451L139.98 62.7188Z" fill="#455A64"/>
<path d="M133.981 65.8916C134.152 66.0499 134.465 65.9961 134.68 65.7719C134.894 65.5477 134.93 65.2375 134.758 65.0792C134.587 64.9209 134.274 64.9747 134.059 65.1989C133.845 65.4231 133.81 65.7333 133.981 65.8916Z" fill="white"/>
<path d="M140.23 63.0452C140.234 63.0789 139.659 63.1681 138.616 63.3015C137.489 63.4333 135.999 63.6077 134.197 63.8182C133.255 63.9211 132.233 64.032 131.143 64.1517C130.619 64.1806 130.146 64.4289 129.834 64.8484C129.499 65.3225 129.154 65.8095 128.8 66.3077C127.37 68.3134 125.806 70.5079 124.165 72.8102C120.864 77.4171 117.853 81.5715 115.654 84.564C114.583 86.0032 113.698 87.1933 113.027 88.0933C112.398 88.9202 112.037 89.3686 112.009 89.3493C111.981 89.33 112.288 88.8446 112.868 87.984C113.505 87.0615 114.346 85.8409 115.364 84.3647C117.49 81.3208 120.455 77.135 123.756 72.5281C125.409 70.2331 126.984 68.0466 128.424 66.0473C128.785 65.5499 129.138 65.0645 129.481 64.592C129.863 64.0713 130.511 63.766 131.09 63.7467C132.185 63.6487 133.21 63.5571 134.155 63.4727C135.966 63.3248 137.462 63.2027 138.595 63.1103C139.645 63.0371 140.227 63.0114 140.23 63.0452Z" fill="#263238"/>
<path d="M130.705 72.017C130.705 72.017 129.97 71.8611 129.495 73.8323C129.019 75.8034 127.513 81.4509 127.513 81.4509L123.711 79.299L118.844 79.7514C118.844 79.7514 117.753 80.6739 118.509 81.2211C119.266 81.7683 122.31 82.4104 122.31 82.4104L124.455 85.6753L118.082 82.3855C118.082 82.3855 115.899 82.8644 116.486 84.1823C117.073 85.4993 121.3 89.7036 121.3 89.7036L118.061 89.3508L114.281 86.9168C114.281 86.9168 113.094 86.9289 113.5 87.9349C113.907 88.941 117.795 92.6575 117.795 92.6575L122.582 95.1446C122.582 95.1446 125.248 95.0313 125.531 94.2735C125.813 93.5157 125.917 92.4253 125.917 92.4253C125.917 92.4253 127.342 92.1007 127.629 91.4377C127.916 90.7748 127.785 89.706 127.785 89.706C127.785 89.706 129.987 90.1641 130.305 88.9619C130.624 87.7598 130.478 85.3635 130.287 84.4233C130.097 83.4832 131.574 74.8576 131.493 74.5924C131.412 74.3249 132.114 71.4915 130.705 72.017Z" fill="#FFBF9D"/>
<path d="M125.047 94.7977C125.06 94.8548 124.583 95.0412 123.762 95.1408C122.945 95.2429 121.782 95.2164 120.558 94.8877C119.334 94.555 118.321 93.9933 117.672 93.4959C117.018 92.9977 116.706 92.5975 116.747 92.5557C116.844 92.436 118.34 93.8005 120.69 94.4152C123.028 95.0669 125.026 94.6458 125.047 94.7977Z" fill="#FF9A6C"/>
<path d="M124.587 92.5329C124.507 92.6406 123.66 92.1673 122.765 91.3927C121.869 90.6196 121.284 89.8554 121.382 89.7638C121.483 89.669 122.218 90.2676 123.095 91.0246C123.971 91.7832 124.67 92.422 124.587 92.5329Z" fill="#FF9A6C"/>
<path d="M127.321 88.4975C127.243 88.6052 126.402 88.1423 125.567 87.3275C124.728 86.5151 124.249 85.6938 124.358 85.6159C124.471 85.5331 125.11 86.1961 125.918 86.9787C126.724 87.7646 127.405 88.385 127.321 88.4975Z" fill="#FF9A6C"/>
<path d="M130.146 85.2674C130.011 85.318 129.554 84.4035 128.817 83.4007C128.088 82.3906 127.355 81.6706 127.448 81.5613C127.527 81.4576 128.449 82.0459 129.223 83.1154C130.003 84.1809 130.272 85.228 130.146 85.2674Z" fill="#FF9A6C"/>
<path d="M94.2215 108.625C94.3541 108.658 94.702 106.524 96.1626 104.363C97.5937 102.181 99.4448 101.012 99.3605 100.907C99.3318 100.809 97.2998 101.863 95.8057 104.134C94.2878 106.389 94.1199 108.638 94.2215 108.625Z" fill="#FF9A6C"/>
<path d="M45.1135 4.33882C44.5371 3.14069 43.3639 2.31783 42.1366 1.76658C39.3309 0.507385 35.9545 0.455156 33.1766 1.77221C30.3987 3.08926 28.311 5.79328 27.9254 8.79703C27.5406 11.8008 28.9422 14.9974 31.5171 16.6656C29.878 16.7162 28.2529 17.1686 26.8308 17.9698C26.41 18.2069 25.9744 18.5162 25.8606 18.9791C25.6797 19.7127 26.4623 20.3974 27.2303 20.4335C27.8026 20.4609 28.3421 20.2447 28.853 19.9731C28.2954 20.313 27.7911 20.7381 27.6568 21.3496C27.4219 22.4216 28.568 23.3963 29.6848 23.4421C30.8015 23.4879 31.8323 22.9069 32.7918 22.3444L44.4003 7.9356C45.4933 7.15694 45.6898 5.53694 45.1135 4.33882Z" fill="#263238"/>
<path d="M70.2687 22.4194C70.2687 22.4194 74.4049 37.5957 74.7602 48.3346L74.8789 51.9121C74.8789 51.9121 65.7535 59.3492 58.0994 59.8072L51.6839 44.324L70.2687 22.4194Z" fill="#263238"/>
<path d="M29.7264 31.7277C31.4711 24.3252 32.1407 15.7101 38.4121 10.8831C43.0656 7.30156 48.3685 6.30272 54.2771 6.5454C57.1869 6.66513 60.4723 7.98299 63.0054 9.39004C66.48 11.3202 67.9521 15.2352 69.628 18.7918C72.9864 25.9171 72.5606 35.5656 70.2862 38.2479L39.9497 53.9714C33.892 50.8768 30.0972 49.645 29.1287 41.7193C28.7226 38.3853 28.9552 35.0007 29.7264 31.7277Z" fill="#263238"/>
<path d="M38.7534 16.7658L57.845 11.2373C63.9951 10.3574 68.4007 17.6626 69.0352 23.7312C69.7401 30.4732 70.3295 38.7307 69.7155 43.8052C68.4817 54.0082 60.6155 55.6049 60.6155 55.6049C60.6114 55.5711 60.5967 55.7575 60.6589 58.7717L60.6826 64.9809C60.7645 66.9553 60.4108 67.6199 59.1803 69.1844C56.3647 72.7651 51.2322 73.2433 45.1811 71.0455C41.6737 69.7718 39.2348 67.21 38.9671 63.7201L39.0023 22.4206C38.8901 20.5691 36.8851 17.0326 38.7534 16.7658Z" fill="#FFBF9D"/>
<path d="M66.895 33.1655C66.9474 33.851 66.3988 34.4601 65.6702 34.5268C64.9431 34.5935 64.3103 34.0928 64.2579 33.4066C64.2055 32.7211 64.754 32.1112 65.481 32.0445C66.2097 31.9778 66.8426 32.4793 66.895 33.1655Z" fill="#263238"/>
<path d="M67.7624 29.8451C67.6052 30.0211 66.572 29.3308 65.1458 29.3894C63.7213 29.428 62.7036 30.1882 62.5423 30.0227C62.4629 29.9495 62.6185 29.6369 63.0606 29.2938C63.4961 28.9523 64.2485 28.6076 65.1368 28.577C66.0251 28.5473 66.7849 28.8398 67.2278 29.1516C67.6797 29.465 67.8402 29.7663 67.7624 29.8451Z" fill="#263238"/>
<path d="M54.6919 33.7631C54.7442 34.4486 54.1957 35.0577 53.4671 35.1244C52.7401 35.1911 52.1072 34.6904 52.054 34.005C52.0016 33.3195 52.5509 32.7096 53.2779 32.6429C54.0066 32.5762 54.6395 33.0777 54.6919 33.7631Z" fill="#263238"/>
<path d="M53.7551 30.0099C53.597 30.1859 52.563 29.4957 51.1385 29.5543C49.7139 29.5929 48.6962 30.3531 48.5341 30.1875C48.4555 30.1144 48.6086 29.8026 49.0532 29.4587C49.4888 29.1172 50.2403 28.7724 51.1286 28.7411C52.0169 28.7114 52.7767 29.0039 53.2196 29.3157C53.6699 29.6299 53.832 29.9312 53.7551 30.0099Z" fill="#263238"/>
<path d="M59.2825 39.083C59.2726 39.0035 60.1527 38.8187 61.5814 38.5832C61.9441 38.5326 62.2855 38.4482 62.3371 38.2023C62.4124 37.9403 62.2446 37.5619 62.0514 37.1528C61.6748 36.3019 61.2801 35.4083 60.8659 34.4737C59.2153 30.6576 58.0053 27.514 58.1625 27.4497C58.3197 27.3854 59.7852 30.427 61.4357 34.2439C61.8336 35.1849 62.2143 36.0825 62.577 36.9407C62.7309 37.3417 62.9863 37.7933 62.8218 38.3357C62.7342 38.6065 62.4754 38.8106 62.2438 38.8813C62.0137 38.9601 61.8082 38.9721 61.6289 38.9898C60.1879 39.1216 59.2907 39.1626 59.2825 39.083Z" fill="#263238"/>
<path d="M60.6465 55.6042C60.6465 55.6042 53.7137 56.313 46.6653 52.5161C46.6653 52.5161 50.37 59.4799 60.6719 58.1315L60.6465 55.6042Z" fill="#FF9A6C"/>
<path d="M54.2661 24.8879C54.1637 25.28 52.7277 25.2358 51.0813 25.5918C49.4275 25.9156 48.1315 26.5223 47.876 26.2033C47.7614 26.0506 47.9603 25.6714 48.4671 25.2527C48.969 24.8348 49.7943 24.4049 50.7833 24.2C51.7731 23.9975 52.704 24.0658 53.3352 24.2498C53.9705 24.4339 54.3078 24.7022 54.2661 24.8879Z" fill="#263238"/>
<path d="M67.6374 26.078C67.314 26.3528 66.275 25.8722 64.9708 25.6714C63.6732 25.4303 62.5262 25.5404 62.3198 25.1748C62.2314 24.9988 62.4524 24.7087 62.9797 24.4789C63.4996 24.2498 64.3322 24.1197 65.2271 24.2715C66.1211 24.4242 66.8571 24.8196 67.264 25.2069C67.6783 25.5958 67.7823 25.9414 67.6374 26.078Z" fill="#263238"/>
<path d="M57.9009 10.1438C57.919 10.2169 57.9328 10.2909 57.9492 10.364L57.9132 10.3784C57.9091 10.3005 57.905 10.2225 57.9009 10.1438Z" fill="#263238"/>
<path d="M38.7325 60.7064C43.8904 60.4107 44.141 55.173 43.8249 52.5164C43.4901 49.7007 42.849 46.4832 42.0868 43.7486C40.8653 39.3692 42.5412 34.7117 43.1552 30.186C45.7407 29.8734 48.1526 28.349 49.8752 26.3786C51.9474 24.0073 53.2 21.0694 54.4207 18.1838C54.3486 21.0124 53.3499 23.8112 51.6093 26.0661C52.7563 26.3015 53.9671 25.8186 54.8293 25.0391C55.6914 24.2596 56.2554 23.215 56.7188 22.1583C57.8421 19.5981 58.4521 16.8298 58.5495 14.0446C58.931 18.0295 58.4799 22.0908 57.1986 25.8909C57.9215 25.6723 58.6968 25.8684 59.446 25.9744C60.1951 26.0805 61.054 26.0596 61.5828 25.5293C61.9365 25.1741 62.0659 24.663 62.1682 24.1769C62.8813 20.7898 62.9976 17.2814 62.5112 13.855C63.4331 15.7072 64.3468 17.5811 64.8814 19.5748C65.416 21.5685 65.5544 23.7116 64.9248 25.6779C65.222 26.0484 65.8549 25.9897 66.2085 25.6699C66.5614 25.3501 66.6957 24.8623 66.7702 24.3954C67.042 22.6919 66.7358 20.9561 66.4296 19.2582C67.4628 21.0558 67.8058 23.1411 68.3773 25.1275C68.9488 27.1139 69.8584 29.1502 71.617 30.2824C71.9215 27.3108 71.8135 25.2818 71.3591 22.4998C71.0111 20.3736 69.9836 18.2642 69.0348 16.3228C67.9721 14.1475 66.4951 12.018 64.8446 10.5989C61.7998 7.98168 60.5275 9.10828 58.5839 10.1055L58.3538 10.2003C58.3473 10.1537 58.3448 10.1063 58.3383 10.0597L58.2507 9.65311C53.1902 8.53454 47.8235 8.78043 42.8916 10.3586C39.2262 11.5311 38.8897 19.2759 37.9965 15.5955C37.4553 13.3688 34.5145 15.4011 34.4785 15.4653C30.1565 23.1178 25.5742 35.2565 25.3638 54.4385L38.7325 60.7064Z" fill="#263238"/>
<path d="M34.5108 15.1616C35.129 15.4452 36.8769 12.8175 39.9987 10.7516C43.0729 8.61647 46.1947 7.94228 46.1439 7.27451C46.1169 6.97076 45.2376 6.72567 43.8131 6.87031C42.3983 7.00853 40.4612 7.61442 38.651 8.83745C36.8449 10.0653 35.5825 11.6291 34.9505 12.8794C34.3086 14.1346 34.2308 15.029 34.5108 15.1616Z" fill="#455A64"/>
<path d="M54.6418 41.9515C54.9873 41.3488 54.6033 40.6039 55.255 40.8064C56.2399 41.1126 58.3588 41.9274 59.2209 42.5799C59.4501 42.829 59.0956 43.279 59.0129 43.4831C58.931 43.6872 58.9965 43.5859 58.8434 43.7306C58.2875 44.2521 57.6997 44.7736 56.9678 44.9753C56.235 45.177 55.3172 44.9785 54.8063 44.2875C54.352 43.6743 54.2971 42.5542 54.6418 41.9515Z" fill="#FF9A6C"/>
<path d="M57.5189 44.7513C57.5017 44.6983 56.9106 45.0535 55.9715 44.7152C55.5319 44.5577 54.9907 44.2395 54.8441 43.6697C54.6648 43.0791 54.6993 42.3672 54.9383 41.6809C55.0317 41.4069 55.152 41.1473 55.2879 40.9103L55.021 40.9963C57.4812 42.0401 59.3856 42.7681 59.429 42.6725C59.4715 42.5777 57.6376 41.6922 55.1905 40.6178L55.0185 40.5422L54.9227 40.7038C54.7713 40.9609 54.637 41.2446 54.5339 41.5467C54.2711 42.3013 54.2408 43.1096 54.4684 43.7822C54.7025 44.5279 55.3878 44.8606 55.8807 44.9964C56.4014 45.1363 56.8508 45.0977 57.1349 44.9988C57.4215 44.9008 57.5336 44.7666 57.5189 44.7513Z" fill="#263238"/>
<path d="M30.2955 65.1101C29.3041 65.1101 20.0641 67.6406 17.7365 74.2081C15.8321 79.5824 10.4606 102.97 10.4606 102.97H32.6092C32.6092 102.97 37.2374 89.7894 36.5759 82.4978C35.9152 75.2062 30.2955 65.1101 30.2955 65.1101Z" fill="#FF8E49"/>
<path d="M33.7214 130.684L27.685 97.3348L30.277 65.0409L38.9644 63.719C47.3399 67.4532 54.8442 68.1177 60.9166 63.7455L68.976 64.7283C69.003 64.7323 77.4194 65.11 84.4366 73.5531C87.0418 76.687 97.7734 93.2559 97.7734 93.2559L85.4027 100.774C85.0441 108.525 84.1795 121.377 84.1795 121.377L95.3492 163.814C95.3492 163.814 73.0646 170.895 60.0815 170.895C41.8299 170.894 21.1206 161.041 21.1206 161.041L33.7214 130.684Z" fill="#FF8E49"/>
<path d="M77.7225 78.655C77.6987 78.6727 77.919 79.023 78.3349 79.6418C78.5469 79.9487 78.8015 80.3256 79.0725 80.7804C79.3468 81.2321 79.6825 81.7319 79.9952 82.3185C80.6649 83.466 81.3723 84.8803 82.0682 86.4874C82.7404 88.1034 83.3872 89.9179 83.9062 91.8681C84.4073 93.8232 84.7299 95.7196 84.9329 97.4537C85.1106 99.1911 85.1834 100.765 85.1589 102.087C85.172 102.749 85.1228 103.346 85.1032 103.871C85.0884 104.397 85.05 104.848 85.0148 105.217C84.9525 105.956 84.9321 106.367 84.9615 106.371C84.991 106.375 85.0672 105.971 85.1802 105.235C85.2416 104.867 85.3038 104.415 85.3414 103.888C85.3832 103.361 85.4544 102.761 85.4601 102.094C85.5232 100.763 85.4814 99.1718 85.3234 97.4144C85.14 95.6594 84.8257 93.7396 84.3189 91.7637C83.7949 89.7925 83.1293 87.9612 82.4301 86.3371C81.7072 84.722 80.9646 83.3085 80.2564 82.1706C79.924 81.5888 79.5679 81.0963 79.2731 80.6543C78.9817 80.2091 78.7049 79.8435 78.4716 79.5494C78.0107 78.9555 77.7462 78.6373 77.7225 78.655Z" fill="#263238"/>
<path d="M65.4402 141.072C65.473 141.112 66.1607 140.643 67.1701 139.757C68.1788 138.873 69.4888 137.552 70.7447 135.939C71.9981 134.323 72.9495 132.733 73.5504 131.544C74.153 130.355 74.4329 129.58 74.3855 129.56C74.3257 129.533 73.9499 130.263 73.2851 131.405C72.6211 132.547 71.6428 134.09 70.4065 135.685C69.167 137.277 67.9103 138.612 66.963 139.542C66.0158 140.474 65.3977 141.023 65.4402 141.072Z" fill="#263238"/>
<path d="M46.5917 130.403C46.5385 130.415 46.6105 131.018 46.8447 131.971C47.0772 132.923 47.489 134.222 48.094 135.597C48.7015 136.972 49.3835 138.155 49.9321 138.973C50.4798 139.793 50.8785 140.258 50.9235 140.227C51.0324 140.156 49.6741 138.147 48.4862 135.43C47.2819 132.722 46.7186 130.374 46.5917 130.403Z" fill="#263238"/>
<path d="M54.8512 108.725C54.8561 108.753 55.0608 108.743 55.4308 108.698C55.8017 108.66 56.3314 108.548 56.9716 108.361C58.2521 107.992 59.96 107.205 61.5352 105.912C63.1055 104.613 64.1886 103.096 64.7797 101.921C65.0777 101.335 65.2816 100.842 65.3839 100.49C65.4928 100.139 65.5395 99.9431 65.5116 99.9335C65.4404 99.9085 65.1653 100.667 64.5144 101.78C63.8685 102.892 62.7829 104.33 61.2609 105.591C59.7332 106.844 58.104 107.647 56.8759 108.079C55.6478 108.517 54.8389 108.653 54.8512 108.725Z" fill="#263238"/>
<path d="M30.409 101.053C30.4368 101.061 30.558 100.749 30.7521 100.177C30.9485 99.6056 31.2056 98.7707 31.5004 97.7325C32.0907 95.6561 32.7956 92.7552 33.3638 89.5112C33.9287 86.2655 34.248 83.2996 34.3953 81.1484C34.4698 80.0732 34.5108 79.2013 34.519 78.5987C34.5296 77.996 34.5214 77.6625 34.4927 77.6609C34.4633 77.6593 34.415 77.9904 34.3536 78.589C34.2832 79.2753 34.1972 80.1222 34.0949 81.1227C33.8714 83.261 33.5054 86.2085 32.9429 89.4404C32.3772 92.6708 31.7222 95.5693 31.2081 97.6586C30.9649 98.6357 30.7594 99.4626 30.5924 100.133C30.4483 100.717 30.3812 101.045 30.409 101.053Z" fill="#263238"/>
<path d="M17.1825 103.243C16.724 103.736 9.30894 118.167 10.1817 122.114C11.0536 126.062 15.6056 128.529 17.1825 128.529C18.7601 128.529 29.4141 103.243 29.4141 103.243L19.7622 98.7441L17.1825 103.243Z" fill="#FFBF9D"/>
<path d="M24.5438 123.447H41.7638L44.5859 121.011L17.9335 86.509L2.17659 87.9916L-0.076519 90.0134L24.5438 123.447Z" fill="#263238"/>
<path d="M0.375519 93.1914L22.2843 122.781L35.7554 122.27L37.8906 120.257L13.33 90.0977L1.73051 91.5216L0.375519 93.1914Z" fill="#455A64"/>
<path d="M37.2812 120.793L12.954 90.792L2.06508 91.9138L1.13013 93.0115L12.263 91.9033L36.0081 121.891L37.2812 120.793Z" fill="#FF8E49"/>
<path d="M43.9648 121.546L17.0627 87.2942L2.47325 88.6008L0.966846 89.9042L15.7896 88.8162L42.5345 122.782L43.9648 121.546Z" fill="#FF8E49"/>
<path d="M16.2858 120.264L19.7596 119.524C19.7596 119.524 20.6479 114.284 21.8105 113.636C22.9739 112.987 33.0064 112.987 34.024 114.22C35.0417 115.454 34.6053 115.947 34.6053 115.947C34.6053 115.947 37.3676 115.331 37.804 118.537C37.804 118.537 40.717 118.953 39.5487 121.374C39.5487 121.374 42.4568 122.854 40.7121 124.581C40.7121 124.581 41.2934 127.17 38.8217 128.528C36.35 129.884 33.5877 129.391 33.5877 129.391L17.1798 128.528L16.2858 120.264Z" fill="#FFBF9D"/>
<path d="M27.625 117.381C27.6512 117.43 28.1531 117.18 29.0136 117.362C29.87 117.492 31.0448 117.985 32.4931 117.905C33.2046 117.849 33.8898 117.601 34.3647 117.168C34.8543 116.74 35.0385 116.133 35.018 115.669C35.0098 115.192 34.81 114.831 34.6266 114.645C34.44 114.456 34.2934 114.414 34.2828 114.433C34.2238 114.475 34.7683 114.82 34.7167 115.665C34.6946 116.068 34.5194 116.542 34.1035 116.882C33.695 117.227 33.1006 117.438 32.4579 117.489C31.1627 117.569 29.9649 117.138 29.0553 117.07C28.1138 116.951 27.571 117.338 27.625 117.381Z" fill="#FF9A6C"/>
<path d="M32.9682 122.921C33.0329 123.012 34.3158 122.226 35.6871 120.997C37.0626 119.77 37.9795 118.591 37.8928 118.518C37.8011 118.44 36.7547 119.48 35.3997 120.687C34.0489 121.899 32.8961 122.824 32.9682 122.921Z" fill="#FF9A6C"/>
<path d="M34.6316 126.786C34.684 126.877 36.26 125.967 37.7059 124.303C39.1632 122.646 39.8403 120.98 39.7404 120.943C39.6258 120.885 38.798 122.424 37.3825 124.03C35.9808 125.646 34.5563 126.684 34.6316 126.786Z" fill="#FF9A6C"/>
<path d="M37.3077 128.251C37.3634 128.345 38.449 127.776 39.4487 126.679C40.4557 125.587 40.9199 124.468 40.8184 124.424C40.7078 124.366 40.0962 125.355 39.1318 126.398C38.1755 127.449 37.2373 128.149 37.3077 128.251Z" fill="#FF9A6C"/>
<path d="M19.7556 119.137C19.6467 119.131 19.5689 120.457 20.1142 121.978C20.6488 123.503 21.5486 124.495 21.6305 124.424C21.7337 124.351 21.0254 123.295 20.517 121.84C19.9955 120.391 19.8825 119.131 19.7556 119.137Z" fill="#FF9A6C"/>
<path d="M14.1398 119.955C14.1905 120.07 15.4383 119.574 17.061 119.405C18.682 119.22 20.01 119.437 20.0345 119.313C20.0689 119.213 18.7181 118.797 17.0143 118.989C15.3089 119.169 14.0841 119.864 14.1398 119.955Z" fill="#FF9A6C"/>
</g>
</svg>
