<svg width="140" height="135" viewBox="0 0 140 135" fill="none" xmlns="http://www.w3.org/2000/svg">
<path d="M131.901 132.023H7.78955C3.48984 132.023 0.00350952 128.079 0.00350952 123.213V23.4456C0.00350952 18.58 3.48883 14.6359 7.78955 14.6359H131.901C136.201 14.6359 139.688 18.58 139.688 23.4456V123.213C139.688 128.079 136.202 132.023 131.901 132.023Z" fill="white"/>
<path d="M139.87 35.1608H0.577881V21.579C0.577881 17.7284 3.73111 14.6064 7.62013 14.6064H131.6C136.168 14.6064 139.871 18.2728 139.871 22.7959V35.1608H139.87Z" fill="#E0E0E0"/>
<path d="M11.2461 24.248C11.2461 25.5328 10.194 26.5735 8.89736 26.5735C7.60069 26.5735 6.54863 25.5318 6.54863 24.248C6.54863 22.9641 7.59969 21.9225 8.89736 21.9225C10.195 21.9225 11.2461 22.9632 11.2461 24.248Z" fill="white"/>
<path d="M15.9716 26.5735C14.6744 26.5735 13.6228 25.5323 13.6228 24.248C13.6228 22.9636 14.6744 21.9225 15.9716 21.9225C17.2687 21.9225 18.3203 22.9636 18.3203 24.248C18.3203 25.5323 17.2687 26.5735 15.9716 26.5735Z" fill="white"/>
<path d="M25.3984 24.248C25.3984 25.5328 24.3464 26.5735 23.0497 26.5735C21.752 26.5735 20.701 25.5318 20.701 24.248C20.701 22.9641 21.752 21.9225 23.0497 21.9225C24.3464 21.9225 25.3984 22.9632 25.3984 24.248Z" fill="white"/>
<path d="M132.083 131.993C132.083 131.993 132.193 131.981 132.409 131.967C132.626 131.957 132.949 131.937 133.369 131.848C134.192 131.675 135.47 131.302 136.73 130.2C137.993 129.141 139.233 127.354 139.663 124.964C139.896 123.775 139.8 122.463 139.817 121.069C139.815 119.673 139.813 118.187 139.81 116.613C139.798 104.017 139.781 85.7972 139.761 63.2835C139.755 52.0262 139.749 39.6947 139.742 26.4574C139.742 25.6304 139.741 24.7994 139.741 23.9645C139.755 23.1267 139.704 22.3075 139.544 21.4894C139.216 19.8639 138.463 18.2945 137.293 17.0697C136.15 15.8203 134.542 14.9894 132.836 14.7816C131.986 14.7098 131.091 14.7501 130.211 14.7393C129.327 14.7393 128.44 14.7403 127.55 14.7403C120.428 14.7423 113.098 14.7442 105.582 14.7472C75.5158 14.7511 42.4615 14.7551 7.76643 14.759C7.21951 14.757 6.68553 14.7521 6.16646 14.8279C5.90692 14.8732 5.64441 14.9087 5.39482 14.9953C5.26852 15.0337 5.14127 15.0662 5.01598 15.1085L4.65103 15.2601C3.67853 15.6697 2.82732 16.3363 2.16307 17.1485C1.49385 17.9568 0.999664 18.904 0.699356 19.9043C0.38414 20.9105 0.320465 21.9492 0.340363 23.0125C0.340363 27.2549 0.340378 31.4688 0.339386 35.6521C0.338394 44.0188 0.337387 52.2625 0.337387 60.3633C0.334396 76.5641 0.331451 92.1909 0.328461 107.077C0.327469 110.799 0.326477 114.474 0.325485 118.1C0.331451 119.912 0.310577 121.719 0.338409 123.499C0.350342 124.382 0.515366 125.255 0.772919 126.09C1.02548 126.929 1.40732 127.726 1.89955 128.444C2.38878 129.163 2.9735 129.818 3.65962 130.348C4.34674 130.874 5.11937 131.283 5.93874 131.542C6.34644 131.681 6.77106 131.748 7.19368 131.819C7.62126 131.844 8.04587 131.874 8.4854 131.864C9.35548 131.864 10.2225 131.865 11.0867 131.865C14.5412 131.866 17.941 131.868 21.2841 131.869C34.6545 131.876 47.1092 131.882 58.48 131.888C81.2175 131.909 99.6186 131.925 112.339 131.936C118.695 131.949 123.631 131.958 126.982 131.965C128.654 131.972 129.928 131.977 130.79 131.979C131.644 131.983 132.083 131.993 132.083 131.993C132.083 131.993 131.644 132.004 130.786 132.009C129.924 132.012 128.649 132.018 126.978 132.024C123.627 132.031 118.691 132.04 112.335 132.052C99.6146 132.064 81.2145 132.08 58.476 132.101C47.1052 132.106 34.6506 132.112 21.2801 132.119C17.937 132.12 14.5372 132.122 11.0827 132.123C10.2186 132.123 9.35246 132.124 8.48138 132.124C8.04982 132.134 7.60432 132.105 7.15884 132.078C6.71933 132.006 6.27786 131.936 5.85426 131.792C5.00307 131.524 4.20154 131.099 3.48956 130.556C2.77957 130.007 2.175 129.331 1.67085 128.591C1.16272 127.85 0.769974 127.03 0.509445 126.168C0.243942 125.308 0.0748596 124.411 0.0609283 123.504C0.0320892 121.709 0.0519867 119.913 0.0450287 118.098C0.0440369 114.472 0.043045 110.797 0.0420532 107.075C0.0390778 92.1889 0.0361176 76.5621 0.0331268 60.3614C0.032135 52.2605 0.0311279 44.0169 0.0311279 35.6502C0.0311279 31.4668 0.0311584 27.2529 0.0301666 23.0105C0.00927734 21.957 0.0758667 20.8484 0.402023 19.8157C0.713257 18.7779 1.22639 17.7954 1.92346 16.9526C2.61555 16.1069 3.50552 15.4088 4.52576 14.9786L4.90958 14.82C5.04085 14.7757 5.17505 14.7403 5.3073 14.7009C5.57082 14.6113 5.84627 14.5729 6.11972 14.5257C6.67162 14.4449 7.22746 14.4518 7.76443 14.4538C42.4595 14.4577 75.5138 14.4617 105.58 14.4656C113.096 14.4676 120.426 14.4695 127.548 14.4725C128.438 14.4725 129.325 14.4735 130.209 14.4735C131.096 14.4853 131.964 14.443 132.864 14.5188C134.64 14.7354 136.306 15.6028 137.484 16.8906C138.69 18.1567 139.463 19.7704 139.798 21.4392C139.962 22.2731 140.012 23.1336 139.998 23.9645C139.998 24.7985 139.997 25.6294 139.997 26.4574C139.99 39.6947 139.984 52.0262 139.978 63.2835C139.957 85.7962 139.94 104.016 139.929 116.613C139.927 118.187 139.924 119.673 139.922 121.069C139.9 122.46 139.993 123.777 139.753 124.98C139.309 127.391 138.05 129.187 136.77 130.248C135.494 131.351 134.203 131.717 133.375 131.879C132.952 131.965 132.628 131.978 132.41 131.983C132.193 131.992 132.083 131.993 132.083 131.993Z" fill="#263238"/>
<path d="M104.659 132.127C104.433 131.372 104.379 117.803 104.379 117.803L107 67.1596L84.4066 59.7696L80.8308 57.2236L59.4506 57.4549L56.7081 60.5514L34.0451 70.1714L40.0372 111.662L41.0157 131.877" fill="#FF8E49"/>
<path d="M106.993 67.1603C106.993 67.1603 112.282 67.8504 115.37 76.4928C118.458 85.1352 125.716 116.534 126.18 118.696C126.643 120.857 124.632 127.751 116.569 130.837C108.825 133.801 102.706 132.864 102.706 132.864V116.967L106.104 113.51L104.774 107.903L106.993 67.1603Z" fill="#FF8E49"/>
<path d="M121.359 114.36C121.351 114.375 121.067 114.255 120.552 114.044C120.038 113.832 119.292 113.526 118.349 113.202C117.409 112.878 116.267 112.537 114.967 112.305C114.318 112.188 113.629 112.099 112.912 112.063C112.192 112.016 111.456 112.047 110.71 112.185C107.718 112.756 105.329 114.323 104.114 115.783C103.488 116.514 103.176 117.218 102.968 117.699C102.811 118.198 102.729 118.48 102.711 118.477C102.703 118.476 102.713 118.404 102.74 118.267C102.77 118.131 102.807 117.929 102.879 117.673C103.062 117.175 103.357 116.445 103.978 115.686C105.189 114.168 107.605 112.547 110.666 111.962C111.427 111.82 112.202 111.791 112.928 111.841C113.657 111.881 114.356 111.976 115.012 112.1C116.327 112.347 117.473 112.707 118.413 113.052C119.354 113.397 120.09 113.726 120.595 113.964C120.847 114.081 121.039 114.179 121.169 114.246C121.298 114.313 121.363 114.352 121.359 114.36Z" fill="#263238"/>
<path d="M116.566 111.396C116.549 111.436 115.928 111.167 114.861 110.964C113.802 110.757 112.268 110.666 110.661 111.042C109.052 111.417 107.746 112.172 106.916 112.82C106.077 113.468 105.665 113.978 105.63 113.95C105.618 113.941 105.708 113.807 105.9 113.58C106.091 113.354 106.392 113.043 106.803 112.698C107.619 112.007 108.946 111.207 110.601 110.821C112.255 110.434 113.829 110.557 114.898 110.808C115.436 110.931 115.857 111.073 116.141 111.189C116.424 111.304 116.573 111.384 116.566 111.396Z" fill="#263238"/>
<path d="M105.25 80.1105C105.318 80.1115 105.271 87.8452 105.147 97.3835C105.023 106.924 104.868 114.655 104.802 114.654C104.735 114.653 104.781 106.921 104.905 97.3805C105.029 87.8422 105.183 80.1096 105.25 80.1105Z" fill="#263238"/>
<path d="M105.666 115.299L92.9676 115.147C92.0965 115.138 91.2891 115.57 90.8585 116.276L82.1726 133.817L82.4997 135H97.2604L105.891 116.914L105.666 115.299Z" fill="#263238"/>
<path d="M105.55 117.625L105.081 118.613L102.508 123.466C102.508 123.466 95.8519 122.911 94.8058 122.781C93.7587 122.651 93.2009 123.692 93.1313 124.305C93.0617 124.917 93.6891 125.619 93.6891 125.619C93.6891 125.619 89.5724 124.408 88.1763 123.497C86.7811 122.585 86.0831 123.158 86.0831 123.158C84.8272 121.972 83.2223 123.172 83.1517 123.497C83.082 123.821 84.6174 127.271 85.1752 128.068C85.7331 128.864 88.8037 131.632 89.0135 131.958C89.2233 132.284 91.595 132.869 94.3166 134.261C96.8443 135.552 98.7674 134.032 99.029 133.81C99.0737 133.811 99.1811 133.805 99.4108 133.781C100.039 133.716 101.714 132.219 102.132 132.267C102.551 132.314 102.9 132.22 103.737 131.355C104.575 130.491 106.808 126.817 107.423 124.865C107.91 123.315 107.624 122.916 107.485 122.815C107.692 122.921 108.473 123.278 109.948 123.499C111.693 123.758 112.6 122.588 112.74 120.375C112.879 118.159 107.504 118.211 105.55 117.625Z" fill="#FFBF9D"/>
<path d="M104.656 127.743C104.659 127.757 104.502 127.791 104.215 127.841C103.928 127.896 103.509 127.946 102.988 127.982C101.947 128.058 100.487 128.022 98.9226 127.708C97.3584 127.389 96.014 126.858 95.0992 126.387C94.6408 126.153 94.2808 125.945 94.0452 125.785C93.8065 125.628 93.6792 125.536 93.6872 125.525C93.708 125.494 94.244 125.829 95.1688 126.262C96.0926 126.696 97.4251 127.199 98.9674 127.513C100.511 127.822 101.947 127.88 102.98 127.841C104.014 127.805 104.65 127.708 104.656 127.743Z" fill="#FF9A6C"/>
<path d="M104.773 123.303C104.792 123.352 104.111 123.6 103.22 123.634C102.329 123.674 101.627 123.484 101.641 123.434C101.653 123.376 102.35 123.474 103.21 123.434C104.07 123.402 104.756 123.247 104.773 123.303Z" fill="#FF9A6C"/>
<path d="M107.929 123.095C107.903 123.149 106.961 122.776 105.75 122.465C104.541 122.149 103.528 122.015 103.535 121.957C103.539 121.905 104.577 121.952 105.807 122.273C107.039 122.589 107.955 123.049 107.929 123.095Z" fill="#FF9A6C"/>
<path d="M107.313 118.915C107.373 118.934 107.132 119.61 107.123 120.473C107.124 120.9 107.142 121.3 107.241 121.549C107.335 121.807 107.524 121.871 107.511 121.899C107.507 121.91 107.454 121.914 107.369 121.875C107.284 121.837 107.177 121.745 107.102 121.606C106.949 121.324 106.911 120.915 106.909 120.47C106.921 119.566 107.264 118.891 107.313 118.915Z" fill="#FF9A6C"/>
<path d="M100.914 131.514C100.913 131.521 100.842 131.523 100.707 131.521C100.547 131.516 100.352 131.509 100.117 131.501C99.6035 131.476 98.8617 131.44 97.9478 131.34C97.036 131.239 95.9451 131.079 94.7817 130.721C94.202 130.542 93.6054 130.31 93.0217 130.011C92.437 129.715 91.8612 129.366 91.2715 129.016C88.6195 127.437 86.2588 126.014 84.7335 125.08L84.6977 125.057L84.7027 125.02C84.8011 124.299 85.2336 123.84 85.5459 123.607C85.706 123.488 85.8462 123.418 85.9417 123.375C86.0391 123.336 86.0908 123.32 86.0938 123.325C86.1027 123.341 85.8929 123.414 85.5936 123.659C85.3052 123.9 84.9115 124.355 84.8379 125.032L84.807 124.972C86.3573 125.869 88.7349 127.268 91.3869 128.848C91.9775 129.199 92.5483 129.546 93.1221 129.839C93.6948 130.134 94.2756 130.366 94.8444 130.547C95.9849 130.907 97.0618 131.082 97.9667 131.2C98.8726 131.316 99.6124 131.374 100.123 131.423C100.357 131.446 100.551 131.465 100.71 131.48C100.844 131.496 100.914 131.507 100.914 131.514Z" fill="#FF9A6C"/>
<path d="M98.6719 133.628C98.6699 133.641 98.4471 133.621 98.0474 133.564C97.6487 133.507 97.0719 133.414 96.3659 133.27C94.9568 132.975 93.0158 132.516 90.9724 131.717C89.9551 131.311 89.0363 130.796 88.2945 130.224C87.5497 129.656 86.9531 129.071 86.4738 128.567C85.9945 128.062 85.6305 127.635 85.3809 127.339C85.1323 127.043 85.0021 126.873 85.013 126.864C85.025 126.855 85.1771 127.008 85.4446 127.289C85.7131 127.569 86.0949 127.981 86.5851 128.471C87.0764 128.96 87.678 129.529 88.4178 130.08C89.1546 130.634 90.0516 131.131 91.0569 131.534C93.0755 132.323 95.0076 132.805 96.3997 133.132C97.0987 133.292 97.6685 133.407 98.0623 133.487C98.4561 133.568 98.6739 133.613 98.6719 133.628Z" fill="#FF9A6C"/>
<path d="M106.802 69.5766C106.836 69.5826 106.782 69.9902 106.685 70.6449C106.579 71.3823 106.454 72.2487 106.316 73.2047C106.198 74.1637 106.089 75.032 105.998 75.7714C105.919 76.4291 105.865 76.8357 105.83 76.8338C105.797 76.8318 105.792 76.4212 105.827 75.7586C105.862 75.096 105.941 74.1824 106.075 73.1771C106.21 72.1729 106.375 71.2691 106.516 70.6183C106.657 69.9685 106.771 69.5717 106.802 69.5766Z" fill="#263238"/>
<path d="M36.7059 132.127L40.5312 108.608L34.0419 70.1703C34.0419 70.1703 29.1605 71.3282 24.3228 88.3008C19.9545 103.624 14.734 128.89 14.9358 131.864" fill="#FF8E49"/>
<path d="M38.4582 88.528C38.5885 88.5231 39.4128 98.2239 40.2978 110.192C41.1838 122.165 41.7964 131.872 41.6661 131.877C41.5359 131.882 40.7115 122.183 39.8255 110.21C38.9405 98.2426 38.328 88.5329 38.4582 88.528Z" fill="#263238"/>
<path d="M70.4061 3.30075C71.2802 1.70283 73.264 0.78424 75.0628 1.1436C77.2117 -0.480906 80.519 -0.36079 82.5426 1.41534C84.1585 0.505613 86.2556 0.50266 87.8735 1.40746C89.4913 2.31226 90.5712 4.09331 90.6179 5.93343C92.4824 5.67351 94.4583 6.70434 95.2945 8.37413C96.1318 10.0439 95.7659 12.2257 94.4284 13.5371C96.4401 14.2233 97.7278 16.5351 97.2405 18.5849C96.7533 20.6357 94.5597 22.1362 92.4506 21.8625L71.1261 8.33967C69.8393 7.04598 69.5321 4.89867 70.4061 3.30075Z" fill="#263238"/>
<path d="M93.0692 22.4729C92.4666 12.9887 84.607 5.55534 75.0102 5.38698L74.0566 5.37024C63.7628 5.78572 58.3673 14.6733 59.0713 24.8505L60.0537 60.6133C62.3687 66.0648 66.1622 70.4824 73.1587 71.6481C75.9847 72.1188 78.9162 71.4237 81.0392 69.5176C82.6024 68.1136 83.55 66.3385 83.6823 64.007L83.7807 56.9134C83.7807 56.9134 93.6947 55.5645 93.991 45.7801C94.1342 41.0533 93.6291 31.2974 93.0692 22.4729Z" fill="#FFBF9D"/>
<path d="M83.8672 56.9008C83.8672 56.9008 77.5489 57.1666 70.983 52.9213C70.983 52.9213 73.9035 60.0179 83.7817 59.309L83.8672 56.9008Z" fill="#FF9A6C"/>
<path d="M90.1013 32.213C90.1153 32.9515 89.4938 33.5717 88.7152 33.5993C87.9376 33.6269 87.2962 33.0519 87.2823 32.3135C87.2693 31.5751 87.8898 30.9538 88.6664 30.9262C89.446 30.8987 90.0874 31.4746 90.1013 32.213Z" fill="#263238"/>
<path d="M90.851 27.2286C90.673 27.4078 89.618 26.6053 88.0985 26.5827C86.5811 26.5384 85.4525 27.2926 85.2914 27.1065C85.2119 27.0228 85.3958 26.6969 85.887 26.3563C86.3713 26.0166 87.1927 25.6917 88.1383 25.7124C89.084 25.734 89.8735 26.0934 90.325 26.4537C90.7874 26.816 90.9395 27.1478 90.851 27.2286Z" fill="#263238"/>
<path d="M77.3436 32.6604C77.3565 33.3989 76.736 34.0181 75.9574 34.0467C75.1798 34.0752 74.5384 33.5003 74.5245 32.7609C74.5116 32.0225 75.1321 31.4022 75.9097 31.3746C76.6893 31.3451 77.3306 31.921 77.3436 32.6604Z" fill="#263238"/>
<path d="M75.9105 27.2473C75.7326 27.4265 74.6755 26.6241 73.1571 26.6014C71.6407 26.5571 70.5121 27.3113 70.35 27.1242C70.2704 27.0415 70.4524 26.7156 70.9466 26.374C71.4308 26.0334 72.2512 25.7094 73.1979 25.7291C74.1435 25.7508 74.9331 26.1101 75.3845 26.4705C75.8439 26.8348 75.9971 27.1676 75.9105 27.2473Z" fill="#263238"/>
<path d="M81.2314 38.4966C81.2254 38.4109 82.1731 38.2662 83.7064 38.0988C84.0952 38.0663 84.4641 37.9964 84.5337 37.7355C84.6302 37.4598 84.4751 37.0434 84.2951 36.5924C83.9471 35.6571 83.5831 34.6765 83.2003 33.6477C81.6818 29.4564 80.59 26.0125 80.761 25.9534C80.9321 25.8943 82.3013 29.2438 83.8198 33.435C84.1847 34.4688 84.5347 35.4533 84.8659 36.3955C85.0051 36.8347 85.2487 37.3338 85.0399 37.9058C84.9305 38.1914 84.6421 38.3942 84.3925 38.4562C84.1429 38.5271 83.9242 38.5271 83.7323 38.535C82.191 38.5921 81.2354 38.5822 81.2314 38.4966Z" fill="#263238"/>
<path d="M75.63 22.2174C75.5395 22.6378 74.1653 22.5876 72.5962 22.9666C71.0201 23.3102 69.792 23.9591 69.5414 23.6164C69.429 23.452 69.611 23.0454 70.0883 22.5974C70.5607 22.1504 71.3412 21.6907 72.2839 21.4731C73.2266 21.2575 74.1195 21.3323 74.7271 21.5321C75.3377 21.73 75.6668 22.0185 75.63 22.2174Z" fill="#263238"/>
<path d="M90.8165 23.0466C90.4973 23.3636 89.3846 22.9186 88.0123 22.7925C86.6451 22.6222 85.4578 22.8181 85.2191 22.4411C85.1157 22.2589 85.3265 21.9321 85.8615 21.6505C86.3885 21.3689 87.2477 21.1739 88.1884 21.2754C89.129 21.3777 89.9216 21.7519 90.371 22.1388C90.8275 22.5277 90.9587 22.891 90.8165 23.0466Z" fill="#263238"/>
<path d="M92.1977 17.9726C92.1977 17.9726 89.6998 11.7985 86.7405 10.3157C83.1577 8.52089 81.5319 12.4207 78.1063 11.4076C74.6796 10.3945 71.26 8.67251 67.6941 11.2471C63.7911 14.0639 65.5592 16.1196 65.2439 20.4576C63.9652 38.0456 60.629 42.9673 59.8534 34.6587C59.7689 33.748 57.2352 32.981 56.9259 29.1364C56.5262 24.1506 56.4397 18.1035 57.625 14.5916C58.6244 11.6311 60.3744 9.60389 63.4898 7.39063C68.4071 3.89548 75.0744 3.93584 79.5929 4.46553C84.1114 4.99522 92.7466 10.3059 92.1977 17.9726Z" fill="#263238"/>
<path d="M60.488 34.4024C60.4532 32.8911 59.1595 31.6752 57.6371 31.7914C55.7906 31.9322 53.7212 32.9335 53.7749 36.7072C53.8714 43.4012 60.6401 41.9244 60.6481 41.7324C60.6551 41.6024 60.5537 37.2034 60.488 34.4024Z" fill="#FFBF9D"/>
<path d="M59.1418 39.236C59.112 39.2153 59.0255 39.3197 58.8276 39.4122C58.6347 39.5028 58.3016 39.5688 57.9476 39.4428C57.2296 39.1937 56.6121 38.0792 56.5614 36.8731C56.5355 36.2646 56.6559 35.6828 56.8677 35.1994C57.0665 34.7071 57.3818 34.3605 57.7407 34.2916C58.0977 34.204 58.3552 34.4137 58.4408 34.6017C58.5342 34.7878 58.4934 34.9217 58.5292 34.9325C58.5481 34.9493 58.6724 34.8183 58.6148 34.5427C58.5849 34.4107 58.5034 34.2532 58.3423 34.1272C58.1782 33.9992 57.9386 33.9352 57.689 33.9657C57.168 34.009 56.7056 34.4905 56.4739 35.0212C56.2134 35.5548 56.0632 36.2085 56.092 36.8928C56.1547 38.2416 56.8706 39.494 57.8521 39.7598C58.3294 39.876 58.7242 39.7283 58.927 39.5678C59.1319 39.3975 59.1657 39.2478 59.1418 39.236Z" fill="#FF9A6C"/>
<path d="M56.7661 13.1227C55.9636 11.639 56.1466 9.68758 57.2116 8.37616C58.2766 7.06474 60.1619 6.4681 61.7976 6.92493C62.5544 5.16849 64.213 3.82064 66.1004 3.42978C67.9887 3.03793 70.054 3.6129 71.4591 4.92039C72.6076 2.91387 75.0349 1.70485 77.3468 1.98741C79.6588 2.26998 81.7161 4.02642 82.3376 6.24953C84.1703 5.55345 86.4514 6.32239 87.4746 7.98037C87.7004 8.34662 87.8724 8.78671 87.755 9.19924C87.5313 9.98688 86.4733 10.1582 85.6589 10.0243C84.8445 9.89138 83.9455 9.62161 83.2415 10.0479C82.4818 10.5087 82.3585 11.5247 82.2094 12.3941C82.0592 13.2635 81.6078 14.2854 80.7188 14.3474C80.2156 14.3829 79.7532 14.0797 79.255 14.0009C78.3641 13.8591 77.5198 14.4469 76.9153 15.1095C76.3097 15.7721 75.8075 16.5558 75.0409 17.0264C74.2742 17.497 73.1038 17.5088 72.6165 16.7576C72.0826 18.6411 70.0461 19.982 68.0852 19.7408C67.5203 19.6709 66.8412 19.5252 66.4653 19.9476C66.1501 20.302 66.2555 20.8445 66.167 21.3082C65.9701 22.342 64.75 22.9229 63.6939 22.8008C62.6876 22.6846 61.8096 22.1077 60.9783 21.5268C60.2246 22.3026 58.912 22.5182 57.9703 21.958C56.9262 21.3368 56.5085 19.8658 57.0733 18.7976C55.717 19.1383 54.3795 17.7343 54.4293 16.35C54.477 14.9657 55.538 13.7882 56.7661 13.1227Z" fill="#263238"/>
<path d="M82.8051 8.22655C82.8111 8.22655 82.8091 8.26888 82.8011 8.34962C82.7902 8.43035 82.7833 8.55145 82.7514 8.70602C82.6838 9.01419 82.5496 9.46905 82.2373 9.98692C81.9231 10.4969 81.4398 11.0827 80.711 11.5425C79.997 12.0082 79.0215 12.3538 77.9287 12.276L78.046 12.1293C78.2459 12.7053 78.1763 13.3905 77.877 13.9743C77.5936 14.568 77.1551 15.0908 76.6907 15.5998C76.454 15.844 76.2462 16.1325 75.921 16.355C75.6048 16.5686 75.2279 16.6888 74.8431 16.7301C74.0794 16.8128 73.2233 16.5647 72.6823 15.9198L72.9359 15.8529C72.74 17.18 71.9524 18.4974 70.7244 19.288C70.074 19.7359 69.2736 20.0037 68.493 19.9693C67.7104 19.9476 66.9875 19.7084 66.3143 19.4563L66.4962 19.3805C66.1184 20.2056 65.5476 20.9056 64.8605 21.4175C64.1863 21.9285 63.2933 22.2199 62.4949 22.0112C60.9058 21.6489 59.8717 20.3178 59.6798 19.0773L59.8309 19.1501C59.0324 19.5636 58.1822 19.5892 57.503 19.4475C56.8139 19.3106 56.278 19.0034 55.8961 18.7041C55.5133 18.3989 55.2896 18.0878 55.1553 17.8732C55.033 17.6507 54.9823 17.5276 54.9903 17.5246C55.0251 17.498 55.2051 18.0376 55.9658 18.6155C56.3456 18.8922 56.8706 19.1728 57.5339 19.2889C58.1882 19.411 58.9936 19.3677 59.7315 18.9709L59.8597 18.902L59.8836 19.0448C60.0775 20.2016 61.0739 21.4451 62.5476 21.7641C63.2715 21.9462 64.056 21.6853 64.6954 21.2009C65.3378 20.7185 65.8817 20.0441 66.2327 19.2673L66.2884 19.1442L66.4147 19.1915C67.078 19.4376 67.776 19.6631 68.4989 19.6808C69.2219 19.7094 69.9398 19.4711 70.5603 19.0467C71.7207 18.2995 72.4606 17.0668 72.6515 15.8105L72.6992 15.4945L72.9051 15.7436C73.3615 16.2949 74.1272 16.5312 74.8133 16.4584C75.1573 16.4239 75.4924 16.3186 75.7689 16.1345C76.0384 15.9582 76.2541 15.6737 76.4948 15.4275C76.9582 14.9274 77.3847 14.4243 77.6542 13.8729C77.9376 13.3275 78.0013 12.725 77.8312 12.2041L77.7785 12.0436L77.9486 12.0574C78.9777 12.1441 79.9165 11.832 80.6135 11.3958C81.3255 10.9666 81.8078 10.4103 82.129 9.92489C82.7644 8.91868 82.7574 8.20981 82.8051 8.22655Z" fill="#455A64"/>
<path d="M76.7498 40.4321C78.5914 40.8004 80.3882 41.3901 82.0866 42.1856L82.1016 42.2329C81.8719 43.4783 81.481 44.8439 80.3842 45.4947C79.5688 45.9791 78.484 45.9308 77.6696 45.4445C76.8552 44.9581 76.3401 44.2059 76.1999 43.2745C76.0587 42.3431 76.4365 41.2966 76.7498 40.4321Z" fill="#FF9A6C"/>
<path d="M79.2635 45.6914C79.2684 45.6048 78.4749 45.8568 77.5531 45.1893C77.1067 44.8683 76.683 44.3396 76.517 43.6377C76.339 42.9406 76.4066 42.1136 76.6671 41.3033C76.7278 41.1202 76.8173 40.8593 76.8789 40.7539C76.9247 40.7185 76.8441 40.746 76.9108 40.7421L77.1922 40.8278C77.5889 40.9508 77.9757 41.07 78.3546 41.1871C79.0487 41.3919 79.7069 41.5859 80.3314 41.77C81.461 42.088 82.1701 42.2534 82.1909 42.1904C82.2118 42.1274 81.5396 41.8487 80.4368 41.448C79.8233 41.2334 79.175 41.0069 78.4918 40.7677C78.116 40.6427 77.7321 40.5137 77.3383 40.3818C77.23 40.3483 77.1583 40.3168 77.0102 40.2794C76.866 40.2134 76.5458 40.3296 76.4802 40.4861C76.327 40.7569 76.2913 40.9223 76.2067 41.1566C75.9243 42.0319 75.8587 42.9554 76.0864 43.7479C76.3002 44.5484 76.8352 45.1499 77.3612 45.4669C77.8912 45.8007 78.4182 45.8716 78.7583 45.8421C79.1033 45.8135 79.2714 45.716 79.2635 45.6914Z" fill="#263238"/>
</svg>
