<svg width="140" height="135" viewBox="0 0 140 135" fill="none" xmlns="http://www.w3.org/2000/svg">
<path d="M8.10396 132.474H132.214C136.514 132.474 140 128.292 140 123.133V17.3494C140 12.1907 136.514 8.0083 132.214 8.0083H8.10396C3.80453 8.0083 0.318359 12.1907 0.318359 17.3494V123.133C0.318359 128.292 3.80453 132.474 8.10396 132.474Z" fill="white"/>
<path d="M0.131226 29.7712H139.422V15.4957C139.422 11.3431 136.216 7.97742 132.26 7.97742H8.50374C3.87999 7.97742 0.132172 11.913 0.132172 16.7661L0.131226 29.7712Z" fill="#E0E0E0"/>
<path d="M128.756 18.2001C128.756 19.5621 129.807 20.6658 131.105 20.6658C132.402 20.6658 133.453 19.5621 133.453 18.2001C133.453 16.8382 132.402 15.7345 131.105 15.7345C129.807 15.7345 128.756 16.8382 128.756 18.2001Z" fill="white"/>
<path d="M121.678 18.2001C121.678 19.5621 122.729 20.6658 124.026 20.6658C125.324 20.6658 126.375 19.5621 126.375 18.2001C126.375 16.8382 125.324 15.7345 124.026 15.7345C122.729 15.7345 121.678 16.8382 121.678 18.2001Z" fill="white"/>
<path d="M114.6 18.2001C114.6 19.5621 115.651 20.6658 116.948 20.6658C118.245 20.6658 119.297 19.5621 119.297 18.2001C119.297 16.8382 118.245 15.7345 116.948 15.7345C115.652 15.7345 114.6 16.8382 114.6 18.2001Z" fill="white"/>
<path d="M7.91844 132.442C7.91844 132.442 7.8087 132.43 7.59216 132.415C7.37563 132.404 7.05231 132.384 6.63196 132.288C5.80891 132.106 4.53026 131.71 3.27119 130.541C2.00821 129.418 0.767792 127.523 0.338623 124.989C0.106415 123.729 0.202423 122.337 0.185776 120.859C0.187729 119.379 0.190628 117.804 0.192581 116.134C0.204346 102.78 0.221054 83.4608 0.241623 59.5902C0.247498 47.6539 0.253372 34.5789 0.260223 20.5431C0.260223 19.6657 0.261185 18.7852 0.261185 17.9006C0.247467 17.0129 0.297424 16.1437 0.458115 15.2755C0.786346 13.5525 1.53987 11.8882 2.70976 10.589C3.85223 9.26413 5.46011 8.38361 7.16696 8.16349C8.01646 8.08737 8.91197 8.12954 9.79184 8.11925C10.6756 8.11925 11.5624 8.12029 12.453 8.12029C19.5743 8.12235 26.9044 8.12441 34.4205 8.12749C64.4862 8.13161 97.5403 8.13572 132.235 8.13983C132.781 8.13777 133.315 8.1316 133.835 8.21286C134.094 8.26121 134.357 8.29824 134.607 8.38979C134.733 8.4299 134.861 8.46489 134.985 8.50912L135.349 8.66958C136.321 9.10366 137.173 9.81034 137.837 10.6713C138.506 11.5292 139 12.5321 139.301 13.5937C139.616 14.6604 139.68 15.762 139.661 16.8894C139.661 21.3876 139.661 25.855 139.662 30.2905C139.663 39.1615 139.664 47.9028 139.664 56.492C139.666 73.6702 139.669 90.2395 139.672 106.023C139.673 109.969 139.674 113.866 139.675 117.711C139.669 119.632 139.69 121.548 139.663 123.435C139.651 124.371 139.486 125.296 139.229 126.183C138.976 127.072 138.595 127.918 138.103 128.68C137.614 129.441 137.029 130.136 136.343 130.699C135.655 131.256 134.883 131.69 134.064 131.965C133.655 132.112 133.231 132.183 132.809 132.258C132.382 132.285 131.956 132.317 131.517 132.307C130.647 132.307 129.78 132.308 128.916 132.308C125.461 132.309 122.061 132.311 118.719 132.312C105.348 132.319 92.894 132.325 81.5242 132.331C58.7866 132.353 40.3866 132.37 27.6667 132.383C21.3106 132.396 16.3743 132.406 13.0243 132.414C11.3527 132.421 10.078 132.426 9.21672 132.43C8.3584 132.432 7.91844 132.442 7.91844 132.442C7.91844 132.442 8.35744 132.454 9.21576 132.459C10.077 132.463 11.3527 132.468 13.0233 132.475C16.3743 132.483 21.3096 132.493 27.6656 132.505C40.3856 132.518 58.7856 132.535 81.5232 132.557C92.893 132.563 105.347 132.569 118.718 132.576C122.06 132.577 125.461 132.579 128.915 132.58C129.778 132.58 130.645 132.581 131.516 132.581C131.948 132.593 132.393 132.561 132.838 132.533C133.278 132.457 133.719 132.383 134.143 132.229C134.995 131.946 135.795 131.495 136.508 130.918C137.218 130.337 137.822 129.62 138.326 128.835C138.834 128.05 139.227 127.18 139.487 126.266C139.753 125.355 139.922 124.404 139.935 123.443C139.964 121.538 139.944 119.635 139.951 117.71C139.952 113.865 139.953 109.969 139.954 106.022C139.957 90.2374 139.959 73.6681 139.962 56.4909C139.963 47.9018 139.964 39.1604 139.964 30.2895C139.964 25.854 139.964 21.3856 139.965 16.8884C139.986 15.7713 139.919 14.5966 139.594 13.5011C139.282 12.4015 138.77 11.3584 138.073 10.4656C137.382 9.56964 136.492 8.82902 135.471 8.3723L135.088 8.20464C134.957 8.15732 134.822 8.12029 134.69 8.07812C134.426 7.98348 134.151 7.94234 133.878 7.89193C133.325 7.80656 132.771 7.81272 132.234 7.81581C97.5393 7.81992 64.4852 7.82507 34.4195 7.82816C26.9034 7.83022 19.5734 7.83226 12.4521 7.83535C11.5614 7.83535 10.6747 7.83639 9.79088 7.83639C8.90416 7.84873 8.03606 7.80449 7.13658 7.88473C5.36115 8.11411 3.69446 9.03372 2.51672 10.3998C1.31056 11.7421 0.538467 13.4527 0.202393 15.222C0.0377808 16.1066 -0.0121613 17.019 0.00253296 17.8995C0.00253296 18.7842 0.00349426 19.6647 0.00349426 20.5421C0.0103455 34.5779 0.0162048 47.6529 0.0220947 59.5892C0.0426636 83.4597 0.0593719 102.779 0.0711212 116.133C0.0740662 117.802 0.0759888 119.378 0.0779419 120.858C0.100479 122.333 0.00740051 123.73 0.246475 125.005C0.690323 127.562 1.95038 129.466 3.22903 130.59C4.50476 131.759 5.79617 132.147 6.62413 132.32C7.04643 132.411 7.3717 132.426 7.58923 132.431C7.80872 132.441 7.91844 132.442 7.91844 132.442Z" fill="#263238"/>
<path d="M49.7249 25.3321V64.7125C49.6446 71.5231 48.6912 82.2096 58.9538 81.8516C67.8358 80.8364 70.1923 72.0096 70.2609 65.6537C70.2932 62.6388 70.3266 60.1248 70.3501 59.8152C70.3501 59.8152 80.0728 58.983 80.8939 48.9013C81.2907 44.0297 81.3289 33.9243 81.2633 24.7828C81.1927 14.9645 73.9401 6.85473 64.6122 6.13983L63.6854 6.06885C53.6413 5.91558 49.5937 14.7886 49.7249 25.3321Z" fill="#FFBF9D"/>
<path d="M70.3516 59.8155C70.3516 59.8155 64.2669 59.724 58.1068 54.9717C58.1068 54.9717 60.6465 62.5764 70.3016 62.4026L70.3516 59.8155Z" fill="#FF9A6C"/>
<path d="M64.8335 28.9145C64.6424 29.1182 63.5343 28.1811 61.9244 28.1358C60.3175 28.0659 59.1143 28.9197 58.9448 28.7016C58.8615 28.6049 59.0604 28.2325 59.5846 27.8458C60.101 27.461 60.975 27.0979 61.9763 27.1339C62.9787 27.171 63.8106 27.5938 64.2848 28.0155C64.7698 28.4393 64.9276 28.824 64.8335 28.9145Z" fill="#263238"/>
<path d="M63.5294 41.7781C63.7929 41.7061 64.2838 43.1091 65.6399 44.0184C66.9822 44.9483 68.4333 44.8671 68.4716 45.1448C68.4951 45.2723 68.1423 45.4842 67.5025 45.5326C66.8705 45.583 65.9436 45.4225 65.103 44.8496C64.2623 44.2756 63.7567 43.463 63.5568 42.8458C63.351 42.2204 63.4049 41.8058 63.5294 41.7781Z" fill="#263238"/>
<path d="M65.9367 34.2984C65.9102 35.0205 65.3076 35.5925 64.5885 35.578C63.8712 35.5636 63.3098 34.9681 63.3362 34.246C63.3617 33.5249 63.9652 32.9519 64.6825 32.9653C65.4007 32.9797 65.9621 33.5763 65.9367 34.2984Z" fill="#263238"/>
<path d="M68.8734 40.6641C68.8725 40.5757 69.8023 40.479 71.3044 40.3936C71.6845 40.3812 72.0471 40.3308 72.1294 40.0654C72.2381 39.7867 72.1098 39.3475 71.9589 38.8722C71.6709 37.8868 71.37 36.854 71.0536 35.7709C69.8033 31.3591 68.9273 27.7434 69.0969 27.692C69.2664 27.6405 70.4177 31.1749 71.6679 35.5868C71.9668 36.674 72.2538 37.7109 72.5253 38.7015C72.637 39.1623 72.8466 39.692 72.6124 40.2712C72.49 40.5592 72.199 40.7526 71.952 40.802C71.7041 40.8616 71.4925 40.8493 71.3044 40.8462C69.8023 40.8164 68.8725 40.7526 68.8734 40.6641Z" fill="#263238"/>
<path d="M64.1653 21.7267C64.0095 22.1011 62.7221 21.8193 61.1798 21.9026C59.6356 21.952 58.3697 22.3429 58.1904 21.9829C58.111 21.8111 58.351 21.4655 58.8752 21.1311C59.3955 20.7968 60.2078 20.5047 61.1337 20.4636C62.0587 20.4245 62.8876 20.6477 63.4275 20.9357C63.9713 21.2248 64.2329 21.5488 64.1653 21.7267Z" fill="#263238"/>
<path d="M79.44 24.2575C79.2714 24.563 78.0153 24.2235 76.4936 24.1741C74.972 24.0959 73.709 24.3294 73.5483 24.0095C73.4778 23.8573 73.7286 23.5837 74.2587 23.3409C74.7848 23.0982 75.5972 22.913 76.5094 22.95C77.4216 22.9891 78.2279 23.2422 78.7462 23.5292C79.2714 23.8162 79.5144 24.1114 79.44 24.2575Z" fill="#263238"/>
<path d="M94.016 15.7333C93.9111 15.327 93.6299 14.9937 93.285 14.7797C92.5335 14.3138 91.6673 14.3755 90.8296 14.3621C88.2811 14.3189 85.7512 13.5022 83.6074 12.0569C82.6031 10.5376 81.4734 9.10886 80.2466 7.78089C77.3356 4.63017 74.9409 2.48546 72.4629 1.43831C69.258 0.083594 63.8984 -0.464663 60.5572 0.454939C57.216 1.37557 54.2149 4.22078 53.7504 7.81484C51.876 6.15153 49.063 6.16592 46.781 7.12873L46.7242 7.10198C44.1825 8.05347 42.7383 10.8719 41.9887 13.5937C41.2391 16.3145 40.9188 19.2245 39.546 21.6634C39.2589 22.1736 38.918 22.7846 39.1688 23.3154C39.3628 23.7258 39.8596 23.8945 40.2907 23.8287C40.7218 23.7618 41.1049 23.5118 41.4743 23.266C41.1911 23.9788 40.907 24.6917 40.6238 25.4035C41.5439 25.5722 42.4963 25.494 43.3889 25.2101C43.9287 27.755 44.5725 30.6609 45.1966 32.3859C46.2597 32.3828 47.2317 32.462 47.8862 33.0812C48.7768 33.9216 49.1747 35.5027 50.6542 34.9019C51.4067 34.5964 52.0935 32.9383 52.3463 32.1328C54.0179 26.7891 54.5734 21.0657 53.9689 15.4771C55.0212 14.2994 56.292 13.3366 57.6893 12.6587L57.5756 12.7667C60.2593 11.7885 63.2958 10.8257 65.8424 12.1485C67.8177 13.174 68.9787 15.3259 70.4553 17.0438C73.2546 20.2984 77.0289 22.0666 81.2019 22.2548C81.344 25.0939 81.1167 29.1066 81.2587 31.9446L83.5339 27.397L83.5359 27.4196C83.722 27.0863 83.8758 26.751 84.0248 26.4147L84.0757 26.3128V26.3005C84.3128 25.7604 84.5372 25.2194 84.836 24.6855C84.8449 24.6937 84.8537 24.702 84.8615 24.7092C86.3273 26.0659 88.4859 23.9912 87.3297 22.3371C87.1004 22.009 86.8261 21.7169 86.5125 21.4751C87.1817 22.1355 88.1802 22.4513 89.0591 22.1684C89.937 21.8856 90.618 20.9526 90.5425 19.9908C90.4906 19.3345 90.0438 18.7482 89.4794 18.489C90.663 18.5847 91.8731 18.3141 92.9049 17.697C93.5819 17.2927 94.2462 16.6261 94.016 15.7333Z" fill="#263238"/>
<path d="M56.7728 8.9729C56.7915 8.99862 56.3702 9.23932 55.8097 9.89765C55.2542 10.5529 54.63 11.6937 54.3351 13.2459C54.1842 14.0173 54.0892 14.8804 54.0901 15.8092C54.0862 16.7381 54.1568 17.7328 54.2253 18.781C54.29 19.8291 54.3615 20.936 54.2978 22.088C54.2655 22.663 54.1998 23.2483 54.0813 23.8326C53.9598 24.4076 53.8167 25.031 53.4032 25.5247C53.074 25.9269 52.5244 26.1059 52.0472 26.003C51.5671 25.9135 51.1399 25.6451 50.8273 25.2799C50.2091 24.5228 50.0552 23.5621 49.9014 22.7155L50.1032 22.7412C49.774 23.5024 49.436 24.2543 48.9343 24.854C48.4415 25.4579 47.7595 25.857 47.0658 25.9228C46.7199 25.9557 46.3721 25.8971 46.0752 25.7407C45.7724 25.5864 45.553 25.3231 45.4021 25.0454C45.2581 24.7625 45.1836 24.4518 45.1983 24.1515C45.2149 23.8521 45.3257 23.5682 45.5069 23.3677L45.6088 23.4633C44.8681 24.349 44.0862 24.8252 43.5453 25.0886C43.272 25.2202 43.0534 25.2994 42.9055 25.3498C42.7566 25.3961 42.6782 25.4157 42.6762 25.4095C42.6742 25.4023 42.7487 25.3714 42.8928 25.3128C43.0358 25.2511 43.2484 25.1616 43.513 25.0196C44.0382 24.7378 44.7946 24.2492 45.505 23.3707L45.6069 23.4664C45.2835 23.8254 45.2649 24.457 45.5432 24.9651C45.6833 25.2151 45.8851 25.4496 46.1516 25.5813C46.4162 25.7171 46.7336 25.7685 47.0491 25.7345C47.686 25.6677 48.3229 25.2933 48.7834 24.7193C49.2557 24.1463 49.5839 23.4139 49.9092 22.6517L50.0474 22.3287L50.1111 22.6774C50.2649 23.523 50.4285 24.4446 50.9929 25.1277C51.2731 25.4558 51.6641 25.6975 52.0844 25.7747C52.5058 25.86 52.9496 25.714 53.2367 25.3694C53.5982 24.9415 53.7452 24.351 53.8628 23.7863C53.9794 23.2164 54.045 22.6435 54.0783 22.0777C54.144 20.9452 54.0784 19.8456 54.0196 18.7984C53.9578 17.7513 53.8932 16.7515 53.9049 15.8113C53.9128 14.8711 54.0176 13.9968 54.1812 13.215C54.5006 11.6422 55.1601 10.4881 55.746 9.84004C56.3359 9.18583 56.7728 8.9729 56.7728 8.9729Z" fill="#FF8E49"/>
<path d="M86.4921 18.7865C86.494 18.7896 86.4685 18.8132 86.4146 18.8554C86.35 18.9058 86.2706 18.9655 86.1746 19.0395C86.0697 19.1218 85.9365 19.2185 85.768 19.3131C85.6024 19.4129 85.4133 19.5343 85.184 19.6361C84.2914 20.0815 82.8608 20.5238 81.0717 20.4127C79.3002 20.3078 77.173 19.6495 75.2741 18.1652C73.3547 16.7158 71.6704 14.5824 70.2937 12.1384C69.5951 10.9174 69.0258 9.66555 68.3978 8.50936C67.7746 7.35214 67.0858 6.28339 66.251 5.43888C65.427 4.59025 64.4697 3.96277 63.483 3.67475C62.9912 3.52148 62.4964 3.48651 62.0231 3.49783C61.5489 3.52457 61.1001 3.62539 60.6866 3.76734C59.8587 4.05844 59.1904 4.53881 58.6839 5.03256C58.1754 5.53145 57.8344 6.05811 57.5992 6.50865C57.1622 7.43545 57.1387 8.03104 57.1035 8.02075C57.0995 8.02075 57.1025 7.98475 57.1113 7.9148C57.124 7.83148 57.1387 7.72965 57.1564 7.60621C57.2034 7.33568 57.3141 6.9448 57.5209 6.46751C57.7472 6.00154 58.0842 5.45636 58.5967 4.93689C59.1072 4.42258 59.7852 3.91957 60.6347 3.60892C61.06 3.45668 61.5224 3.34765 62.0133 3.31576C62.5022 3.29827 63.0225 3.3312 63.532 3.48549C64.5569 3.77557 65.5475 4.41744 66.3941 5.28149C67.2524 6.14144 67.9569 7.22973 68.5879 8.39312C69.2238 9.55753 69.7931 10.8063 70.4858 12.016C71.8526 14.4415 73.5124 16.5523 75.3957 17.9882C77.2593 19.4592 79.3365 20.1196 81.0815 20.2451C82.8413 20.3747 84.2542 19.9653 85.1478 19.5518C86.0482 19.1311 86.4754 18.7577 86.4921 18.7865Z" fill="#FF8E49"/>
<path d="M87.3668 14.3548C87.3747 14.3692 87.2521 14.4576 87.0219 14.6068C86.7946 14.7601 86.4458 14.9493 86.0019 15.1509C85.5591 15.3567 85.0094 15.548 84.3872 15.7074C83.7621 15.8556 83.0625 15.9656 82.3217 15.9955C81.581 16.016 80.8756 15.9533 80.2426 15.8473C79.6116 15.729 79.0511 15.5747 78.5964 15.3999C78.1408 15.2281 77.7812 15.0635 77.5451 14.9257C77.307 14.792 77.1787 14.7117 77.1865 14.6973C77.2051 14.6572 77.7362 14.9442 78.6464 15.2415C79.1011 15.3937 79.6547 15.5285 80.2749 15.6323C80.8971 15.7249 81.5888 15.7794 82.3139 15.7599C83.0389 15.7311 83.7248 15.6303 84.3411 15.4955C84.9545 15.3495 85.4993 15.1787 85.9432 14.9956C86.8338 14.6377 87.3453 14.3157 87.3668 14.3548Z" fill="#FF8E49"/>
<path d="M79.5136 28.9144C79.3225 29.1181 78.2144 28.181 76.6045 28.1357C74.9976 28.0658 73.7945 28.9195 73.625 28.7015C73.5417 28.6048 73.7405 28.2324 74.2647 27.8456C74.7811 27.4609 75.6551 27.0978 76.6575 27.1338C77.6588 27.1709 78.4917 27.5936 78.9659 28.0154C79.449 28.4392 79.6067 28.8239 79.5136 28.9144Z" fill="#263238"/>
<path d="M78.3585 34.2981C78.333 35.0203 77.7294 35.5922 77.0112 35.5778C76.294 35.5634 75.7326 34.9678 75.7591 34.2467C75.7845 33.5246 76.3881 32.9527 77.1053 32.9661C77.8225 32.9794 78.3849 33.576 78.3585 34.2981Z" fill="#263238"/>
<path d="M49.9844 32.8648C49.8256 32.7774 43.5303 30.3107 43.2609 37.217C42.9914 44.1233 49.6522 42.9835 49.6708 42.786C49.6904 42.5885 49.9844 32.8648 49.9844 32.8648Z" fill="#FFBF9D"/>
<path d="M47.7562 40.0834C47.7277 40.0597 47.6386 40.1626 47.4406 40.248C47.2486 40.3303 46.9204 40.3796 46.5833 40.2294C45.8994 39.9311 45.3586 38.7482 45.3752 37.5015C45.3831 36.872 45.532 36.2795 45.7632 35.7929C45.9837 35.2961 46.309 34.9566 46.6617 34.9062C47.0135 34.8373 47.2525 35.0677 47.325 35.2652C47.4054 35.4617 47.3583 35.5985 47.3926 35.6119C47.4103 35.6304 47.5386 35.5029 47.4965 35.2148C47.4749 35.077 47.4044 34.9104 47.2545 34.7705C47.1016 34.6296 46.8723 34.5503 46.6274 34.5678C46.1189 34.5833 45.6427 35.0533 45.3889 35.5872C45.1057 36.1221 44.9244 36.7886 44.9156 37.4953C44.9039 38.8891 45.5319 40.2202 46.4716 40.5504C46.9292 40.6975 47.3211 40.5668 47.5269 40.4126C47.7385 40.25 47.7787 40.0968 47.7562 40.0834Z" fill="#FF9A6C"/>
<path d="M107.163 111.553L104.264 113.898L104.323 107.987L94.063 106.458C94.063 106.458 91.6545 121.06 91.4135 124.687C91.3292 125.956 90.9197 128.534 91.2724 130.795C92.0043 135.481 99.3931 136.133 103.049 133.336C104.277 132.397 104.606 132.321 105.83 131.079C111.221 125.603 119.223 113.928 119.223 113.928L111.998 107.74L107.163 111.553Z" fill="#FFBF9D"/>
<path d="M107.92 110.86C107.963 110.916 107.34 111.539 106.326 112.54C105.309 113.537 103.899 114.911 102.301 116.385C100.701 117.858 99.2092 119.144 98.0687 119.996C96.9331 120.857 96.1561 121.276 96.1257 121.219C96.0875 121.155 96.7891 120.635 97.859 119.709C98.9358 118.792 100.384 117.47 101.98 116.001C105.149 113.038 107.819 110.729 107.92 110.86Z" fill="#FF9A6C"/>
<path d="M81.8828 67.5314L70.9539 63.0322L50.8217 61.8359L41.3595 65.613L54.3264 73.1725L65.5062 72.7415L81.8828 67.5314Z" fill="#FFBF9D"/>
<path d="M77.0686 132.584C76.08 132.763 30.7566 132.584 30.7566 132.584L30.1404 116.355L30.3304 104.129L34.0773 67.0952C34.0773 67.0952 43.9361 63.5361 48.9665 61.8368C48.9665 61.8368 54.2614 67.6301 64.3281 67.4737C74.1703 67.3205 76.226 64.9916 76.226 64.9916L89.9856 70.5298C89.9856 70.5298 99.769 74.2123 101.452 78.7579C103.092 83.182 106.094 108.447 106.094 108.447H91.8315L91.9795 132.953L77.0686 132.584Z" fill="#FF8E49"/>
<g opacity="0.2">
<path d="M53.3008 92.3987L51.2559 108.095L41.3607 112.734L34.0474 106.191V91.618L53.3008 92.3987Z" fill="black"/>
</g>
<path d="M34.3033 96.8508C34.3033 96.9814 38.4156 97.0874 43.4871 97.0874C48.5606 97.0874 52.6719 96.9814 52.6719 96.8508C52.6719 96.7202 48.5606 96.6142 43.4871 96.6142C38.4156 96.6152 34.3033 96.7202 34.3033 96.8508Z" fill="#263238"/>
<path d="M29.288 77.9575C29.2576 77.9606 29.2684 78.4337 29.3007 79.2865C29.334 80.2215 29.3771 81.4374 29.429 82.9011C29.5466 86.0323 29.7044 90.2096 29.8778 94.8271C30.0767 99.4447 30.257 103.622 30.3922 106.753C30.4726 108.216 30.5392 109.432 30.5902 110.366C30.646 111.218 30.6901 111.69 30.7205 111.689C30.7499 111.688 30.7616 111.214 30.7567 110.36C30.7411 109.423 30.7195 108.207 30.695 106.742C30.6225 103.687 30.4902 99.4683 30.306 94.8086C30.1218 90.1509 29.919 85.9345 29.7318 82.8846C29.6378 81.3592 29.5456 80.1258 29.4673 79.2752C29.384 78.4235 29.3164 77.9544 29.288 77.9575Z" fill="#263238"/>
<g opacity="0.3">
<path d="M99.183 87.5044C99.5034 94.3366 97.0509 100.956 92.7064 106.054C94.0488 99.631 97.3988 93.6515 99.183 87.5044Z" fill="black"/>
</g>
<path d="M79.8163 94.9279L65.6795 119.421C65.0308 120.545 65.7931 121.983 67.0453 121.997L109.332 122.444C109.836 122.449 110.313 122.208 110.623 121.792L129.733 96.0903C130.553 94.9876 129.821 93.3767 128.49 93.35L84.0755 92.4643C82.3393 92.4304 80.7158 93.3685 79.8163 94.9279Z" fill="#E0E0E0"/>
<path d="M109.267 107.056C109.267 107.056 108.113 104.167 111.042 103.794C113.971 103.422 121.661 103.794 121.661 103.794C121.661 103.794 125.865 104.26 124.977 107.428C124.977 107.428 127.462 109.758 126.132 112.274C124.8 114.79 124.268 114.044 124.268 114.044C124.268 114.044 124.623 117.12 122.404 117.585C122.404 117.585 119.998 120.567 117.784 120.381C115.569 120.195 106.161 115.442 105.54 114.51C104.919 113.578 104.031 113.049 104.563 112.009C104.563 112.009 103.409 109.282 105.894 108.867C105.894 108.867 106.072 106.59 109.267 107.056Z" fill="#FFBF9D"/>
<path d="M122.617 108.1C122.616 108.171 121.86 108.222 120.638 108.249C119.416 108.276 117.729 108.278 115.866 108.248C114.007 108.183 112.315 108.259 111.073 107.948C109.809 107.641 109.314 106.863 109.373 106.847C109.425 106.781 109.957 107.402 111.144 107.595C112.306 107.799 114.012 107.674 115.873 107.736C117.736 107.766 119.422 107.822 120.643 107.888C121.864 107.952 122.618 108.029 122.617 108.1Z" fill="#FF9A6C"/>
<path d="M120.519 112.758C120.526 112.785 120.308 112.895 119.883 112.988C119.459 113.084 118.828 113.159 118.052 113.107C117.277 113.06 116.363 112.888 115.383 112.599C114.4 112.314 113.356 111.918 112.253 111.562C111.15 111.206 110.084 110.947 109.103 110.88C108.144 110.835 107.107 110.862 106.419 110.312C106.08 110.059 105.846 109.709 105.778 109.352C105.712 109.001 105.78 108.694 105.889 108.479C106.121 108.034 106.435 108.01 106.427 108.034C106.451 108.074 106.199 108.168 106.062 108.56C105.909 108.937 105.99 109.628 106.612 110.012C107.21 110.44 108.097 110.392 109.126 110.41C110.161 110.454 111.275 110.711 112.394 111.074C113.488 111.45 114.531 111.81 115.508 112.147C116.462 112.454 117.338 112.656 118.082 112.747C119.577 112.94 120.504 112.669 120.519 112.758Z" fill="#FF9A6C"/>
<path d="M117.375 116.698C117.357 116.765 116.602 116.616 115.398 116.297C114.195 115.978 112.547 115.484 110.748 114.866C108.949 114.247 107.341 113.623 106.192 113.133C105.043 112.643 104.349 112.295 104.372 112.23C104.422 112.094 107.313 113.15 110.9 114.38C114.484 115.614 117.411 116.557 117.375 116.698Z" fill="#FF9A6C"/>
<path d="M118.129 120.354C118.12 120.416 117.486 120.39 116.49 120.156C115.492 119.927 114.151 119.448 112.742 118.771C111.331 118.097 110.1 117.409 109.209 116.913C108.319 116.413 107.776 116.087 107.804 116.022C107.866 115.869 110.169 116.933 112.943 118.305C115.712 119.699 118.146 120.22 118.129 120.354Z" fill="#FF9A6C"/>
<path d="M24.6149 92.5676C24.6149 92.5676 30.5937 117.718 38.0658 127.001C45.3017 135.991 56.6421 131.859 60.5682 120.227C64.4944 108.595 71.4922 82.0261 71.4922 82.0261L62.8992 75.1291L48.053 105.334L41.3628 84.7427L24.6149 92.5676Z" fill="#FFBF9D"/>
<path d="M71.0928 82.7247L77.393 73.1378C77.393 73.1378 79.4849 72.6276 80.0777 72.2635C80.792 71.8253 81.4945 68.0162 81.4798 67.2736C81.4642 66.5309 82.7016 64.7925 82.201 64.3029C81.7003 63.8143 80.0111 63.7772 80.1022 63.0634C80.1218 62.9101 81.3554 61.3219 80.3765 60.1554C80.0238 59.7347 78.6001 59.3633 78.6001 59.3633L78.702 55.7045C78.702 55.7045 76.8198 51.3842 74.8965 52.9488C74.8965 52.9488 67.6448 58.7966 66.9139 59.7316C66.1829 60.6666 63.3924 72.8447 62.8976 75.1303" fill="#FFBF9D"/>
<path d="M62.9014 75.1299C62.8867 75.1268 62.92 74.9046 62.9984 74.4839C63.0925 74.021 63.2169 73.4131 63.3717 72.653C63.7107 71.0658 64.2183 68.7699 64.9051 65.9411C65.253 64.5278 65.6351 62.9797 66.1181 61.3297C66.2465 60.9183 66.37 60.4996 66.5375 60.0758C66.6933 59.5934 67.0793 59.2714 67.3919 58.9721C68.0523 58.3621 68.747 57.7634 69.4642 57.1524C70.8987 55.9325 72.4223 54.6744 74.0115 53.3784C74.4211 53.0739 74.7581 52.681 75.3392 52.4588C75.9251 52.2572 76.5483 52.5164 76.9745 52.8671C77.8485 53.5985 78.4148 54.5777 78.9067 55.6074L78.9283 55.6527L78.9263 55.7113C78.9165 56.0652 78.9057 56.4468 78.8959 56.8305C78.8714 57.6863 78.8479 58.5349 78.8244 59.3691L78.6559 59.1356C79.0948 59.257 79.5152 59.3938 79.9336 59.5872C80.1403 59.6921 80.3519 59.7878 80.5528 60.011C80.7037 60.2116 80.8438 60.4338 80.9036 60.6879C81.0496 61.1919 80.9486 61.7083 80.7938 62.1434C80.7154 62.3656 80.6155 62.5734 80.5087 62.7719L80.348 63.0589L80.3156 63.1196C80.3245 63.1082 80.3186 63.0815 80.3225 63.1052C80.3225 63.1278 80.3196 63.1494 80.3323 63.1669C80.3509 63.2502 80.5204 63.3623 80.6909 63.4333C80.8653 63.5094 81.0594 63.5701 81.2534 63.6328C81.4483 63.6956 81.6472 63.7563 81.8491 63.8396C82.0489 63.9404 82.2606 63.9877 82.4536 64.285C82.5976 64.5977 82.5163 64.8487 82.4703 65.0637C82.4115 65.2828 82.337 65.4844 82.2567 65.6778C82.0989 66.0656 81.9236 66.4328 81.7942 66.7938C81.7315 66.979 81.6855 67.1395 81.6845 67.3071C81.6815 67.5355 81.6522 67.7289 81.6277 67.9315C81.5728 68.3317 81.5022 68.7195 81.4268 69.1031C81.2661 69.8674 81.0917 70.608 80.835 71.3137C80.6939 71.6645 80.5871 72.0142 80.2814 72.3331C79.9326 72.6087 79.622 72.6591 79.2986 72.7857C78.6598 72.9945 78.0386 73.158 77.4331 73.3062L77.534 73.2341C75.589 76.1359 73.9998 78.5059 72.8671 80.197C72.3262 80.9849 71.8951 81.6124 71.5728 82.0825C71.272 82.5104 71.1073 82.7315 71.0936 82.7213C71.0799 82.711 71.2171 82.4713 71.4924 82.0239C71.7961 81.5414 72.2018 80.8944 72.7113 80.0849C73.8146 78.3732 75.3617 75.9724 77.2547 73.0336L77.29 72.978L77.3556 72.9616C77.9494 72.8083 78.5677 72.6375 79.1879 72.4277C79.4779 72.3187 79.8493 72.2086 80.0374 72.042C80.2216 71.8558 80.3617 71.4978 80.4793 71.1738C80.7174 70.5021 80.8859 69.7687 81.0368 69.0198C81.1083 68.6433 81.175 68.2617 81.225 67.875C81.2475 67.6857 81.2739 67.482 81.2749 67.3092C81.2729 67.0736 81.3396 66.8422 81.4052 66.6468C81.5453 66.2487 81.7197 65.8804 81.8696 65.507C81.9461 65.3208 82.0127 65.1336 82.0607 64.9495C82.1107 64.7715 82.1284 64.5699 82.0794 64.499C82.0509 64.4352 81.8569 64.3189 81.6914 64.2562C81.516 64.1842 81.3229 64.1256 81.1269 64.0638C80.93 64.0011 80.7291 63.9404 80.5224 63.8509C80.3274 63.7522 80.0756 63.6689 79.9276 63.3366C79.8904 63.2553 79.8836 63.1679 79.8855 63.0805C79.8797 63.0486 79.8963 62.9714 79.9257 62.9097L79.9698 62.8264L80.1256 62.5445C80.2236 62.3594 80.3137 62.1722 80.3813 61.9778C80.5175 61.5941 80.5881 61.1775 80.4774 60.8144C80.4352 60.6272 80.3284 60.4677 80.2157 60.3134C80.1207 60.2034 79.9325 60.0964 79.7493 60.01C79.3731 59.8361 78.9567 59.7004 78.5461 59.5872L78.3717 59.5389L78.3766 59.3527C78.3991 58.5185 78.4227 57.6698 78.4462 56.814C78.457 56.4303 78.4677 56.0487 78.4775 55.6949L78.4971 55.7987C78.0406 54.8329 77.4673 53.867 76.705 53.2354C76.3249 52.9268 75.8712 52.7571 75.4636 52.897C75.0756 53.0297 74.6749 53.4298 74.2751 53.7363C72.6839 55.0252 71.1554 56.275 69.717 57.4816C68.9978 58.0854 68.3002 58.6789 67.6457 59.2735C67.3165 59.5831 67 59.8433 66.8804 60.2281C66.7197 60.6231 66.5923 61.0386 66.463 61.4419C65.9692 63.0722 65.5684 64.6152 65.202 66.0203C64.5053 68.8038 63.939 71.0689 63.5334 72.691C63.3452 73.443 63.1944 74.0447 63.0807 74.5014C62.9778 74.918 62.9161 75.133 62.9014 75.1299Z" fill="#FF9A6C"/>
<path d="M78.6015 59.3628C78.5986 59.4431 77.8657 59.3824 76.7223 59.4976C76.1442 59.5428 75.522 59.7691 74.7391 59.9728C73.9356 60.159 73.0519 60.0633 72.174 59.9965C70.4113 59.7444 68.9229 60.5272 68.1342 61.3718C67.3239 62.2183 67.2416 63.0299 67.1602 63.0001C67.122 63.0207 67.0848 62.134 67.9029 61.1455C68.3037 60.6661 68.8916 60.1888 69.6372 59.8669C70.375 59.5151 71.3147 59.4462 72.2043 59.5284C73.1009 59.5984 73.9337 59.6961 74.6568 59.55C75.3789 59.3855 76.0972 59.1694 76.6968 59.1674C77.8932 59.1345 78.6055 59.3145 78.6015 59.3628Z" fill="#FF9A6C"/>
<path d="M76.0354 59.1637C75.9286 59.2213 75.6357 58.7759 75.6729 58.1443C75.7072 57.5117 76.0482 57.1064 76.1481 57.1774C76.2589 57.2432 76.1432 57.6629 76.1187 58.1731C76.0854 58.6803 76.153 59.1112 76.0354 59.1637Z" fill="#FF9A6C"/>
<path d="M80.3281 63.201C80.334 63.3203 77.8462 63.4335 74.8666 62.7515C74.1209 62.5818 73.44 62.3637 72.858 62.4841C72.2789 62.5941 71.8361 63.0015 71.5578 63.3852C71.0091 64.1916 70.9199 64.8674 70.8405 64.8396C70.8043 64.8407 70.7641 64.1474 71.2981 63.1959C71.5754 62.7422 72.0555 62.23 72.7757 62.0603C73.4978 61.8926 74.2435 62.1354 74.9597 62.2917C77.8874 62.9634 80.332 63.0611 80.3281 63.201Z" fill="#FF9A6C"/>
<path d="M81.2969 66.6603C81.2969 66.721 80.7786 66.7745 79.9545 66.6675C79.1295 66.5708 78.0223 66.2725 76.8142 66.0236C76.2077 65.9074 75.6305 65.8086 75.124 65.8467C74.6145 65.8765 74.1912 66.0503 73.907 66.3085C73.3103 66.8362 73.3799 67.4359 73.3133 67.4267C73.2878 67.4318 73.2251 67.2991 73.2378 67.0389C73.2535 66.7827 73.377 66.4032 73.6906 66.0668C73.9963 65.7232 74.5165 65.4712 75.0877 65.4167C75.6639 65.3509 76.2753 65.4455 76.8955 65.5638C78.1389 65.8199 79.2147 66.1656 80.0074 66.3415C80.7981 66.5287 81.2988 66.5914 81.2969 66.6603Z" fill="#FF9A6C"/>
<path d="M79.1343 69.4041C79.2107 69.4638 78.5954 70.1406 77.4647 70.1375L77.688 69.9349C77.6655 70.1437 77.644 70.3422 77.6214 70.548C77.4578 71.9017 77.2265 72.9838 77.1041 72.9642C76.9816 72.9457 77.0149 71.8389 77.1776 70.4934C77.204 70.2898 77.2305 70.0923 77.2579 69.8855L77.2863 69.6705L77.4813 69.6829C78.4278 69.7456 79.0774 69.3023 79.1343 69.4041Z" fill="#FF9A6C"/>
<path d="M34.0794 67.0942C34.0794 67.0942 21.8316 70.2099 21.8571 87.2606C21.8826 104.244 25.5559 112.734 25.5559 112.734L48.1328 99.8337L43.0946 86.555L34.0794 67.0942Z" fill="#FF8E49"/>
<path d="M25.5569 112.734C25.5647 112.748 25.7253 112.674 26.0261 112.519C26.3681 112.337 26.8012 112.105 27.3362 111.82C28.5188 111.166 30.1463 110.265 32.1481 109.157C36.2594 106.832 41.8962 103.644 48.2474 100.052L48.4297 99.9488L48.3562 99.7472C47.9692 98.6846 47.5596 97.5624 47.1451 96.4237C45.7018 92.4892 44.3291 88.7439 43.0759 85.3268C42.4469 83.6254 41.8482 82.0073 41.2868 80.4891C40.7459 78.9636 40.1502 77.5616 39.4996 76.3509C38.2298 73.9099 36.7267 72.1859 35.4255 71.4011C34.7847 70.9948 34.2213 70.8117 33.8382 70.7335C33.6452 70.6964 33.4973 70.6759 33.3964 70.6738C33.2964 70.6676 33.2454 70.6697 33.2445 70.6779C33.2249 70.7396 34.0979 70.7263 35.3276 71.5667C36.5612 72.3793 37.9868 74.0899 39.2037 76.5206C39.8279 77.7292 40.3932 79.1076 40.9164 80.6341C41.4651 82.1575 42.0491 83.7807 42.6644 85.4882C43.9068 88.9095 45.2687 92.6599 46.6993 96.5996C47.1147 97.7373 47.5253 98.8595 47.9133 99.9221L48.0221 99.6176C41.7003 103.266 36.0889 106.504 31.9972 108.866C30.0238 110.029 28.4199 110.976 27.2539 111.663C26.7356 111.98 26.3152 112.236 25.984 112.439C25.696 112.619 25.55 112.72 25.5569 112.734Z" fill="#263238"/>
</svg>
