<svg width="140" height="135" viewBox="0 0 140 135" fill="none" xmlns="http://www.w3.org/2000/svg">
<path d="M132.1 134.795H7.92358C3.62175 134.795 0.133438 130.638 0.133438 125.511V20.3683C0.133438 15.2403 3.62088 11.0839 7.92358 11.0839H132.1C136.402 11.0839 139.891 15.2412 139.891 20.3683V125.511C139.891 130.638 136.402 134.795 132.1 134.795Z" fill="white"/>
<path d="M139.891 32.745H0.134277V18.0344C0.134277 14.1951 3.15227 11.0832 6.87576 11.0832H132.41C136.541 11.0832 139.891 14.5363 139.891 18.7969V32.745Z" fill="#E0E0E0"/>
<path d="M117.719 22.1782C117.719 23.4561 116.708 24.4916 115.459 24.4916C114.212 24.4916 113.2 23.4561 113.2 22.1782C113.2 20.9002 114.211 19.8647 115.459 19.8647C116.708 19.8647 117.719 20.9002 117.719 22.1782Z" fill="white"/>
<path d="M124.527 22.1782C124.527 23.4561 123.516 24.4916 122.268 24.4916C121.02 24.4916 120.009 23.4561 120.009 22.1782C120.009 20.9002 121.02 19.8647 122.268 19.8647C123.515 19.8647 124.527 20.9002 124.527 22.1782Z" fill="white"/>
<path d="M131.332 22.1782C131.332 23.4561 130.321 24.4916 129.073 24.4916C127.825 24.4916 126.813 23.4561 126.813 22.1782C126.813 20.9002 127.825 19.8647 129.073 19.8647C130.321 19.8647 131.332 20.9002 131.332 22.1782Z" fill="white"/>
<path d="M132.1 134.795C132.1 134.795 132.204 134.784 132.407 134.768C132.612 134.753 132.918 134.746 133.316 134.654C134.102 134.495 135.31 134.138 136.597 133.043C137.872 131.981 139.217 130.069 139.694 127.365C139.929 126.02 139.823 124.527 139.845 122.944C139.843 121.36 139.841 119.672 139.839 117.885C139.829 103.584 139.814 82.8949 139.797 57.3318C139.794 50.9401 139.792 44.2439 139.788 37.2667C139.787 33.7786 139.786 30.2194 139.784 26.593C139.783 24.7797 139.783 22.9503 139.782 21.1039C139.799 20.1753 139.754 19.2682 139.591 18.3674C139.433 17.4666 139.128 16.6072 138.749 15.8016C138.372 14.9906 137.863 14.2694 137.289 13.6354C136.716 12.9996 136.057 12.4643 135.337 12.0772C134.619 11.6919 133.854 11.392 133.061 11.2959C132.273 11.1863 131.458 11.2231 130.644 11.2178C127.385 11.2187 124.076 11.2205 120.717 11.2214C113.999 11.2231 107.086 11.2258 99.9951 11.2276C71.6347 11.2312 40.4557 11.2357 7.72893 11.2402L6.96249 11.2411C6.71252 11.26 6.46078 11.2627 6.21255 11.295C5.71608 11.374 5.22307 11.4917 4.75273 11.6973C3.80945 12.0925 2.94458 12.7409 2.23386 13.5752C1.53096 14.4194 0.988312 15.4477 0.655594 16.5632C0.4814 17.1182 0.381241 17.7019 0.315048 18.2875C0.261917 18.873 0.259277 19.4685 0.263641 20.0747C0.263641 24.8911 0.263657 29.6761 0.262787 34.4261C0.261917 43.926 0.261902 53.2868 0.261032 62.485C0.258423 80.8804 0.255829 98.6248 0.25322 115.529C0.25322 117.642 0.252335 119.742 0.251465 121.828C0.251465 122.87 0.251434 123.91 0.250565 124.947C0.242722 125.469 0.268021 125.975 0.294159 126.483L0.390793 127.236C0.423904 127.487 0.491852 127.729 0.539764 127.975C0.995285 129.927 2.00391 131.679 3.36353 132.856C4.03854 133.448 4.78586 133.921 5.58195 134.221C6.37891 134.52 7.20633 134.65 8.03726 134.66C14.7561 134.662 21.2781 134.665 27.5841 134.668C40.1961 134.675 51.9441 134.681 62.6695 134.687C84.1178 134.707 101.475 134.724 113.472 134.736C119.468 134.749 124.124 134.758 127.284 134.766C128.862 134.773 130.065 134.777 130.876 134.781C131.685 134.784 132.1 134.795 132.1 134.795C132.1 134.795 131.685 134.806 130.876 134.811C130.065 134.815 128.862 134.82 127.284 134.827C124.124 134.833 119.468 134.843 113.472 134.856C101.474 134.868 84.1178 134.885 62.6695 134.906C51.9441 134.912 40.1961 134.918 27.5841 134.925C21.2781 134.927 14.7561 134.93 8.03726 134.933C7.1889 134.924 6.33101 134.791 5.5114 134.484C4.6918 134.175 3.92009 133.688 3.22504 133.078C1.82448 131.866 0.7845 130.061 0.313293 128.049C0.262772 127.795 0.19397 127.545 0.159119 127.286L0.0598145 126.509C0.0319519 125.987 0.00582886 125.46 0.0136719 124.944C0.0136719 123.908 0.0136871 122.868 0.0128174 121.825C0.0128174 119.739 0.0119171 117.639 0.0119171 115.526C0.00930786 98.6221 0.00671387 80.8787 0.00410461 62.4823C0.00323486 53.2841 0.0032196 43.9233 0.00234985 34.4234C0.00234985 29.6734 0.00236511 24.8884 0.00149536 20.072C-0.00285339 19.4748 -0.00112915 18.8623 0.0546112 18.2489C0.122543 17.64 0.227936 17.0338 0.408234 16.4572C0.754028 15.2978 1.31755 14.2299 2.04831 13.3534C2.78606 12.4858 3.68492 11.8123 4.66566 11.4019C5.15428 11.1881 5.66646 11.0651 6.18208 10.9843C6.44077 10.9501 6.70116 10.9474 6.96159 10.9286L7.72893 10.9277C40.4557 10.9322 71.6347 10.9358 99.9951 10.9402C107.085 10.9429 113.999 10.9447 120.717 10.9465C124.076 10.9474 127.385 10.9492 130.644 10.9501C131.456 10.9564 132.27 10.9196 133.089 11.0327C133.906 11.1333 134.693 11.4414 135.431 11.8392C136.172 12.238 136.85 12.7894 137.438 13.4432C138.027 14.0952 138.551 14.8379 138.938 15.6723C139.328 16.5012 139.639 17.3858 139.802 18.3117C139.969 19.2314 140.014 20.1878 139.996 21.1048C139.996 22.9512 139.996 24.7806 139.995 26.5939C139.993 30.2203 139.992 33.7786 139.991 37.2676C139.988 44.2449 139.985 50.941 139.983 57.3326C139.965 82.8967 139.951 103.585 139.941 117.886C139.939 119.673 139.936 121.361 139.935 122.945C139.909 124.524 140.011 126.021 139.77 127.385C139.281 130.114 137.917 132.034 136.627 133.095C135.326 134.189 134.11 134.537 133.319 134.687C132.92 134.773 132.612 134.775 132.407 134.784C132.204 134.794 132.1 134.795 132.1 134.795Z" fill="#263238"/>
<path d="M87.21 85.9133C87.1891 85.2155 86.7815 84.5985 86.2171 84.2132C77.3957 78.1925 70.7474 64.8496 70.0767 53.5544C70.0593 52.9114 70.0392 52.2584 70.0183 51.6011C70.0183 51.5984 70.0183 51.5957 70.0183 51.593C69.5079 35.4418 67.2015 15.8537 65.1312 10.6322C61.3066 0.987646 48.3523 0.0823819 48.3523 0.0823819C31.1554 -1.18661 28.0843 12.4382 26.3484 24.848C25.2692 32.5652 24.2711 61.3938 24.2711 61.3938C27.9946 72.7716 36.3797 81.9725 47.2784 86.2043C50.4489 87.4356 53.1324 87.9295 54.3918 86.8707C59.3983 92.1038 65.6651 96.0581 72.4876 98.1982C75.2652 99.0694 78.1761 99.6513 81.0661 99.3729C82.943 99.1915 84.9219 98.553 86.0412 96.9885C87.0053 95.6414 87.1377 93.7141 86.3678 92.2394C85.5978 90.7648 83.9647 89.8191 82.3429 89.9071C82.9953 87.7274 87.2832 88.3687 87.21 85.9133Z" fill="#263238"/>
<path d="M37.9405 8.87108L49.5665 4.04028L50.6422 5.09733C57.4891 5.08835 63.3979 10.3951 63.7698 19.1775C64.039 25.5243 64.2193 31.9725 63.262 36.6596C61.3372 46.0842 54.2159 46.9284 54.2159 46.9284C54.215 46.896 54.2159 54.2522 54.2159 54.2522C52.7578 58.6053 47.666 60.3107 44.0043 57.673L34.9765 51.1691L34.8745 12.1096C34.9277 10.3745 36.2586 8.96718 37.9405 8.87108Z" fill="#FFBF9D"/>
<path d="M50.3241 25.9253C50.3145 26.5701 49.778 27.0937 49.1247 27.0955C48.4732 27.0982 47.9506 26.5791 47.9602 25.9342C47.9698 25.2894 48.5063 24.7658 49.1578 24.7631C49.8111 24.7604 50.3337 25.2804 50.3241 25.9253Z" fill="#263238"/>
<path d="M61.4178 25.925C61.4083 26.5698 60.8717 27.0934 60.2185 27.0952C59.567 27.0979 59.0444 26.5788 59.054 25.9339C59.0635 25.2891 59.6001 24.7655 60.2516 24.7628C60.9048 24.7601 61.4274 25.2801 61.4178 25.925Z" fill="#263238"/>
<path d="M62.0447 22.1689C61.8905 22.3197 61.0283 21.5914 59.7566 21.5285C58.4876 21.4477 57.5208 22.0737 57.391 21.9066C57.3265 21.8321 57.4903 21.5528 57.911 21.269C58.3256 20.9861 59.0224 20.7256 59.8141 20.7697C60.6058 20.8155 61.2573 21.1504 61.6258 21.4782C62.002 21.8069 62.1205 22.1006 62.0447 22.1689Z" fill="#263238"/>
<path d="M50.5503 21.6936C50.3813 21.8274 49.5957 21.0111 48.3371 20.8144C47.0829 20.5988 46.0594 21.1197 45.9462 20.9392C45.8905 20.8584 46.0786 20.5979 46.5272 20.3599C46.9679 20.1219 47.6865 19.9369 48.4695 20.0654C49.2525 20.1947 49.8674 20.597 50.201 20.9617C50.5416 21.329 50.6313 21.6343 50.5503 21.6936Z" fill="#263238"/>
<path d="M54.094 31.8497C54.0913 31.7752 54.8892 31.6755 56.1782 31.5722C56.5049 31.5543 56.8149 31.5039 56.8811 31.2785C56.9691 31.0405 56.8515 30.6723 56.713 30.2754C56.4474 29.4491 56.1687 28.5834 55.8769 27.6763C54.7202 23.978 53.8997 20.9425 54.0443 20.8967C54.1889 20.85 55.2446 23.8101 56.4021 27.5084C56.6791 28.4199 56.9447 29.2893 57.1973 30.1209C57.3018 30.508 57.4917 30.9507 57.3019 31.4438C57.2017 31.6899 56.9552 31.8587 56.7444 31.9054C56.5336 31.9602 56.3507 31.9539 56.1887 31.9557C54.8953 31.9602 54.0948 31.9243 54.094 31.8497Z" fill="#263238"/>
<path d="M54.2148 46.929C54.2148 46.929 48.0821 47.6034 42.1925 43.5261C42.1925 43.5261 45.0528 50.2061 54.2148 49.7984V46.929Z" fill="#FF9A6C"/>
<path d="M53.4009 34.9819C52.9741 34.3353 52.1894 33.9509 51.3898 33.9985C50.835 34.0317 50.2636 34.2769 49.9065 34.7232C49.5485 35.1687 49.4466 35.8234 49.7297 36.2805C50.0484 36.796 50.7601 36.9478 51.3759 36.8014C51.9916 36.655 52.5334 36.2697 53.0499 35.8853C53.1927 35.7785 53.3382 35.668 53.4314 35.5162C53.5246 35.3654 53.5524 35.1624 53.4531 35.0286" fill="#FF9A6C"/>
<path d="M50.3033 32.5636C50.5106 32.5618 50.4444 33.9853 51.5767 35.0558C52.7064 36.1299 54.1853 36.0464 54.1871 36.2458C54.2019 36.3365 53.8456 36.5053 53.2246 36.4909C52.6141 36.4811 51.7344 36.2332 51.0419 35.5776C50.3512 34.9211 50.0812 34.0787 50.0629 33.4922C50.0385 32.895 50.2092 32.5501 50.3033 32.5636Z" fill="#263238"/>
<path d="M50.8679 16.713C50.6911 17.0462 49.4595 16.6807 47.9562 16.6304C46.4528 16.5496 45.196 16.8064 45.047 16.4598C44.9817 16.2945 45.2387 15.9954 45.7708 15.7296C46.2987 15.4638 47.1087 15.2599 48.0101 15.2985C48.9116 15.3389 49.7016 15.612 50.2059 15.9227C50.7146 16.2334 50.9463 16.5541 50.8679 16.713Z" fill="#263238"/>
<path d="M62.3715 18.0163C62.1337 18.3028 61.2723 17.948 60.2193 17.8789C59.1689 17.772 58.2639 17.9786 58.0741 17.6561C57.9913 17.4999 58.1463 17.2089 58.5496 16.9476C58.9476 16.6862 59.6009 16.4904 60.3238 16.5497C61.0467 16.6108 61.6608 16.9134 62.0118 17.2367C62.3698 17.5628 62.4769 17.8762 62.3715 18.0163Z" fill="#263238"/>
<path d="M35.1021 28.7797C35.1021 28.7797 41.6145 30.8696 45.3006 14.2963C46.5609 8.62938 51.6562 4.04016 51.6562 4.04016L49.5902 3.39893C49.5902 3.39893 36.7474 7.12958 36.5314 7.29662C36.3154 7.46366 33.2913 14.1454 33.2913 14.1454L35.1021 28.7797Z" fill="#263238"/>
<path d="M36.7099 28.6441C36.7421 27.9364 36.0305 26.2273 35.3581 26.0836C33.563 25.6992 30.2941 25.6804 30.0328 30.4178C29.6766 36.893 36.0549 35.9266 36.0767 35.7416C36.0932 35.5961 36.5967 31.0878 36.7099 28.6441Z" fill="#FFBF9D"/>
<path d="M34.2916 33.1753C34.2655 33.1529 34.1776 33.2481 33.9886 33.3244C33.803 33.399 33.4903 33.4394 33.1698 33.2939C32.5201 33.0038 32.0218 31.8857 32.0549 30.7164C32.0715 30.1254 32.2222 29.5713 32.4495 29.1187C32.6672 28.6562 32.9825 28.3427 33.3205 28.3014C33.6567 28.2412 33.8823 28.4613 33.9493 28.6481C34.0234 28.834 33.9764 28.9615 34.0095 28.9741C34.026 28.9921 34.1497 28.8735 34.1148 28.6032C34.0957 28.473 34.0303 28.3158 33.8901 28.1829C33.7464 28.0482 33.5287 27.9709 33.2944 27.9826C32.8084 27.9889 32.3467 28.4227 32.0968 28.9202C31.8198 29.4178 31.6369 30.0401 31.6186 30.7029C31.5872 32.0105 32.1673 33.2687 33.0609 33.593C33.4956 33.7375 33.8718 33.6217 34.0713 33.4798C34.2725 33.3316 34.3134 33.1888 34.2916 33.1753Z" fill="#FF9A6C"/>
<path d="M39.5264 25.6105C39.5238 25.5889 39.8731 25.588 40.4671 25.4147C41.0585 25.2441 41.8885 24.8462 42.7038 24.0766C43.1088 23.6922 43.5077 23.2207 43.87 22.6675C44.2263 22.1098 44.5451 21.4721 44.8186 20.7752C45.3742 19.3805 45.7313 17.754 46.1712 16.0665C46.6128 14.3772 47.091 12.7822 47.6162 11.3642C48.1344 9.94339 48.7093 8.70673 49.2528 7.70537C49.7989 6.704 50.3128 5.93883 50.6908 5.42961C50.8763 5.17186 51.0375 4.98596 51.1411 4.85574C51.2465 4.72641 51.304 4.66085 51.3083 4.66445C51.3127 4.66804 51.2639 4.74168 51.1672 4.87729C51.0732 5.0147 50.9199 5.20689 50.7431 5.47003C50.3816 5.98912 49.886 6.76147 49.3556 7.76463C48.8277 8.7678 48.2677 10.0027 47.7599 11.4198C47.2452 12.8343 46.773 14.4257 46.3323 16.1106C45.8933 17.7936 45.531 19.4263 44.9605 20.8354C44.6801 21.5395 44.3517 22.1834 43.9841 22.7474C43.6105 23.3069 43.1994 23.7811 42.7822 24.1664C41.9434 24.9378 41.0881 25.3258 40.4836 25.4785C39.8757 25.6347 39.5264 25.6105 39.5264 25.6105Z" fill="#263238"/>
<path d="M30.9435 53.24C30.9366 53.2409 30.9139 53.135 30.8756 52.9275C30.8364 52.6994 30.7841 52.395 30.7171 52.007C30.5838 51.1754 30.3931 49.9926 30.1518 48.491L30.3033 48.4685C30.3347 48.7038 30.3704 48.9643 30.4061 49.2337L30.3992 49.2094C30.4392 49.2966 30.4845 49.398 30.5307 49.5004L30.373 49.5606C29.6292 46.9112 28.813 43.3485 28.3593 39.1365C28.125 37.0323 27.9917 34.7682 27.9752 32.3937C27.9969 30.0272 27.9813 27.5126 28.5962 25.0015C28.8497 23.9642 29.2355 22.9683 29.7389 22.0621C30.2415 21.155 30.8407 20.3297 31.4757 19.569C32.7526 18.0477 34.1288 16.7392 35.3847 15.4405C37.9193 12.8693 40.203 10.5522 42.1271 8.6007C44.0424 6.67341 45.5971 5.10805 46.6902 4.00789C47.2215 3.48251 47.6396 3.0685 47.941 2.76943C48.076 2.64011 48.1849 2.53593 48.2711 2.45241C48.3469 2.38236 48.3869 2.34823 48.3904 2.35182C48.3939 2.35541 48.3599 2.39672 48.2911 2.47396C48.2101 2.56197 48.1073 2.67333 47.981 2.81164C47.6893 3.11968 47.2834 3.54718 46.7677 4.08962C45.6903 5.20594 44.1565 6.79375 42.2691 8.74978C40.3572 10.7148 38.0883 13.0462 35.5702 15.6345C34.3186 16.9385 32.9459 18.2542 31.6891 19.7576C30.4322 21.2547 29.3496 23.0267 28.874 25.0761C28.2704 27.5324 28.2809 30.0362 28.2539 32.3937C28.2643 34.7583 28.3889 37.0125 28.6119 39.1096C29.0439 43.3063 29.8277 46.8627 30.535 49.5148L30.3774 49.575C30.3321 49.4717 30.2885 49.3702 30.2502 49.2822L30.245 49.2696L30.2432 49.257C30.211 48.9876 30.1796 48.7263 30.1509 48.491L30.3033 48.4685C30.5141 49.9746 30.6796 51.1619 30.7963 51.9953C30.8468 52.386 30.886 52.6931 30.9156 52.9221C30.9409 53.1305 30.9505 53.2392 30.9435 53.24Z" fill="#455A64"/>
<path d="M23.5409 121.369L17.3438 134.791H75.2188L71.612 122.016L23.5409 121.369Z" fill="#263238"/>
<path d="M28.646 100.138L20.2252 57.712L34.6854 51.2404L34.9685 47.7962L55.3715 50.2417L55.8489 53.4748L67.542 57.6509L71.7837 69.8191C73.6799 76.4164 76.0768 83.6532 73.5457 91.1926L72.7061 93.6938L72.0093 124.264L57.9715 122.505L22.94 122.365C23.9652 119.463 24.9878 118.828 25.6802 117.115C28.0014 111.383 28.646 100.138 28.646 100.138Z" fill="#FF8E49"/>
<path d="M107.312 118.753L88.5513 106.789L78.284 72.6641C74.5213 61.8476 72.7784 61.297 67.5438 57.6508L67.1135 72.8805C67.1135 72.8805 73.7356 114.844 75.968 117.936C78.2012 121.028 103.571 128.755 103.571 128.755L107.312 118.753Z" fill="#FF8E49"/>
<path d="M100.215 127.571C100.215 127.571 107.07 130.029 108.708 130.444C110.347 130.86 115.286 130.692 115.286 130.692C115.286 130.692 122.554 133.925 123.042 133.594C123.53 133.264 124.157 132.906 123.768 132.452C123.379 131.998 118.016 128.717 118.016 128.717L122.007 129.557C122.007 129.557 127.342 132.489 127.818 132.427C128.292 132.364 129.052 131.774 128.857 131.105C128.662 130.437 128.662 130.437 128.662 130.437C128.662 130.437 129.351 129.42 128.519 128.699L128.034 128.353L128.3 127.888C128.3 127.888 128.819 126.787 127.894 125.717C126.968 124.646 125.044 122.315 125.044 122.315L117.983 119.483L103.411 118.485" fill="#FFBF9D"/>
<path d="M101.926 125.132C101.967 125.109 102.106 125.528 102.605 126.086C103.094 126.641 103.997 127.295 105.284 127.589C106.566 127.9 108.171 127.741 109.91 127.38C111.645 127.048 113.626 126.493 115.736 126.85C116.264 126.932 116.754 127.143 117.189 127.153C117.609 127.2 118.02 126.87 118.035 126.541C118.055 126.214 117.589 126.004 117.175 125.798C116.761 125.587 116.355 125.38 115.957 125.177C114.395 124.37 112.976 123.637 111.753 123.006C110.623 122.404 109.677 121.901 108.936 121.507C108.275 121.144 107.917 120.93 107.93 120.901C107.944 120.872 108.329 121.032 109.014 121.346C109.772 121.706 110.739 122.165 111.894 122.714C113.129 123.32 114.563 124.023 116.141 124.796C116.541 124.994 116.95 125.197 117.366 125.404C117.572 125.511 117.787 125.599 118.014 125.754C118.232 125.898 118.476 126.175 118.469 126.539C118.422 127.256 117.734 127.649 117.172 127.61C116.599 127.586 116.14 127.372 115.653 127.303C113.675 126.963 111.731 127.479 109.977 127.796C108.22 128.137 106.547 128.274 105.206 127.905C103.865 127.557 102.943 126.822 102.475 126.205C102.231 125.901 102.099 125.622 102.015 125.436C101.941 125.241 101.911 125.138 101.926 125.132Z" fill="#FF9A6C"/>
<path d="M116.259 123.27C116.301 123.137 118.99 124.105 122.464 124.441C122.895 124.486 123.316 124.515 123.724 124.542L123.824 124.548L123.882 124.627C125.616 126.97 127.704 127.858 127.627 127.973C127.609 128.017 127.076 127.854 126.282 127.383C125.491 126.915 124.448 126.102 123.537 124.905L123.694 124.989C123.28 124.968 122.85 124.943 122.412 124.896C120.65 124.721 119.087 124.345 117.987 123.992C116.885 123.638 116.239 123.325 116.259 123.27Z" fill="#FF9A6C"/>
<path d="M122.421 127.26C122.503 127.151 123.786 128.108 125.548 128.937C127.304 129.78 128.85 130.168 128.82 130.302C128.803 130.417 127.17 130.223 125.357 129.355C123.539 128.497 122.343 127.347 122.421 127.26Z" fill="#FF9A6C"/>
<path d="M4.1724 102.718L12.0305 72.6579C12.5296 70.7477 13.3867 67.7284 14.2542 65.2479C15.0651 62.9299 16.3629 60.7844 18.1859 59.1292C18.8295 58.5445 19.4671 58.0686 20.2249 57.7111L28.0534 82.1705L21.9189 101.92L52.7617 118.655L46.8616 131.052L10.3469 116.252C8.30705 115.425 6.49797 114.07 5.27422 112.25C3.82488 110.096 2.73003 107.504 4.1724 102.718Z" fill="#FF8E49"/>
<path d="M79.9023 127.04L71.1183 122.864L53.9763 121.513L51.5776 121.138L47.9682 128.755C47.9682 128.755 52.9677 132.159 55.3211 132.349L69.7335 131.915L77.2685 132.702L79.9023 127.04Z" fill="#FFBF9D"/>
<path d="M72.2466 105.693C72.271 105.692 72.2849 105.368 72.298 104.77C72.3198 104.171 72.3416 103.297 72.4017 102.195C72.5149 99.991 72.7326 96.8719 73.0766 93.2248L73.074 93.2445C73.4912 91.02 74.1227 88.5979 74.5007 85.9871C74.7002 84.6184 74.7934 83.2578 74.7307 81.943C74.6819 80.6184 74.3849 79.3781 74.1036 78.2241C73.527 75.9007 72.7579 73.8827 72.0123 72.2473C71.2632 70.6119 70.5743 69.3357 70.097 68.4565C69.6162 67.5791 69.3384 67.1004 69.3105 67.1156C69.2826 67.1309 69.5091 67.6374 69.9411 68.5409C70.3705 69.4453 71.015 70.743 71.7205 72.3838C72.4234 74.0246 73.1515 76.0291 73.6985 78.3291C73.9685 79.4841 74.2473 80.692 74.2873 81.9655C74.3422 83.2408 74.249 84.5699 74.0522 85.9198C73.6802 88.4928 73.061 90.9149 72.6603 93.1637L72.6586 93.1754L72.6577 93.1835C72.3459 96.8441 72.1856 99.9712 72.1447 102.186C72.1212 103.292 72.1395 104.172 72.1613 104.771C72.1917 105.37 72.2239 105.694 72.2466 105.693Z" fill="#263238"/>
<path d="M11.4062 104.521C11.4863 104.648 13.4208 102.76 16.5076 102.068C19.5804 101.315 22.122 102.123 22.1403 101.971C22.156 101.922 21.555 101.647 20.5133 101.464C19.4759 101.279 17.9883 101.24 16.4066 101.611C14.8266 101.985 13.5018 102.686 12.6491 103.325C11.7911 103.962 11.3713 104.485 11.4062 104.521Z" fill="#263238"/>
<path d="M34.6832 51.2402C34.6728 51.2707 34.9472 51.3991 35.4532 51.6048C35.9584 51.8122 36.6996 52.0835 37.6263 52.3879C39.4772 52.9986 42.0832 53.7189 45.0307 54.1535C46.5052 54.3637 47.9215 54.4733 49.2114 54.5065C50.5022 54.511 51.6659 54.4751 52.6345 54.343C53.1205 54.299 53.5551 54.2173 53.9375 54.149C54.3207 54.088 54.6465 54.0152 54.9095 53.9407C55.4382 53.8033 55.7256 53.7126 55.7186 53.6811C55.7012 53.5994 54.528 53.8706 52.6049 54.0143C51.645 54.1033 50.4953 54.1041 49.2227 54.0763C47.9493 54.0197 46.5523 53.8985 45.0942 53.691C42.179 53.2608 39.5826 52.5981 37.7178 52.0718C35.8512 51.5428 34.7059 51.1728 34.6832 51.2402Z" fill="#263238"/>
<path d="M46.8587 130.958C46.8665 130.962 46.9092 130.888 46.9858 130.742C47.0729 130.566 47.1818 130.35 47.3151 130.084C47.6112 129.465 48.0188 128.614 48.5336 127.539C49.5892 125.283 51.0821 122.089 52.9138 118.174L52.9844 118.024L52.8415 117.943C46.8743 114.55 39.0162 110.082 30.4239 105.195C27.5061 103.547 24.6735 101.948 22.0126 100.445L22.1172 100.71C24.6309 92.281 26.8171 84.9499 28.3892 79.68C29.1435 77.089 29.7497 75.0072 30.18 73.5299C30.3725 72.8384 30.5258 72.2887 30.6407 71.8765C30.7418 71.4984 30.788 71.2999 30.7758 71.2963C30.7627 71.2919 30.6922 71.4831 30.5667 71.8532C30.4343 72.26 30.2575 72.8015 30.0354 73.4841C29.5755 74.9525 28.9275 77.0207 28.1209 79.5947C26.5113 84.852 24.272 92.1669 21.6974 100.577L21.6434 100.754L21.8019 100.843C24.461 102.35 27.2918 103.954 30.207 105.606C38.8203 110.454 46.6967 114.888 52.6778 118.254L52.6055 118.023C50.8313 121.966 49.3845 125.183 48.362 127.455C47.8821 128.548 47.5023 129.412 47.2262 130.042C47.1112 130.318 47.0172 130.54 46.9414 130.721C46.8787 130.873 46.8508 130.953 46.8587 130.958Z" fill="#263238"/>
<path d="M135.136 91.7519L85.7206 92.1659C84.1171 92.1659 82.5859 92.9598 82.3455 94.5943L76.9453 131.731H51.4922C50.6726 131.731 50.008 132.416 50.008 133.261C50.008 134.107 50.6726 134.792 51.4922 134.792H76.5002H81.2472H132.786L138.342 95.5975C138.639 93.5732 137.12 91.7519 135.136 91.7519Z" fill="#E0E0E0"/>
<path d="M135.137 91.7518C135.137 91.7518 135.406 91.7167 135.915 91.8272C136.41 91.9458 137.189 92.261 137.803 93.1178C138.109 93.5372 138.341 94.0976 138.413 94.7442C138.494 95.4007 138.311 96.0922 138.232 96.8403C138.025 98.341 137.787 100.07 137.519 102.012C136.431 109.798 134.864 121.019 132.937 134.813L132.919 134.948H132.787C111.751 134.96 84.1068 134.978 53.9199 134.996C53.2109 134.996 52.5036 134.996 51.7973 134.996C51.4698 135.011 51.0142 134.991 50.6745 134.776C50.3235 134.577 50.0509 134.243 49.9142 133.857C49.618 133.079 49.9716 132.127 50.6815 131.741C51.0203 131.53 51.4715 131.512 51.7947 131.525H52.8399C55.6244 131.526 58.3794 131.526 61.0995 131.527C66.5397 131.529 71.8389 131.531 76.9455 131.532L76.7556 131.701C78.6997 118.402 80.5131 105.995 82.1392 94.8645C82.1959 94.1595 82.5042 93.3971 83.0538 92.9247C83.5904 92.4334 84.2697 92.173 84.943 92.0652C85.631 91.9574 86.2843 92.0149 86.9358 91.9925C87.5882 91.988 88.2345 91.9835 88.8764 91.979C91.4424 91.961 93.9238 91.944 96.3155 91.9278C101.098 91.8964 105.521 91.8676 109.537 91.8416C117.56 91.7994 123.957 91.7652 128.359 91.7419C130.547 91.7374 132.238 91.7347 133.395 91.7329C133.959 91.7356 134.392 91.7374 134.695 91.7392C134.987 91.7419 135.137 91.7518 135.137 91.7518C135.137 91.7518 134.988 91.7652 134.695 91.7733C134.392 91.7796 133.96 91.7895 133.396 91.8012C132.239 91.8182 130.548 91.8434 128.36 91.8766C123.957 91.9269 117.562 92.0005 109.538 92.0922C105.522 92.1335 101.099 92.1784 96.3173 92.2269C93.9255 92.2502 91.4441 92.2745 88.8781 92.2996C88.2362 92.3059 87.5899 92.3122 86.9384 92.3185C86.2878 92.3409 85.6189 92.2897 84.9953 92.3912C84.3673 92.4927 83.7445 92.7388 83.2724 93.1752C82.7864 93.6108 82.5304 94.2197 82.4685 94.9148C80.858 106.047 79.0629 118.456 77.138 131.759L77.1136 131.928H76.9481C71.8415 131.929 66.5424 131.931 61.1021 131.933C58.382 131.934 55.6262 131.934 52.8425 131.935H51.7973C51.428 131.924 51.1536 131.939 50.8766 132.099C50.3349 132.396 50.0648 133.12 50.2913 133.714C50.395 134.008 50.6031 134.264 50.8714 134.416C51.1493 134.579 51.4271 134.595 51.7999 134.584C52.5063 134.584 53.2135 134.584 53.9225 134.584C84.1094 134.603 111.754 134.62 132.789 134.633L132.639 134.767C134.621 120.981 136.234 109.766 137.353 101.985C137.636 100.045 137.887 98.3186 138.106 96.8197C138.194 96.0689 138.38 95.3809 138.307 94.755C138.244 94.1299 138.026 93.583 137.734 93.1707C137.148 92.3274 136.393 92.0032 135.907 91.8721C135.405 91.7482 135.135 91.7724 135.137 91.7518Z" fill="#263238"/>
<path d="M105.238 112.799C105.238 114.561 106.623 115.989 108.332 115.989C110.041 115.989 111.426 114.561 111.426 112.799C111.426 111.037 110.041 109.609 108.332 109.609C106.623 109.609 105.238 111.037 105.238 112.799Z" fill="white"/>
<path d="M78.9474 134.448C79.0171 134.459 80.5901 125.003 82.4601 113.329C84.331 101.651 85.7899 92.1775 85.7203 92.1658C85.6506 92.1541 84.0785 101.608 82.2076 113.286C80.3375 124.96 78.8777 134.436 78.9474 134.448Z" fill="#263238"/>
</svg>