<svg width="466" height="413" viewBox="0 0 466 413" fill="none" xmlns="http://www.w3.org/2000/svg">
<g clip-path="url(#clip0_1495_178912)">
<path d="M439.614 9.90649L214.529 32.0583L208 33.5169L224.084 180.071L343.651 168.809L459.952 155.938L439.614 9.90649Z" fill="#DBDBDB"/>
<path d="M227.75 172.818L230.082 176.3L453.902 153.011V148.214L365.362 145.615L243.48 154.064L227.75 172.818Z" fill="#E0E0E0"/>
<path d="M212.996 32.1307C212.996 32.1307 241.467 0.718792 325.474 18.2003C325.474 18.2003 377.78 -14.7959 435.262 8.45705L453.902 148.214C453.902 148.214 379.553 144.816 355.346 162.417L326.078 165.11C326.078 165.11 258.103 148.504 227.75 172.819L212.996 32.1307Z" fill="#FAFAFA"/>
<path d="M212.996 32.1307C212.996 32.1307 213.101 32.9908 213.284 34.6563C213.464 36.3257 213.73 38.799 214.079 42.0348C214.768 48.5118 215.781 58.0381 217.081 70.2491C219.659 94.6689 223.371 129.828 227.909 172.801L227.651 172.693C230.635 170.363 233.945 168.375 237.475 166.71C241.02 165.069 244.792 163.813 248.67 162.763C256.459 160.743 264.723 159.772 273.199 159.49C281.682 159.214 290.391 159.619 299.238 160.533C308.082 161.474 317.079 162.858 326.124 164.923L326.062 164.919C335.262 164.07 345.208 163.153 355.329 162.221L355.232 162.257C358.446 159.936 362.084 158.222 365.838 156.815C369.599 155.408 373.497 154.296 377.463 153.347C385.409 151.498 393.624 150.31 401.971 149.463C410.323 148.633 418.816 148.14 427.405 147.91C435.994 147.686 444.68 147.677 453.43 147.991C453.592 147.997 453.754 148.004 453.913 148.01L453.702 148.24C447.104 98.7273 440.81 51.5041 435.077 8.48128L435.192 8.63035C430.226 6.70886 425.242 4.99263 420.192 3.76107C418.944 3.39659 417.663 3.18665 416.407 2.89554C415.145 2.62472 413.892 2.33283 412.623 2.1463C411.359 1.93479 410.099 1.72407 408.843 1.51413C407.579 1.36116 406.32 1.20897 405.064 1.05678C395.006 -0.0631798 385.106 0.217006 375.665 1.44545C366.227 2.73164 357.226 4.9099 348.834 7.80775C340.45 10.7087 332.578 14.1591 325.554 18.3252L325.501 18.3564L325.445 18.3447C307.746 14.6859 291.402 12.951 277.039 13.0399C262.675 13.0993 250.337 15.0083 240.63 17.8203C230.901 20.6104 223.839 24.2458 219.385 27.1405C217.151 28.5875 215.552 29.8456 214.515 30.7322C213.477 31.6211 212.996 32.1307 212.996 32.1307C212.996 32.1307 213.457 31.6 214.486 30.7002C215.515 29.8019 217.108 28.5305 219.338 27.0695C223.783 24.1474 230.846 20.4824 240.584 17.6634C250.299 14.8225 262.654 12.887 277.037 12.8058C291.419 12.6942 307.784 14.4112 325.504 18.0552L325.396 18.0747C332.452 13.8797 340.325 10.4215 348.729 7.50493C357.138 4.59304 366.158 2.40307 375.619 1.10673C385.084 -0.131858 395.013 -0.419069 405.102 0.698548C406.361 0.850738 407.626 1.00293 408.893 1.1559C410.153 1.36584 411.417 1.57656 412.685 1.78807C413.958 1.9746 415.216 2.26727 416.482 2.53809C417.743 2.82998 419.027 3.03992 420.279 3.4044C425.348 4.63674 430.349 6.35687 435.332 8.28226L435.433 8.32129L435.448 8.43211C441.191 51.4533 447.495 98.6758 454.104 148.187L454.136 148.426L453.894 148.416C453.735 148.41 453.574 148.403 453.413 148.396C444.676 148.083 435.995 148.092 427.415 148.315C418.835 148.544 410.35 149.036 402.011 149.863C393.676 150.707 385.476 151.891 377.554 153.733C373.601 154.679 369.717 155.786 365.977 157.184C362.244 158.582 358.634 160.284 355.462 162.574L355.418 162.606L355.365 162.611C345.244 163.541 335.298 164.454 326.097 165.299L326.066 165.302L326.033 165.294C317.02 163.231 308.026 161.844 299.199 160.899C290.367 159.982 281.673 159.574 273.21 159.844C264.754 160.12 256.513 161.084 248.756 163.09C244.892 164.133 241.138 165.381 237.612 167.009C234.102 168.662 230.813 170.634 227.85 172.943L227.622 173.121L227.593 172.835C223.114 129.832 219.45 94.651 216.905 70.214C215.643 58.0069 214.659 48.4845 213.99 42.009C213.661 38.7779 213.409 36.3085 213.239 34.6423C213.071 32.9807 212.996 32.1307 212.996 32.1307Z" fill="#263238"/>
<path d="M343.268 164.148C343.157 164.162 339.033 131.565 334.057 91.352C329.08 51.124 325.138 18.5125 325.249 18.4993C325.361 18.4852 329.484 51.0748 334.461 91.302C339.436 131.515 343.38 164.134 343.268 164.148Z" fill="#263238"/>
<path d="M424.129 25.0123C424.128 25.0193 424.049 25.0076 423.898 24.9796C423.724 24.9444 423.503 24.8999 423.226 24.8445C422.611 24.7111 421.751 24.5245 420.657 24.2865C420.097 24.1616 419.479 24.0243 418.803 23.8744C418.123 23.7378 417.378 23.6223 416.58 23.4787C414.982 23.2134 413.173 22.8356 411.144 22.6187C410.132 22.4899 409.073 22.3541 407.969 22.2136C406.865 22.0778 405.707 22.0201 404.513 21.9131C402.127 21.6704 399.564 21.6259 396.871 21.5307C391.482 21.48 385.552 21.7313 379.376 22.4938C373.205 23.3102 367.402 24.5604 362.198 25.966C359.615 26.7364 357.146 27.424 354.897 28.2598C353.769 28.6633 352.663 29.0114 351.628 29.4204C350.595 29.8348 349.604 30.232 348.657 30.6113C346.748 31.3317 345.094 32.1528 343.613 32.8115C342.878 33.151 342.185 33.4506 341.561 33.7542C340.946 34.0696 340.382 34.3583 339.872 34.6198C338.873 35.1247 338.088 35.522 337.526 35.8061C337.273 35.9294 337.07 36.0285 336.911 36.1058C336.772 36.1713 336.698 36.2018 336.695 36.1955C336.692 36.1893 336.759 36.1464 336.891 36.0691C337.045 35.9825 337.242 35.8716 337.487 35.7335C338.042 35.433 338.815 35.0131 339.8 34.4785C340.306 34.2069 340.865 33.9072 341.476 33.5794C342.096 33.2649 342.785 32.9551 343.518 32.6046C344.992 31.9249 346.642 31.0835 348.549 30.3444C349.495 29.9558 350.486 29.5491 351.518 29.1253C352.553 28.707 353.659 28.3511 354.788 27.939C357.038 27.0868 359.511 26.3852 362.099 25.6024C367.313 24.1718 373.135 22.9067 379.326 22.0879C385.522 21.3223 391.474 21.0819 396.88 21.153C399.582 21.2583 402.151 21.3153 404.543 21.5736C405.739 21.6876 406.9 21.7539 408.006 21.8983C409.111 22.0481 410.172 22.1925 411.185 22.3307C413.217 22.5664 415.026 22.9644 416.624 23.2516C417.42 23.4061 418.166 23.5326 418.845 23.6809C419.518 23.844 420.136 23.9938 420.694 24.1289C421.781 24.3981 422.636 24.6096 423.248 24.7618C423.521 24.8336 423.738 24.8914 423.909 24.9358C424.056 24.9811 424.131 25.0061 424.129 25.0123Z" fill="#263238"/>
<path d="M425.904 41.721C425.903 41.728 425.822 41.7163 425.668 41.6882C425.491 41.6531 425.266 41.6086 424.983 41.5524C424.357 41.419 423.479 41.2317 422.363 40.9936C421.793 40.8687 421.161 40.7306 420.473 40.5808C419.779 40.4434 419.019 40.3279 418.206 40.1843C416.576 39.9189 414.733 39.5396 412.664 39.3219C411.633 39.1923 410.553 39.0565 409.428 38.9153C408.302 38.7779 407.122 38.7201 405.906 38.6124C403.473 38.3689 400.862 38.3213 398.118 38.2253C392.625 38.1715 386.582 38.4126 380.286 39.1736C373.995 39.9829 368.075 41.2262 362.763 42.6263C360.126 43.3974 357.605 44.0795 355.308 44.9162C354.154 45.3189 353.027 45.6693 351.967 46.0752C350.912 46.4896 349.899 46.8869 348.931 47.2669C346.98 47.9881 345.287 48.8068 343.773 49.4686C343.021 49.8081 342.313 50.1094 341.674 50.4122C341.044 50.7283 340.467 51.0178 339.944 51.2801C338.922 51.7866 338.118 52.1846 337.545 52.4695C337.285 52.5936 337.077 52.6927 336.915 52.77C336.773 52.8355 336.698 52.866 336.695 52.8605C336.692 52.8542 336.759 52.8113 336.896 52.7341C337.053 52.6474 337.254 52.5366 337.506 52.3977C338.072 52.0972 338.865 51.6758 339.873 51.1396C340.392 50.868 340.965 50.5667 341.59 50.2389C342.225 49.9252 342.929 49.6138 343.678 49.2634C345.184 48.5812 346.875 47.7415 348.823 47.0016C349.79 46.6129 350.802 46.2063 351.857 45.7825C352.916 45.3681 354.044 45.0091 355.199 44.5986C357.498 43.7463 360.023 43.0501 362.664 42.2665C367.986 40.8422 373.925 39.5833 380.236 38.7716C386.552 38.0084 392.617 37.7781 398.125 37.8523C400.877 37.9584 403.496 38.0185 405.934 38.2776C407.153 38.3923 408.335 38.4587 409.463 38.6046C410.589 38.7553 411.671 38.8996 412.704 39.0378C414.775 39.2743 416.619 39.6739 418.248 39.9611C419.06 40.1156 419.82 40.2428 420.513 40.3911C421.2 40.5542 421.829 40.7041 422.398 40.8399C423.508 41.1099 424.381 41.3222 425.004 41.4736C425.282 41.5454 425.505 41.6032 425.679 41.6484C425.829 41.6898 425.906 41.7148 425.904 41.721Z" fill="#263238"/>
<path d="M430.471 58.3985C430.469 58.4056 430.389 58.3939 430.234 58.3658C430.058 58.3306 429.832 58.2862 429.55 58.23C428.923 58.0965 428.046 57.9092 426.93 57.6712C426.359 57.5463 425.728 57.4081 425.039 57.2583C424.345 57.1209 423.585 57.0054 422.772 56.8618C421.142 56.5965 419.299 56.2172 417.231 55.9994C416.199 55.8699 415.119 55.7341 413.994 55.5928C412.869 55.4554 411.689 55.3977 410.472 55.29C408.039 55.0465 405.428 54.9989 402.684 54.9036C397.192 54.8498 391.148 55.091 384.853 55.8519C378.561 56.6612 372.641 57.9045 367.329 59.3047C364.693 60.0758 362.171 60.7579 359.874 61.5945C358.721 61.9972 357.593 62.3477 356.534 62.7535C355.479 63.1679 354.466 63.5652 353.498 63.9453C351.547 64.6664 349.853 65.4851 348.34 66.1469C347.587 66.4864 346.879 66.7877 346.24 67.0905C345.61 67.4066 345.033 67.6961 344.511 67.9584C343.488 68.4649 342.685 68.8629 342.111 69.147C341.851 69.2711 341.643 69.3702 341.482 69.4475C341.339 69.5131 341.264 69.5435 341.261 69.5372C341.258 69.531 341.326 69.4881 341.462 69.4108C341.619 69.3242 341.821 69.2134 342.073 69.0744C342.638 68.774 343.431 68.3525 344.44 67.8163C344.958 67.5447 345.531 67.2435 346.156 66.9157C346.791 66.6019 347.495 66.2905 348.245 65.9401C349.752 65.258 351.441 64.419 353.389 63.6783C354.356 63.2897 355.369 62.8831 356.424 62.4593C357.483 62.0448 358.611 61.6858 359.765 61.2753C362.064 60.4231 364.589 59.7269 367.231 58.9433C372.553 57.519 378.491 56.2601 384.803 55.4484C391.118 54.6851 397.183 54.4549 402.691 54.529C405.444 54.6352 408.062 54.6953 410.5 54.9544C411.719 55.0691 412.902 55.1354 414.029 55.2814C415.156 55.432 416.237 55.5764 417.271 55.7145C419.341 55.951 421.185 56.3506 422.814 56.6378C423.627 56.7924 424.386 56.9196 425.079 57.0679C425.766 57.231 426.396 57.3808 426.965 57.5166C428.075 57.7867 428.947 57.9989 429.57 58.1504C429.849 58.2222 430.071 58.2799 430.245 58.3252C430.396 58.3665 430.472 58.3915 430.471 58.3985Z" fill="#263238"/>
<path d="M431.783 75.0756C431.781 75.0826 431.701 75.0709 431.546 75.0428C431.37 75.0077 431.144 74.9632 430.862 74.9078C430.235 74.7743 429.358 74.587 428.242 74.349C427.671 74.2241 427.04 74.086 426.351 73.9353C425.657 73.798 424.897 73.6825 424.084 73.5389C422.454 73.2735 420.611 72.8942 418.543 72.6765C417.511 72.5469 416.431 72.4111 415.306 72.2698C414.181 72.1325 413.001 72.0747 411.784 71.967C409.351 71.7235 406.74 71.6759 403.996 71.5799C398.504 71.5261 392.46 71.7672 386.165 72.5282C379.873 73.3375 373.953 74.5808 368.641 75.9809C366.005 76.752 363.483 77.4341 361.186 78.2708C360.033 78.6735 358.905 79.0239 357.846 79.4298C356.791 79.8442 355.778 80.2415 354.81 80.6215C352.859 81.3427 351.165 82.1614 349.652 82.8232C348.899 83.1627 348.191 83.464 347.552 83.7668C346.922 84.0829 346.345 84.3724 345.823 84.6347C344.8 85.1412 343.997 85.5392 343.423 85.8233C343.163 85.9474 342.955 86.0465 342.794 86.1238C342.651 86.1893 342.576 86.2198 342.573 86.2135C342.57 86.2073 342.638 86.1643 342.774 86.0871C342.932 86.0004 343.133 85.8896 343.385 85.7507C343.95 85.4502 344.743 85.0288 345.752 84.4926C346.27 84.221 346.843 83.9198 347.468 83.592C348.103 83.2782 348.807 82.9668 349.557 82.6164C351.064 81.9343 352.753 81.0945 354.701 80.3546C355.668 79.9659 356.681 79.5593 357.736 79.1355C358.795 78.7211 359.923 78.3621 361.077 77.9516C363.376 77.0993 365.901 76.4031 368.543 75.6196C373.865 74.1952 379.803 72.9363 386.115 72.1247C392.43 71.3614 398.495 71.1312 404.003 71.2053C406.756 71.3114 409.374 71.3715 411.812 71.6306C413.031 71.7454 414.214 71.8117 415.341 71.9577C416.468 72.1083 417.549 72.2527 418.583 72.3908C420.653 72.6273 422.497 73.0269 424.126 73.3141C424.939 73.4686 425.698 73.5958 426.391 73.7441C427.078 73.9072 427.708 74.0571 428.277 74.1929C429.387 74.4629 430.259 74.6752 430.882 74.8266C431.161 74.8984 431.383 74.9562 431.557 75.0014C431.708 75.0444 431.784 75.0686 431.783 75.0756Z" fill="#263238"/>
<path d="M435.037 91.753C435.036 91.76 434.955 91.7483 434.801 91.7202C434.624 91.6851 434.399 91.6406 434.116 91.5844C433.489 91.4509 432.612 91.2636 431.496 91.0256C430.926 90.9007 430.294 90.7626 429.606 90.6127C428.912 90.4754 428.152 90.3599 427.339 90.2163C425.709 89.9509 423.866 89.5716 421.797 89.3539C420.766 89.2243 419.685 89.0885 418.561 88.9472C417.435 88.8099 416.255 88.7521 415.039 88.6444C412.606 88.4009 409.994 88.3533 407.25 88.2573C401.758 88.2035 395.714 88.4446 389.419 89.2056C383.128 90.0149 377.207 91.2582 371.896 92.6583C369.259 93.4302 366.738 94.1115 364.441 94.9482C363.287 95.3509 362.159 95.7013 361.1 96.1072C360.045 96.5216 359.032 96.9188 358.064 97.2989C356.114 98.0201 354.42 98.8388 352.906 99.5006C352.154 99.8401 351.446 100.141 350.807 100.444C350.177 100.76 349.599 101.05 349.077 101.312C348.055 101.819 347.251 102.217 346.677 102.501C346.418 102.626 346.21 102.725 346.048 102.802C345.906 102.867 345.831 102.898 345.827 102.892C345.824 102.886 345.892 102.843 346.029 102.766C346.186 102.679 346.387 102.569 346.639 102.43C347.205 102.129 347.998 101.708 349.006 101.172C349.525 100.9 350.097 100.599 350.723 100.271C351.358 99.9572 352.062 99.6458 352.811 99.2953C354.318 98.6132 356.008 97.7734 357.956 97.0336C358.923 96.6449 359.935 96.2383 360.99 95.8145C362.049 95.4001 363.177 95.0418 364.331 94.6305C366.631 93.7783 369.155 93.0821 371.797 92.2985C377.119 90.8742 383.058 89.6153 389.369 88.8036C395.685 88.0403 401.75 87.8101 407.257 87.8843C410.01 87.9904 412.629 88.0505 415.067 88.3096C416.286 88.4243 417.468 88.4907 418.596 88.6366C419.722 88.7872 420.804 88.9316 421.837 89.0698C423.908 89.3062 425.752 89.7058 427.381 89.993C428.193 90.1476 428.953 90.2748 429.646 90.4231C430.332 90.5862 430.962 90.736 431.531 90.8718C432.641 91.1419 433.514 91.3542 434.136 91.5056C434.415 91.5774 434.637 91.6351 434.812 91.6804C434.962 91.721 435.039 91.746 435.037 91.753Z" fill="#263238"/>
<path d="M437.016 108.43C437.015 108.437 436.934 108.425 436.78 108.397C436.603 108.362 436.378 108.318 436.095 108.262C435.469 108.128 434.591 107.941 433.475 107.703C432.905 107.578 432.273 107.441 431.585 107.29C430.891 107.153 430.131 107.037 429.318 106.893C427.688 106.628 425.845 106.249 423.777 106.031C422.745 105.901 421.665 105.766 420.54 105.624C419.415 105.487 418.234 105.429 417.018 105.322C414.585 105.078 411.974 105.03 409.229 104.934C403.737 104.881 397.693 105.122 391.398 105.883C385.106 106.692 379.186 107.935 373.874 109.335C371.238 110.107 368.716 110.789 366.419 111.625C365.266 112.028 364.138 112.379 363.079 112.784C362.024 113.199 361.01 113.596 360.043 113.976C358.092 114.697 356.398 115.516 354.885 116.178C354.132 116.517 353.424 116.819 352.785 117.121C352.155 117.437 351.578 117.727 351.056 117.989C350.033 118.496 349.229 118.894 348.656 119.178C348.396 119.302 348.188 119.401 348.027 119.478C347.884 119.544 347.809 119.574 347.806 119.569C347.803 119.563 347.871 119.52 348.007 119.442C348.165 119.356 348.365 119.245 348.618 119.107C349.183 118.806 349.976 118.385 350.985 117.849C351.503 117.577 352.076 117.276 352.701 116.948C353.336 116.634 354.04 116.323 354.789 115.973C356.296 115.29 357.986 114.451 359.934 113.712C360.901 113.323 361.913 112.916 362.969 112.492C364.028 112.078 365.155 111.719 366.31 111.308C368.609 110.456 371.134 109.76 373.776 108.976C379.098 107.552 385.036 106.293 391.348 105.482C397.663 104.718 403.728 104.487 409.236 104.562C411.988 104.668 414.607 104.728 417.045 104.988C418.264 105.102 419.447 105.169 420.574 105.315C421.701 105.465 422.782 105.61 423.816 105.748C425.886 105.984 427.73 106.384 429.359 106.671C430.172 106.826 430.931 106.953 431.624 107.101C432.311 107.264 432.941 107.414 433.51 107.55C434.619 107.82 435.492 108.032 436.115 108.184C436.393 108.255 436.616 108.313 436.79 108.358C436.941 108.399 437.018 108.423 437.016 108.43Z" fill="#263238"/>
<path d="M439.817 125.107C439.816 125.114 439.735 125.102 439.581 125.074C439.405 125.039 439.179 124.995 438.896 124.938C438.27 124.805 437.392 124.618 436.276 124.38C435.706 124.255 435.075 124.117 434.386 123.966C433.692 123.829 432.932 123.713 432.119 123.569C430.489 123.304 428.646 122.925 426.578 122.707C425.546 122.578 424.466 122.442 423.341 122.3C422.216 122.163 421.036 122.105 419.819 121.998C417.386 121.754 414.775 121.707 412.03 121.611C406.538 121.557 400.495 121.798 394.199 122.559C387.908 123.368 381.987 124.611 376.675 126.012C374.039 126.783 371.517 127.465 369.22 128.301C368.067 128.704 366.939 129.055 365.88 129.46C364.825 129.875 363.812 130.272 362.844 130.652C360.893 131.373 359.199 132.192 357.686 132.854C356.933 133.193 356.226 133.495 355.586 133.797C354.957 134.113 354.379 134.403 353.857 134.665C352.834 135.172 352.031 135.57 351.457 135.855C351.197 135.979 350.989 136.078 350.828 136.155C350.685 136.221 350.61 136.251 350.607 136.246C350.604 136.239 350.672 136.197 350.808 136.119C350.966 136.033 351.167 135.922 351.419 135.783C351.985 135.482 352.777 135.061 353.786 134.525C354.304 134.253 354.877 133.952 355.502 133.624C356.137 133.31 356.841 132.999 357.591 132.649C359.098 131.966 360.787 131.127 362.735 130.387C363.702 129.998 364.715 129.591 365.77 129.168C366.829 128.753 367.957 128.394 369.111 127.984C371.41 127.131 373.935 126.435 376.577 125.652C381.899 124.227 387.837 122.969 394.149 122.157C400.464 121.394 406.529 121.163 412.037 121.238C414.79 121.344 417.408 121.404 419.846 121.664C421.065 121.778 422.248 121.845 423.375 121.991C424.502 122.141 425.583 122.286 426.617 122.424C428.687 122.66 430.531 123.06 432.16 123.347C432.973 123.502 433.732 123.629 434.425 123.777C435.112 123.94 435.742 124.09 436.311 124.226C437.421 124.496 438.293 124.708 438.916 124.86C439.195 124.931 439.417 124.989 439.591 125.034C439.742 125.076 439.819 125.101 439.817 125.107Z" fill="#263238"/>
<path d="M227.625 49.891C227.622 49.8848 227.688 49.8419 227.821 49.7646C227.974 49.6772 228.17 49.5664 228.416 49.4274C228.969 49.1254 229.742 48.7032 230.726 48.167C231.231 47.8946 231.79 47.5933 232.4 47.264C233.018 46.9479 233.707 46.6357 234.439 46.2845C235.911 45.6008 237.559 44.7564 239.464 44.0118C240.409 43.6208 241.399 43.2119 242.43 42.7857C243.463 42.3651 244.568 42.0061 245.697 41.5916C247.946 40.7339 250.416 40.026 253.002 39.2378C258.212 37.7955 264.029 36.5155 270.217 35.682C276.413 34.9008 282.365 34.6455 287.772 34.7041C290.474 34.8032 293.044 34.8539 295.437 35.106C296.634 35.2176 297.794 35.2808 298.902 35.4221C300.007 35.5696 301.068 35.7109 302.083 35.8467C304.115 36.0777 305.925 36.471 307.523 36.7543C308.319 36.9065 309.065 37.0314 309.745 37.1781C310.418 37.3397 311.035 37.4872 311.594 37.6214C312.682 37.8883 313.538 38.0975 314.15 38.2474C314.422 38.3184 314.64 38.3754 314.811 38.4198C314.96 38.4612 315.035 38.4854 315.033 38.4924C315.031 38.4994 314.953 38.4885 314.801 38.4604C314.628 38.4261 314.406 38.3824 314.13 38.327C313.514 38.1951 312.654 38.0101 311.56 37.776C311 37.6526 310.381 37.5169 309.706 37.3678C309.025 37.2328 308.279 37.1188 307.481 36.9776C305.882 36.7161 304.074 36.343 302.044 36.1308C301.032 36.0043 299.972 35.8716 298.868 35.7335C297.763 35.6 296.606 35.5454 295.411 35.4416C293.024 35.2044 290.461 35.1669 287.767 35.0779C282.377 35.0405 276.446 35.3058 270.271 36.0847C264.104 36.9159 258.305 38.1802 253.105 39.5983C250.524 40.3749 248.057 41.0687 245.81 41.91C244.682 42.3167 243.578 42.6671 242.544 43.0784C241.512 43.4952 240.523 43.8948 239.576 44.2772C237.668 45.0022 236.015 45.8272 234.537 46.4898C233.803 46.8308 233.111 47.1321 232.487 47.4373C231.872 47.7541 231.309 48.0445 230.799 48.3075C229.801 48.8148 229.017 49.2144 228.456 49.4992C228.202 49.6233 228 49.7224 227.842 49.8005C227.702 49.866 227.629 49.8965 227.625 49.891Z" fill="#263238"/>
<path d="M230.154 66.5022C230.151 66.496 230.219 66.4531 230.355 66.3742C230.512 66.2868 230.711 66.1744 230.963 66.0339C231.527 65.7288 232.317 65.3019 233.321 64.7595C233.837 64.484 234.408 64.1788 235.031 63.8463C235.663 63.5263 236.366 63.211 237.112 62.8544C238.614 62.1621 240.296 61.3075 242.239 60.5528C243.203 60.1563 244.212 59.7419 245.263 59.3103C246.317 58.8826 247.444 58.5181 248.593 58.0975C250.885 57.228 253.402 56.5038 256.038 55.7022C261.346 54.2303 267.27 52.9129 273.573 52.0458C279.883 51.2271 285.947 50.936 291.456 50.9609C294.21 51.0476 296.829 51.0796 299.269 51.32C300.49 51.4238 301.672 51.4839 302.802 51.6157C303.929 51.7578 305.012 51.8944 306.046 52.0239C308.118 52.2448 309.966 52.6264 311.597 52.9043C312.411 53.0526 313.171 53.1751 313.865 53.3172C314.553 53.4756 315.183 53.6208 315.753 53.7526C316.865 54.0149 317.739 54.2209 318.362 54.3676C318.642 54.4379 318.864 54.4941 319.038 54.5378C319.19 54.5784 319.267 54.6026 319.265 54.6096C319.264 54.6166 319.183 54.6057 319.029 54.5784C318.852 54.5448 318.627 54.5019 318.344 54.448C317.716 54.3193 316.838 54.1382 315.72 53.908C315.149 53.787 314.517 53.6535 313.828 53.5084C313.132 53.378 312.372 53.2664 311.558 53.1291C309.926 52.8738 308.08 52.5117 306.01 52.3104C304.977 52.1886 303.897 52.0614 302.77 51.9287C301.643 51.8054 300.463 51.7531 299.246 51.6571C296.812 51.4316 294.199 51.4128 291.454 51.3371C285.961 51.3324 279.918 51.6345 273.628 52.4501C267.346 53.314 261.439 54.6158 256.141 56.0636C253.511 56.8534 250.997 57.5628 248.706 58.4167C247.557 58.8295 246.431 59.1854 245.377 59.6045C244.325 60.0268 243.315 60.4326 242.35 60.8197C240.405 61.5557 238.719 62.3908 237.209 63.062C236.459 63.4077 235.754 63.7129 235.118 64.0219C234.49 64.3427 233.914 64.6361 233.395 64.9015C232.375 65.415 231.575 65.8193 231.002 66.1073C230.743 66.233 230.537 66.3336 230.375 66.4125C230.232 66.4772 230.157 66.5077 230.154 66.5022Z" fill="#263238"/>
<path d="M229.975 83.7923C229.971 83.7861 230.039 83.7432 230.175 83.6643C230.332 83.5769 230.533 83.4646 230.783 83.3241C231.347 83.0189 232.137 82.592 233.142 82.0496C233.658 81.7741 234.229 81.4689 234.852 81.1364C235.484 80.8164 236.186 80.5011 236.932 80.1445C238.435 79.4522 240.117 78.5976 242.06 77.8429C243.024 77.4472 244.033 77.032 245.084 76.6004C246.138 76.1727 247.265 75.809 248.414 75.3876C250.707 74.5181 253.224 73.7939 255.859 72.9923C261.167 71.5204 267.092 70.203 273.394 69.3359C279.705 68.5172 285.768 68.2253 291.277 68.2511C294.032 68.3377 296.651 68.3697 299.09 68.6101C300.311 68.7139 301.493 68.774 302.623 68.9059C303.751 69.0479 304.833 69.1837 305.867 69.314C307.939 69.5349 309.787 69.9166 311.418 70.1936C312.232 70.3419 312.992 70.4644 313.686 70.6065C314.374 70.7649 315.004 70.9101 315.575 71.042C316.686 71.3042 317.56 71.5103 318.184 71.657C318.462 71.7272 318.685 71.7834 318.859 71.8271C319.011 71.8677 319.088 71.8919 319.087 71.8982C319.085 71.9052 319.005 71.8942 318.85 71.8669C318.674 71.8334 318.448 71.7904 318.165 71.7366C317.537 71.607 316.659 71.4268 315.542 71.1965C314.97 71.0755 314.338 70.9421 313.648 70.7969C312.954 70.6666 312.193 70.555 311.378 70.4176C309.747 70.1624 307.9 69.8003 305.831 69.5989C304.798 69.4772 303.717 69.3499 302.592 69.2173C301.465 69.094 300.285 69.0417 299.067 68.9457C296.633 68.7201 294.021 68.7014 291.275 68.6257C285.782 68.621 279.74 68.923 273.449 69.7386C267.167 70.6026 261.261 71.9044 255.962 73.3521C253.332 74.142 250.818 74.8514 248.528 75.7052C247.378 76.1181 246.252 76.474 245.198 76.8931C244.146 77.3153 243.136 77.7212 242.172 78.1083C240.227 78.8442 238.54 79.6793 237.031 80.3505C236.281 80.6963 235.575 81.0014 234.939 81.3105C234.312 81.6313 233.736 81.9247 233.216 82.1908C232.197 82.7044 231.396 83.1087 230.824 83.3967C230.565 83.5223 230.358 83.623 230.196 83.7018C230.053 83.7666 229.978 83.7978 229.975 83.7923Z" fill="#263238"/>
<path d="M232.943 100.256C232.94 100.249 233.008 100.206 233.143 100.128C233.3 100.04 233.501 99.9278 233.751 99.7874C234.316 99.4822 235.105 99.0553 236.11 98.5129C236.626 98.2374 237.197 97.9322 237.82 97.5997C238.452 97.2798 239.154 96.9644 239.901 96.6078C241.403 95.9155 243.085 95.0609 245.027 94.3062C245.991 93.9097 247 93.4953 248.052 93.0637C249.105 92.636 250.232 92.2723 251.382 91.8509C253.674 90.9814 256.191 90.2572 258.827 89.4556C264.135 87.9837 270.059 86.6663 276.361 85.7992C282.672 84.9805 288.735 84.6894 294.245 84.7144C296.999 84.801 299.618 84.833 302.058 85.0734C303.278 85.1772 304.461 85.2373 305.59 85.3692C306.718 85.5112 307.8 85.6478 308.835 85.7773C310.907 85.9982 312.755 86.3799 314.385 86.6577C315.199 86.806 315.959 86.9285 316.653 87.0706C317.342 87.229 317.971 87.3742 318.542 87.5061C319.653 87.7683 320.527 87.9743 321.151 88.1211C321.43 88.1913 321.653 88.2475 321.827 88.2912C321.978 88.3318 322.056 88.356 322.054 88.363C322.052 88.37 321.972 88.3591 321.817 88.3318C321.641 88.2982 321.416 88.2553 321.132 88.2014C320.505 88.0727 319.627 87.8916 318.509 87.6614C317.938 87.5404 317.306 87.4069 316.616 87.2618C315.92 87.1314 315.159 87.0198 314.345 86.8825C312.714 86.6273 310.868 86.2651 308.797 86.0638C307.765 85.942 306.684 85.8148 305.558 85.6821C304.431 85.5588 303.251 85.5065 302.034 85.4098C299.599 85.1842 296.987 85.1655 294.242 85.0898C288.749 85.0851 282.706 85.3871 276.416 86.2027C270.134 87.0667 264.227 88.3685 258.929 89.8162C256.299 90.606 253.785 91.3155 251.494 92.1693C250.345 92.5822 249.218 92.9381 248.165 93.3572C247.113 93.7794 246.103 94.1852 245.138 94.5723C243.193 95.3083 241.507 96.1434 239.997 96.8146C239.247 97.1603 238.542 97.4655 237.906 97.7746C237.278 98.0953 236.703 98.3888 236.182 98.6541C235.163 99.1677 234.362 99.5719 233.79 99.8607C233.531 99.9864 233.324 100.087 233.163 100.166C233.021 100.231 232.947 100.262 232.943 100.256Z" fill="#263238"/>
<path d="M234.032 117.213C234.029 117.206 234.097 117.163 234.233 117.085C234.39 116.997 234.59 116.885 234.841 116.744C235.405 116.439 236.195 116.012 237.199 115.47C237.715 115.194 238.286 114.889 238.909 114.557C239.541 114.237 240.244 113.921 240.99 113.565C242.492 112.873 244.174 112.018 246.118 111.263C247.081 110.867 248.091 110.452 249.142 110.021C250.196 109.593 251.322 109.229 252.472 108.808C254.764 107.938 257.281 107.214 259.917 106.413C265.225 104.941 271.149 103.623 277.451 102.756C283.762 101.938 289.825 101.646 295.335 101.671C298.089 101.758 300.708 101.79 303.148 102.03C304.369 102.134 305.551 102.194 306.68 102.326C307.808 102.468 308.891 102.605 309.925 102.734C311.997 102.955 313.845 103.337 315.475 103.615C316.289 103.763 317.05 103.886 317.743 104.028C318.432 104.186 319.062 104.331 319.632 104.463C320.744 104.725 321.618 104.931 322.241 105.078C322.52 105.148 322.743 105.205 322.917 105.248C323.069 105.289 323.146 105.313 323.144 105.32C323.143 105.327 323.062 105.316 322.908 105.289C322.731 105.255 322.506 105.212 322.222 105.158C321.595 105.03 320.717 104.849 319.599 104.618C319.028 104.497 318.396 104.364 317.707 104.219C317.011 104.088 316.25 103.977 315.436 103.84C313.805 103.584 311.959 103.222 309.888 103.021C308.856 102.899 307.775 102.772 306.649 102.639C305.522 102.516 304.342 102.464 303.125 102.367C300.69 102.141 298.078 102.122 295.333 102.047C289.84 102.042 283.797 102.344 277.507 103.16C271.225 104.024 265.318 105.325 260.02 106.773C257.39 107.563 254.876 108.273 252.585 109.126C251.436 109.539 250.309 109.895 249.256 110.314C248.204 110.736 247.194 111.142 246.229 111.529C244.284 112.265 242.598 113.1 241.088 113.772C240.338 114.117 239.632 114.423 238.997 114.732C238.368 115.052 237.793 115.346 237.273 115.611C236.254 116.125 235.453 116.529 234.881 116.818C234.622 116.943 234.415 117.044 234.254 117.123C234.11 117.187 234.036 117.218 234.032 117.213Z" fill="#263238"/>
<path d="M236.356 133.845C236.353 133.839 236.42 133.796 236.556 133.717C236.713 133.63 236.914 133.517 237.164 133.377C237.729 133.072 238.518 132.645 239.523 132.102C240.039 131.827 240.61 131.522 241.233 131.189C241.865 130.869 242.567 130.554 243.313 130.197C244.816 129.505 246.498 128.65 248.44 127.896C249.404 127.499 250.413 127.085 251.465 126.653C252.518 126.225 253.645 125.862 254.795 125.44C257.087 124.571 259.604 123.847 262.24 123.045C267.548 121.573 273.472 120.256 279.774 119.389C286.085 118.57 292.148 118.279 297.658 118.304C300.412 118.39 303.031 118.422 305.471 118.663C306.691 118.767 307.874 118.827 309.003 118.959C310.131 119.101 311.213 119.237 312.248 119.367C314.32 119.588 316.168 119.969 317.798 120.246C318.612 120.395 319.372 120.517 320.066 120.659C320.755 120.818 321.384 120.963 321.955 121.095C323.066 121.357 323.94 121.563 324.564 121.71C324.843 121.78 325.066 121.836 325.24 121.88C325.391 121.92 325.468 121.945 325.467 121.951C325.465 121.958 325.385 121.947 325.23 121.92C325.054 121.886 324.829 121.843 324.545 121.789C323.918 121.66 323.04 121.479 321.922 121.249C321.351 121.128 320.719 120.995 320.029 120.85C319.333 120.719 318.573 120.608 317.758 120.47C316.127 120.215 314.281 119.853 312.21 119.652C311.177 119.53 310.097 119.403 308.971 119.27C307.844 119.147 306.664 119.094 305.447 118.998C303.012 118.772 300.4 118.753 297.654 118.678C292.162 118.673 286.119 118.975 279.829 119.79C273.547 120.654 267.64 121.957 262.342 123.404C259.712 124.194 257.198 124.903 254.907 125.757C253.758 126.17 252.631 126.526 251.578 126.945C250.526 127.367 249.516 127.773 248.551 128.16C246.606 128.896 244.919 129.731 243.41 130.402C242.66 130.748 241.954 131.053 241.318 131.362C240.69 131.683 240.115 131.977 239.595 132.242C238.575 132.755 237.775 133.16 237.202 133.449C236.943 133.574 236.737 133.675 236.575 133.754C236.434 133.82 236.36 133.851 236.356 133.845Z" fill="#263238"/>
<path d="M237.884 150.686C237.881 150.68 237.949 150.637 238.084 150.558C238.241 150.471 238.441 150.359 238.692 150.218C239.257 149.913 240.046 149.486 241.051 148.943C241.567 148.667 242.138 148.362 242.761 148.03C243.393 147.71 244.095 147.394 244.842 147.038C246.344 146.345 248.026 145.491 249.968 144.736C250.932 144.34 251.942 143.925 252.993 143.494C254.046 143.066 255.173 142.702 256.323 142.281C258.615 141.411 261.132 140.687 263.768 139.886C269.076 138.414 275 137.096 281.302 136.229C287.613 135.41 293.676 135.119 299.186 135.144C301.94 135.231 304.559 135.263 306.999 135.503C308.22 135.607 309.402 135.668 310.531 135.799C311.659 135.941 312.741 136.078 313.776 136.207C315.848 136.428 317.696 136.81 319.326 137.088C320.14 137.236 320.9 137.358 321.594 137.5C322.283 137.659 322.912 137.804 323.483 137.936C324.594 138.198 325.468 138.404 326.092 138.551C326.371 138.621 326.594 138.677 326.768 138.721C326.919 138.762 326.997 138.786 326.995 138.792C326.993 138.799 326.913 138.788 326.759 138.761C326.582 138.727 326.357 138.684 326.073 138.631C325.446 138.502 324.568 138.321 323.45 138.091C322.879 137.97 322.247 137.836 321.557 137.691C320.861 137.561 320.1 137.449 319.286 137.312C317.655 137.056 315.809 136.695 313.739 136.493C312.706 136.371 311.625 136.244 310.5 136.111C309.373 135.988 308.193 135.936 306.975 135.839C304.541 135.613 301.929 135.595 299.183 135.519C293.69 135.514 287.648 135.816 281.358 136.632C275.076 137.496 269.168 138.798 263.871 140.245C261.241 141.035 258.727 141.745 256.436 142.598C255.286 143.011 254.16 143.367 253.107 143.786C252.055 144.209 251.045 144.614 250.08 145.001C248.135 145.737 246.449 146.573 244.939 147.244C244.189 147.589 243.484 147.895 242.847 148.204C242.22 148.524 241.644 148.818 241.124 149.084C240.105 149.598 239.304 150.002 238.732 150.29C238.473 150.416 238.266 150.516 238.105 150.595C237.962 150.661 237.887 150.693 237.884 150.686Z" fill="#263238"/>
<path d="M432.332 152.308C434.106 160.154 436.758 166.098 440.894 172.997C435.667 171.274 430.883 168.224 427.115 164.212C425.958 166.831 425.973 172.436 426.428 175.828C419.819 170.693 414.242 162.151 411.962 154.098L432.332 152.308Z" fill="#979C9F"/>
<path d="M449.055 151.118C449.056 151.125 448.993 151.136 448.872 151.151C448.727 151.166 448.551 151.184 448.334 151.205C447.827 151.247 447.136 151.304 446.265 151.375C444.431 151.518 441.84 151.72 438.654 151.968C432.228 152.475 423.355 153.231 413.568 154.189C403.777 155.153 394.928 156.147 388.531 156.94C385.361 157.342 382.783 157.668 380.958 157.9C380.09 158.01 379.404 158.096 378.899 158.16C378.683 158.184 378.507 158.202 378.362 158.217C378.24 158.228 378.177 158.23 378.177 158.223C378.176 158.216 378.236 158.2 378.355 158.176C378.499 158.149 378.674 158.117 378.887 158.078C379.39 157.996 380.073 157.884 380.936 157.743C382.717 157.462 385.298 157.079 388.495 156.655C394.886 155.788 403.734 154.749 413.529 153.784C423.321 152.825 432.201 152.113 438.634 151.68C441.85 151.458 444.456 151.307 446.256 151.216C447.13 151.177 447.822 151.145 448.331 151.122C448.548 151.116 448.725 151.112 448.871 151.108C448.992 151.108 449.054 151.111 449.055 151.118Z" fill="#455A64"/>
<path d="M403.022 365.415H43.116V412.93H403.022V365.415Z" fill="#DBDBDB"/>
<path d="M403.022 371.276H43.116V404.994H403.022V371.276Z" fill="#FAFAFA"/>
<path d="M411.475 332.61H23.8407V365.8H411.475V332.61Z" fill="#455A64"/>
<path d="M388.991 332.61H382.393V365.8H388.991V332.61Z" fill="white"/>
<path d="M375.087 332.61H368.489V365.8H375.087V332.61Z" fill="white"/>
<path d="M66.3549 332.61H59.7568V365.8H66.3549V332.61Z" fill="white"/>
<path d="M52.4502 332.61H45.852V365.8H52.4502V332.61Z" fill="white"/>
<path d="M332.76 358.294C332.758 358.266 333.202 358.299 334.038 358.132C334.852 357.944 336.113 357.505 337.263 356.297C337.827 355.697 338.34 354.904 338.657 353.935C338.97 352.971 339.026 351.819 338.875 350.632C338.71 349.443 338.137 348.211 337.171 347.221C336.203 346.239 334.819 345.521 333.261 345.401C320.581 345.417 302.253 345.44 279.608 345.468C234.287 345.489 171.696 345.52 102.566 345.553C100.498 345.544 98.4735 346.674 97.433 348.453C96.8916 349.325 96.6109 350.342 96.5786 351.361C96.5296 352.424 96.6465 353.429 97.0531 354.377C97.8563 356.247 99.6543 357.666 101.668 357.932C102.65 358.062 103.752 357.982 104.795 358.005C105.851 358.005 106.906 358.005 107.958 358.005C116.376 358.006 124.672 358.008 132.823 358.01C149.125 358.015 164.851 358.021 179.83 358.026C209.788 358.05 236.765 358.071 259.424 358.089C282.072 358.128 300.402 358.159 313.084 358.181C319.41 358.205 324.325 358.223 327.672 358.236C329.331 358.248 330.6 358.258 331.467 358.265C332.322 358.274 332.76 358.294 332.76 358.294C332.76 358.294 332.322 358.314 331.468 358.324C330.601 358.33 329.333 358.34 327.673 358.353C324.326 358.365 319.411 358.384 313.085 358.407C300.403 358.43 282.073 358.461 259.425 358.5C236.765 358.518 209.788 358.539 179.831 358.562C164.852 358.568 149.127 358.573 132.824 358.579C124.673 358.58 116.378 358.582 107.959 358.583C106.906 358.583 105.853 358.583 104.796 358.583C103.732 358.558 102.707 358.647 101.584 358.504C99.3725 358.211 97.4007 356.659 96.5206 354.606C96.0739 353.587 95.9447 352.417 95.9993 351.346C96.0338 350.228 96.3446 349.111 96.9373 348.154C98.0769 346.205 100.3 344.963 102.566 344.974C171.696 345.007 234.287 345.037 279.608 345.058C302.26 345.108 320.594 345.149 333.279 345.176C334.892 345.309 336.321 346.062 337.314 347.081C338.305 348.11 338.886 349.384 339.046 350.607C339.192 351.831 339.125 352.986 338.796 353.98C338.462 354.968 337.93 355.773 337.347 356.379C336.163 357.596 334.877 358.021 334.05 358.191C333.626 358.259 333.304 358.298 333.086 358.294C332.869 358.298 332.76 358.294 332.76 358.294Z" fill="white"/>
<path d="M399.889 372.212C399.889 372.372 320.58 372.502 222.77 372.502C124.926 372.502 45.6336 372.371 45.6336 372.212C45.6336 372.053 124.926 371.922 222.77 371.922C320.58 371.922 399.889 372.053 399.889 372.212Z" fill="#263238"/>
<path d="M399.889 382.278C399.889 382.438 320.58 382.568 222.77 382.568C124.926 382.568 45.6336 382.438 45.6336 382.278C45.6336 382.118 124.926 381.988 222.77 381.988C320.58 381.988 399.889 382.119 399.889 382.278Z" fill="#263238"/>
<path d="M399.889 392.345C399.889 392.506 320.58 392.635 222.77 392.635C124.926 392.635 45.6336 392.505 45.6336 392.345C45.6336 392.185 124.926 392.056 222.77 392.056C320.58 392.055 399.889 392.185 399.889 392.345Z" fill="#263238"/>
<path d="M399.889 402.411C399.889 402.571 320.58 402.701 222.77 402.701C124.926 402.701 45.6336 402.57 45.6336 402.411C45.6336 402.252 124.926 402.121 222.77 402.121C320.58 402.121 399.889 402.251 399.889 402.411Z" fill="#263238"/>
<path d="M235.685 348.125L254.226 341.97L243.853 312.375L223.992 320.471L235.685 348.125Z" fill="#FFBF9D"/>
<path d="M226.501 320.505L197.807 333.127L186.65 333.563C182.416 333.728 183.352 337.13 183.517 341.364L185.535 393.024C185.535 393.024 190.818 395.258 192.289 391.384C193.761 387.508 208.568 357.998 208.568 357.998L235.751 348.078L226.501 320.505Z" fill="#E0E0E0"/>
<path d="M226.501 320.505C226.501 320.505 226.562 320.651 226.674 320.962C226.791 321.295 226.952 321.757 227.161 322.353C227.594 323.611 228.22 325.432 229.026 327.774C230.653 332.548 233.003 339.444 235.925 348.019L235.983 348.189L235.814 348.251C228.145 351.066 218.911 354.455 208.65 358.221L208.781 358.104C205.8 364.12 202.608 370.558 199.263 377.307C197.606 380.689 195.911 384.149 194.238 387.696C193.817 388.582 193.407 389.475 193.002 390.375C192.797 390.832 192.644 391.263 192.409 391.743C192.295 391.983 192.187 392.226 192.009 392.432L191.765 392.753L191.463 393.023C190.635 393.756 189.502 393.949 188.474 393.922C187.426 393.886 186.419 393.646 185.434 393.268L185.279 393.209L185.272 393.035C185.266 392.866 185.259 392.684 185.251 392.501C184.71 378.459 184.193 365.072 183.723 352.873C183.607 349.824 183.494 346.849 183.385 343.957C183.326 342.508 183.293 341.086 183.195 339.689C183.13 338.292 182.94 336.883 183.324 335.485C183.516 334.795 183.987 334.133 184.643 333.808C185.29 333.474 185.99 333.396 186.659 333.348C187.971 333.299 189.26 333.251 190.524 333.204C193.05 333.112 195.479 333.022 197.799 332.937L197.73 332.953C206.622 329.089 213.823 325.96 218.823 323.788C221.285 322.727 223.205 321.9 224.529 321.329C225.163 321.06 225.653 320.851 226.005 320.702C226.337 320.563 226.501 320.505 226.501 320.505C226.501 320.505 226.322 320.597 225.984 320.752C225.629 320.914 225.132 321.14 224.491 321.431C223.165 322.025 221.245 322.888 218.781 323.994C213.827 326.201 206.692 329.378 197.883 333.301L197.85 333.316L197.814 333.317C195.494 333.413 193.067 333.513 190.54 333.618C189.277 333.67 187.988 333.722 186.676 333.776C186.043 333.824 185.397 333.904 184.848 334.192C184.295 334.474 183.921 334.999 183.746 335.614C183.401 336.862 183.573 338.27 183.648 339.66C183.752 341.066 183.788 342.495 183.852 343.939C183.969 346.831 184.088 349.806 184.211 352.854C184.693 365.053 185.223 378.439 185.779 392.481C185.786 392.664 185.794 392.846 185.8 393.014L185.639 392.781C186.541 393.127 187.527 393.362 188.488 393.393C189.443 393.417 190.432 393.236 191.12 392.62C191.835 392.037 192.1 391.089 192.52 390.162C192.928 389.256 193.34 388.359 193.762 387.472C195.44 383.921 197.139 380.462 198.801 377.08C202.158 370.336 205.363 363.903 208.355 357.891L208.398 357.807L208.487 357.775C218.762 354.047 228.008 350.692 235.687 347.906L235.576 348.136C232.751 339.581 230.479 332.7 228.906 327.936C228.131 325.563 227.528 323.719 227.112 322.445C226.913 321.829 226.761 321.353 226.65 321.01C226.549 320.683 226.501 320.505 226.501 320.505Z" fill="#263238"/>
<path d="M228.081 317.362L221.127 320.924C220.063 321.468 219.583 322.731 220.018 323.845L229.854 349.117C230.287 350.231 231.494 350.835 232.646 350.519L239.973 348.501C241.298 348.135 242.021 346.708 241.532 345.424L231.323 318.608C230.829 317.31 229.317 316.73 228.081 317.362Z" fill="#E0E0E0"/>
<path d="M230.179 350.111C230.102 350.148 229.332 348.739 228.196 346.404C227.062 344.069 225.576 340.803 224.126 337.112C222.679 333.42 221.564 330.003 220.856 327.504C220.502 326.254 220.238 325.237 220.081 324.527C219.921 323.819 219.853 323.421 219.895 323.41C219.986 323.385 220.471 324.914 221.287 327.37C222.103 329.828 223.279 333.203 224.72 336.879C226.162 340.553 227.579 343.837 228.606 346.216C229.635 348.594 230.262 350.072 230.179 350.111Z" fill="#263238"/>
<path d="M221.787 326.983C221.651 326.901 223.59 324.683 226.941 323.613C230.281 322.506 233.154 323.156 233.093 323.302C233.083 323.503 230.311 323.162 227.139 324.22C223.953 325.23 221.913 327.139 221.787 326.983Z" fill="#263238"/>
<path d="M224.226 336.72C224.151 336.566 226.733 335.156 230.09 333.795C233.446 332.428 236.279 331.636 236.332 331.798C236.389 331.97 233.664 333.027 230.331 334.385C226.995 335.739 224.304 336.883 224.226 336.72Z" fill="#263238"/>
<path d="M229.2 346.427C229.169 346.228 232.08 346.111 235.006 344.274C237.966 342.486 239.38 339.94 239.544 340.058C239.609 340.092 239.357 340.774 238.681 341.73C238.012 342.683 236.869 343.873 235.342 344.817C233.811 345.756 232.236 346.24 231.082 346.41C229.924 346.582 229.201 346.502 229.2 346.427Z" fill="#263238"/>
<path d="M183.967 345.091C183.951 344.987 184.939 344.842 186.42 344.286C187.893 343.741 189.856 342.698 191.541 340.991C193.226 339.283 194.242 337.307 194.768 335.826C195.304 334.338 195.435 333.348 195.539 333.361C195.609 333.365 195.639 334.386 195.197 335.964C194.766 337.53 193.766 339.643 191.994 341.439C190.223 343.235 188.123 344.262 186.563 344.714C184.994 345.176 183.971 345.161 183.967 345.091Z" fill="#263238"/>
<path d="M184.94 377.773C184.919 377.707 185.604 377.387 186.811 377.216C188.005 377.045 189.774 377.152 191.471 377.98C193.167 378.798 194.381 380.01 195.158 380.915C195.929 381.841 196.293 382.49 196.231 382.536C196.153 382.596 195.663 382.046 194.828 381.223C193.987 380.415 192.778 379.317 191.195 378.556C189.614 377.787 188.002 377.619 186.848 377.666C185.689 377.716 184.967 377.876 184.94 377.773Z" fill="#263238"/>
<path d="M179.415 279.022C179.415 279.022 140.83 272.483 132.17 273.377C123.509 274.27 106.452 281.43 106.482 296.823C106.512 312.216 115.498 324.143 127.652 327.298C139.807 330.453 208.048 344.284 234.791 346.576C257.425 348.515 270.27 344.01 268.044 340.238C268.044 340.238 290.646 331.472 293.068 330.25C294.955 329.299 321.96 317.105 334.702 307.106C340.509 302.549 357.999 284.863 343.831 272.547C329.664 260.23 313.429 261.856 297.738 268.552C295.114 269.673 279.448 274.766 270.701 279.908L257.65 263.234C257.202 263.505 230.601 263.818 206.937 263.53C199.301 263.436 185.99 263.234 185.99 263.234L179.415 279.022Z" fill="#263238"/>
<path d="M238.172 321.843C237.777 318.826 237.576 317.711 238.523 315.874C239.47 314.037 241.036 312.609 242.569 311.223C243.599 310.292 244.802 309.298 246.186 309.416C247.935 309.567 248.991 311.364 249.769 312.937C252.624 318.713 255.718 324.371 259.04 329.893C260.948 333.064 263.005 336.272 266.009 338.436C267.11 339.23 268.488 340.2 268.289 341.544C268.132 342.604 267.042 343.229 266.06 343.658C264.208 344.466 262.299 345.14 260.35 345.67C258.456 346.186 256.432 346.566 254.547 346.016C252.8 345.507 251.374 344.259 250.093 342.966C244.094 336.911 239.649 329.549 238.036 321.18" fill="#263238"/>
<path d="M307.415 272.668C307.402 272.709 307.167 272.606 306.691 272.656C306.217 272.67 305.519 272.779 304.626 272.934C302.841 273.261 300.278 273.856 297.121 274.635C295.561 275.024 293.774 275.456 291.957 275.835C290.187 276.422 288.652 277.834 286.952 279.138C283.572 281.796 279.87 284.737 276.021 287.868C268.319 294.13 261.515 300.001 256.718 304.391C254.311 306.577 252.401 308.387 251.079 309.636C250.45 310.233 249.945 310.711 249.559 311.076C249.206 311.401 249.016 311.566 249.003 311.553C248.989 311.54 249.155 311.35 249.483 311C249.85 310.617 250.333 310.114 250.934 309.488C252.213 308.192 254.086 306.338 256.463 304.115C261.201 299.648 267.976 293.724 275.685 287.456C279.537 284.323 283.251 281.392 286.649 278.753C288.351 277.47 289.908 276.038 291.82 275.416C293.745 275.03 295.431 274.644 297.032 274.27C300.203 273.537 302.785 272.997 304.591 272.73C305.494 272.606 306.202 272.529 306.687 272.549C306.929 272.543 307.114 272.569 307.235 272.61C307.359 272.64 307.418 272.66 307.415 272.668Z" fill="#455A64"/>
<path d="M209.943 313.304C209.933 313.32 209.704 313.192 209.279 312.933C208.812 312.642 208.198 312.26 207.431 311.782C205.79 310.733 203.499 309.267 200.69 307.469C197.839 305.621 194.468 303.436 190.73 301.015C186.973 298.603 182.935 295.777 178.284 293.611C175.955 292.517 173.588 291.781 171.213 291.197C170.036 290.868 168.863 290.468 167.852 289.786C166.817 289.115 166.123 288.107 165.483 287.213C164.251 285.375 162.467 284.182 160.641 283.487C158.814 282.78 156.98 282.489 155.314 282.353C151.962 282.129 149.211 282.244 147.323 282.056C146.378 281.98 145.649 281.873 145.158 281.785C144.667 281.69 144.413 281.626 144.418 281.608C144.421 281.589 144.682 281.618 145.174 281.679C145.668 281.734 146.395 281.806 147.337 281.851C149.219 281.975 151.947 281.803 155.342 281.98C157.035 282.095 158.906 282.366 160.799 283.078C161.741 283.436 162.685 283.909 163.564 284.544C164.444 285.171 165.229 286.01 165.879 286.927C166.536 287.835 167.183 288.756 168.135 289.367C169.073 289.995 170.192 290.378 171.352 290.697C173.699 291.265 176.162 292.025 178.506 293.13C183.218 295.325 187.26 298.176 190.997 300.607C194.712 303.065 198.062 305.282 200.895 307.156C203.667 309.013 205.926 310.527 207.544 311.611C208.288 312.123 208.886 312.533 209.338 312.844C209.744 313.131 209.953 313.29 209.943 313.304Z" fill="#455A64"/>
<path d="M219.522 348.505L201.641 342.973L210.995 314.422L230.177 321.787L219.522 348.505Z" fill="#FFBF9D"/>
<path d="M227.775 321.868L255.508 333.395L264.442 333.561C267.232 333.612 269.451 335.916 269.4 338.705L268.438 390.524C268.438 390.524 262.261 391.312 260.775 387.629C259.289 383.946 245.688 357.427 245.688 357.427L219.457 348.459L227.775 321.868Z" fill="#E0E0E0"/>
<path d="M227.775 321.867C227.775 321.867 227.734 322.04 227.642 322.355C227.543 322.688 227.404 323.148 227.228 323.742C226.854 324.973 226.314 326.753 225.619 329.04C224.206 333.636 222.168 340.27 219.633 348.515L219.517 348.285C226.93 350.803 235.854 353.834 245.765 357.202L245.857 357.233L245.9 357.319C248.788 362.989 251.873 369.05 255.106 375.4C256.706 378.585 258.34 381.84 259.95 385.187C260.352 386.015 260.736 386.899 261.12 387.724C261.487 388.516 262.172 389.131 262.978 389.525C264.606 390.306 266.565 390.43 268.404 390.262L268.172 390.52C268.174 390.422 268.175 390.316 268.178 390.209C268.432 376.904 268.673 364.217 268.894 352.65C268.951 349.759 269.008 346.939 269.061 344.195C269.089 342.824 269.116 341.472 269.142 340.141C269.146 339.483 269.192 338.795 269.153 338.184C269.102 337.559 268.925 336.952 268.643 336.404C268.082 335.303 267.097 334.455 265.973 334.059C264.858 333.643 263.607 333.798 262.408 333.73C260.011 333.68 257.706 333.632 255.504 333.585L255.467 333.584L255.434 333.571C246.922 329.986 240.028 327.082 235.238 325.063C232.859 324.052 231.003 323.264 229.718 322.718C229.1 322.452 228.621 322.246 228.275 322.097C227.948 321.953 227.775 321.867 227.775 321.867C227.775 321.867 227.934 321.92 228.252 322.045C228.594 322.182 229.068 322.372 229.678 322.616C230.96 323.137 232.815 323.89 235.192 324.857C240.028 326.84 246.988 329.694 255.581 333.218L255.512 333.203C257.715 333.239 260.019 333.276 262.417 333.315C263.017 333.325 263.623 333.335 264.233 333.345C264.851 333.351 265.51 333.433 266.118 333.653C267.344 334.081 268.42 334.999 269.038 336.199C269.347 336.796 269.544 337.46 269.602 338.143C269.647 338.84 269.6 339.474 269.599 340.148C269.576 341.479 269.553 342.831 269.53 344.203C269.482 346.945 269.433 349.767 269.384 352.658C269.176 364.224 268.947 376.913 268.708 390.218C268.706 390.324 268.703 390.431 268.702 390.529L268.698 390.767L268.471 390.788C266.527 390.96 264.535 390.849 262.741 389.999C261.86 389.569 261.066 388.865 260.644 387.951C260.239 387.081 259.882 386.256 259.474 385.414C257.871 382.074 256.239 378.815 254.645 375.632C251.424 369.277 248.351 363.211 245.476 357.536L245.61 357.653C235.713 354.248 226.801 351.182 219.397 348.634L219.227 348.575L219.281 348.405C221.913 340.138 224.029 333.487 225.496 328.879C226.223 326.621 226.788 324.865 227.179 323.65C227.368 323.076 227.514 322.63 227.619 322.307C227.719 322.009 227.775 321.867 227.775 321.867Z" fill="#263238"/>
<path d="M225.977 317.535L233.804 321.343C234.889 321.871 235.4 323.135 234.985 324.268L225.584 349.97C225.17 351.103 223.966 351.739 222.797 351.442L215.363 349.557C214.019 349.217 213.259 347.792 213.726 346.485L223.746 318.447C224.07 317.538 225.111 317.114 225.977 317.535Z" fill="#E0E0E0"/>
<path d="M225.977 317.535C225.97 317.573 225.689 317.376 225.123 317.432C224.848 317.468 224.503 317.585 224.213 317.871C223.901 318.142 223.788 318.615 223.606 319.14C222.866 321.269 221.826 324.268 220.546 327.954C219.23 331.684 217.672 336.101 215.943 341.002C215.507 342.23 215.06 343.486 214.605 344.771C214.381 345.409 214.155 346.053 213.926 346.704C213.754 347.298 213.863 347.976 214.236 348.487C214.42 348.743 214.662 348.958 214.94 349.11C215.21 349.265 215.537 349.327 215.898 349.421C216.597 349.598 217.301 349.775 218.01 349.954C219.428 350.313 220.868 350.677 222.325 351.046C222.702 351.137 223.041 351.252 223.362 351.244C223.694 351.251 224.022 351.166 224.317 351.02C224.612 350.872 224.866 350.65 225.061 350.39C225.256 350.128 225.357 349.817 225.487 349.46C225.991 348.086 226.488 346.731 226.976 345.401C227.954 342.742 228.897 340.178 229.797 337.731C231.603 332.858 233.231 328.464 234.604 324.756C234.78 324.283 234.963 323.87 234.947 323.433C234.944 323.001 234.813 322.58 234.583 322.238C234.143 321.527 233.276 321.303 232.596 320.919C231.209 320.225 230.007 319.624 229.006 319.122C228.058 318.638 227.305 318.253 226.747 317.968C226.236 317.701 225.97 317.552 225.977 317.535C225.985 317.518 226.267 317.636 226.796 317.873C227.366 318.136 228.132 318.492 229.099 318.938C230.11 319.416 231.325 319.991 232.727 320.654C233.081 320.822 233.446 320.996 233.823 321.175C234.221 321.358 234.601 321.657 234.866 322.051C235.137 322.442 235.296 322.925 235.307 323.43C235.331 323.945 235.119 324.439 234.96 324.885C233.616 328.605 232.025 333.01 230.26 337.9C229.37 340.348 228.435 342.917 227.467 345.58C226.981 346.911 226.487 348.265 225.985 349.64C225.865 349.968 225.739 350.366 225.49 350.701C225.244 351.029 224.927 351.307 224.557 351.491C224.188 351.675 223.776 351.781 223.36 351.773C223.151 351.777 222.944 351.742 222.741 351.698L222.194 351.559C220.738 351.19 219.299 350.824 217.881 350.464C217.173 350.284 216.468 350.105 215.77 349.927C215.437 349.838 215.047 349.767 214.692 349.566C214.343 349.376 214.041 349.106 213.814 348.786C213.35 348.148 213.216 347.299 213.433 346.56C213.662 345.868 213.9 345.246 214.128 344.597C214.589 343.315 215.041 342.059 215.483 340.834C217.252 335.947 218.847 331.542 220.193 327.824C221.538 324.162 222.633 321.182 223.411 319.068C223.601 318.569 223.744 318.047 224.104 317.753C224.435 317.45 224.816 317.343 225.112 317.322C225.412 317.303 225.638 317.366 225.776 317.422C225.917 317.485 225.981 317.529 225.977 317.535Z" fill="#263238"/>
<path d="M233.264 327.47C233.399 327.385 231.397 325.187 227.994 324.177C224.601 323.128 221.715 323.845 221.781 323.991C221.795 324.192 224.585 323.791 227.807 324.793C231.043 325.747 233.14 327.63 233.264 327.47Z" fill="#263238"/>
<path d="M230.255 337.178C230.323 337.03 227.846 335.716 224.638 334.459C221.432 333.195 218.735 332.474 218.689 332.63C218.638 332.795 221.241 333.77 224.427 335.026C227.614 336.275 230.185 337.334 230.255 337.178Z" fill="#263238"/>
<path d="M226.188 347.242C226.215 347.04 223.276 346.982 220.285 345.19C217.262 343.448 215.783 340.908 215.62 341.03C215.554 341.066 215.823 341.749 216.524 342.699C217.219 343.648 218.397 344.823 219.957 345.745C221.521 346.66 223.121 347.117 224.288 347.263C225.459 347.413 226.188 347.316 226.188 347.242Z" fill="#263238"/>
<path d="M268.999 344.582C269.011 344.482 268.062 344.363 266.632 343.86C265.21 343.366 263.309 342.406 261.663 340.804C260.015 339.201 259.003 337.328 258.47 335.92C257.928 334.506 257.782 333.56 257.683 333.575C257.616 333.58 257.607 334.559 258.061 336.062C258.505 337.553 259.504 339.558 261.236 341.243C262.967 342.927 264.999 343.871 266.502 344.273C268.017 344.684 268.995 344.648 268.999 344.582Z" fill="#263238"/>
<path d="M268.709 375.905C268.728 375.842 268.066 375.548 266.906 375.409C265.759 375.27 264.067 375.407 262.458 376.232C260.849 377.049 259.71 378.233 258.985 379.116C258.265 380.018 257.929 380.647 257.989 380.69C258.065 380.746 258.524 380.21 259.307 379.405C260.097 378.615 261.232 377.539 262.733 376.779C264.233 376.012 265.774 375.819 266.881 375.841C267.99 375.865 268.686 376.005 268.709 375.905Z" fill="#263238"/>
<path d="M208.731 308.772C208.605 308.825 207.897 307.154 206.447 304.634C205.002 302.114 202.712 298.792 199.615 295.625C196.506 292.468 193.226 290.116 190.733 288.625C188.241 287.126 186.585 286.389 186.638 286.264C186.659 286.213 187.093 286.352 187.86 286.649C188.632 286.936 189.715 287.438 191.013 288.134C193.612 289.519 197.014 291.846 200.184 295.065C203.342 298.292 205.606 301.737 206.942 304.361C207.613 305.672 208.097 306.764 208.369 307.541C208.652 308.317 208.782 308.751 208.731 308.772Z" fill="#455A64"/>
<path d="M259.862 290.65C259.936 290.745 258.759 291.773 256.917 293.49C255.075 295.205 252.597 297.643 250.064 300.521C247.534 303.405 245.437 306.177 243.973 308.224C242.508 310.272 241.64 311.572 241.537 311.51C241.451 311.458 242.148 310.051 243.505 307.908C244.858 305.765 246.908 302.907 249.464 299.993C252.024 297.083 254.591 294.684 256.543 293.065C258.495 291.445 259.8 290.572 259.862 290.65Z" fill="#455A64"/>
<path d="M279.752 239.796L281.657 204.316L254.691 209.792L260.025 257.793L276.086 281.227L293.066 274.435L279.752 239.796Z" fill="#FFBF9D"/>
<path d="M276.892 237.872C276.884 238.052 274.324 237.808 271.338 238.645C268.341 239.446 266.265 240.96 266.164 240.808C266.058 240.715 268.06 238.924 271.184 238.085C274.301 237.217 276.936 237.737 276.892 237.872Z" fill="#FF9A6C"/>
<path d="M312.1 255.378L294.043 249.192C293.464 248.993 292.825 249.076 292.316 249.417L255.565 273.937C254.176 274.864 254.502 276.991 256.107 277.458L275.117 282.995C275.674 283.157 276.274 283.065 276.757 282.743L312.554 258.873C313.907 257.969 313.64 255.906 312.1 255.378Z" fill="#455A64"/>
<path d="M292.952 261.88C292.952 261.88 293.705 261.742 295.996 263.692C298.288 265.643 299.395 267.047 299.799 269.135C300.204 271.224 299.374 273.811 298.788 274.753C298.202 275.696 295.909 278.027 295.909 278.027C295.909 278.027 295.97 281.234 293.626 282.389C291.282 283.543 291.282 283.543 291.282 283.543C291.282 283.543 290.501 285.674 287.413 285.738L284.729 286.147C284.729 286.147 282.423 287.576 281.338 286.611C280.253 285.645 270.333 278.424 269.297 276.064C268.26 273.705 268.93 273.375 268.93 273.375C268.93 273.375 265.432 272.317 267.265 269.911C269.099 267.503 272.107 269.607 274.818 271.142C277.53 272.677 285.604 275.981 285.604 275.981C285.604 275.981 279.34 265.879 279.749 264.513C280.158 263.148 282.772 261.361 285.042 264.028C287.313 266.695 291.707 273.882 292.478 273.42L294.9 270.644C294.9 270.644 290.943 264.878 290.921 263.219C290.898 261.56 292.952 261.88 292.952 261.88Z" fill="#FFBF9D"/>
<path d="M282.339 282.48C282.304 282.548 281.449 282.205 280.122 281.531C278.795 280.858 277.005 279.839 275.118 278.574C273.231 277.308 271.608 276.039 270.48 275.067C269.353 274.096 268.71 273.435 268.76 273.378C268.873 273.247 271.692 275.589 275.441 278.092C279.178 280.607 282.417 282.326 282.339 282.48Z" fill="#FF725E"/>
<path d="M178.412 164.59L209.144 153.905L242.118 152.397L271.712 162.927L261.658 205.756L261.782 204.348L260.667 240.088L262.239 258.35L258.602 264.263L183.922 263.206L183.233 214.769L178.412 164.59Z" fill="#FF8E49"/>
<path d="M152.93 217.091C152.93 217.091 163.95 183.721 168.081 176.09C172.213 168.459 178.412 164.59 178.412 164.59L183.234 215.185L183.663 225.494L152.93 217.091Z" fill="#FF8E49"/>
<path d="M271.712 162.927C271.712 162.927 282.761 167.432 285.65 179.619C287.439 187.169 293.88 219.457 293.88 219.457H258.038L260.026 187.052L271.712 162.927Z" fill="#FF8E49"/>
<path d="M269.086 171.858C269.158 171.891 268.695 173.074 267.879 174.957C267.064 176.839 265.898 179.422 264.563 182.252C261.899 187.909 259.53 192.437 259.23 192.249C259.23 192.249 259.782 191.121 260.644 189.258C261.59 187.236 262.753 184.752 264.038 182.004C265.373 179.175 266.596 176.621 267.506 174.783C268.417 172.946 269.013 171.824 269.086 171.858Z" fill="#263238"/>
<path d="M181.445 183.464C181.485 183.461 181.565 184.053 181.677 185.123C181.791 186.194 181.928 187.745 182.08 189.665C182.383 193.503 182.72 198.811 182.97 204.679C183.217 210.55 183.328 215.868 183.352 219.717C183.363 221.642 183.357 223.199 183.335 224.275C183.314 225.352 183.283 225.947 183.243 225.947C183.203 225.947 183.157 225.354 183.109 224.278C183.065 223.096 183.009 221.565 182.942 219.724C182.797 215.775 182.604 210.516 182.39 204.701C182.112 198.892 181.86 193.636 181.671 189.689C181.583 187.849 181.509 186.318 181.452 185.138C181.41 184.064 181.405 183.467 181.445 183.464Z" fill="#263238"/>
<path d="M258.602 188.799C258.641 188.792 258.78 189.337 258.997 190.331C259.216 191.325 259.508 192.766 259.835 194.555C260.487 198.13 261.289 203.11 261.564 208.667C261.852 214.223 261.666 219.255 261.471 222.884C261.371 224.7 261.269 226.167 261.175 227.18C261.086 228.192 261.018 228.752 260.979 228.749C260.939 228.747 260.931 228.184 260.95 227.167C260.979 226.041 261.017 224.597 261.061 222.867C261.151 219.238 261.271 214.222 260.984 208.697C260.711 203.173 259.976 198.211 259.43 194.623C259.165 192.912 258.945 191.485 258.773 190.372C258.626 189.366 258.563 188.807 258.602 188.799Z" fill="#263238"/>
<path d="M180.424 85.0532C180.424 85.0532 176.583 84.719 173.577 87.8928C170.57 91.0654 172.241 96.4104 172.241 96.4104C172.241 96.4104 165.566 98.6985 164.42 103.542C162.295 107.153 163.068 117.302 167.021 118.746C167.057 122.281 168.673 125.771 171.352 128.101C171.276 132.359 174.235 136.497 178.309 137.833C179.079 139.672 179.926 141.505 181.224 143.025C184.966 147.409 191.195 144.974 191.195 144.974C191.195 144.974 196.436 151.043 198.825 151.172C215.571 152.073 231.78 145.474 230.081 144.229C237.837 150.763 252.866 145.179 251.837 142.32C251.837 142.32 258.672 142.494 262.122 139.751C269.267 134.072 267.357 126.988 267.357 126.988C267.357 126.988 271.417 129.752 275.033 126.008C276.979 123.992 276.012 120.24 276.012 120.24C276.99 118.821 277.017 116.818 276.077 115.373C278.647 113.359 279.038 110.764 276.764 107.463C281.353 103.054 274.453 96.7702 274.453 96.7702C276.273 95.6651 276.728 92.8612 275.346 91.2459C278.163 88.8308 274.931 83.3154 271.387 82.1847C269.478 72.1622 258.053 72.4897 258.053 72.4897C256.613 69.0408 252.079 67.255 248.648 68.7857C246.533 65.8637 237.365 64.1504 231.565 68.7456C220.69 55.2986 207.526 56.9963 197.851 63.844C190.195 69.2624 189.976 75.6534 188.796 79.177C182.309 79.3118 180.424 85.0532 180.424 85.0532Z" fill="#263238"/>
<path d="M216.409 76.2939L218.196 74.5906L237.508 82.374C240.302 82.5289 242.514 84.7958 242.599 87.5931L242.43 150.517C242.454 154.783 241.599 158.48 239.023 161.881L236.311 165.462C230.127 173.626 217.405 172.955 212.508 163.958C212.166 163.33 211.929 162.778 211.825 162.331C211.722 161.77 211.569 161.4 211.538 160.924C210.963 155.861 210.931 151.471 210.931 151.471C210.587 145.913 210.473 143.632 210.472 143.685C210.472 143.685 198.643 142.324 195.445 127.142C193.854 119.591 194.155 109.202 194.602 98.978C195.221 84.8281 205.036 76.2794 216.409 76.2939Z" fill="#FFBF9D"/>
<path d="M220.367 109.336C220.383 110.374 221.275 111.218 222.359 111.221C223.442 111.225 224.309 110.389 224.294 109.349C224.279 108.311 223.386 107.467 222.305 107.463C221.22 107.459 220.353 108.298 220.367 109.336Z" fill="#263238"/>
<path d="M200.405 109.336C200.42 110.374 201.313 111.218 202.397 111.221C203.479 111.225 204.346 110.389 204.332 109.349C204.316 108.311 203.424 107.467 202.342 107.463C201.256 107.459 200.389 108.298 200.405 109.336Z" fill="#263238"/>
<path d="M196.622 103.022C196.878 103.266 198.309 102.091 200.423 101.99C202.531 101.86 204.136 102.869 204.352 102.599C204.459 102.478 204.187 102.029 203.488 101.571C202.8 101.116 201.641 100.697 200.327 100.768C199.011 100.842 197.93 101.382 197.318 101.909C196.694 102.439 196.497 102.913 196.622 103.022Z" fill="#263238"/>
<path d="M218.057 103.24C218.338 103.456 219.643 102.14 221.732 101.824C223.815 101.478 225.516 102.317 225.704 102.026C225.797 101.896 225.484 101.476 224.739 101.092C224.007 100.709 222.813 100.411 221.512 100.618C220.21 100.826 219.19 101.475 218.635 102.062C218.07 102.653 217.922 103.146 218.057 103.24Z" fill="#263238"/>
<path d="M210.678 118.615C210.682 118.495 209.358 118.334 207.216 118.169C206.674 118.14 206.157 118.058 206.048 117.695C205.901 117.312 206.098 116.719 206.328 116.079C206.77 114.748 207.232 113.353 207.717 111.891C209.639 105.933 211.001 101.044 210.76 100.969C210.52 100.893 208.766 105.662 206.845 111.621C206.384 113.089 205.942 114.489 205.524 115.828C205.35 116.451 205.035 117.164 205.35 117.959C205.516 118.355 205.926 118.628 206.277 118.703C206.628 118.791 206.932 118.781 207.199 118.785C209.347 118.794 210.676 118.736 210.678 118.615Z" fill="#263238"/>
<path d="M210.472 143.685C210.472 143.685 220.802 143.833 230.695 137.189C230.695 137.189 226.072 148.043 210.682 147.378L210.472 143.685Z" fill="#FF9A6C"/>
<path d="M211.826 123.662C212.536 122.619 213.839 122.001 215.167 122.077C216.089 122.129 217.038 122.525 217.631 123.244C218.226 123.963 218.396 125.017 217.926 125.753C217.395 126.583 216.213 126.828 215.192 126.592C214.169 126.356 213.269 125.736 212.411 125.116C212.174 124.944 211.932 124.765 211.777 124.521C211.623 124.278 211.576 123.952 211.741 123.734" fill="#FF9A6C"/>
<path d="M216.968 119.765C216.623 119.762 216.734 122.055 214.853 123.781C212.976 125.512 210.52 125.377 210.518 125.698C210.493 125.844 211.084 126.116 212.117 126.092C213.131 126.077 214.593 125.678 215.743 124.622C216.891 123.565 217.339 122.207 217.37 121.262C217.408 120.3 217.124 119.744 216.968 119.765Z" fill="#263238"/>
<path d="M216.035 95.0056C216.328 95.5425 218.375 94.9532 220.872 94.873C223.37 94.7427 225.456 95.1571 225.704 94.5978C225.812 94.3316 225.385 93.8504 224.5 93.4226C223.624 92.9948 222.279 92.6662 220.781 92.7286C219.284 92.7932 217.971 93.2332 217.134 93.7334C216.29 94.2336 215.905 94.7494 216.035 95.0056Z" fill="#263238"/>
<path d="M196.926 93.9461C197.321 94.4072 198.752 93.8369 200.499 93.7255C202.244 93.5528 203.747 93.8859 204.063 93.3668C204.201 93.115 203.943 92.6471 203.273 92.2249C202.613 91.8039 201.527 91.4886 200.326 91.5844C199.126 91.6835 198.105 92.1692 197.522 92.6917C196.928 93.2164 196.751 93.7199 196.926 93.9461Z" fill="#263238"/>
<path d="M239.547 113.452C239.492 112.313 240.676 109.559 241.793 109.327C244.775 108.708 250.205 108.678 250.638 116.309C251.229 126.741 240.634 125.183 240.599 124.885C240.572 124.652 239.735 117.388 239.547 113.452Z" fill="#FFBF9D"/>
<path d="M243.562 120.752C243.605 120.717 243.751 120.869 244.065 120.993C244.373 121.112 244.893 121.179 245.426 120.944C246.505 120.477 247.333 118.675 247.277 116.792C247.25 115.841 247 114.948 246.621 114.219C246.259 113.474 245.735 112.969 245.175 112.902C244.616 112.805 244.242 113.159 244.131 113.46C244.007 113.76 244.087 113.965 244.032 113.985C244.004 114.013 243.798 113.823 243.858 113.388C243.889 113.178 243.997 112.924 244.231 112.71C244.47 112.493 244.832 112.368 245.222 112.387C246.029 112.397 246.796 113.097 247.211 113.897C247.672 114.699 247.975 115.7 248.007 116.769C248.059 118.875 247.095 120.903 245.612 121.424C244.89 121.657 244.264 121.471 243.934 121.242C243.595 121.003 243.527 120.772 243.562 120.752Z" fill="#FF9A6C"/>
<path d="M199.752 117.157C199.457 117.157 199.156 117.144 198.849 117.117C196.254 116.897 194.243 115.873 192.87 114.075C189.923 110.219 190.981 104.209 191.027 103.955L191.077 103.681L191.326 103.557C191.452 103.493 194.477 102.024 200.315 102.832C206.232 103.65 208.089 106.378 208.165 106.494L208.26 106.637L208.257 106.807C208.254 107.032 208.148 112.334 204.902 115.278C203.524 116.527 201.795 117.157 199.752 117.157ZM192.079 104.449C191.914 105.666 191.454 110.392 193.758 113.403C194.932 114.938 196.677 115.815 198.943 116.009C201.059 116.186 202.813 115.667 204.15 114.457C206.718 112.133 207.085 107.921 207.136 106.982C206.706 106.476 204.815 104.58 200.162 103.936C195.626 103.308 192.891 104.14 192.079 104.449Z" fill="#455A64"/>
<path d="M221.653 117.641C219.575 117.641 217.814 117.002 216.406 115.734C213.035 112.698 212.924 107.172 212.92 106.939L212.918 106.767L213.012 106.625C213.09 106.506 215.009 103.687 221.128 102.842C227.167 102.006 230.295 103.525 230.426 103.589L230.695 103.724L230.73 104.024C230.761 104.298 231.462 110.775 228.252 114.721C226.878 116.412 224.991 117.379 222.646 117.594C222.307 117.625 221.976 117.641 221.653 117.641ZM214.041 107.113C214.092 108.077 214.471 112.497 217.155 114.909C218.541 116.156 220.354 116.685 222.543 116.486C224.577 116.3 226.206 115.471 227.384 114.023C229.917 110.912 229.743 105.798 229.649 104.473C228.79 104.149 225.959 103.299 221.28 103.946C216.445 104.614 214.484 106.588 214.041 107.113Z" fill="#455A64"/>
<path d="M213.318 107.227C212.341 106.423 211.443 105.994 210.575 105.918C209.724 105.841 208.657 106.209 208.257 107.05L207.251 106.572C207.806 105.405 209.22 104.68 210.674 104.809C211.773 104.905 212.87 105.415 214.028 106.366L213.318 107.227Z" fill="#455A64"/>
<path d="M244.061 79.853C242.254 76.9667 238.963 75.4272 235.853 74.0402C229.092 71.0258 221.886 67.94 214.551 68.9371C208.453 69.7659 203.118 73.3173 198.026 76.7729L198.387 83.0123C200.175 86.9859 205.525 88.8786 209.414 86.9135C210.501 88.5567 212.571 89.4902 214.522 89.2173C216.474 88.9443 218.209 87.4794 218.805 85.6012C221.171 89.2039 225.882 91.0921 230.081 90.1196C228.752 92.0446 227.904 94.4452 228.399 96.7322C228.895 99.0181 231.039 101.018 233.368 100.788C233.025 103.25 232.689 105.817 233.475 108.175C234.26 110.533 236.531 112.597 238.996 112.272C240.621 112.058 241.988 110.858 242.793 109.428C243.599 107.999 243.925 106.357 244.187 104.738C244.959 99.9673 245.266 95.1359 245.574 90.3123C245.798 86.7353 245.962 82.8909 244.061 79.853Z" fill="#263238"/>
<path d="M264.794 111.769C264.711 111.758 265.097 110.449 264.987 108.113C264.871 105.823 264.115 102.367 261.488 99.2943L261.39 99.1796L261.451 99.0403C262.414 96.8603 262.397 93.9149 260.963 91.4597C259.582 88.9911 256.572 87.3245 253.446 87.4626C252.815 87.4916 252.193 87.5919 251.598 87.7567L251.178 87.8737L251.231 87.4437C251.548 84.7991 250.198 82.1634 248.156 80.8834C246.098 79.5789 243.534 79.5477 241.639 80.4089L241.227 80.596L241.298 80.1493C241.618 78.153 240.73 76.2682 239.519 75.192C238.297 74.0769 236.764 73.7951 235.599 73.8764C234.408 73.9511 233.529 74.3554 232.982 74.6763C232.433 75.006 232.182 75.2489 232.158 75.2221C232.149 75.2132 232.206 75.1475 232.325 75.0272C232.441 74.9046 232.634 74.742 232.903 74.5526C233.439 74.1839 234.332 73.7194 235.576 73.5979C236.789 73.4709 238.434 73.7216 239.779 74.8968C241.1 76.0287 242.096 78.0238 241.775 80.2273L241.434 79.9677C243.466 79.0175 246.203 79.0208 248.447 80.4178C250.677 81.8036 252.141 84.6253 251.802 87.5139L251.434 87.2009C252.075 87.0215 252.743 86.9146 253.419 86.8823C256.76 86.7341 259.966 88.5209 261.44 91.1812C262.954 93.8135 262.939 96.9271 261.887 99.2353L261.85 98.9813C264.53 102.201 265.222 105.767 265.26 108.102C265.282 109.289 265.155 110.215 265.041 110.834C264.914 111.454 264.816 111.774 264.794 111.769Z" fill="#455A64"/>
<path d="M230.358 103.562L229.967 104.605L243.345 109.613L243.735 108.57L230.358 103.562Z" fill="#455A64"/>
<path d="M157.365 218.303C157.365 218.303 152.93 241.126 152.93 251.456C152.93 261.788 161.539 269.018 170.148 265.919C178.757 262.82 189.532 248.904 194.942 237.682L185.989 228.385L178.07 233.043L180.55 224.603L157.365 218.303Z" fill="#FFBF9D"/>
<path d="M185.988 228.385C186.008 228.42 185.619 228.684 184.901 229.139C184.075 229.648 183.051 230.277 181.84 231.022C179.236 232.581 175.644 234.746 171.509 236.866C170.471 237.391 169.451 237.889 168.405 238.28C167.366 238.663 166.351 238.948 165.395 239.246C163.483 239.822 161.805 240.457 160.558 241.279C159.304 242.088 158.479 242.997 158.025 243.695C157.563 244.391 157.411 244.841 157.362 244.823C157.344 244.816 157.367 244.7 157.432 244.483C157.501 244.268 157.624 243.956 157.834 243.577C158.243 242.818 159.058 241.823 160.331 240.938C161.597 240.038 163.321 239.343 165.235 238.736C166.19 238.424 167.201 238.126 168.208 237.746C169.205 237.365 170.22 236.868 171.247 236.347C175.353 234.242 178.979 232.132 181.634 230.666C182.959 229.927 184.035 229.335 184.788 228.942C185.541 228.548 185.969 228.351 185.988 228.385Z" fill="#FF9A6C"/>
<path d="M214.711 207.776C214.711 207.776 216.765 204.774 218.82 204.695C220.874 204.615 221.191 207.932 219.216 210.62C217.241 213.308 214.712 215.52 214.712 215.52V207.776H214.711Z" fill="#FFBF9D"/>
<path d="M194.942 237.683L200.263 231.937C200.263 231.937 207.136 227.676 207.961 221.903C208.785 216.131 210.229 206.971 210.229 206.971L191.548 205.065L188.574 220.184L188.125 226.663L185.988 228.386L194.942 237.683Z" fill="#FFBF9D"/>
<path d="M193.462 191.787L194.886 226.628L214.115 226.999L218.581 193.033L193.462 191.787Z" fill="#455A64"/>
<path d="M192.159 224.312C192.159 224.312 200.818 224.036 201.368 218.814C201.368 218.814 205.05 219.084 205.05 216.755C205.05 214.682 202.72 213.942 202.72 213.942C202.72 213.942 204.964 212.919 204.511 211.102C203.85 208.457 194.063 206.459 194.063 206.459L193.838 203.405C193.838 203.405 198.282 203.166 198.109 200.8C197.955 198.707 195.368 198.744 194.359 198.609C193.828 198.537 188.265 197.855 187.674 201.524C187.612 201.913 187.669 202.311 187.797 202.684L188.961 206.057C188.961 206.057 185.614 207.631 187.295 211.955L187.897 213.002C187.897 213.002 185.26 217.393 186.221 221.379C187.184 225.364 185.989 228.385 185.989 228.385" fill="#FFBF9D"/>
<path d="M185.988 228.384C185.965 228.377 186.089 228.015 186.227 227.306C186.364 226.6 186.511 225.542 186.464 224.181C186.434 223.503 186.352 222.751 186.184 221.946C185.996 221.156 185.79 220.216 185.838 219.232C185.892 217.252 186.514 215.057 187.703 212.886L187.701 213.113C187.515 212.793 187.306 212.433 187.094 212.069L187.086 212.056L187.079 212.038C186.692 211.059 186.444 209.907 186.678 208.721C186.922 207.543 187.69 206.442 188.849 205.822L188.715 206.141C188.482 205.474 188.244 204.794 188.004 204.103C187.884 203.758 187.762 203.409 187.64 203.058C187.517 202.726 187.373 202.303 187.376 201.883C187.419 201.042 187.724 200.227 188.343 199.625C188.949 199.025 189.745 198.683 190.545 198.485C192.152 198.081 193.871 198.234 195.505 198.445C196.33 198.567 197.29 198.766 197.933 199.546C198.241 199.934 198.387 200.421 198.393 200.903C198.432 201.404 198.183 201.912 197.857 202.26C197.31 202.843 196.605 203.116 195.929 203.323C195.241 203.525 194.559 203.641 193.852 203.693L194.124 203.383C194.199 204.415 194.273 205.433 194.346 206.437L194.119 206.177C196.861 206.79 199.479 207.506 201.86 208.584C202.45 208.866 203.025 209.169 203.555 209.552C204.073 209.931 204.596 210.427 204.778 211.135C204.932 211.816 204.691 212.538 204.281 213.027C203.875 213.534 203.375 213.886 202.821 214.163L202.793 213.704C203.602 214.003 204.302 214.481 204.782 215.164C205.254 215.849 205.413 216.717 205.133 217.493C204.82 218.288 204.032 218.658 203.37 218.829C202.681 219.007 202.011 219.041 201.353 219.009L201.564 218.832C201.415 219.764 201.072 220.62 200.523 221.268C199.974 221.902 199.35 222.4 198.707 222.741C197.434 223.452 196.222 223.77 195.243 223.983C194.257 224.188 193.482 224.267 192.959 224.305C192.434 224.337 192.159 224.327 192.158 224.308C192.157 224.289 192.43 224.262 192.948 224.194C193.465 224.12 194.229 224.008 195.195 223.773C196.154 223.531 197.338 223.182 198.55 222.471C199.163 222.131 199.743 221.644 200.245 221.045C200.746 220.434 201.041 219.646 201.17 218.791L201.198 218.607L201.382 218.614C201.983 218.635 202.639 218.591 203.26 218.42C203.873 218.255 204.5 217.92 204.715 217.328C204.923 216.745 204.799 215.988 204.394 215.431C203.995 214.864 203.336 214.42 202.643 214.172L202.09 213.975L202.615 213.713C203.537 213.253 204.523 212.32 204.268 211.238C204.136 210.752 203.73 210.329 203.242 209.981C202.754 209.633 202.202 209.344 201.631 209.075C199.32 208.04 196.704 207.33 194.004 206.735L193.791 206.688L193.775 206.476C193.701 205.472 193.625 204.454 193.548 203.422L193.527 203.135L193.821 203.112C194.463 203.065 195.133 202.951 195.764 202.764C196.39 202.577 197.022 202.309 197.43 201.864C197.964 201.358 197.904 200.458 197.478 199.901C197.031 199.336 196.209 199.12 195.426 199.012C193.781 198.797 192.187 198.66 190.679 199.029C189.94 199.208 189.239 199.517 188.732 200.014C188.219 200.496 187.963 201.218 187.92 201.87C187.935 202.514 188.307 203.231 188.507 203.925C188.744 204.618 188.976 205.298 189.205 205.968L189.277 206.178L189.07 206.287C188.093 206.803 187.371 207.789 187.159 208.819C186.943 209.867 187.148 210.933 187.509 211.867L187.495 211.836C187.703 212.203 187.908 212.565 188.09 212.887L188.153 212.998L188.087 213.114C186.921 215.187 186.275 217.343 186.197 219.24C186.139 220.203 186.308 221.051 186.485 221.882C186.639 222.71 186.705 223.48 186.716 224.171C186.725 225.557 186.536 226.625 186.355 227.331C186.267 227.685 186.176 227.948 186.11 228.124C186.044 228.303 185.999 228.389 185.988 228.384Z" fill="#FF9A6C"/>
<path d="M218.528 190.343L217.784 186.951H194.521L193.693 190.203L191.296 190.439L191.351 193.22L220.344 193.5L220.54 190.343H218.528Z" fill="#263238"/>
<path d="M201.368 218.813C201.369 218.891 200.599 218.973 199.353 218.97C197.853 218.938 196.262 218.904 194.514 218.867C193.565 218.839 192.678 218.808 191.891 218.894C191.105 218.977 190.432 219.2 189.943 219.516C188.966 220.178 188.722 220.981 188.62 220.92C188.58 220.929 188.661 220.04 189.705 219.182C190.226 218.775 190.98 218.481 191.821 218.363C192.664 218.241 193.586 218.26 194.527 218.286C196.422 218.301 198.141 218.459 199.37 218.56C200.603 218.667 201.367 218.732 201.368 218.813Z" fill="#FF9A6C"/>
<path d="M187.896 213.003C187.839 212.979 188.357 212.138 189.781 211.63C190.516 211.364 191.446 211.509 192.353 211.703C193.227 211.881 194.295 211.986 195.35 212.193C197.487 212.582 199.39 213.046 200.768 213.366C202.145 213.693 202.997 213.904 202.984 213.985C202.971 214.062 202.091 213.994 200.689 213.768C199.284 213.55 197.366 213.149 195.246 212.763C194.179 212.553 193.191 212.446 192.235 212.223C191.331 212.001 190.532 211.841 189.892 212.024C188.576 212.383 187.955 213.081 187.896 213.003Z" fill="#FF9A6C"/>
<path d="M194.942 206.749C194.885 206.901 193.592 206.576 191.955 206.436C190.32 206.284 188.964 206.227 188.961 206.057C188.955 205.908 190.315 205.701 192.012 205.859C193.715 206.007 195.003 206.603 194.942 206.749Z" fill="#FF9A6C"/>
<path d="M194.61 203.106C194.671 203.249 193.654 203.801 192.265 204.043C190.876 204.291 189.732 204.119 189.741 203.964C189.745 203.798 190.843 203.709 192.165 203.471C193.486 203.243 194.549 202.952 194.61 203.106Z" fill="#FF9A6C"/>
<path d="M196.745 232.458C196.57 232.47 196.878 230.243 195.51 228.069C194.153 225.888 192.016 225.191 192.102 225.039C192.121 224.971 192.673 225.038 193.467 225.435C194.256 225.824 195.272 226.597 196.001 227.762C196.73 228.927 196.982 230.178 196.986 231.057C196.996 231.946 196.814 232.471 196.745 232.458Z" fill="#FF9A6C"/>
<path d="M219.166 190.216C219.166 190.376 213.372 190.506 206.227 190.506C199.079 190.506 193.286 190.375 193.286 190.216C193.286 190.056 199.079 189.926 206.227 189.926C213.372 189.925 219.166 190.056 219.166 190.216Z" fill="#455A64"/>
<path d="M57.2746 67.5717L19.7132 73.9627C17.1175 74.404 14.6554 72.6581 14.2141 70.0624L5.36761 18.0729C4.92638 15.4772 6.67225 13.015 9.26798 12.5738L33.0895 8.52078L54.7634 24.3889L61.1759 62.0727C61.6163 64.6673 59.8705 67.1295 57.2746 67.5717Z" fill="#F0F0F0"/>
<path d="M33.0892 8.5188L35.5785 23.1507C35.9897 25.5645 38.2787 27.189 40.6924 26.7787L54.7621 24.3868L33.0892 8.5188Z" fill="#E9E9E9"/>
<path d="M32.3265 23.0907C32.3586 23.2787 28.4941 24.0926 23.6963 24.9094C18.8966 25.726 14.9816 26.2358 14.9496 26.0478C14.9175 25.8598 18.781 25.0457 23.5807 24.2292C28.3785 23.4124 32.2944 22.9027 32.3265 23.0907Z" fill="#FAFAFA"/>
<path d="M44.9568 29.4527C44.9889 29.6407 38.6121 30.8828 30.7154 32.2258C22.8156 33.5703 16.3884 34.5073 16.3563 34.3193C16.3243 34.1313 22.7001 32.8891 30.5998 31.5455C38.4966 30.2016 44.9247 29.2647 44.9568 29.4527Z" fill="#FAFAFA"/>
<path d="M48.7092 35.9238C48.7413 36.1118 41.7876 37.4523 33.1798 38.9164C24.569 40.3811 17.565 41.4164 17.5329 41.2284C17.5008 41.0405 24.4534 39.7008 33.0642 38.2361C41.6722 36.7711 48.6771 35.7358 48.7092 35.9238Z" fill="#FAFAFA"/>
<path d="M49.8185 42.4407C49.8506 42.6287 42.8969 43.9691 34.2891 45.4332C25.6782 46.8989 18.6743 47.9333 18.6422 47.7453C18.6101 47.5573 25.5627 46.2177 34.1737 44.752C42.7805 43.2878 49.7865 42.2527 49.8185 42.4407Z" fill="#FAFAFA"/>
<path d="M50.926 48.9595C50.958 49.1475 44.0044 50.4879 35.3966 51.9521C26.7856 53.4177 19.7817 54.4521 19.7497 54.2641C19.7176 54.0761 26.6702 52.7365 35.2811 51.2708C43.8889 49.8067 50.8939 48.7715 50.926 48.9595Z" fill="#FAFAFA"/>
<path d="M52.0354 55.4766C52.0675 55.6645 45.1138 57.005 36.506 58.4691C27.8952 59.9338 20.8912 60.9692 20.8591 60.7812C20.8271 60.5932 27.7797 59.2536 36.3906 57.7879C44.9974 56.3237 52.0034 55.2886 52.0354 55.4766Z" fill="#FAFAFA"/>
<path d="M91.0935 199.704L58.7676 187.129C56.5344 186.26 55.427 183.744 56.2967 181.511L73.7021 136.768C74.571 134.534 77.0866 133.427 79.3198 134.296L99.8212 142.271L109.327 164.8L96.712 197.231C95.8422 199.466 93.3267 200.572 91.0935 199.704Z" fill="#F0F0F0"/>
<path d="M99.8206 142.271L94.9219 154.864C94.1134 156.941 95.1428 159.28 97.22 160.089L109.327 164.801L99.8206 142.271Z" fill="#E9E9E9"/>
<path d="M92.4108 153.296C92.3477 153.457 88.9483 152.287 84.8194 150.68C80.6888 149.073 77.3929 147.641 77.4552 147.478C77.5183 147.316 80.9168 148.488 85.0474 150.094C89.1763 151.7 92.4739 153.134 92.4108 153.296Z" fill="#FAFAFA"/>
<path d="M99.3011 164.173C99.2379 164.334 93.6764 162.322 86.8812 159.678C80.0824 157.034 74.6244 154.759 74.6875 154.597C74.7506 154.435 80.3104 156.447 87.1091 159.092C93.9043 161.736 99.3642 164.01 99.3011 164.173Z" fill="#FAFAFA"/>
<path d="M99.203 170.98C99.1399 171.142 93.0821 168.936 85.674 166.055C78.2632 163.172 72.3089 160.705 72.372 160.544C72.4351 160.382 78.4912 162.587 85.9019 165.47C93.31 168.351 99.2661 170.819 99.203 170.98Z" fill="#FAFAFA"/>
<path d="M97.0222 176.588C96.9591 176.751 90.9012 174.545 83.494 171.663C76.0833 168.781 70.1289 166.313 70.1921 166.152C70.2552 165.991 76.3113 168.195 83.722 171.078C91.1292 173.959 97.0844 176.427 97.0222 176.588Z" fill="#FAFAFA"/>
<path d="M94.8396 182.199C94.7765 182.361 88.7187 180.155 81.3106 177.274C73.8998 174.391 67.9455 171.923 68.0086 171.762C68.0717 171.6 74.1278 173.805 81.5385 176.688C88.9466 179.569 94.9027 182.036 94.8396 182.199Z" fill="#FAFAFA"/>
<path d="M92.6569 187.808C92.5938 187.97 86.536 185.764 79.1288 182.883C71.718 180 65.7637 177.532 65.8268 177.371C65.89 177.209 71.946 179.414 79.3567 182.297C86.7648 185.178 92.7201 187.646 92.6569 187.808Z" fill="#FAFAFA"/>
</g>
<defs>
<clipPath id="clip0_1495_178912">
<rect width="466" height="413" fill="white"/>
</clipPath>
</defs>
</svg>