<svg width="498" height="297" viewBox="0 0 498 297" fill="none" xmlns="http://www.w3.org/2000/svg">
<g clip-path="url(#clip0_819_547660)">
<path d="M385.284 136.945L359.863 201.587L455.784 239.295L481.205 174.653L385.284 136.945Z" fill="#EFEFEF"/>
<path d="M481.236 175.541C481.246 175.572 480.822 175.746 480.004 176.05C479.099 176.376 477.905 176.804 476.413 177.34C473.184 178.455 468.676 180.012 463.14 181.924C451.812 185.74 436.306 190.964 419.131 196.75L418.769 196.872L418.577 196.539C418.431 196.286 418.273 196.011 418.114 195.736C409.011 179.819 400.773 165.417 394.75 154.885C391.837 149.702 389.462 145.478 387.763 142.453C386.991 141.039 386.373 139.907 385.904 139.049C385.488 138.266 385.284 137.847 385.311 137.831C385.339 137.815 385.599 138.202 386.067 138.955C386.574 139.791 387.243 140.894 388.078 142.272C389.841 145.26 392.303 149.435 395.323 154.556C401.407 165.052 409.729 179.407 418.926 195.27C419.084 195.546 419.243 195.82 419.388 196.073L418.835 195.863C436.044 190.18 451.581 185.05 462.931 181.302C468.506 179.507 473.047 178.046 476.299 176.999C477.814 176.532 479.026 176.158 479.945 175.875C480.782 175.626 481.226 175.511 481.236 175.541Z" fill="#E0E0E0"/>
<path d="M359.892 202.475C359.769 202.248 370.467 196.223 383.784 189.018C397.106 181.812 408.002 176.157 408.124 176.384C408.248 176.61 397.551 182.635 384.229 189.841C370.913 197.045 360.015 202.702 359.892 202.475Z" fill="#E0E0E0"/>
<path d="M440.326 188.111C440.574 188.037 444.241 199.636 448.518 214.014C452.796 228.397 456.061 240.113 455.814 240.187C455.566 240.261 451.898 228.664 447.621 214.281C443.345 199.902 440.078 188.184 440.326 188.111Z" fill="#E0E0E0"/>
<path d="M456.64 53.298L400.113 77.9131L416.708 116.007L473.235 91.3922L456.64 53.298Z" fill="#EFEFEF"/>
<path d="M457.032 53.6785C457.05 53.6871 456.944 53.9404 456.727 54.415C456.481 54.9358 456.158 55.6214 455.753 56.4795C454.859 58.3165 453.611 60.8822 452.078 64.0315C448.901 70.436 444.552 79.2031 439.736 88.9138L439.635 89.1185L439.413 89.0589C439.244 89.0134 439.06 88.964 438.877 88.9146C428.293 86.032 418.715 83.4239 411.712 81.5163C408.287 80.5554 405.495 79.7726 403.497 79.2125C402.572 78.9411 401.831 78.7239 401.27 78.5591C400.763 78.4038 400.499 78.3128 400.504 78.2948C400.509 78.276 400.782 78.3301 401.299 78.4509C401.867 78.5897 402.617 78.7733 403.553 79.0031C405.563 79.5216 408.37 80.2463 411.814 81.135C418.828 83.0011 428.421 85.5543 439.022 88.3749C439.205 88.4243 439.388 88.4738 439.557 88.5192L439.234 88.6644C444.109 78.9827 448.51 70.2423 451.725 63.8566C453.324 60.7403 454.626 58.2012 455.559 56.3838C456.002 55.5461 456.357 54.8754 456.625 54.3664C456.876 53.9067 457.015 53.6698 457.032 53.6785Z" fill="#E0E0E0"/>
<path d="M417.098 116.389C416.949 116.345 418.926 109.271 421.511 100.593C424.097 91.9112 426.313 84.9114 426.461 84.9553C426.609 84.9992 424.633 92.0704 422.047 100.753C419.462 109.432 417.245 116.433 417.098 116.389Z" fill="#E0E0E0"/>
<path d="M445.044 76.2965C445.117 76.1608 451.576 79.5156 459.467 83.7881C467.361 88.063 473.699 91.6375 473.625 91.7732C473.552 91.9088 467.095 88.5548 459.2 84.2807C451.31 80.0074 444.97 76.4322 445.044 76.2965Z" fill="#E0E0E0"/>
<path d="M380.374 294.036H56.0102C49.6987 294.036 44.582 288.92 44.582 282.61V75.89C44.582 69.5796 49.6987 64.4639 56.0102 64.4639H380.375C386.687 64.4639 391.803 69.5796 391.803 75.89V282.61C391.803 288.92 386.687 294.036 380.374 294.036Z" fill="#263238"/>
<path d="M392.284 297.144H44.0216C36.3105 297.144 30.0586 290.894 30.0586 283.184V277.057H406.247V283.184C406.247 290.894 399.995 297.144 392.284 297.144Z" fill="#263238"/>
<path d="M381.512 73.5845H53.9023V267.455H381.512V73.5845Z" fill="#455A64"/>
<path d="M183.961 277.057L188.629 284.481H254.317L258.651 277.057H183.961Z" fill="#455A64"/>
<path d="M372.869 266.835H63.2162C61.7978 266.835 60.6484 265.686 60.6484 264.268V82.7152C60.6484 81.2971 61.7978 80.1479 63.2162 80.1479H372.87C374.287 80.1479 375.437 81.2971 375.437 82.7144V264.267C375.437 265.685 374.287 266.835 372.869 266.835Z" fill="#EFEFEF"/>
<path d="M375.437 93.8267H60.6484V266.835H375.437V93.8267Z" fill="#EFEFEF"/>
<path d="M86.4694 87.3579C86.4694 88.7463 85.3436 89.8718 83.955 89.8718C82.5664 89.8718 81.4414 88.7463 81.4414 87.3579C81.4414 85.9695 82.5664 84.8447 83.955 84.8447C85.3436 84.8447 86.4694 85.9695 86.4694 87.3579Z" fill="#455A64"/>
<path d="M71.2272 87.3579C71.2272 88.7463 70.1022 89.8718 68.7128 89.8718C67.325 89.8718 66.1992 88.7463 66.1992 87.3579C66.1992 85.9695 67.325 84.8447 68.7128 84.8447C70.1014 84.8447 71.2272 85.9695 71.2272 87.3579Z" fill="#455A64"/>
<path d="M78.5444 87.3579C78.5444 88.7463 77.4194 89.8718 76.03 89.8718C74.6414 89.8718 73.5156 88.7463 73.5156 87.3579C73.5156 85.9695 74.6414 84.8447 76.03 84.8447C77.4194 84.8447 78.5444 85.9695 78.5444 87.3579Z" fill="#455A64"/>
<path d="M388.817 277.057C388.817 277.182 311.75 277.282 216.706 277.282C121.628 277.282 44.5781 277.182 44.5781 277.057C44.5781 276.933 121.628 276.832 216.706 276.832C311.75 276.832 388.817 276.932 388.817 277.057Z" fill="#455A64"/>
<path d="M44.5061 279.585C44.5022 279.591 44.4128 279.537 44.2402 279.425C44.0637 279.307 43.8087 279.137 43.4729 278.915C43.134 278.685 42.715 278.401 42.2169 278.063C41.7195 277.721 41.1287 277.341 40.5168 276.833C39.8923 276.34 39.1941 275.788 38.4245 275.18C37.6603 274.564 36.8915 273.812 36.0215 273.04C34.3128 271.461 32.4691 269.501 30.5541 267.161C26.7672 262.461 22.8995 256.003 20.2242 247.819C17.6016 239.644 16.1541 229.777 16.9692 218.974C17.3843 213.584 18.2535 207.951 19.8987 202.272C21.5171 196.595 23.8056 190.824 27.1446 185.38C27.9667 184.013 28.8948 182.694 29.8574 181.388C30.8742 180.128 31.8988 178.857 32.932 177.577C34.0249 176.348 35.1632 175.141 36.2898 173.908C37.443 172.701 38.6912 171.569 39.9017 170.382C44.878 165.773 50.4772 161.573 56.4788 157.697C68.4938 149.926 82.0779 143.495 96.0605 136.796C109.999 129.969 124.689 123.421 139.752 116.8C200.076 90.3855 255.286 67.8823 295.503 52.2581C315.598 44.4111 332.003 38.4302 343.348 34.3294C349.031 32.3081 353.467 30.8021 356.468 29.7627C357.967 29.2529 359.111 28.8638 359.887 28.5995C360.27 28.474 360.56 28.3791 360.762 28.3132C360.958 28.2512 361.059 28.223 361.062 28.2301C361.064 28.2363 360.968 28.2779 360.776 28.3532C360.578 28.4285 360.291 28.5368 359.915 28.6787C359.144 28.9603 358.009 29.3753 356.522 29.9181C353.529 30.9974 349.125 32.585 343.456 34.6283C332.146 38.82 315.778 44.8818 295.713 52.7962C255.559 68.5545 200.392 91.1393 140.08 117.547C125.016 124.17 110.347 130.701 96.4065 137.517C82.4144 144.207 68.8563 150.611 56.8867 158.329C50.9079 162.177 45.3377 166.344 40.3897 170.908C39.187 172.084 37.9459 173.205 36.7989 174.4C35.6794 175.621 34.5473 176.815 33.4616 178.032C32.4346 179.299 31.4163 180.557 30.4058 181.804C29.4526 183.09 28.5363 184.386 27.7204 185.735C24.4105 191.103 22.1252 196.819 20.5035 202.445C18.8552 208.075 17.975 213.666 17.5443 219.018C16.6978 229.743 18.095 239.547 20.6581 247.68C23.2745 255.821 27.0739 262.258 30.802 266.963C32.6872 269.306 34.5042 271.273 36.1878 272.864C37.0453 273.642 37.8031 274.401 38.5555 275.025C39.3141 275.642 40.0014 276.202 40.6164 276.703C41.219 277.22 41.7995 277.609 42.2883 277.962C42.7762 278.312 43.1866 278.607 43.5192 278.846C43.844 279.083 44.0911 279.265 44.2621 279.39C44.4277 279.513 44.5093 279.579 44.5061 279.585Z" fill="#263238"/>
<path d="M347.879 2.39939L362.404 14.4405L361.064 28.2307L372.964 21.6152L385.641 30.6184L432.89 0.280762L347.879 2.39939Z" fill="#6B75F8"/>
<g opacity="0.5">
<path d="M362.403 14.4408L431.608 0.3125L369.45 19.1213L361.062 28.2311L362.403 14.4408Z" fill="black"/>
</g>
<g opacity="0.8">
<path d="M369.45 19.1206L372.963 21.6149L361.062 28.2305L369.45 19.1206Z" fill="black"/>
</g>
<path d="M151.791 183.727L76.3203 190.87L81.1523 241.73L156.624 234.586L151.791 183.727Z" fill="white"/>
<path d="M156.63 234.574C156.63 234.574 156.578 234.246 156.51 233.633C156.441 232.993 156.346 232.095 156.222 230.935C155.978 228.55 155.626 225.098 155.177 220.691C154.303 211.844 153.049 199.172 151.523 183.74L151.83 183.993C130.996 185.989 104.778 188.5 76.3709 191.221C76.2956 191.304 76.9648 190.497 76.6824 190.846L76.6839 190.859L76.6863 190.886L76.691 190.939L76.7012 191.045L76.7216 191.257L76.7616 191.682L76.8416 192.53L77.0024 194.222C77.1091 195.348 77.2151 196.47 77.3218 197.588C77.5336 199.825 77.7438 202.047 77.9525 204.251C78.3691 208.659 78.7786 212.998 79.1803 217.255C79.9805 225.768 80.7493 233.952 81.4782 241.703L81.1275 241.412C103.315 239.373 122.142 237.643 135.457 236.419C142.105 235.825 147.375 235.355 151.018 235.03C152.808 234.877 154.198 234.759 155.172 234.675C155.627 234.64 155.981 234.613 156.251 234.592C156.495 234.574 156.622 234.569 156.63 234.574C156.637 234.58 156.522 234.597 156.291 234.625C156.031 234.655 155.69 234.693 155.252 234.743C154.295 234.843 152.929 234.985 151.169 235.17C147.547 235.534 142.307 236.06 135.697 236.724C122.338 238.03 103.448 239.877 81.1879 242.054L80.867 242.085L80.8364 241.764C80.0943 234.015 79.3105 225.832 78.4954 217.321C78.0898 213.064 77.6764 208.726 77.2559 204.317C77.0464 202.113 76.8346 199.892 76.622 197.656C76.516 196.537 76.4093 195.415 76.3019 194.289L76.141 192.597L76.0602 191.749L76.0202 191.325L75.9998 191.112L75.9896 191.006L75.9841 190.953L75.9818 190.926L75.981 190.913C75.6962 191.25 76.3662 190.437 76.3034 190.522C104.716 187.853 130.939 185.391 151.776 183.434L152.057 183.407L152.083 183.687C153.494 199.204 154.652 211.945 155.46 220.841C155.845 225.227 156.146 228.662 156.355 231.036C156.45 232.175 156.523 233.058 156.575 233.687C156.622 234.282 156.63 234.574 156.63 234.574Z" fill="#455A64"/>
<path d="M151.801 183.713C151.818 183.728 151.616 183.986 151.216 184.465C150.766 184.989 150.175 185.678 149.438 186.536C147.819 188.375 145.56 190.94 142.783 194.093C137.057 200.495 129.205 209.274 120.455 219.057L120.257 219.279L120.005 219.118C119.368 218.713 118.684 218.277 117.995 217.838C106.485 210.456 96.0696 203.776 88.4527 198.891C84.7395 196.47 81.712 194.496 79.5436 193.081C78.5457 192.413 77.747 191.878 77.1406 191.472C76.5953 191.098 76.3152 190.891 76.3286 190.87C76.3419 190.85 76.6471 191.016 77.2167 191.352C77.8404 191.73 78.6633 192.228 79.6911 192.85C81.8885 194.218 84.9568 196.128 88.7202 198.471C96.3654 203.311 106.82 209.93 118.373 217.244C119.061 217.682 119.746 218.119 120.382 218.524L119.932 218.586C128.745 208.859 136.654 200.131 142.42 193.767C145.266 190.674 147.58 188.159 149.239 186.357C150.015 185.533 150.638 184.874 151.112 184.372C151.547 183.924 151.783 183.697 151.801 183.713Z" fill="#455A64"/>
<path d="M311.359 110.249L301.16 146.324L354.691 161.452L364.889 125.377L311.359 110.249Z" fill="white"/>
<path d="M354.685 161.448C354.685 161.448 354.737 161.209 354.853 160.772C354.976 160.317 355.149 159.677 355.372 158.851C355.839 157.155 356.514 154.699 357.377 151.565C359.126 145.28 361.632 136.279 364.684 125.317L364.826 125.571C350.044 121.409 331.443 116.171 311.286 110.496C311.214 110.532 311.885 110.158 311.6 110.321L311.597 110.331L311.592 110.35L311.581 110.387L311.56 110.463L311.517 110.613L311.432 110.914L311.261 111.516L310.922 112.716C310.697 113.515 310.471 114.311 310.247 115.104C309.798 116.691 309.353 118.266 308.91 119.829C308.025 122.955 307.154 126.032 306.298 129.051C304.587 135.087 302.94 140.89 301.382 146.385L301.219 146.093C316.938 150.585 330.277 154.396 339.711 157.092C344.416 158.45 348.147 159.527 350.725 160.27C351.99 160.641 352.972 160.928 353.66 161.13C353.981 161.226 354.231 161.302 354.421 161.359C354.592 161.412 354.682 161.441 354.685 161.448C354.688 161.453 354.606 161.435 354.44 161.393C354.254 161.344 354.011 161.28 353.698 161.197C353.016 161.012 352.045 160.747 350.792 160.406C348.218 159.694 344.493 158.664 339.795 157.364C330.31 154.713 316.897 150.965 301.091 146.548L300.863 146.485L300.928 146.257C302.476 140.759 304.112 134.953 305.814 128.914C306.666 125.894 307.535 122.816 308.417 119.689C308.858 118.126 309.303 116.55 309.751 114.963C309.976 114.17 310.201 113.374 310.426 112.575L310.765 111.375L310.935 110.773L311.02 110.472L311.062 110.321L311.083 110.246L311.093 110.209L311.099 110.19L311.101 110.18C310.817 110.336 311.491 109.957 311.426 109.998C331.571 115.711 350.164 120.984 364.938 125.174L365.138 125.23L365.081 125.429C361.927 136.418 359.338 145.442 357.53 151.742C356.629 154.844 355.924 157.275 355.436 158.953C355.198 159.758 355.014 160.381 354.883 160.826C354.757 161.245 354.685 161.448 354.685 161.448Z" fill="#455A64"/>
<path d="M364.88 125.372C364.888 125.388 364.682 125.511 364.281 125.731C363.833 125.97 363.247 126.284 362.514 126.676C360.918 127.505 358.692 128.66 355.955 130.081C350.34 132.941 342.638 136.863 334.055 141.235L333.861 141.333L333.73 141.157C333.402 140.711 333.05 140.231 332.696 139.748C326.781 131.645 321.428 124.311 317.514 118.949C315.616 116.307 314.069 114.153 312.962 112.611C312.456 111.888 312.052 111.311 311.745 110.872C311.471 110.471 311.335 110.255 311.349 110.245C311.363 110.234 311.528 110.429 311.829 110.811C312.155 111.235 312.586 111.793 313.123 112.492C314.264 114.011 315.856 116.132 317.808 118.733C321.754 124.072 327.149 131.374 333.111 139.443C333.466 139.925 333.818 140.405 334.146 140.853L333.822 140.775C342.433 136.459 350.16 132.587 355.794 129.763C358.561 128.402 360.812 127.296 362.426 126.503C363.176 126.146 363.777 125.86 364.235 125.642C364.65 125.45 364.872 125.357 364.88 125.372Z" fill="#455A64"/>
<path d="M321.841 53.4927H123.562V250.688H321.841V53.4927Z" fill="#FAFAFA"/>
<path d="M321.842 250.689C321.841 249.286 321.77 171.337 321.663 53.4933L321.841 53.6556C263.7 53.662 195.79 53.6698 123.584 53.6783H123.564L123.768 53.4933C123.757 126.055 123.747 193.821 123.738 250.689L123.563 250.532C242.799 250.626 320.372 250.687 321.842 250.689C320.373 250.69 242.799 250.751 123.564 250.847H123.39V250.689C123.381 193.821 123.371 126.055 123.359 53.4933V53.3076H123.563H123.583C195.789 53.3162 263.699 53.3233 321.841 53.3304H322.02V53.4933C321.914 171.337 321.843 249.287 321.842 250.689Z" fill="#263238"/>
<path d="M268.222 230.782H192.442C186.157 230.782 181.062 225.688 181.062 219.404V217.089C181.062 210.806 186.157 205.712 192.442 205.712H268.222C274.507 205.712 279.601 210.806 279.601 217.089V219.404C279.601 225.688 274.507 230.782 268.222 230.782Z" fill="#6B75F8"/>
<path d="M259.948 230.782H184.169C177.884 230.782 172.789 225.688 172.789 219.404V217.089C172.789 210.806 177.884 205.712 184.169 205.712H259.948C266.233 205.712 271.328 210.806 271.328 217.089V219.404C271.328 225.688 266.233 230.782 259.948 230.782Z" fill="#6B75F8"/>
<path d="M280.406 188.993C280.406 189.105 255.19 189.196 224.092 189.196C192.983 189.196 167.773 189.105 167.773 188.993C167.773 188.88 192.983 188.789 224.092 188.789C255.189 188.788 280.406 188.88 280.406 188.993Z" fill="#263238"/>
<path d="M298.026 195.805C298.026 195.917 264.921 196.008 224.093 196.008C183.251 196.008 150.152 195.917 150.152 195.805C150.152 195.692 183.251 195.601 224.093 195.601C264.921 195.601 298.026 195.692 298.026 195.805Z" fill="#263238"/>
<path d="M132.884 61.7445C132.884 62.6716 132.133 63.4231 131.205 63.4231C130.278 63.4231 129.527 62.6716 129.527 61.7445C129.527 60.8174 130.279 60.0659 131.205 60.0659C132.133 60.0659 132.884 60.8174 132.884 61.7445Z" fill="#E0E0E0"/>
<path d="M136.8 63.4231C137.727 63.4231 138.479 62.6716 138.479 61.7445C138.479 60.8174 137.727 60.0659 136.8 60.0659C135.873 60.0659 135.121 60.8174 135.121 61.7445C135.121 62.6716 135.873 63.4231 136.8 63.4231Z" fill="#E0E0E0"/>
<path d="M144.08 61.7445C144.08 62.6716 143.328 63.4231 142.401 63.4231C141.473 63.4231 140.723 62.6716 140.723 61.7445C140.723 60.8174 141.474 60.0659 142.401 60.0659C143.328 60.0659 144.08 60.8174 144.08 61.7445Z" fill="#E0E0E0"/>
<path d="M189.648 124.826L260.138 124.355L262.075 172.272L189.086 171.553L189.648 124.826Z" fill="#6B75F8"/>
<path d="M189.648 124.826L225.452 95.895L260.138 124.356" fill="#BBC0FF"/>
<path d="M189.087 171.553C188.999 171.47 194.646 165.313 201.697 157.802C208.752 150.289 214.54 144.267 214.628 144.349C214.716 144.432 209.07 150.588 202.016 158.101C194.965 165.612 189.175 171.635 189.087 171.553Z" fill="#BBC0FF"/>
<path d="M262.077 172.272C261.987 172.352 256.495 166.313 249.812 158.785C243.126 151.254 237.782 145.088 237.872 145.008C237.962 144.928 243.453 150.966 250.139 158.496C256.822 166.024 262.167 172.192 262.077 172.272Z" fill="#BBC0FF"/>
<path d="M260.138 124.355L224.725 152.606L189.648 124.826" fill="#BBC0FF"/>
</g>
<defs>
<clipPath id="clip0_819_547660">
<rect width="498" height="297" fill="white"/>
</clipPath>
</defs>
</svg>
