<svg width="686" height="569" viewBox="0 0 686 569" fill="none" xmlns="http://www.w3.org/2000/svg">
<g clip-path="url(#clip0_842_700479)">
<path d="M564.212 241.348C566.05 240.236 568.008 239.393 570.028 238.82L571.226 233.062L580.951 232.892L582.351 238.603C584.389 239.105 586.376 239.879 588.252 240.925L593.168 237.702L600.166 244.461L597.119 249.486C598.231 251.326 599.073 253.285 599.646 255.304L605.402 256.502L605.572 266.229L599.862 267.63C599.36 269.668 598.587 271.655 597.54 273.532L600.762 278.449L594.005 285.448L588.98 282.4C587.14 283.511 585.182 284.355 583.163 284.928L581.965 290.686L572.239 290.856L570.839 285.144C568.801 284.642 566.815 283.868 564.938 282.822L560.022 286.045L553.024 279.286L556.071 274.26C554.959 272.42 554.117 270.462 553.544 268.442L547.788 267.244L547.617 257.517L553.328 256.116C553.83 254.077 554.604 252.091 555.649 250.214L552.428 245.297L559.184 238.298L564.212 241.348ZM569.396 254.306C565.393 258.454 565.509 265.06 569.656 269.064C573.802 273.067 580.408 272.951 584.412 268.805C588.414 264.658 588.299 258.051 584.152 254.047C580.005 250.043 573.4 250.16 569.396 254.306Z" fill="#EBEBEB"/>
<path d="M79.1123 17.2083C80.5398 16.3459 82.0585 15.6918 83.6257 15.247L84.5553 10.779L92.1037 10.6465L93.1895 15.079C94.7708 15.4682 96.3131 16.0691 97.7691 16.8806L101.583 14.3799L107.015 19.6251L104.652 23.5253C105.514 24.9531 106.168 26.4732 106.613 28.0406L111.08 28.9704L111.212 36.52L106.781 37.6071C106.391 39.1888 105.791 40.7301 104.979 42.1875L107.48 46.0037L102.236 51.4359L98.3368 49.0711C96.9092 49.9335 95.3894 50.5877 93.8222 51.0325L92.8926 55.5005L85.3442 55.633L84.2573 51.2004C82.6759 50.8113 81.1348 50.2103 79.6776 49.3988L75.8632 51.8996L70.432 46.6544L72.7963 42.7542C71.9341 41.3263 71.2788 39.8063 70.8341 38.2388L66.3668 37.309L66.2344 29.7594L70.6662 28.6723C71.0553 27.0907 71.6561 25.5493 72.4675 24.0919L69.9672 20.2757L75.2103 14.8436L79.1123 17.2083ZM83.136 27.2658C80.0289 30.4846 80.1188 35.6115 83.3371 38.7191C86.5553 41.8267 91.6826 41.7356 94.7885 38.518C97.8945 35.2992 97.8058 30.1723 94.5875 27.0647C91.3692 23.9571 86.2431 24.0481 83.136 27.2658Z" fill="#F5F5F5"/>
<path d="M231.987 0.397664L187 248.986L371.023 282.299L416.009 33.7104L231.987 0.397664Z" fill="#FAFAFA"/>
<path d="M371.033 282.314C371.033 282.314 371.095 281.903 371.231 281.119C371.37 280.326 371.574 279.162 371.844 277.63C372.393 274.553 373.203 270.009 374.255 264.097C376.376 252.272 379.476 234.987 383.402 213.1C391.281 169.364 402.47 107.246 415.724 33.6703L415.976 34.0333C360.662 24.0272 298.044 12.7008 231.968 0.747941L231.947 0.744068L232.349 0.466334C215.541 93.1945 199.968 179.098 187.289 249.044L187.061 248.716C242.763 258.864 288.726 267.239 320.775 273.078C336.81 276.013 349.363 278.311 357.917 279.877C362.19 280.665 365.461 281.268 367.676 281.676C369.883 282.084 371.033 282.314 371.033 282.314C371.033 282.314 369.917 282.132 367.724 281.746C365.518 281.354 362.261 280.774 358.005 280.019C349.458 278.488 336.92 276.243 320.901 273.374C288.797 267.597 242.757 259.311 186.959 249.27L186.682 249.22L186.732 248.941C199.376 178.988 214.905 93.0769 231.668 0.33974L231.73 0L232.07 0.0620061L232.091 0.0658793C298.162 12.042 360.777 23.3903 416.087 33.4159L416.394 33.4714L416.339 33.7789C402.945 107.414 391.637 169.583 383.675 213.354C379.684 235.199 376.532 252.451 374.377 264.251C373.296 270.13 372.465 274.649 371.902 277.71C371.619 279.224 371.405 280.375 371.259 281.159C371.114 281.932 371.033 282.314 371.033 282.314Z" fill="#E0E0E0"/>
<path d="M325.673 40.8062L247.543 26.6626L235.221 94.7499L313.352 108.893L325.673 40.8062Z" fill="#E0E0E0"/>
<path d="M388.004 52.0883L337.978 43.0322L336.37 51.9148L386.397 60.9709L388.004 52.0883Z" fill="#E0E0E0"/>
<path d="M376.467 134.635L233.696 108.79L232.089 117.673L374.86 143.518L376.467 134.635Z" fill="#E0E0E0"/>
<path d="M373.64 150.272L230.869 124.427L229.261 133.31L372.032 159.155L373.64 150.272Z" fill="#E0E0E0"/>
<path d="M370.808 165.907L228.037 140.062L226.429 148.945L369.2 174.79L370.808 165.907Z" fill="#E0E0E0"/>
<path d="M367.976 181.544L225.205 155.699L223.597 164.582L366.368 190.427L367.976 181.544Z" fill="#E0E0E0"/>
<path d="M365.148 197.182L222.377 171.336L220.77 180.219L363.541 206.064L365.148 197.182Z" fill="#E0E0E0"/>
<path d="M355.45 250.784L212.679 224.939L211.072 233.822L353.843 259.667L355.45 250.784Z" fill="#E0E0E0"/>
<path d="M297.922 201.161L219.549 186.974L217.942 195.856L296.315 210.044L297.922 201.161Z" fill="#E0E0E0"/>
<path d="M385.403 66.4663L335.376 57.4102L333.769 66.2927L383.796 75.3488L385.403 66.4663Z" fill="#E0E0E0"/>
<path d="M382.802 80.8418L332.775 71.7856L331.168 80.6682L381.195 89.7243L382.802 80.8418Z" fill="#E0E0E0"/>
<path d="M361.021 91.7456L330.174 86.1616L328.567 95.0442L359.413 100.628L361.021 91.7456Z" fill="#E0E0E0"/>
<path d="M496.797 55.4269L480.924 56.0637L479.21 60.5152C478.649 61.9982 478.388 63.2151 478.426 64.1658C478.476 65.4253 479.021 66.3334 480.062 66.8889C480.673 67.2196 482.152 67.4237 484.501 67.5077L484.55 68.7336L469.604 69.3342L469.555 68.1083C471.157 67.7996 472.457 67.0788 473.451 65.9433C474.445 64.8078 475.636 62.4968 477.023 59.0103L491.655 22.5019L492.286 22.4761L509.971 58.6835C511.657 62.1119 513.015 64.2601 514.046 65.1256C514.825 65.7805 515.901 66.1358 517.276 66.1913L517.325 67.4172L495.586 68.2905L495.536 67.0646L496.431 67.0284C498.175 66.9586 499.393 66.6654 500.08 66.1513C500.552 65.7792 500.774 65.26 500.748 64.5973C500.732 64.1994 500.65 63.7938 500.5 63.3791C500.447 63.1815 500.083 62.3664 499.406 60.9338L496.797 55.4269ZM495.573 53.019L488.257 37.8083L481.985 53.5641L495.573 53.019Z" fill="#ADADAD"/>
<path d="M562.779 124.887L503.855 144.571L519.589 191.687L578.513 172.003L562.779 124.887Z" fill="#F5F5F5"/>
<path d="M561.661 128.549L506.876 146.85L520.63 188.035L575.415 169.733L561.661 128.549Z" fill="#EFEFEF"/>
<path d="M520.626 188.046L531.212 156.056L548.414 168.113L553.594 156.865L575.41 169.747L520.626 188.046Z" fill="#ADADAD"/>
<path d="M547.05 147.286C547.846 149.669 546.559 152.245 544.177 153.041C541.796 153.837 539.219 152.551 538.423 150.167C537.627 147.784 538.914 145.208 541.297 144.412C543.678 143.617 546.254 144.903 547.05 147.286Z" fill="#ADADAD"/>
<path d="M564.434 70.069L550.01 143.733L642.136 161.778L656.561 88.1141L564.434 70.069Z" fill="#F5F5F5"/>
<path d="M656.553 88.1338C656.553 88.1338 656.395 88.1128 656.103 88.0604C655.797 88.0038 655.368 87.9251 654.807 87.8213C653.655 87.6032 651.977 87.2845 649.796 86.8703C645.412 86.0273 639.022 84.7984 630.922 83.2413C614.736 80.102 591.729 75.6395 564.383 70.336L564.678 70.1379C560.393 92.0637 555.481 117.199 550.284 143.796L550.283 143.803L550.061 143.474C584.162 150.171 615.853 156.396 642.174 161.565L641.901 161.749C646.293 139.58 649.933 121.203 652.48 108.35C653.764 101.925 654.773 96.8838 655.462 93.4299C655.809 91.7166 656.077 90.4007 656.26 89.4948C656.444 88.6046 656.553 88.1338 656.553 88.1338C656.553 88.1338 656.483 88.5773 656.32 89.457C656.15 90.3556 655.904 91.66 655.583 93.3586C654.922 96.8051 653.958 101.837 652.728 108.251C650.232 121.15 646.663 139.591 642.358 161.84L642.314 162.069L642.084 162.024C615.759 156.881 584.062 150.689 549.953 144.026L549.678 143.972L549.731 143.696L549.732 143.689C554.951 117.095 559.881 91.9641 564.184 70.0414L564.232 69.7939L564.478 69.8432C591.87 75.261 614.916 79.82 631.129 83.0264C639.194 84.6348 645.556 85.9046 649.921 86.7749C652.076 87.21 653.734 87.5456 654.872 87.7752C655.418 87.8884 655.837 87.9754 656.135 88.0373C656.418 88.0981 656.553 88.1338 656.553 88.1338Z" fill="#ADADAD"/>
<path d="M566.707 75.3162L554.099 139.706L639.753 156.483L652.361 92.0936L566.707 75.3162Z" fill="#EFEFEF"/>
<path d="M554.095 139.726L591.846 105.563L605.475 134.233L620.664 123.309L639.743 156.503L554.095 139.726Z" fill="#ADADAD"/>
<path d="M619.199 105.831C618.47 109.556 614.859 111.984 611.134 111.255C607.409 110.525 604.981 106.914 605.711 103.188C606.441 99.4629 610.051 97.0345 613.775 97.7643C617.501 98.494 619.928 102.105 619.199 105.831Z" fill="#ADADAD"/>
<path d="M41.3965 94.3077L95.853 406.177L325.461 370.111L336.104 344.401L273.989 56.0283L58.763 68.8751L41.3965 94.3077Z" fill="#E0E0E0"/>
<path opacity="0.3" d="M95.853 406.176L112.166 381.169L57.7078 69.2998L41.3965 94.3074L95.853 406.176Z" fill="#1D1D1D"/>
<path d="M57.7056 69.2997L112.163 381.169L336.101 344.401L279.529 37.6626L57.7056 69.2997Z" fill="#FAFAFA"/>
<path d="M57.7056 69.2998C59.9839 68.9716 144.879 56.7553 279.489 37.385L279.755 37.3462L279.804 37.611C295.631 123.323 315.236 229.495 336.441 344.336L336.506 344.682L336.158 344.739C334.993 344.93 333.727 345.138 332.462 345.346C253.664 358.273 178.869 370.542 112.215 381.477L111.908 381.528L111.855 381.22C79.8754 197.012 58.1834 72.0525 57.7056 69.2998C58.1886 72.05 80.1286 196.967 112.472 381.114L112.112 380.859C178.763 369.906 253.554 357.616 332.348 344.667C333.614 344.459 334.88 344.251 336.045 344.06L335.76 344.463C314.603 229.613 295.044 123.433 279.253 37.7131L279.568 37.9391C144.911 56.9736 59.9839 68.9781 57.7056 69.2998Z" fill="#343232"/>
<path d="M237.266 194.5C240.043 173.598 225.352 154.403 204.453 151.626C183.555 148.849 164.362 163.542 161.586 184.443C158.809 205.345 173.5 224.54 194.399 227.317C215.298 230.094 234.49 215.401 237.266 194.5Z" fill="#E0E0E0"/>
<path d="M181.925 199.495L180.19 188.513L218.26 182.498L219.884 192.788C219.884 192.788 217.562 201.669 202.161 204.103C186.762 206.536 181.925 199.495 181.925 199.495Z" fill="white"/>
<path d="M174.189 188.575L201.342 193.397L224.908 180.142L197.701 175.851L174.189 188.575Z" fill="white"/>
<path d="M224.906 180.143C224.93 180.184 224.294 180.593 223.124 181.299C221.842 182.052 220.161 183.04 218.133 184.232C213.902 186.684 208.031 190.031 201.512 193.7L201.404 193.761L201.282 193.739C201.198 193.723 201.108 193.708 201.018 193.692C193.591 192.373 186.876 191.141 182.021 190.216C179.687 189.756 177.754 189.375 176.279 189.084C174.925 188.801 174.181 188.623 174.189 188.577C174.198 188.53 174.957 188.619 176.325 188.82C177.809 189.055 179.757 189.363 182.106 189.734C186.982 190.536 193.711 191.692 201.138 193.011C201.228 193.027 201.32 193.044 201.404 193.058L201.174 193.097C207.694 189.431 213.604 186.151 217.896 183.807C219.968 182.693 221.684 181.77 222.994 181.065C224.203 180.432 224.883 180.101 224.906 180.143Z" fill="#343232"/>
<path d="M251.591 89.6494L116.619 110.975C114.966 111.236 113.413 110.107 113.152 108.454L112.695 105.559C112.434 103.906 113.563 102.353 115.216 102.091L250.188 80.7645C251.841 80.5036 253.394 81.6326 253.655 83.2861L254.112 86.181C254.373 87.8358 253.245 89.3885 251.591 89.6494Z" fill="#E0E0E0"/>
<path d="M230.226 112.108L144.632 125.632C142.979 125.893 141.426 124.764 141.164 123.11L140.707 120.215C140.446 118.562 141.575 117.009 143.228 116.748L228.822 103.225C230.475 102.964 232.028 104.093 232.288 105.746L232.746 108.641C233.008 110.294 231.879 111.847 230.226 112.108Z" fill="#E0E0E0"/>
<path d="M255.133 254.957L169.539 268.48C167.886 268.741 166.334 267.612 166.071 265.959L165.614 263.064C165.353 261.41 166.482 259.858 168.135 259.597L253.729 246.073C255.382 245.812 256.935 246.941 257.196 248.595L257.653 251.49C257.915 253.143 256.786 254.696 255.133 254.957Z" fill="#E0E0E0"/>
<path d="M324.583 353.065C324.583 353.065 324.217 353.146 323.496 353.273C322.759 353.4 321.689 353.583 320.291 353.823C317.451 354.296 313.285 354.991 307.904 355.888C297.102 357.66 281.436 360.231 261.915 363.434C222.83 369.788 168.316 378.651 106.533 388.695L106.201 388.749L106.143 388.417C103.965 376.087 101.683 363.159 99.3582 350C86.9177 279.281 75.6565 215.267 67.5028 168.915C63.4615 145.749 60.1912 127.002 57.9271 114.026C56.8138 107.554 55.9484 102.525 55.3582 99.0964C55.074 97.4003 54.857 96.1021 54.7072 95.2108C54.5638 94.3349 54.5083 93.8828 54.5083 93.8828C54.5083 93.8828 54.6103 94.3259 54.7769 95.1978C54.9423 96.0866 55.1812 97.3797 55.4951 99.0719C56.115 102.496 57.023 107.516 58.1919 113.979C60.5064 126.946 63.8515 145.681 67.9833 168.831C76.1886 215.174 87.5196 279.175 100.039 349.881C102.36 363.041 104.641 375.97 106.816 388.301L106.424 388.023C168.222 378.07 222.75 369.287 261.843 362.99C281.378 359.873 297.054 357.372 307.866 355.647C313.254 354.801 317.427 354.146 320.271 353.701C321.675 353.487 322.747 353.325 323.487 353.212C324.209 353.104 324.583 353.065 324.583 353.065Z" fill="#343232"/>
<path d="M307.504 364.798C307.504 364.798 307.159 364.875 306.48 364.998C305.784 365.12 304.775 365.297 303.455 365.528C300.774 365.983 296.841 366.65 291.76 367.513C281.553 369.218 266.745 371.693 248.261 374.782C211.251 380.909 159.54 389.47 100.667 399.216L100.337 399.27L100.278 398.941C97.5707 384.075 94.7564 368.613 91.8787 352.811C79.2304 283.081 67.7832 219.961 59.4939 174.256C55.3854 151.413 52.0596 132.927 49.758 120.132C48.6253 113.75 47.7457 108.792 47.1451 105.41C46.8558 103.737 46.635 102.459 46.4826 101.579C46.3366 100.715 46.2798 100.269 46.2798 100.269C46.2798 100.269 46.3831 100.706 46.551 101.566C46.7189 102.443 46.9617 103.718 47.2808 105.386C47.9097 108.763 48.8332 113.713 50.0202 120.084C52.3734 132.87 55.7715 151.342 59.9717 174.168C68.3114 219.864 79.8297 282.971 92.5542 352.69C95.4267 368.492 98.2384 383.955 100.942 398.822L100.552 398.548C159.441 388.895 211.166 380.414 248.185 374.346C266.683 371.342 281.502 368.936 291.716 367.277C296.806 366.464 300.745 365.835 303.431 365.406C304.754 365.202 305.767 365.046 306.466 364.937C307.153 364.835 307.504 364.798 307.504 364.798Z" fill="#343232"/>
<path d="M376.839 453.81H266.718C254.13 453.81 243.926 443.603 243.926 431.014V418.81C243.926 406.221 254.13 396.014 266.718 396.014H376.839V453.81Z" fill="#C1C6FF"/>
<path d="M580.312 405.608H348.05V396.014H580.312C582.402 396.014 584.097 397.709 584.097 399.799V401.825C584.095 403.915 582.402 405.608 580.312 405.608Z" fill="#C1C6FF"/>
<path d="M580.312 453.809H348.05V444.215H580.312C582.402 444.215 584.097 445.91 584.097 448V450.025C584.095 452.115 582.402 453.809 580.312 453.809Z" fill="#C1C6FF"/>
<path d="M577.056 444.216H374.391C363.732 444.216 355.091 435.574 355.091 424.913C355.091 414.251 363.732 405.609 374.391 405.609H577.056C571.621 418.478 571.621 431.347 577.056 444.216Z" fill="#F5F5F5"/>
<path opacity="0.3" d="M355.09 453.81H267.169C254.332 453.81 243.926 443.402 243.926 430.563V419.084C243.926 406.343 254.253 396.014 266.992 396.014H357.29C336.366 408.69 337.93 439.049 355.09 453.81Z" fill="#1823B3"/>
<path d="M552.431 426.704C552.431 426.895 510.834 427.05 459.531 427.05C408.212 427.05 366.623 426.895 366.623 426.704C366.623 426.512 408.212 426.357 459.531 426.357C510.834 426.357 552.431 426.512 552.431 426.704Z" fill="#1823B3"/>
<path d="M571.551 435.286C571.551 435.477 529.953 435.632 478.65 435.632C427.331 435.632 385.741 435.477 385.741 435.286C385.741 435.095 427.33 434.941 478.65 434.941C529.952 434.94 571.551 435.095 571.551 435.286Z" fill="#1823B3"/>
<path d="M565.914 414.537C565.914 414.728 524.316 414.881 473.014 414.881C421.694 414.881 380.104 414.726 380.104 414.537C380.104 414.345 421.693 414.19 473.014 414.19C524.316 414.19 565.914 414.345 565.914 414.537Z" fill="#1823B3"/>
<path d="M344.914 449.76C344.914 449.951 325.443 450.106 301.428 450.106C277.406 450.106 257.938 449.951 257.938 449.76C257.938 449.569 277.406 449.414 301.428 449.414C325.443 449.414 344.914 449.569 344.914 449.76Z" fill="#1823B3"/>
<path d="M344.914 400.813C344.914 401.004 325.443 401.159 301.428 401.159C277.406 401.159 257.938 401.004 257.938 400.813C257.938 400.621 277.406 400.466 301.428 400.466C325.443 400.466 344.914 400.621 344.914 400.813Z" fill="#1823B3"/>
<path d="M366.483 568.814H218.105C205.517 568.814 195.312 558.608 195.312 546.018V517.178C195.312 504.588 205.517 494.382 218.105 494.382H366.483V568.814Z" fill="#C1C6FF"/>
<path d="M629.614 506.74H329.408V494.384H629.614C631.704 494.384 633.397 496.078 633.397 498.168V502.955C633.397 505.045 631.704 506.74 629.614 506.74Z" fill="#C1C6FF"/>
<path d="M629.614 568.815H329.408V556.459H629.614C631.704 556.459 633.397 558.154 633.397 560.244V565.031C633.397 567.12 631.704 568.815 629.614 568.815Z" fill="#C1C6FF"/>
<path d="M624.329 556.459H363.329C349.601 556.459 338.473 545.329 338.473 531.599C338.473 517.87 349.601 506.738 363.329 506.738H624.329C617.33 523.312 617.33 539.885 624.329 556.459Z" fill="#F5F5F5"/>
<path opacity="0.3" d="M338.474 568.816H217.809C205.384 568.816 195.312 558.741 195.312 546.315V517.683C195.312 504.815 205.742 494.384 218.607 494.384H341.308C314.361 510.709 316.374 549.806 338.474 568.816Z" fill="#1823B3"/>
<path d="M592.623 533.907C592.623 534.099 539.051 534.254 472.982 534.254C406.891 534.254 353.331 534.099 353.331 533.907C353.331 533.716 406.891 533.563 472.982 533.563C539.051 533.561 592.623 533.716 592.623 533.907Z" fill="#1823B3"/>
<path d="M617.244 544.958C617.244 545.149 563.672 545.304 497.603 545.304C431.512 545.304 377.952 545.149 377.952 544.958C377.952 544.766 431.512 544.611 497.603 544.611C563.672 544.611 617.244 544.766 617.244 544.958Z" fill="#1823B3"/>
<path d="M609.986 523.652C609.986 523.843 556.414 523.998 490.345 523.998C424.252 523.998 370.693 523.843 370.693 523.652C370.693 523.46 424.254 523.307 490.345 523.307C556.414 523.307 609.986 523.462 609.986 523.652Z" fill="#1823B3"/>
<path d="M325.369 563.598C325.369 563.789 300.293 563.944 269.367 563.944C238.43 563.944 213.359 563.789 213.359 563.598C213.359 563.407 238.43 563.252 269.367 563.252C300.293 563.253 325.369 563.407 325.369 563.598Z" fill="#1823B3"/>
<path d="M325.369 500.56C325.369 500.751 300.293 500.904 269.367 500.904C238.43 500.904 213.359 500.749 213.359 500.56C213.359 500.368 238.43 500.213 269.367 500.213C300.293 500.213 325.369 500.368 325.369 500.56Z" fill="#1823B3"/>
<path d="M410.935 494.652H288.67C279.388 494.652 271.864 487.126 271.864 477.843V468.844C271.864 459.562 279.388 452.036 288.67 452.036H410.935V494.652Z" fill="#47555C"/>
<path d="M623.835 462.073H380.812V452.033H623.835C626.022 452.033 627.794 453.806 627.794 455.993V458.112C627.794 460.301 626.022 462.073 623.835 462.073Z" fill="#47555C"/>
<path d="M623.836 494.651H380.812V484.613H623.836C626.022 484.613 627.794 486.385 627.794 488.572V490.692C627.794 492.879 626.022 494.651 623.836 494.651Z" fill="#47555C"/>
<path d="M620.426 484.613H399.444C393.221 484.613 388.176 479.568 388.176 473.344C388.176 467.12 393.221 462.074 399.444 462.074H620.426C614.739 469.587 614.739 477.1 620.426 484.613Z" fill="#F5F5F5"/>
<path opacity="0.3" d="M388.179 494.65H288.782C279.439 494.65 271.864 487.074 271.864 477.729V469.297C271.864 459.762 279.591 452.033 289.124 452.033H390.48C368.587 461.381 370.223 483.766 388.179 494.65Z" fill="#1823B3"/>
<path d="M594.662 471.568C594.662 471.759 551.137 471.914 497.458 471.914C443.761 471.914 400.244 471.759 400.244 471.568C400.244 471.377 443.76 471.222 497.458 471.222C551.137 471.223 594.662 471.377 594.662 471.568Z" fill="#1823B3"/>
<path d="M614.667 477.635C614.667 477.826 571.142 477.981 517.463 477.981C463.766 477.981 420.249 477.826 420.249 477.635C420.249 477.444 463.765 477.289 517.463 477.289C571.141 477.289 614.667 477.444 614.667 477.635Z" fill="#1823B3"/>
<path d="M377.534 490.414C377.534 490.605 357.159 490.76 332.033 490.76C306.898 490.76 286.528 490.605 286.528 490.414C286.528 490.223 306.898 490.068 332.033 490.068C357.159 490.068 377.534 490.223 377.534 490.414Z" fill="#1823B3"/>
<path d="M377.534 457.053C377.534 457.244 357.159 457.399 332.033 457.399C306.898 457.399 286.528 457.244 286.528 457.053C286.528 456.862 306.898 456.707 332.033 456.707C357.159 456.708 377.534 456.863 377.534 457.053Z" fill="#1823B3"/>
<path d="M624.897 452.034C624.897 452.225 550.159 452.38 457.987 452.38C365.783 452.38 291.061 452.225 291.061 452.034C291.061 451.843 365.782 451.689 457.987 451.689C550.159 451.689 624.897 451.844 624.897 452.034Z" fill="#1823B3"/>
<path d="M490.864 413.902V437.049L498.886 431.904L507.834 437.049V413.902H490.864Z" fill="#7881E9"/>
<path d="M613.583 317.83C613.583 345.275 613.583 372.722 613.583 400.167C613.583 407.993 613.583 415.818 613.583 423.645C613.583 424.712 615.242 424.715 615.242 423.645C615.242 396.2 615.242 368.753 615.242 341.308C615.242 333.483 615.242 325.656 615.242 317.83C615.243 316.763 613.583 316.76 613.583 317.83Z" fill="#343232"/>
<path d="M620.408 400.328C620.408 403.623 617.736 406.296 614.441 406.296C611.145 406.296 608.474 403.625 608.474 400.328C608.474 397.031 611.145 394.36 614.441 394.36C617.736 394.36 620.408 397.031 620.408 400.328Z" fill="#343232"/>
<path d="M612.751 403.417C612.751 403.417 608.405 407.764 607.102 420.512C605.798 433.26 605.508 439.635 605.508 439.635L617.24 440.36C617.24 440.36 617.24 430.798 617.24 431.233C617.24 431.667 619.558 438.042 619.558 438.042L628.828 435C628.828 435 625.497 401.1 612.751 403.417Z" fill="#343232"/>
<path d="M551.754 326.488H352.591V398.305H551.754V326.488Z" fill="#343232"/>
<path d="M621.709 314.129H281.053V326.488H621.709V314.129Z" fill="#343232"/>
<path opacity="0.3" d="M352.591 377.929C352.591 377.929 413.096 356.217 452.173 348.2C491.249 340.183 551.754 342.856 551.754 342.856V326.488H352.591V377.929Z" fill="#1D1D1D"/>
<path opacity="0.3" d="M404.269 314.129H281.053V326.488H404.269V314.129Z" fill="#1D1D1D"/>
<path d="M619.241 326.488C619.241 326.68 543.494 326.835 450.078 326.835C356.629 326.835 280.9 326.68 280.9 326.488C280.9 326.297 356.63 326.144 450.078 326.144C543.495 326.144 619.241 326.299 619.241 326.488Z" fill="#646464"/>
<path d="M404.073 326.593C403.882 326.593 403.727 323.78 403.727 320.31C403.727 316.839 403.882 314.025 404.073 314.025C404.264 314.025 404.418 316.839 404.418 320.31C404.418 323.78 404.263 326.593 404.073 326.593Z" fill="#646464"/>
<path d="M432.482 398.304C432.291 398.304 432.136 384.292 432.136 367.012C432.136 349.725 432.291 335.716 432.482 335.716C432.673 335.716 432.828 349.725 432.828 367.012C432.828 384.292 432.673 398.304 432.482 398.304Z" fill="#646464"/>
<path d="M123.067 486.494L145.967 477.251L163.457 431.553L186.773 443.569C186.773 443.569 184.518 448.084 179.699 459.25C177.839 463.561 171.674 475.579 169.162 481.433C164.422 492.482 153.71 499.781 141.692 500.095L120.203 500.656L123.067 486.494Z" fill="#FED0BA"/>
<path d="M111.695 477.651L108.237 474.014C107.571 473.585 106.791 473.37 105.999 473.393L95.0387 473.726C92.9709 473.93 91.1071 475.059 89.968 476.797L85.9835 483.581C85.9835 483.581 83.3047 488.222 83.6457 489.35C84.1611 491.053 85.9576 490.707 85.9576 490.707C85.9576 490.707 86.3374 492.851 87.0555 493.288C88.254 494.015 89.7174 493.459 89.7174 493.459C90.1152 494.282 90.9625 494.83 91.8756 494.765C92.0577 494.752 92.2476 494.719 92.4439 494.661C93.7458 494.267 94.3322 491.746 94.3322 491.746L99.8885 490.717C99.8885 490.717 107.869 496.053 110.682 499.55C113.495 503.046 120.862 500.374 120.862 500.374L123.62 487.193L111.695 477.651Z" fill="#FED0BA"/>
<path d="M103.619 479.223C103.627 479.3 102.736 479.471 101.222 479.622C99.7111 479.79 97.5722 479.851 95.166 480.163L95.4256 479.972C95.0343 480.83 94.5525 481.717 94.0023 482.597C92.3 485.32 90.2942 487.444 88.734 488.831C87.1634 490.22 86.0294 490.866 85.9842 490.796C85.9209 490.708 86.9413 489.93 88.3995 488.475C89.8499 487.02 91.7563 484.885 93.4172 482.23C93.9532 481.372 94.4285 480.515 94.8212 479.692L94.9025 479.521L95.0821 479.501C97.5554 479.222 99.6865 479.25 101.198 479.198C102.709 479.165 103.61 479.14 103.619 479.223Z" fill="#FFB18D"/>
<path d="M103.87 484.451C103.888 484.522 103.133 484.808 101.804 485.002C100.482 485.195 98.5689 485.255 96.443 484.814L96.8331 484.592C96.6122 485.241 96.3526 485.914 96.0323 486.58C94.8738 489.007 93.2399 490.865 91.9135 491.993C90.5819 493.131 89.6016 493.605 89.5602 493.536C89.4982 493.446 90.3726 492.831 91.5815 491.634C92.7892 490.444 94.2964 488.613 95.4098 486.282C95.7172 485.641 95.9716 484.996 96.195 484.376L96.2984 484.091L96.5864 484.155C100.688 485.07 103.853 484.248 103.87 484.451Z" fill="#FFB18D"/>
<path d="M117.789 487.157C114.53 485.642 111.273 484.127 108.014 482.613C106.661 481.984 105.251 481.342 103.759 481.348C102.152 481.356 100.656 482.112 99.2292 482.851C97.4765 483.759 95.7226 484.667 93.9699 485.574C93.6845 485.721 93.3732 485.898 93.2725 486.203C93.1407 486.603 93.43 487.013 93.7258 487.312C96.3529 489.973 101.074 490.167 103.909 487.73C104.752 490.025 105.626 492.372 107.206 494.24C108.786 496.107 111.242 497.428 113.647 496.987" fill="#FED0BA"/>
<path d="M113.645 496.984C113.647 497 113.559 497.029 113.382 497.07C113.207 497.115 112.938 497.15 112.586 497.161C111.887 497.179 110.823 497.046 109.642 496.446C108.467 495.864 107.187 494.807 106.178 493.288C105.146 491.782 104.378 489.879 103.618 487.834L104.106 487.96C102.665 489.23 100.564 489.907 98.4145 489.741C97.3412 489.66 96.2498 489.374 95.2424 488.853C94.749 488.575 94.2608 488.268 93.832 487.876C93.6201 487.68 93.3941 487.502 93.2004 487.231C93.017 486.98 92.8181 486.607 92.9214 486.166C93.0092 485.803 93.2869 485.572 93.5052 485.435C93.7377 485.292 93.9379 485.201 94.1419 485.091C94.5514 484.88 94.9569 484.67 95.3612 484.461C96.1684 484.045 96.964 483.636 97.7454 483.233C99.3095 482.456 100.79 481.549 102.457 481.179C104.146 480.77 105.795 481.295 107.095 481.881C108.418 482.483 109.609 483.071 110.715 483.598C112.828 484.63 114.58 485.485 115.918 486.138C117.14 486.751 117.806 487.112 117.785 487.154C117.765 487.198 117.061 486.921 115.804 486.382C114.443 485.78 112.659 484.992 110.509 484.041C109.385 483.537 108.168 482.991 106.869 482.408C105.574 481.857 104.103 481.419 102.595 481.801C101.088 482.147 99.626 483.041 98.0567 483.834C97.2766 484.24 96.4823 484.653 95.6776 485.072C95.2746 485.281 94.8691 485.492 94.4597 485.704C94.0438 485.916 93.6124 486.122 93.5917 486.332C93.5078 486.586 93.8849 487.034 94.2866 487.357C94.6715 487.711 95.1132 487.99 95.5614 488.245C96.4771 488.721 97.4768 488.99 98.4661 489.07C100.447 489.235 102.382 488.63 103.706 487.493L104.046 487.201L104.194 487.619C104.925 489.672 105.643 491.536 106.6 493.005C107.537 494.487 108.71 495.514 109.811 496.121C112.068 497.356 113.671 496.862 113.645 496.984Z" fill="#FFB18D"/>
<path d="M244.939 359.163C245.026 351.826 246.182 344.514 245.901 337.182C245.619 329.85 243.69 322.213 238.575 316.953C233.46 311.692 224.578 309.685 218.593 313.93L217.365 320.174C219.721 348.466 219.399 377.216 221.755 405.506C222.065 409.222 225.081 412.587 226.77 415.911C228.459 419.235 231.851 421.978 235.572 421.75C240.441 421.45 243.637 416.513 245.15 411.875C250.641 395.062 244.725 376.85 244.939 359.163Z" fill="#343232"/>
<path d="M227.293 321.122C226.227 319.308 225.131 317.469 223.564 316.066C221.996 314.665 219.855 313.743 217.789 314.137C216.817 314.322 215.828 314.875 215.501 315.809C215.174 316.743 215.873 317.992 216.86 317.911L217.07 318.09C219.267 320.033 221.501 321.933 223.773 323.788C224.345 324.255 224.938 324.73 225.645 324.946C226.351 325.163 227.205 325.062 227.696 324.509C228.503 323.596 227.912 322.174 227.293 321.122Z" fill="#F27E38"/>
<path d="M231.438 328.325C224.128 319.387 214.309 314.243 202.767 314.052C196.254 313.945 193.559 315.297 188.869 316.563C184.18 317.829 179.947 320.345 177.15 324.318C173.826 329.035 171.035 334.317 170.406 340.054C169.76 345.947 169.115 351.879 169.559 357.79C170.003 363.702 171.609 369.654 175.088 374.453L190.126 377.066C198.431 377.349 206.852 377.622 214.942 375.727C223.034 373.832 230.894 369.477 235.228 362.385C241.249 352.532 238.748 337.261 231.438 328.325Z" fill="#343232"/>
<path d="M218.058 328.227L198.011 320.256L192.773 320.865C180.989 320.906 172.861 333.905 172.784 343.452C172.698 354.057 173.011 367.009 174.696 374.825C178.084 390.544 191.497 391.852 191.497 391.852C191.497 391.852 191.222 400.228 191.123 405.506L221.816 403.29L223.358 333.61C223.256 330.712 220.954 328.373 218.058 328.227Z" fill="#FED0BA"/>
<path d="M198.271 371.147C198.163 370.319 197.702 369.586 197.114 369.083C195.939 368.076 194.224 367.978 192.967 368.846C191.71 369.714 190.99 371.493 191.227 373.146C191.932 374.117 193.012 374.772 194.207 374.875C194.393 374.89 194.579 374.897 194.766 374.893C195.671 374.87 196.594 374.564 197.286 373.896C197.977 373.228 198.406 372.17 198.271 371.147Z" fill="#FFB18D"/>
<path d="M178.099 356.869C178.119 357.945 179.048 358.815 180.172 358.813C181.293 358.812 182.188 357.941 182.167 356.865C182.146 355.789 181.218 354.919 180.097 354.92C178.972 354.921 178.077 355.794 178.099 356.869Z" fill="#343232"/>
<path d="M176.376 348.752C176.642 349.004 178.12 347.779 180.308 347.664C182.492 347.518 184.16 348.557 184.383 348.275C184.493 348.15 184.21 347.686 183.483 347.215C182.768 346.746 181.566 346.317 180.204 346.397C178.841 346.48 177.723 347.044 177.091 347.594C176.447 348.149 176.245 348.641 176.376 348.752Z" fill="#343232"/>
<path d="M190.436 365.915C190.44 365.789 189.067 365.629 186.846 365.469C186.285 365.442 185.75 365.359 185.635 364.983C185.481 364.587 185.681 363.972 185.917 363.307C186.367 361.926 186.84 360.478 187.336 358.96C189.298 352.776 190.685 347.703 190.436 347.627C190.185 347.549 188.393 352.499 186.431 358.685C185.96 360.209 185.511 361.662 185.082 363.052C184.905 363.699 184.581 364.439 184.913 365.261C185.086 365.671 185.514 365.951 185.877 366.028C186.241 366.117 186.555 366.106 186.832 366.108C189.058 366.106 190.434 366.04 190.436 365.915Z" fill="#343232"/>
<path d="M191.47 391.834C191.47 391.834 202.173 391.936 212.392 385.004C212.392 385.004 207.34 396.306 191.39 395.694L191.47 391.834Z" fill="#FFB18D"/>
<path d="M196.96 367.076C196.603 367.075 196.728 369.45 194.788 371.248C192.852 373.052 190.307 372.924 190.305 373.257C190.281 373.408 190.894 373.687 191.964 373.658C193.014 373.636 194.526 373.214 195.713 372.115C196.898 371.013 197.355 369.604 197.382 368.626C197.418 367.626 197.121 367.053 196.96 367.076Z" fill="#343232"/>
<path d="M177.121 341.091C177.517 341.605 179.173 341.155 181.14 341.211C183.109 341.203 184.757 341.693 185.161 341.188C185.339 340.942 185.098 340.433 184.389 339.933C183.691 339.435 182.508 339.003 181.156 338.985C179.803 338.97 178.615 339.373 177.911 339.855C177.196 340.338 176.948 340.84 177.121 341.091Z" fill="#343232"/>
<path d="M201.975 356.319C202.032 357.394 201.169 358.328 200.048 358.408C198.929 358.488 197.974 357.683 197.917 356.609C197.86 355.534 198.724 354.599 199.841 354.519C200.964 354.44 201.918 355.245 201.975 356.319Z" fill="#343232"/>
<path d="M205.986 347.905C205.738 348.175 204.175 347.061 201.985 347.104C199.796 347.117 198.207 348.272 197.965 348.007C197.847 347.891 198.096 347.407 198.787 346.885C199.468 346.366 200.635 345.851 201.999 345.833C203.364 345.818 204.522 346.3 205.189 346.802C205.872 347.307 206.109 347.784 205.986 347.905Z" fill="#343232"/>
<path d="M204.673 340.895C204.251 341.4 202.551 340.913 200.518 340.924C198.486 340.871 196.77 341.323 196.365 340.811C196.187 340.561 196.449 340.058 197.193 339.573C197.925 339.091 199.158 338.686 200.556 338.699C201.953 338.714 203.171 339.143 203.887 339.642C204.614 340.14 204.859 340.648 204.673 340.895Z" fill="#343232"/>
<path d="M220.634 360.256C220.572 359.075 221.783 356.215 222.939 355.969C226.026 355.313 231.652 355.255 232.139 363.161C232.803 373.968 221.818 372.406 221.779 372.097C221.75 371.857 220.847 364.334 220.634 360.256Z" fill="#FED0BA"/>
<path d="M224.516 367.966C224.561 367.929 224.713 368.086 225.039 368.213C225.358 368.336 225.898 368.402 226.448 368.156C227.564 367.667 228.414 365.795 228.346 363.844C228.313 362.859 228.05 361.935 227.654 361.181C227.275 360.411 226.73 359.89 226.149 359.823C225.569 359.726 225.184 360.094 225.069 360.407C224.942 360.718 225.025 360.93 224.968 360.952C224.94 360.982 224.726 360.785 224.785 360.334C224.816 360.116 224.927 359.854 225.169 359.63C225.415 359.404 225.788 359.273 226.193 359.291C227.03 359.297 227.827 360.018 228.262 360.846C228.742 361.675 229.063 362.711 229.099 363.818C229.163 366 228.174 368.107 226.64 368.655C225.892 368.899 225.243 368.709 224.9 368.474C224.551 368.227 224.48 367.988 224.516 367.966Z" fill="#FFB18D"/>
<path d="M223.379 356.001L220.633 358.849C208.777 347.5 185.607 319.081 186.901 320.774C186.901 320.774 195.022 317.434 203.838 318.935C212.655 320.437 229.375 324.85 229.118 335.249C228.863 345.649 223.379 356.001 223.379 356.001Z" fill="#343232"/>
<path d="M239.082 353.615C239.1 353.61 239.043 353.396 238.916 352.99C238.787 352.587 238.556 352.002 238.179 351.286C237.427 349.862 235.99 347.938 233.664 346.204C231.371 344.424 228.192 342.971 224.571 341.83C220.956 340.652 216.882 339.739 212.882 338.021C208.856 336.367 205.267 334.236 202.206 332.04C199.155 329.822 196.635 327.521 194.671 325.452C192.705 323.38 191.277 321.556 190.313 320.279C189.872 319.672 189.512 319.179 189.23 318.789C188.979 318.449 188.84 318.276 188.823 318.286C188.807 318.296 188.914 318.49 189.137 318.851C189.363 319.207 189.682 319.745 190.139 320.405C191.052 321.725 192.442 323.597 194.386 325.718C196.328 327.836 198.843 330.189 201.906 332.452C204.98 334.692 208.601 336.859 212.67 338.531C216.722 340.27 220.825 341.173 224.417 342.316C228.023 343.424 231.151 344.812 233.431 346.518C235.743 348.179 237.195 350.024 237.992 351.391C238.785 352.772 239.025 353.636 239.082 353.615Z" fill="#646464"/>
<path d="M235.934 355.316C235.934 355.316 236.044 354.432 235.515 352.955C235.011 351.489 233.732 349.498 231.454 347.867C229.198 346.181 225.976 345.14 222.437 344.331C218.883 343.547 215.025 342.543 211.232 340.775C207.445 339.021 204.047 336.896 201.243 334.607C198.422 332.336 196.148 329.978 194.395 327.874C192.619 325.782 191.429 323.9 190.577 322.624C190.205 322.009 189.901 321.508 189.661 321.11C189.447 320.766 189.325 320.589 189.309 320.598C189.292 320.608 189.38 320.801 189.563 321.163C189.781 321.576 190.055 322.096 190.392 322.734C191.192 324.05 192.34 325.977 194.093 328.119C195.822 330.273 198.09 332.683 200.924 335.001C203.741 337.335 207.171 339.5 211.005 341.275C214.835 343.063 218.778 344.071 222.324 344.825C225.859 345.604 229.012 346.588 231.229 348.182C233.474 349.731 234.763 351.623 235.314 353.029C235.891 354.446 235.861 355.329 235.934 355.316Z" fill="#646464"/>
<path d="M223.024 374.3C223.014 374.227 223.94 374.107 225.54 373.689C227.13 373.246 229.383 372.273 231.588 370.308C233.818 368.373 235.803 365.362 237.205 361.711C238.6 358.058 239.439 353.765 239.548 349.243C239.593 346.984 239.42 344.781 239.026 342.688C238.605 340.602 237.981 338.64 237.234 336.831C235.69 333.23 233.636 330.303 231.637 328.112C227.615 323.712 224.263 321.94 224.383 321.789C224.396 321.768 224.602 321.875 224.983 322.1C225.356 322.334 225.933 322.645 226.615 323.135C228.004 324.076 229.936 325.58 232.009 327.772C234.086 329.951 236.226 332.906 237.839 336.573C238.619 338.414 239.271 340.42 239.712 342.554C240.125 344.693 240.308 346.954 240.262 349.26C240.151 353.862 239.278 358.229 237.818 361.95C236.352 365.668 234.265 368.74 231.922 370.687C229.604 372.664 227.252 373.589 225.613 373.957C224.8 374.182 224.133 374.189 223.699 374.262C223.258 374.31 223.027 374.324 223.024 374.3Z" fill="#646464"/>
<path d="M236.774 507.258L172.862 516.541C148.856 523.335 123.565 525.326 97.125 523.03L193.31 567.907L231.925 568.506C231.925 568.506 243.682 568.543 245.737 558.247C247.824 547.791 250.076 516.746 250.076 516.746C250.076 516.746 242.446 510.11 236.774 507.258Z" fill="#343232"/>
<g opacity="0.3">
<path d="M236.585 534.167C237.633 540.56 238.012 547.064 237.712 553.536C241.662 549.27 243.469 543.111 242.45 537.387C241.887 534.229 240.573 530.758 242.226 528.007C243.334 526.163 246.268 524.044 245.839 521.935C245.839 521.935 243.27 521.935 240.94 521.842C239.072 521.767 235.185 521.652 235.185 521.652C237.149 526.709 236.999 529.828 236.218 534.351" fill="#1D1D1D"/>
</g>
<path d="M191.222 402.862L222.275 399.507L227.957 404.682L205.79 417.716L196.01 422.783L186.35 419.849L183.291 414.092L191.222 402.862Z" fill="#FED0BA"/>
<path d="M149.36 440.68C149.36 440.68 159.094 421.996 161.504 417.914C165.611 410.957 173.276 407.013 173.276 407.013L191.216 402.863C191.216 402.863 189.355 411.853 200.52 412.473C214.718 413.264 223.539 399.646 223.539 399.646C223.539 399.646 239.741 401.312 244.213 403.193C248.687 405.073 261.342 410.369 263.2 427.198L267.535 454.673L233.307 457.283L233.781 493.858L219.237 505.757C219.237 505.757 177.474 520.141 174.807 521.084C173.546 521.53 173.854 503.781 170.869 488.571L165.231 474.882C162.975 469.402 161.572 463.594 161.24 457.678C161.022 453.783 161.128 450.837 161.128 450.837C161.128 450.837 152.346 447.818 149.36 440.68Z" fill="#FF8E49"/>
<path d="M176.331 506.717L233.715 489.49L233.31 457.28L262.533 455.053C262.533 455.053 260.202 471.743 259.859 480.301C259.367 492.608 253.448 509.811 249.489 513.463C245.529 517.114 174.808 521.083 174.808 521.083L176.331 506.717Z" fill="#FED0BA"/>
<path d="M143.786 516.848C144.26 517.631 145.155 518.096 146.057 517.946C146.236 517.916 146.422 517.866 146.613 517.789C147.873 517.274 147.547 514.655 147.547 514.655L153.655 513.165C153.655 513.165 162.101 517.73 165.229 520.947C168.357 524.163 175.441 520.814 175.441 520.814L176.951 507.431L164.769 498.015C164.769 498.015 165.516 498.575 164.582 496.709C163.648 494.844 160.126 495.849 160.126 495.849C159.495 494.939 157.132 494.779 157.132 494.779L147.235 496.704C145.195 497.101 143.445 498.399 142.474 500.237L138.768 507.25C138.768 507.25 136.911 512.236 137.357 513.328C138.028 514.975 139.786 514.461 139.786 514.461C139.786 514.461 140.522 517.587 141.362 517.634C142.2 517.679 143.786 516.848 143.786 516.848Z" fill="#FED0BA"/>
<path d="M164.307 505.73C164.304 505.836 162.966 505.815 160.84 506.074C158.721 506.342 155.805 506.944 152.808 508.231C151.31 508.868 149.94 509.603 148.745 510.353C147.59 511.126 146.375 511.782 146.056 512.692C145.896 513.137 146.016 513.567 146.257 513.874C146.492 514.178 146.797 514.368 147.061 514.452C147.602 514.628 147.93 514.454 147.947 514.513C147.973 514.526 147.659 514.811 146.999 514.693C146.68 514.632 146.303 514.451 145.983 514.101C145.659 513.77 145.44 513.153 145.627 512.556C145.799 511.957 146.26 511.468 146.761 511.056C147.278 510.657 147.819 510.249 148.427 509.859C149.63 509.064 151.026 508.296 152.559 507.643C155.626 506.326 158.632 505.781 160.797 505.624C162.972 505.478 164.312 505.659 164.307 505.73Z" fill="#FFB18D"/>
<path d="M165.502 512.043C165.504 512.233 161.428 512.378 156.457 513.057C151.483 513.719 147.513 514.659 147.466 514.474C147.445 514.393 148.413 514.053 150.017 513.641C151.621 513.229 153.865 512.763 156.372 512.423C158.877 512.087 161.165 511.941 162.82 511.914C164.476 511.888 165.5 511.959 165.502 512.043Z" fill="#FFB18D"/>
<path d="M143.824 516.589C143.79 516.586 143.718 516.221 143.616 515.535C143.521 514.852 143.401 513.856 143.383 512.611C143.377 511.988 143.391 511.302 143.505 510.563C143.607 509.82 143.895 509.026 144.317 508.31C145.111 506.879 146.253 505.37 147.763 504.188C149.268 503.019 150.785 502.013 152.353 501.403C153.908 500.797 155.39 500.563 156.615 500.412C157.847 500.273 158.843 500.224 159.533 500.195C160.221 500.171 160.605 500.177 160.609 500.221C160.62 500.323 159.098 500.492 156.679 500.859C155.476 501.065 154.044 501.341 152.571 501.95C151.111 502.546 149.62 503.554 148.166 504.684C146.71 505.83 145.642 507.214 144.827 508.605C143.959 509.939 143.891 511.399 143.835 512.615C143.782 515.052 143.962 516.583 143.824 516.589Z" fill="#FFB18D"/>
<path d="M156.849 497.352C156.858 497.448 155.365 497.603 153 498.061C150.729 498.591 147.065 499.044 145.217 502.374C143.172 505.432 141.454 508.302 140.783 510.6C140.061 512.887 140.258 514.414 140.127 514.413C140.093 514.416 140.005 514.044 139.986 513.358C139.961 512.674 140.031 511.668 140.348 510.476C140.933 508.061 142.631 505.09 144.687 502.015C145.213 501.243 145.789 500.504 146.476 499.902C147.161 499.291 147.981 498.902 148.74 498.617C150.281 498.049 151.719 497.808 152.921 497.617C155.335 497.267 156.844 497.271 156.849 497.352Z" fill="#FFB18D"/>
<path d="M162.879 518.987C162.866 519.003 162.652 518.863 162.252 518.58C161.797 518.269 161.209 517.867 160.476 517.366C158.912 516.339 156.594 514.886 153.562 513.353L153.705 513.369C151.884 513.827 149.832 514.342 147.608 514.9L147.799 514.622C147.852 515.126 147.861 515.622 147.8 516.143C147.736 516.654 147.617 517.21 147.214 517.685C147.003 517.918 146.688 518.07 146.423 518.126C146.153 518.217 145.856 518.268 145.558 518.245C144.961 518.206 144.383 517.938 143.954 517.512C143.844 517.407 143.747 517.29 143.657 517.167L143.592 517.073L143.561 517.025L143.546 517.002L143.544 516.999C143.462 516.975 144.255 517.197 143.918 517.104L143.911 517.108L143.898 517.114L143.708 517.21C143.455 517.334 143.197 517.448 142.932 517.555C142.666 517.661 142.392 517.758 142.102 517.831C141.956 517.867 141.807 517.901 141.646 517.916C141.496 517.935 141.315 517.954 141.065 517.851C140.696 517.628 140.549 517.345 140.396 517.079C140.251 516.808 140.128 516.533 140.022 516.253C139.807 515.692 139.639 515.125 139.49 514.533L139.871 514.755C139.081 514.958 138.12 514.838 137.506 514.148C137.23 513.827 136.991 513.421 136.985 512.937C136.972 512.503 137.039 512.115 137.111 511.724C137.426 510.172 137.925 508.67 138.471 507.143L138.478 507.125L138.488 507.104C139.118 505.911 139.787 504.645 140.463 503.363C140.884 502.566 141.301 501.777 141.716 500.991C142.134 500.231 142.497 499.383 143.113 498.68C143.705 497.982 144.436 497.416 145.239 497.017C146.036 496.597 146.944 496.438 147.745 496.291C151.025 495.662 154.152 495.064 157.076 494.503L157.116 494.495L157.15 494.499C157.736 494.552 158.288 494.646 158.835 494.806C159.369 494.976 159.936 495.168 160.346 495.699L159.991 495.618C161.016 495.102 162.239 495.003 163.212 495.549C164.19 496.089 164.695 497.044 164.995 497.956L164.91 497.832C168.407 500.52 171.262 502.712 173.302 504.282C174.245 505.024 174.998 505.617 175.566 506.066C176.08 506.48 176.343 506.706 176.328 506.726C176.314 506.744 176.024 506.554 175.484 506.175C174.896 505.753 174.117 505.192 173.143 504.492C171.072 502.964 168.175 500.829 164.624 498.21L164.567 498.168L164.539 498.085C164.266 497.283 163.774 496.413 162.97 495.997C162.184 495.552 161.112 495.651 160.256 496.089L160.044 496.198L159.901 496.008C159.661 495.691 159.167 495.478 158.678 495.34C158.183 495.199 157.641 495.111 157.11 495.067L157.183 495.062C154.262 495.638 151.138 496.255 147.861 496.902C147.025 497.059 146.244 497.199 145.515 497.582C144.788 497.944 144.128 498.458 143.595 499.093C143.05 499.707 142.709 500.502 142.277 501.291C141.863 502.075 141.446 502.866 141.025 503.663C140.346 504.944 139.677 506.21 139.047 507.403L139.064 507.365C138.525 508.858 138.026 510.365 137.722 511.841C137.652 512.207 137.592 512.583 137.602 512.912C137.59 513.199 137.758 513.493 137.962 513.738C138.36 514.217 139.096 514.32 139.698 514.174L140.005 514.099L140.079 514.396C140.217 514.954 140.38 515.516 140.579 516.042C140.768 516.539 141.039 517.143 141.329 517.329C141.344 517.335 141.452 517.36 141.584 517.336C141.704 517.326 141.832 517.299 141.958 517.268C142.213 517.205 142.469 517.117 142.719 517.02C142.97 516.922 143.218 516.815 143.459 516.698L143.637 516.61L143.648 516.605L143.653 516.603C143.318 516.508 144.113 516.729 144.031 516.707L144.033 516.71L144.046 516.729L144.07 516.767L144.119 516.842C144.19 516.939 144.265 517.033 144.352 517.116C144.687 517.455 145.14 517.666 145.597 517.699C145.825 517.72 146.05 517.683 146.274 517.608C146.518 517.555 146.676 517.472 146.82 517.327C147.361 516.669 147.361 515.565 147.296 514.692L147.28 514.464L147.488 514.414C149.719 513.886 151.778 513.399 153.606 512.968L153.685 512.95L153.75 512.984C156.788 514.584 159.073 516.095 160.606 517.187C161.369 517.737 161.944 518.183 162.324 518.495C162.701 518.8 162.892 518.972 162.879 518.987Z" fill="#FFB18D"/>
<path d="M133.052 527.293C133.052 527.293 92.5602 514.568 79.8408 510.444C57.9435 503.345 43.6083 510.52 39.0866 518.356C33.2202 528.525 47.2867 548.349 52.7049 552.905C68.7617 566.407 96.2838 568.227 96.2838 568.227L195.245 568.041L166.35 528.859L133.052 527.293Z" fill="#343232"/>
<path d="M139.11 545.664C122.707 547.593 105.826 545.295 90.5337 539.054C87.8601 537.962 85.2201 536.748 82.4213 536.038C79.7 535.347 76.8559 535.146 74.0648 535.447C71.8562 535.686 69.5056 536.348 68.1636 538.12C66.1901 540.724 67.2053 544.423 68.3018 547.502C69.5869 551.11 70.9237 554.81 73.4358 557.701C76.3742 561.08 80.6351 563.013 84.9063 564.359C93.2615 566.991 102.087 567.747 110.841 568.095L140.915 566.449L139.11 545.664Z" fill="#E0E0E0"/>
<path d="M81.0414 536.051C81.0776 536.035 81.2533 536.315 81.5025 536.859C81.7518 537.401 82.0514 538.218 82.2994 539.262C82.8031 541.332 82.9723 544.413 81.9597 547.569C80.9446 550.725 79.0111 553.129 77.394 554.519C76.5842 555.223 75.8661 555.712 75.3469 556.007C74.8277 556.304 74.5216 556.429 74.5022 556.394C74.4428 556.3 75.5897 555.645 77.0905 554.189C78.5874 552.753 80.3827 550.401 81.3566 547.375C82.3278 544.35 82.24 541.393 81.8616 539.353C81.487 537.294 80.9368 536.094 81.0414 536.051Z" fill="#343232"/>
<path d="M236.393 524.811C234.042 518.15 233.651 508.355 219.156 503.653C204.66 498.951 193.692 507.962 186.248 511.097C178.804 514.232 138.062 536.566 138.062 536.566C138.062 536.566 130.39 550.249 132.574 556.288C134.758 562.327 144.681 568.303 144.681 568.303H174.103C174.103 568.303 178.48 568.303 190.234 568.303C201.987 568.303 223.856 567.911 223.856 567.911C227.879 561.6 231.69 553.022 231.69 553.022L232.082 551.062C232.084 549.496 238.744 531.471 236.393 524.811Z" fill="#343232"/>
<path d="M211.16 559.419C211.16 559.419 211.126 559.682 210.824 560.039C210.532 560.401 210.032 560.875 209.324 561.391C207.91 562.423 205.72 563.699 202.883 565C201.461 565.642 199.891 566.317 198.128 566.869C196.369 567.425 194.436 567.833 192.387 568.109C188.282 568.694 183.729 568.566 179.005 568.634C169.528 568.786 160.942 569.141 154.719 569.073C151.608 569.05 149.088 568.924 147.355 568.743C146.488 568.654 145.818 568.56 145.367 568.463C144.916 568.378 144.682 568.324 144.685 568.302C144.697 568.236 145.642 568.406 147.374 568.497C149.105 568.6 151.614 568.657 154.718 568.623C160.927 568.578 169.503 568.152 178.996 567.998C183.746 567.931 188.258 568.076 192.311 567.528C194.334 567.272 196.239 566.888 197.973 566.365C199.705 565.849 201.279 565.199 202.7 564.589C205.538 563.352 207.745 562.144 209.182 561.188C209.902 560.71 210.414 560.278 210.727 559.955C211.05 559.638 211.121 559.403 211.16 559.419Z" fill="#343232"/>
<path d="M144.685 568.303C144.685 568.303 144.471 568.21 144.081 567.982C143.69 567.758 143.12 567.406 142.386 566.927C140.931 565.952 138.788 564.48 136.396 562.163C135.226 560.987 133.97 559.596 133.007 557.792C131.996 555.973 131.951 553.61 132.34 551.311C133.146 546.651 135.184 541.671 137.846 536.447L137.878 536.384L137.945 536.347C145.401 532.243 153.962 527.57 163.315 522.548C167.995 520.042 172.87 517.444 177.93 514.831C180.466 513.532 183.024 512.201 185.711 510.993C188.385 509.856 190.943 508.37 193.616 507.009C197.395 505.071 201.303 503.363 205.39 502.582C207.419 502.136 209.487 502.02 211.52 502.02C213.552 502.119 215.567 502.349 217.488 502.879C221.323 503.894 224.945 505.498 227.922 507.863C229.387 509.072 230.659 510.461 231.715 511.971C232.745 513.499 233.529 515.139 234.163 516.79C234.801 518.442 235.265 520.114 235.729 521.737C236.151 523.368 236.809 524.882 237.032 526.565C237.361 529.87 236.816 532.983 236.254 535.882C235.667 538.785 234.947 541.496 234.232 544.026C233.864 545.288 233.507 546.509 233.164 547.688C232.832 548.854 232.442 550.024 232.269 551.061L232.265 551.097C232.114 551.839 231.987 552.454 231.864 553.055L231.862 553.064L231.86 553.069C230.214 558.205 228.212 561.991 226.628 564.421C225.024 566.849 223.857 567.907 223.857 567.907C223.85 567.902 223.908 567.823 224.027 567.674C224.165 567.506 224.341 567.29 224.566 567.016C225.035 566.432 225.696 565.538 226.471 564.32C227.995 561.876 229.94 558.074 231.523 552.971L231.52 552.985C232.262 552.366 232.116 551.756 231.903 551.024L231.899 551.06C232.083 549.854 232.456 548.771 232.781 547.575C233.116 546.394 233.462 545.172 233.821 543.91C234.519 541.381 235.217 538.674 235.786 535.787C236.329 532.91 236.845 529.805 236.513 526.631C236.31 525.091 235.64 523.52 235.207 521.886C234.736 520.263 234.271 518.609 233.639 516.991C233.011 515.372 232.241 513.777 231.238 512.297C230.21 510.836 228.974 509.496 227.551 508.324C224.66 506.036 221.095 504.464 217.337 503.476C215.458 502.96 213.49 502.741 211.505 502.644C209.519 502.648 207.501 502.762 205.512 503.201C201.511 503.968 197.664 505.647 193.905 507.575C191.251 508.926 188.675 510.422 185.962 511.574C183.314 512.763 180.745 514.097 178.215 515.389C173.159 517.993 168.28 520.582 163.597 523.076C154.259 528.111 145.678 532.74 138.183 536.782L138.281 536.682C135.615 541.844 133.555 546.805 132.731 551.374C132.336 553.65 132.358 555.874 133.311 557.635C134.227 559.396 135.45 560.787 136.594 561.964C138.934 564.29 141.045 565.794 142.468 566.806C143.173 567.281 143.724 567.65 144.121 567.919C144.496 568.166 144.685 568.303 144.685 568.303Z" fill="#343232"/>
<path d="M218.825 551.403C218.825 551.403 232.393 553.022 231.188 559.668C229.981 566.314 225.548 568.545 225.548 568.545L188.664 568.623C188.664 568.623 210.688 567.088 218.825 551.403Z" fill="#E0E0E0"/>
<path d="M220.139 548.175C220.214 548.196 220.108 548.928 219.727 550.06C219.344 551.187 218.646 552.713 217.526 554.173C215.251 557.133 212.361 558.286 212.337 558.151C212.218 557.968 214.867 556.604 217.024 553.786C219.176 550.973 219.933 548.098 220.139 548.175Z" fill="#343232"/>
<path d="M215.43 550.782C215.607 550.789 215.404 553.072 214.12 555.508C212.875 557.954 211.277 559.533 211.161 559.419C211.017 559.298 212.353 557.584 213.554 555.22C214.794 552.87 215.255 550.755 215.43 550.782Z" fill="#343232"/>
<path d="M232.744 566.69C232.643 566.638 233.515 564.955 234.58 562.104C235.65 559.258 236.814 555.197 237.347 550.588C237.866 545.975 237.649 541.756 237.249 538.742C236.855 535.725 236.385 533.888 236.495 533.861C236.537 533.849 236.687 534.298 236.921 535.125C237.166 535.948 237.437 537.162 237.692 538.678C238.21 541.703 238.503 545.984 237.976 550.66C237.435 555.334 236.185 559.438 234.996 562.268C234.406 563.687 233.867 564.809 233.444 565.554C233.03 566.306 232.783 566.711 232.744 566.69Z" fill="#646464"/>
<g opacity="0.3">
<path d="M225.06 547.821C224.964 546.927 224.61 545.869 223.73 545.69C222.656 545.472 221.919 546.705 221.484 547.712C216.807 558.532 201.422 566.958 189.685 568.047C194.512 568.084 201.973 567.517 206.722 566.657C211.471 565.795 216.156 563.973 219.715 560.713C223.275 557.454 225.575 552.62 225.06 547.821Z" fill="#1D1D1D"/>
</g>
<path d="M135.196 533.099C135.121 533.257 132.197 532.146 128.667 530.617C125.136 529.086 122.328 527.715 122.394 527.552C122.46 527.39 125.382 528.502 128.923 530.035C132.463 531.57 135.272 532.942 135.196 533.099Z" fill="#343232"/>
<g opacity="0.2">
<path d="M148.35 527.398C130.788 524.038 113.154 521.051 95.4644 518.44L82.2852 522.609C85.9791 529.479 93.2777 533.853 100.863 535.668C108.449 537.483 116.376 537.045 124.142 536.329C132.695 535.541 141.478 534.346 148.92 530.057C149.49 529.729 150.125 529.241 150.055 528.587C149.979 527.846 149.084 527.538 148.35 527.398Z" fill="#1D1D1D"/>
</g>
<path d="M61.8725 475.066L84.0023 524.031C84.9181 526.058 86.9252 527.371 89.1492 527.4L153.697 528.237L161.834 523.856L149.091 522.924L129.256 475.312C128.624 473.795 127.146 472.801 125.502 472.788L63.6575 472.319C62.2393 472.31 61.2887 473.773 61.8725 475.066Z" fill="#E0E0E0"/>
<path d="M61.8693 475.064C61.8693 475.064 61.7401 474.887 61.6755 474.474C61.6123 474.078 61.6781 473.372 62.28 472.782C62.5809 472.503 63.0149 472.266 63.5328 472.242C64.0301 472.238 64.5713 472.234 65.1563 472.23C66.3317 472.23 67.6826 472.23 69.2002 472.229C75.3223 472.25 84.1489 472.278 95.1027 472.314C100.595 472.343 106.618 472.374 113.101 472.406C116.344 472.424 119.701 472.443 123.163 472.464C124.037 472.473 124.916 472.482 125.801 472.491C126.745 472.557 127.668 472.947 128.39 473.58C129.142 474.19 129.558 475.156 129.871 475.962C130.219 476.797 130.571 477.636 130.924 478.482C136.575 492.017 142.817 506.968 149.421 522.786L149.115 522.565C153.036 522.851 157.205 523.156 161.421 523.464C161.571 523.475 161.719 523.486 161.858 523.496L163.096 523.586L162.004 524.174C159.207 525.679 156.452 527.162 153.865 528.553L153.783 528.597L153.69 528.596C136.233 528.357 119.708 528.131 104.735 527.926C100.994 527.871 97.3488 527.818 93.8099 527.768C92.0288 527.728 90.3265 527.749 88.557 527.658C86.7579 527.464 85.1189 526.421 84.1786 524.952C81.2971 518.89 78.8909 513.279 76.5558 508.151C71.9823 497.917 68.2936 489.662 65.7337 483.934C64.4847 481.101 63.5109 478.895 62.8367 477.365C62.5228 476.634 62.2787 476.066 62.1005 475.654C61.9352 475.27 61.8693 475.064 61.8693 475.064C61.8693 475.064 61.9791 475.25 62.1625 475.628C62.3549 476.033 62.6197 476.593 62.9607 477.311C63.6633 478.827 64.6759 481.016 65.9765 483.825C68.5842 489.531 72.3426 497.755 77.0026 507.949C79.3481 513.03 81.8422 518.74 84.663 524.635C85.518 525.958 87.0007 526.892 88.6203 527.061C90.2735 527.138 92.0598 527.116 93.815 527.149C97.3539 527.191 100.999 527.232 104.74 527.274C119.714 527.458 136.239 527.661 153.696 527.874L153.521 527.916C156.106 526.524 158.863 525.041 161.657 523.535L161.802 524.214C161.665 524.204 161.515 524.194 161.366 524.182C157.15 523.873 152.981 523.567 149.059 523.279L148.839 523.263L148.753 523.059C142.174 507.231 135.955 492.271 130.325 478.728C129.974 477.882 129.625 477.041 129.278 476.205C128.939 475.338 128.622 474.594 127.969 474.049C127.352 473.504 126.562 473.167 125.75 473.107C124.879 473.096 124.013 473.085 123.154 473.074C119.692 473.042 116.335 473.009 113.092 472.98C106.609 472.915 100.587 472.854 95.095 472.8C84.1425 472.671 75.3158 472.565 69.1938 472.493C67.6762 472.469 66.3252 472.449 65.1499 472.43C64.5687 472.423 64.0314 472.416 63.5367 472.41C63.0601 472.42 62.6558 472.628 62.3678 472.88C61.7918 473.415 61.6988 474.078 61.7388 474.464C61.784 474.867 61.8899 475.057 61.8693 475.064Z" fill="#343232"/>
<path d="M147.189 528.153C147.169 528.162 147.068 527.977 146.892 527.618C146.692 527.19 146.449 526.668 146.155 526.037C145.502 524.563 144.627 522.58 143.562 520.171C141.404 515.205 138.474 508.322 135.318 500.687C132.162 493.048 129.384 486.101 127.453 481.041C126.49 478.509 125.723 476.457 125.229 475.024C125.004 474.364 124.819 473.819 124.668 473.372C124.547 472.992 124.492 472.788 124.513 472.781C124.534 472.774 124.628 472.962 124.788 473.328C124.97 473.763 125.192 474.294 125.46 474.936C126.066 476.43 126.881 478.437 127.87 480.876C129.96 485.967 132.784 492.843 135.905 500.444C139.039 508.037 141.876 514.909 143.976 519.996C144.964 522.438 145.778 524.445 146.382 525.94C146.633 526.589 146.839 527.127 147.01 527.567C147.148 527.943 147.21 528.143 147.189 528.153Z" fill="#343232"/>
<path d="M107.143 498.804C107.143 500.553 105.726 501.97 103.978 501.97C102.23 501.97 100.812 500.553 100.812 498.804C100.812 497.056 102.229 495.639 103.978 495.639C105.726 495.639 107.143 497.056 107.143 498.804Z" fill="white"/>
<path d="M169.993 420.043C170.091 420.098 169.161 421.84 167.857 424.74C166.548 427.638 164.93 431.728 163.623 436.396C162.325 441.068 161.594 445.406 161.213 448.562C160.829 451.719 160.723 453.691 160.61 453.687C160.562 453.685 160.54 453.191 160.541 452.295C160.536 451.4 160.594 450.106 160.726 448.51C160.984 445.321 161.646 440.925 162.957 436.209C164.275 431.496 165.984 427.394 167.414 424.531C168.127 423.098 168.747 421.96 169.214 421.197C169.677 420.431 169.952 420.02 169.993 420.043Z" fill="#343232"/>
<path d="M267.533 454.671C267.534 454.692 267.292 454.729 266.824 454.781C266.293 454.833 265.613 454.9 264.769 454.983C262.899 455.139 260.308 455.356 257.099 455.625C250.487 456.123 241.344 456.812 230.865 457.601L230.527 457.627L230.506 457.288C230.287 453.804 230.054 450.125 229.815 446.343C229.443 439.756 229.126 433.48 229.024 427.757C228.725 422.005 230.133 416.754 232.389 413.019C234.621 409.228 237.582 407.025 239.742 405.95C240.844 405.431 241.724 405.085 242.347 404.938C242.962 404.763 243.286 404.684 243.293 404.708C243.324 404.802 241.992 405.072 239.868 406.189C237.778 407.322 234.939 409.531 232.812 413.267C230.66 416.964 229.334 422.06 229.66 427.747C229.796 433.45 230.133 439.724 230.505 446.306C230.738 450.087 230.964 453.763 231.177 457.246L230.818 456.933C241.303 456.239 250.451 455.634 257.068 455.197C260.284 455.011 262.88 454.861 264.752 454.753C265.6 454.716 266.283 454.687 266.816 454.663C267.286 454.648 267.532 454.651 267.533 454.671Z" fill="#343232"/>
<path d="M203.184 477.044C203.164 477.088 202.759 476.937 202.037 476.622C201.671 476.472 201.234 476.269 200.754 475.98C200.271 475.697 199.699 475.407 199.133 474.984C197.953 474.209 196.66 473.118 195.356 471.777C194.082 470.408 192.816 468.773 191.735 466.901C190.679 465.014 189.921 463.089 189.396 461.295C188.912 459.487 188.636 457.818 188.574 456.408C188.499 455.705 188.543 455.064 188.548 454.505C188.544 453.944 188.594 453.465 188.652 453.075C188.752 452.293 188.829 451.868 188.877 451.874C189.014 451.885 188.789 453.612 189.062 456.368C189.184 457.745 189.504 459.365 190.01 461.116C190.555 462.856 191.31 464.72 192.339 466.56C193.392 468.383 194.608 469.986 195.824 471.343C197.071 472.673 198.299 473.776 199.42 474.586C201.644 476.23 203.243 476.921 203.184 477.044Z" fill="#343232"/>
<path d="M418.611 292.016C418.492 292.016 418.396 274.011 418.396 251.806C418.396 229.592 418.492 211.591 418.611 211.591C418.729 211.591 418.825 229.592 418.825 251.806C418.825 274.011 418.729 292.016 418.611 292.016Z" fill="#263238"/>
<path d="M421.014 212.29C420.908 212.34 419.692 210.259 418.284 207.621L418.666 207.597C418.654 207.628 418.64 207.662 418.626 207.695C417.445 210.506 416.399 212.747 416.29 212.701C416.18 212.655 417.048 210.34 418.229 207.528C418.243 207.495 418.257 207.461 418.27 207.43L418.445 207.014L418.652 207.406C420.069 210.062 421.12 212.239 421.014 212.29Z" fill="#263238"/>
<path d="M418.164 202.099C418.094 202.188 417.431 201.756 416.908 200.952C416.38 200.151 416.248 199.371 416.357 199.343C416.475 199.306 416.776 199.975 417.267 200.716C417.751 201.462 418.246 202.006 418.164 202.099Z" fill="#263238"/>
<path d="M416.9 204.415C416.791 204.361 417.324 203.108 417.924 201.548C418.528 199.99 418.973 198.705 419.092 198.736C419.203 198.766 418.937 200.12 418.324 201.703C417.716 203.287 417.002 204.469 416.9 204.415Z" fill="#263238"/>
<path d="M412.855 222.187C412.747 222.117 413.382 221.116 413.59 219.715C413.82 218.318 413.521 217.171 413.646 217.138C413.743 217.086 414.259 218.267 414.014 219.782C413.783 221.299 412.932 222.266 412.855 222.187Z" fill="#263238"/>
<path d="M413.639 218.825C413.685 218.845 413.54 219.179 413.027 219.299C412.782 219.35 412.453 219.339 412.146 219.151C411.833 218.965 411.62 218.582 411.602 218.18C411.581 217.778 411.756 217.377 412.051 217.161C412.339 216.943 412.665 216.901 412.914 216.929C413.434 216.999 413.613 217.318 413.568 217.341C413.526 217.392 413.3 217.211 412.901 217.231C412.507 217.231 411.987 217.559 412.029 218.159C412.043 218.758 412.592 219.036 412.985 218.998C413.386 218.981 413.592 218.778 413.639 218.825Z" fill="#263238"/>
<path d="M481.204 286.304C481.204 286.422 465.802 286.518 446.808 286.518C427.807 286.518 412.409 286.422 412.409 286.304C412.409 286.185 427.807 286.089 446.808 286.089C465.804 286.089 481.204 286.185 481.204 286.304Z" fill="#263238"/>
<path d="M481.911 286.219C481.867 286.329 480.599 285.926 479.077 285.319C477.556 284.71 476.359 284.129 476.404 284.019C476.447 283.909 477.716 284.312 479.237 284.921C480.757 285.528 481.954 286.109 481.911 286.219Z" fill="#263238"/>
<path d="M482.665 286.474C482.704 286.586 481.685 287.045 480.389 287.499C479.092 287.955 478.009 288.231 477.97 288.121C477.93 288.008 478.949 287.549 480.246 287.095C481.543 286.641 482.625 286.363 482.665 286.474Z" fill="#263238"/>
<path d="M415.378 288.493C415.391 288.453 416.001 288.858 416.265 289.92C416.39 290.438 416.401 291.112 416.128 291.788C415.99 292.12 415.785 292.467 415.436 292.719C415.095 292.985 414.525 293.03 414.135 292.769C413.357 292.254 413.151 291.38 413.143 290.677C413.139 289.952 413.458 289.291 413.906 288.955C414.344 288.609 414.813 288.53 415.112 288.564C415.417 288.595 415.557 288.702 415.547 288.722C415.536 288.757 415.381 288.71 415.111 288.731C414.844 288.749 414.451 288.865 414.103 289.185C413.753 289.495 413.519 290.046 413.538 290.675C413.554 291.287 413.79 292.042 414.354 292.4C414.629 292.573 414.945 292.548 415.196 292.374C415.451 292.198 415.637 291.918 415.763 291.633C416.018 291.056 416.044 290.456 415.966 289.979C415.805 289.002 415.313 288.537 415.378 288.493Z" fill="#263238"/>
<path d="M471.395 289.398C471.371 289.383 471.644 289.253 471.975 289.533C472.126 289.665 472.277 289.909 472.263 290.215C472.256 290.516 472.105 290.837 471.858 291.099C471.372 291.641 470.487 291.838 470.08 292.496C469.893 292.808 469.889 293.26 470.088 293.608C470.277 293.953 470.709 294.168 471.136 294.124C471.563 294.095 471.909 293.775 472.039 293.388C472.177 293.002 472.062 292.596 471.816 292.288C471.571 291.975 471.237 291.748 470.907 291.565C470.576 291.391 470.171 291.135 470.082 290.722C469.992 290.334 470.122 289.991 470.298 289.76C470.482 289.528 470.703 289.407 470.882 289.335C471.251 289.199 471.468 289.228 471.47 289.25C471.477 289.284 471.267 289.318 470.954 289.486C470.801 289.573 470.624 289.701 470.493 289.899C470.368 290.092 470.293 290.377 470.374 290.64C470.505 291.185 471.525 291.262 472.124 292.039C472.438 292.399 472.625 292.987 472.437 293.52C472.276 294.04 471.78 294.507 471.174 294.549C470.592 294.608 469.992 294.313 469.721 293.812C469.452 293.323 469.468 292.729 469.74 292.29C470.014 291.857 470.423 291.632 470.764 291.444C471.111 291.257 471.42 291.094 471.641 290.884C471.862 290.676 471.997 290.426 472.024 290.198C472.054 289.969 471.964 289.777 471.855 289.65C471.63 289.39 471.391 289.435 471.395 289.398Z" fill="#263238"/>
<path d="M471.202 287.783C471.083 287.783 470.987 286.932 470.987 285.883C470.987 284.833 471.083 283.982 471.202 283.982C471.32 283.982 471.416 284.833 471.416 285.883C471.416 286.932 471.32 287.783 471.202 287.783Z" fill="#263238"/>
<path d="M489.605 286.383C489.607 286.442 489.154 286.506 488.422 286.562C487.99 286.588 487.564 286.613 487.135 286.639C487.069 286.638 486.975 286.654 486.845 286.58C486.711 286.51 486.656 286.309 486.692 286.203C486.745 285.982 486.877 285.883 486.957 285.796C487.144 285.605 487.334 285.411 487.529 285.212C487.939 284.829 488.203 284.411 488.22 284C488.236 283.597 487.973 283.25 487.689 283.199C487.394 283.139 487.114 283.271 486.934 283.343C486.749 283.424 486.641 283.468 486.624 283.443C486.609 283.419 486.683 283.329 486.85 283.199C487.017 283.085 487.288 282.868 487.737 282.9C488.199 282.939 488.617 283.429 488.617 284.004C488.623 284.582 488.25 285.125 487.851 285.497C487.654 285.694 487.463 285.885 487.273 286.074C487.17 286.171 487.095 286.254 487.093 286.289C487.114 286.293 487.021 286.287 487.024 286.296C487.024 286.296 487.028 286.297 487.033 286.284C487.038 286.28 487.052 286.244 487.054 286.238L487.065 286.241C487.078 286.244 487.1 286.245 487.126 286.245C487.556 286.25 487.983 286.255 488.416 286.26C489.149 286.28 489.604 286.323 489.605 286.383Z" fill="#263238"/>
<path d="M427.772 286.304C427.754 286.286 427.736 285.868 427.717 285.122C427.702 284.314 427.681 283.255 427.657 281.963C427.615 279.29 427.572 275.587 427.561 271.36L427.772 271.569C426.486 271.57 425.148 271.573 423.774 271.574C424.201 271.144 423.893 271.458 423.989 271.364V271.369V271.378V271.395V271.431V271.503V271.645V271.93V272.496C423.989 272.872 423.987 273.246 423.987 273.616C423.986 274.355 423.985 275.081 423.983 275.793C423.977 277.211 423.972 278.568 423.967 279.846C423.943 282.362 423.922 284.561 423.906 286.305L423.774 286.174C424.97 286.203 425.943 286.227 426.683 286.246C427.37 286.269 427.754 286.287 427.772 286.304C427.788 286.322 427.439 286.338 426.759 286.363C425.999 286.38 425.002 286.405 423.773 286.435L423.643 286.439L423.642 286.305C423.625 284.561 423.605 282.362 423.58 279.846C423.575 278.568 423.569 277.211 423.564 275.793C423.563 275.081 423.561 274.355 423.56 273.616C423.56 273.246 423.559 272.872 423.559 272.496V271.93V271.645V271.503V271.431V271.395V271.378V271.369V271.364C423.654 271.267 423.343 271.574 423.774 271.146C425.148 271.147 426.486 271.149 427.772 271.151H427.982V271.36C427.972 275.677 427.929 279.446 427.887 282.109C427.862 283.382 427.842 284.425 427.827 285.22C427.807 285.94 427.79 286.322 427.772 286.304Z" fill="#263238"/>
<path d="M465.826 286.311C465.817 286.301 465.807 286.145 465.798 285.854C465.791 285.523 465.782 285.107 465.77 284.593C465.755 283.455 465.734 281.894 465.709 279.974C465.667 276.066 465.622 270.655 465.615 264.52L465.826 264.731C464.542 264.733 463.198 264.733 461.83 264.734C462.256 264.305 461.949 264.619 462.043 264.525V264.531V264.545V264.572V264.625V264.733V264.948V265.377V266.23C462.043 266.796 462.042 267.357 462.042 267.912C462.04 269.023 462.038 270.111 462.037 271.173C462.029 273.292 462.023 275.305 462.016 277.176C461.987 280.875 461.961 284.008 461.944 286.308L461.83 286.195C463.053 286.222 464.03 286.243 464.754 286.259C465.069 286.269 465.328 286.279 465.542 286.285C465.722 286.297 465.819 286.303 465.826 286.311C465.842 286.326 465.495 286.34 464.819 286.361C464.078 286.376 463.08 286.398 461.829 286.424L461.715 286.427L461.714 286.311C461.696 284.01 461.671 280.878 461.641 277.178C461.635 275.307 461.629 273.295 461.621 271.175C461.62 270.113 461.617 269.025 461.616 267.914C461.616 267.358 461.615 266.799 461.615 266.232V265.379V264.951V264.735V264.628V264.574V264.548V264.534V264.527C461.711 264.43 461.399 264.736 461.83 264.307C463.2 264.308 464.543 264.308 465.826 264.309H466.039V264.521C466.032 270.743 465.988 276.227 465.945 280.126C465.919 282.026 465.899 283.57 465.884 284.695C465.872 285.189 465.862 285.59 465.854 285.909C465.845 286.182 465.835 286.321 465.826 286.311Z" fill="#263238"/>
<path d="M437.391 286.301C437.382 286.291 437.371 286.097 437.362 285.736C437.355 285.337 437.346 284.815 437.333 284.165C437.318 282.766 437.296 280.814 437.271 278.402C437.248 273.509 437.215 266.767 437.178 259.155L437.391 259.368C436.112 259.369 434.763 259.369 433.394 259.369C433.82 258.941 433.512 259.256 433.607 259.161V259.17V259.187V259.221V259.29V259.428V259.702V260.249C433.607 260.613 433.607 260.975 433.607 261.336C433.607 262.056 433.606 262.772 433.606 263.478C433.603 264.891 433.602 266.274 433.6 267.619C433.592 270.306 433.584 272.847 433.577 275.186C433.544 279.82 433.515 283.656 433.496 286.301L433.393 286.198C434.641 286.223 435.622 286.243 436.333 286.257C436.648 286.267 436.903 286.274 437.111 286.281C437.29 286.288 437.384 286.295 437.391 286.301C437.397 286.308 437.317 286.314 437.15 286.322C436.948 286.328 436.701 286.337 436.395 286.346C435.668 286.36 434.668 286.379 433.393 286.405L433.29 286.407L433.288 286.301C433.269 283.656 433.241 279.821 433.208 275.186C433.202 272.845 433.193 270.306 433.185 267.619C433.184 266.274 433.181 264.891 433.179 263.478C433.179 262.772 433.178 262.058 433.178 261.336C433.178 260.975 433.178 260.613 433.178 260.249V259.702V259.428V259.29V259.221V259.187V259.17V259.161C433.274 259.063 432.962 259.368 433.393 258.939C434.763 258.941 436.11 258.941 437.389 258.941H437.603L437.602 259.154C437.565 266.826 437.533 273.622 437.509 278.554C437.484 280.944 437.462 282.88 437.447 284.267C437.435 284.898 437.425 285.405 437.417 285.791C437.41 286.135 437.401 286.311 437.391 286.301Z" fill="#263238"/>
<path d="M446.81 286.221C446.805 286.216 446.8 286.14 446.795 285.993C446.791 285.825 446.786 285.614 446.779 285.353C446.772 284.765 446.763 283.95 446.75 282.915C446.735 280.777 446.713 277.73 446.686 273.961C446.663 266.385 446.631 255.909 446.596 244.155L446.81 244.368C445.537 244.368 444.183 244.368 442.814 244.37C443.238 243.941 442.931 244.259 443.027 244.167V244.181V244.209V244.264V244.373V244.593V245.032V245.906C443.027 246.488 443.027 247.068 443.027 247.645C443.027 248.797 443.025 249.939 443.025 251.066C443.023 253.321 443.02 255.522 443.019 257.658C443.01 261.927 443.001 265.93 442.992 269.574C442.953 276.817 442.92 282.616 442.9 286.22L442.814 286.133C444.075 286.155 445.058 286.172 445.759 286.183C446.081 286.192 446.336 286.198 446.536 286.204C446.71 286.211 446.805 286.216 446.81 286.221C446.815 286.227 446.732 286.232 446.565 286.238C446.37 286.243 446.121 286.251 445.808 286.258C445.095 286.27 444.094 286.286 442.811 286.308L442.725 286.309V286.221C442.704 282.616 442.672 276.819 442.633 269.575C442.625 265.931 442.616 261.928 442.606 257.66C442.603 255.525 442.601 253.322 442.6 251.068C442.6 249.94 442.598 248.799 442.598 247.646C442.598 247.069 442.598 246.49 442.598 245.908V245.033V244.594V244.375V244.265V244.21V244.182V244.168C442.695 244.069 442.382 244.371 442.815 243.942C444.183 243.942 445.539 243.942 446.811 243.944H447.025L447.024 244.158C446.988 255.974 446.957 266.504 446.934 274.119C446.907 277.868 446.885 280.897 446.87 283.023C446.857 284.038 446.847 284.838 446.841 285.413C446.834 285.663 446.829 285.864 446.825 286.025C446.82 286.16 446.815 286.227 446.81 286.221Z" fill="#263238"/>
<path d="M456.452 286.221C456.452 286.221 456.441 286.088 456.436 285.843C456.432 285.582 456.427 285.223 456.421 284.764C456.413 283.801 456.403 282.416 456.39 280.641C456.375 277.052 456.353 271.886 456.325 265.489C456.302 252.69 456.27 234.974 456.236 215.209L456.45 215.423C455.184 215.423 453.824 215.423 452.455 215.423C452.877 214.995 452.573 215.319 452.666 215.229V215.254V215.302V215.399V215.594V215.984V216.762V218.313C452.666 219.345 452.666 220.37 452.664 221.389C452.663 223.428 452.663 225.445 452.662 227.435C452.659 231.414 452.657 235.289 452.654 239.029C452.643 246.509 452.633 253.457 452.624 259.664C452.574 272.035 452.537 281.434 452.518 286.219L452.452 286.153C453.783 286.17 454.771 286.182 455.448 286.191C455.767 286.198 456.013 286.203 456.195 286.207C456.364 286.213 456.448 286.217 456.452 286.221C456.455 286.224 456.379 286.228 456.219 286.233C456.041 286.237 455.801 286.242 455.489 286.249C454.804 286.258 453.802 286.27 452.454 286.287L452.388 286.288V286.221C452.369 281.436 452.33 272.037 452.282 259.665C452.273 253.458 452.263 246.51 452.251 239.03C452.249 235.29 452.246 231.416 452.244 227.437C452.242 225.447 452.242 223.43 452.241 221.39C452.241 220.37 452.241 219.345 452.241 218.314V216.763V215.986V215.595V215.4V215.303V215.255V215.231C452.338 215.129 452.023 215.424 452.459 214.995C453.827 214.995 455.187 214.995 456.454 214.995H456.668V215.209C456.633 235.035 456.602 252.808 456.579 265.647C456.552 272.023 456.529 277.172 456.514 280.75C456.501 282.504 456.491 283.873 456.483 284.824C456.477 285.272 456.472 285.62 456.468 285.874C456.462 286.108 456.457 286.226 456.452 286.221Z" fill="#263238"/>
<path d="M58.7751 407.857C58.6945 407.936 57.4711 406.716 55.1099 404.695C53.9293 403.685 52.4593 402.479 50.6834 401.178C48.9026 399.887 46.816 398.49 44.3709 397.222C43.1492 396.592 41.837 395.99 40.4311 395.515C39.0285 395.049 37.5108 394.672 35.9816 394.723C35.2236 394.75 34.4705 394.899 33.8226 395.237C33.1682 395.565 32.6699 396.126 32.3477 396.806C32.0204 397.486 31.9053 398.302 31.9053 399.134C31.907 399.971 32.032 400.835 32.2276 401.698C32.6387 403.427 33.3162 405.157 34.1465 406.857C34.9802 408.559 35.9602 410.24 37.057 411.89C39.2423 415.197 41.8715 418.384 44.7968 421.417C47.7401 424.435 50.8462 427.161 54.0855 429.446C55.7019 430.592 57.3528 431.623 59.0284 432.509C60.7039 433.391 62.4123 434.121 64.1273 434.583C64.984 434.805 65.844 434.955 66.6793 434.983C67.5114 435.009 68.3302 434.917 69.0209 434.611C69.7082 434.31 70.2853 433.827 70.6322 433.184C70.9891 432.547 71.1618 431.797 71.2111 431.041C71.3081 429.515 70.9759 427.985 70.5533 426.569C70.1209 425.148 69.5585 423.819 68.9666 422.578C67.7744 420.096 66.4392 417.968 65.2027 416.149C63.9563 414.335 62.7954 412.829 61.822 411.618C59.8751 409.194 58.6929 407.934 58.7751 407.857C58.8096 407.824 59.1401 408.104 59.7387 408.67C60.3323 409.24 61.189 410.102 62.2315 411.271C63.2756 412.439 64.5072 413.909 65.8309 415.705C67.143 417.507 68.5571 419.629 69.838 422.149C70.4744 423.41 71.0828 424.767 71.5646 426.25C72.0332 427.734 72.4262 429.345 72.3473 431.107C72.3029 431.98 72.1204 432.902 71.6583 433.756C71.2094 434.614 70.4103 435.315 69.5042 435.716C68.5949 436.128 67.6051 436.236 66.6481 436.22C65.6878 436.198 64.7407 436.039 63.8117 435.808C61.9585 435.327 60.1678 434.573 58.4232 433.672C56.6786 432.766 54.9751 431.715 53.3127 430.546C49.9813 428.219 46.8094 425.448 43.8118 422.372C40.8307 419.284 38.1587 416.029 35.9339 412.63C34.8174 410.934 33.8177 409.199 32.9659 407.428C32.1175 405.657 31.4186 403.843 30.9944 401.976C30.7921 401.04 30.6606 400.09 30.6688 399.129C30.6803 398.174 30.8185 397.187 31.2575 396.291C31.685 395.398 32.4085 394.62 33.28 394.197C34.1449 393.761 35.0739 393.607 35.9471 393.587C37.7098 393.561 39.3081 394.003 40.7764 394.516C42.2448 395.043 43.5833 395.692 44.8247 396.366C47.3044 397.723 49.3828 399.202 51.1438 400.567C52.8983 401.943 54.3322 403.219 55.4667 404.298C56.6046 405.375 57.4383 406.259 57.9924 406.869C58.5383 407.485 58.808 407.824 58.7751 407.857Z" fill="#455A64"/>
<path d="M43.0008 411.793C43.1077 411.826 42.6292 413.429 41.9994 416.371C41.6854 417.841 41.3417 419.649 41.0622 421.76C40.7974 423.872 40.582 426.293 40.6642 428.956C40.7103 430.284 40.8155 431.676 41.0934 433.083C41.3697 434.483 41.7824 435.938 42.5651 437.19C42.9548 437.81 43.4432 438.367 44.0368 438.756C44.6287 439.147 45.3374 439.325 46.0658 439.302C46.7975 439.28 47.5539 439.045 48.2725 438.68C48.9927 438.318 49.6866 437.84 50.341 437.289C51.6549 436.188 52.8387 434.837 53.9322 433.371C55.0191 431.896 56.0255 430.306 56.9413 428.623C58.7879 425.265 60.3155 421.57 61.5602 417.688C62.7836 413.799 63.6666 409.898 64.0957 406.088C64.3177 404.183 64.4131 402.303 64.3753 400.471C64.3276 398.643 64.1385 396.855 63.7011 395.197C63.4841 394.37 63.193 393.579 62.8132 392.867C62.4366 392.155 61.9548 391.526 61.3695 391.087C60.7874 390.648 60.1067 390.385 59.3963 390.362C58.6876 390.336 57.9658 390.51 57.2899 390.791C55.9301 391.362 54.7527 392.314 53.7201 393.298C52.6809 394.288 51.793 395.365 50.9889 396.422C49.3857 398.549 48.1656 400.652 47.1642 402.529C46.1743 404.415 45.413 406.089 44.8211 407.472C43.6405 410.243 43.1077 411.827 43.0008 411.793C42.9564 411.778 43.0419 411.368 43.2475 410.597C43.4629 409.829 43.8033 408.702 44.3262 407.28C44.8458 405.856 45.543 404.132 46.4819 402.187C47.4323 400.249 48.6129 398.077 50.2095 395.852C51.0119 394.743 51.9065 393.612 52.9802 392.546C54.0539 391.489 55.2806 390.441 56.8443 389.749C57.6237 389.41 58.5018 389.171 59.4374 389.193C60.3714 389.206 61.3251 389.553 62.0913 390.125C62.8658 390.696 63.4528 391.464 63.8984 392.28C64.3457 393.099 64.6745 393.972 64.9195 394.867C65.4112 396.659 65.62 398.534 65.6841 400.437C65.7368 402.341 65.648 404.28 65.4309 406.237C65.0083 410.151 64.1155 414.136 62.8658 418.105C61.598 422.065 60.0294 425.832 58.117 429.275C57.1666 430.998 56.1208 432.633 54.9797 434.157C53.8303 435.675 52.5773 437.085 51.1435 438.265C50.4266 438.856 49.6554 439.381 48.8184 439.79C47.9847 440.2 47.0623 440.489 46.1004 440.507C45.1434 440.532 44.165 440.265 43.3955 439.737C42.6193 439.216 42.0389 438.514 41.5982 437.789C40.7185 436.322 40.3206 434.758 40.0542 433.274C39.7911 431.784 39.7138 430.344 39.6974 428.975C39.676 426.235 39.9654 423.782 40.3058 421.65C40.661 419.519 41.0868 417.71 41.4831 416.246C41.8761 414.781 42.2477 413.664 42.5141 412.913C42.7887 412.164 42.9548 411.779 43.0008 411.793Z" fill="#455A64"/>
<path d="M48.3936 404.183C48.4215 404.292 46.8068 404.727 43.9736 405.741C42.5579 406.247 40.8396 406.905 38.8976 407.78C36.9639 408.665 34.7918 409.757 32.572 411.227C31.467 411.965 30.339 412.788 29.2866 413.765C28.2425 414.736 27.2214 415.853 26.5686 417.175C26.2463 417.833 26.0292 418.542 26.0128 419.251C25.9914 419.96 26.2134 420.655 26.6162 421.264C27.0191 421.876 27.6176 422.394 28.305 422.813C28.9923 423.236 29.7635 423.573 30.5758 423.841C32.2037 424.379 33.9746 424.675 35.7965 424.834C37.6217 424.982 39.5044 425.002 41.4167 424.895C45.2447 424.698 49.1894 424.053 53.144 423.068C57.0953 422.063 60.8756 420.761 64.3418 419.121C66.0765 418.307 67.7258 417.399 69.2632 416.404C70.7924 415.401 72.2132 414.301 73.3921 413.056C73.9808 412.436 74.5004 411.773 74.9065 411.076C75.3143 410.38 75.5939 409.64 75.6596 408.91C75.7271 408.183 75.5922 407.466 75.237 406.851C74.8868 406.234 74.359 405.713 73.7637 405.287C72.5617 404.43 71.1345 403.93 69.7549 403.57C68.3671 403.208 66.9825 403.019 65.6605 402.892C63.0082 402.649 60.5796 402.716 58.4568 402.853C56.3323 403.004 54.5088 403.238 53.0223 403.461C50.0494 403.912 48.4199 404.293 48.3936 404.183C48.3821 404.137 48.7767 403.994 49.5397 403.764C50.3059 403.543 51.4422 403.239 52.9286 402.937C54.4134 402.631 56.2452 402.315 58.3927 402.09C60.5401 401.879 63.0083 401.739 65.7411 401.927C67.1059 402.025 68.5381 402.192 70.0098 402.543C71.4732 402.9 73.0106 403.392 74.4214 404.359C75.1186 404.843 75.7846 405.466 76.2581 406.272C76.7383 407.073 76.9438 408.066 76.8616 409.02C76.7843 409.979 76.4407 410.883 75.9802 411.691C75.5198 412.501 74.9493 413.242 74.3179 413.921C73.0517 415.282 71.5686 416.445 69.9851 417.503C68.3934 418.549 66.6981 419.494 64.9206 420.338C61.3689 422.038 57.513 423.375 53.4811 424.402C49.4459 425.407 45.4174 426.055 41.4858 426.24C39.5208 426.339 37.5806 426.309 35.683 426.142C33.7871 425.962 31.9307 425.64 30.1713 425.04C29.2932 424.74 28.4414 424.361 27.6522 423.864C26.8645 423.371 26.1345 422.737 25.6116 421.93C25.087 421.129 24.7993 420.157 24.8421 419.225C24.8766 418.29 25.1676 417.427 25.554 416.671C26.3384 415.151 27.4581 413.99 28.5796 412.982C29.7076 411.974 30.8931 411.15 32.0474 410.416C34.3659 408.956 36.6038 407.91 38.5951 407.079C40.5946 406.26 42.3556 405.67 43.8092 405.237C45.2611 404.801 46.4072 404.529 47.1867 404.361C47.9677 404.2 48.3821 404.137 48.3936 404.183Z" fill="#455A64"/>
<path d="M56.6869 413.702C57.2822 416.064 55.8483 418.462 53.4871 419.057C51.1258 419.652 48.7284 418.22 48.1332 415.857C47.538 413.495 48.9718 411.097 51.333 410.502C53.6959 409.908 56.0917 411.341 56.6869 413.702Z" fill="#455A64"/>
</g>
<defs>
<clipPath id="clip0_842_700479">
<rect width="686" height="569" fill="white"/>
</clipPath>
</defs>
</svg>
