<svg width="537" height="323" viewBox="0 0 537 323" fill="none" xmlns="http://www.w3.org/2000/svg">
<path d="M254.736 41.8092L252.815 23.529L243.595 25.6336L235.652 11.4409L240.601 30.6311L249.953 28.4625L254.736 41.8092Z" fill="#E0E0E0"/>
<path d="M242.47 47.0491L233.904 38.1313L229.866 43.1442L219.781 38.943L230.335 47.0673L234.416 41.9656L242.47 47.0491Z" fill="#E0E0E0"/>
<path d="M274.457 32.7389L279.179 21.2587L273.032 19.4832L272.869 8.45361L269.652 21.4669L275.898 23.2476L274.457 32.7389Z" fill="#F5F5F5"/>
<path d="M347.07 56.2766L354.855 41.95L361.703 46.8791L373.038 37.9971L362.461 52.0186L355.527 46.9905L347.07 56.2766Z" fill="#E0E0E0"/>
<path d="M361.359 64.4497L369.41 60.9766L370.699 65.3917L378.463 65.4383L369.323 67.8377L368.03 63.352L361.359 64.4497Z" fill="#E0E0E0"/>
<path d="M215.949 311.584L230.246 290.068L295.317 289.854L312.23 311.584H215.949Z" fill="#EBEBEB"/>
<path d="M190.66 304.945L204.957 283.429L279.871 283.182L286.941 304.945H190.66Z" fill="#FAFAFA"/>
<path d="M190.66 304.944V307.554L286.941 307.202V304.944H190.66Z" fill="#E0E0E0"/>
<path d="M276.65 297.7C276.65 297.805 260.372 297.889 240.295 297.889C220.212 297.889 203.938 297.804 203.938 297.7C203.938 297.596 220.212 297.511 240.295 297.511C260.372 297.51 276.65 297.595 276.65 297.7Z" fill="#E0E0E0"/>
<path d="M303.875 291.894L323.901 322.139L399.076 322.672L398.808 319.641L374.07 290.294L329.658 283.955L303.875 291.894Z" fill="#E0E0E0"/>
<path d="M304.016 288.804L325.33 319.641H398.811L372.288 287.796L327.876 281.457L304.016 288.804Z" fill="#FAFAFA"/>
<path d="M386.894 313.125C386.894 313.23 373.574 313.314 357.148 313.314C340.715 313.314 327.398 313.229 327.398 313.125C327.398 313.021 340.715 312.936 357.148 312.936C373.574 312.936 386.894 313.02 386.894 313.125Z" fill="#E0E0E0"/>
<path d="M384.487 309.971C384.487 310.075 371.168 310.16 354.741 310.16C338.309 310.16 324.992 310.075 324.992 309.971C324.992 309.866 338.309 309.781 354.741 309.781C371.168 309.781 384.487 309.866 384.487 309.971Z" fill="#E0E0E0"/>
<path d="M382.077 306.816C382.077 306.921 368.758 307.006 352.331 307.006C335.899 307.006 322.582 306.92 322.582 306.816C322.582 306.712 335.899 306.627 352.331 306.627C368.758 306.626 382.077 306.711 382.077 306.816Z" fill="#E0E0E0"/>
<path d="M379.601 303.662C379.601 303.767 366.281 303.851 349.855 303.851C333.422 303.851 320.105 303.766 320.105 303.662C320.105 303.558 333.422 303.473 349.855 303.473C366.281 303.472 379.601 303.557 379.601 303.662Z" fill="#E0E0E0"/>
<path d="M376.366 300.508C376.366 300.612 363.047 300.697 346.62 300.697C330.188 300.697 316.871 300.612 316.871 300.508C316.871 300.404 330.188 300.318 346.62 300.318C363.047 300.318 376.366 300.403 376.366 300.508Z" fill="#E0E0E0"/>
<path d="M373.128 297.353C373.128 297.458 359.809 297.543 343.382 297.543C326.949 297.543 313.633 297.457 313.633 297.353C313.633 297.249 326.949 297.164 343.382 297.164C359.809 297.163 373.128 297.249 373.128 297.353Z" fill="#E0E0E0"/>
<path d="M400.688 173.812L400.523 161.43H408.46L408.734 173.812H400.688Z" fill="#F5F5F5"/>
<path d="M407.986 163.633C407.986 163.691 406.335 163.739 404.298 163.739C402.26 163.739 400.609 163.692 400.609 163.633C400.609 163.575 402.26 163.527 404.298 163.527C406.335 163.528 407.986 163.575 407.986 163.633Z" fill="#E0E0E0"/>
<path d="M407.986 165.544C407.986 165.602 406.335 165.65 404.298 165.65C402.26 165.65 400.609 165.603 400.609 165.544C400.609 165.486 402.26 165.438 404.298 165.438C406.335 165.438 407.986 165.486 407.986 165.544Z" fill="#E0E0E0"/>
<path d="M407.986 167.457C407.986 167.516 406.335 167.563 404.298 167.563C402.26 167.563 400.609 167.516 400.609 167.457C400.609 167.399 402.26 167.351 404.298 167.351C406.335 167.351 407.986 167.398 407.986 167.457Z" fill="#E0E0E0"/>
<path d="M407.986 169.367C407.986 169.425 406.335 169.473 404.298 169.473C402.26 169.473 400.609 169.426 400.609 169.367C400.609 169.309 402.26 169.261 404.298 169.261C406.335 169.261 407.986 169.308 407.986 169.367Z" fill="#E0E0E0"/>
<path d="M407.986 171.277C407.986 171.336 406.335 171.383 404.298 171.383C402.26 171.383 400.609 171.336 400.609 171.277C400.609 171.219 402.26 171.171 404.298 171.171C406.335 171.171 407.986 171.218 407.986 171.277Z" fill="#E0E0E0"/>
<path d="M399.852 161.022H487.815C488.901 165.123 488.748 169.634 487.815 174.405H400.227V173.494H405.579C406.974 173.494 408.106 172.533 408.106 171.348V163.943C408.106 162.757 406.975 161.796 405.579 161.796H399.852V161.022Z" fill="#EBEBEB"/>
<path d="M482.53 169.26H419.309C418.535 169.26 417.906 168.626 417.906 167.842V167.069C417.906 166.286 418.534 165.65 419.309 165.65H482.53C483.305 165.65 483.933 166.286 483.933 167.069V167.842C483.933 168.626 483.305 169.26 482.53 169.26Z" fill="white"/>
<path d="M479.632 143.839C479.632 144.478 479.632 159.971 479.632 159.971H457.723V143.839H479.632Z" fill="#F5F5F5"/>
<path d="M408.887 152.056C408.891 152.198 408.895 152.341 408.9 152.483C409.078 157.364 411.987 161.14 415.417 161.14H480.665V159.973H465.176C462.05 159.973 459.515 156.361 459.515 151.907C459.515 147.452 462.05 143.841 465.176 143.841H480.665V142.126L415.398 142.441C411.714 142.459 408.753 146.811 408.887 152.056Z" fill="#E0E0E0"/>
<path d="M479.633 152.121C479.633 152.213 475.128 152.287 469.573 152.287C464.015 152.287 459.512 152.212 459.512 152.121C459.512 152.03 464.015 151.956 469.573 151.956C475.128 151.956 479.633 152.03 479.633 152.121Z" fill="#E0E0E0"/>
<path d="M479.324 155.758C479.324 155.849 475.062 155.923 469.805 155.923C464.547 155.923 460.285 155.849 460.285 155.758C460.285 155.666 464.547 155.593 469.805 155.593C475.062 155.592 479.324 155.666 479.324 155.758Z" fill="#E0E0E0"/>
<path d="M479.646 159.082C479.646 159.173 475.814 159.247 471.087 159.247C466.359 159.247 462.527 159.173 462.527 159.082C462.527 158.991 466.359 158.917 471.087 158.917C475.813 158.917 479.646 158.99 479.646 159.082Z" fill="#E0E0E0"/>
<path d="M479.643 148.853C479.643 148.944 475.231 149.018 469.789 149.018C464.346 149.018 459.934 148.944 459.934 148.853C459.934 148.761 464.345 148.688 469.789 148.688C475.23 148.688 479.643 148.762 479.643 148.853Z" fill="#E0E0E0"/>
<path d="M479.309 145.591C479.309 145.682 475.382 145.756 470.538 145.756C465.693 145.756 461.766 145.682 461.766 145.591C461.766 145.5 465.693 145.426 470.538 145.426C475.382 145.426 479.309 145.499 479.309 145.591Z" fill="#E0E0E0"/>
<path d="M451.906 153.421H416.231C415.827 153.421 415.5 153.091 415.5 152.682V151.229C415.5 150.82 415.827 150.49 416.231 150.49H451.906C452.31 150.49 452.637 150.82 452.637 151.229V152.682C452.637 153.09 452.31 153.421 451.906 153.421Z" fill="white"/>
<path d="M516.63 254.848C516.63 254.953 407.483 255.038 272.876 255.038C138.221 255.038 29.0977 254.953 29.0977 254.848C29.0977 254.744 138.221 254.659 272.876 254.659C407.484 254.659 516.63 254.744 516.63 254.848Z" fill="#263238"/>
<path d="M421.924 232.104H390.04C385.149 232.104 381.184 228.094 381.184 223.146C381.184 218.199 385.149 214.188 390.04 214.188H421.924V232.104Z" fill="#455A64"/>
<path d="M483.988 217.163H413.105V214.189H483.988C484.8 214.189 485.458 214.855 485.458 215.677C485.458 216.497 484.8 217.163 483.988 217.163Z" fill="#455A64"/>
<path d="M483.988 232.104H413.105V229.13H483.988C484.8 229.13 485.458 229.796 485.458 230.616C485.458 231.438 484.8 232.104 483.988 232.104Z" fill="#455A64"/>
<path d="M483.295 229.13H421.174C417.906 229.13 415.258 226.451 415.258 223.146C415.258 219.842 417.906 217.163 421.174 217.163H483.295C481.629 221.152 481.629 225.141 483.295 229.13Z" fill="#F5F5F5"/>
<g opacity="0.3">
<path d="M415.258 232.104H390.067C385.161 232.104 381.184 228.081 381.184 223.119C381.184 218.187 385.136 214.188 390.013 214.188H415.932C409.518 218.118 409.998 227.529 415.258 232.104Z" fill="black"/>
</g>
<path d="M475.743 223.701C475.743 223.76 462.993 223.808 447.267 223.808C431.536 223.808 418.789 223.76 418.789 223.701C418.789 223.642 431.537 223.594 447.267 223.594C462.992 223.594 475.743 223.642 475.743 223.701Z" fill="#263238"/>
<path d="M481.615 226.361C481.615 226.42 468.864 226.468 453.139 226.468C437.408 226.468 424.66 226.42 424.66 226.361C424.66 226.302 437.408 226.254 453.139 226.254C468.864 226.254 481.615 226.302 481.615 226.361Z" fill="#263238"/>
<path d="M479.891 219.93C479.891 219.989 467.14 220.037 451.416 220.037C435.685 220.037 422.938 219.989 422.938 219.93C422.938 219.871 435.686 219.823 451.416 219.823C467.14 219.823 479.891 219.871 479.891 219.93Z" fill="#263238"/>
<path d="M412.14 230.848C412.14 230.907 406.172 230.955 398.811 230.955C391.447 230.955 385.48 230.907 385.48 230.848C385.48 230.789 391.448 230.741 398.811 230.741C406.172 230.741 412.14 230.789 412.14 230.848Z" fill="#263238"/>
<path d="M412.14 215.675C412.14 215.734 406.172 215.782 398.811 215.782C391.447 215.782 385.48 215.734 385.48 215.675C385.48 215.616 391.448 215.568 398.811 215.568C406.172 215.568 412.14 215.616 412.14 215.675Z" fill="#263238"/>
<path d="M420.019 254.848H380.476C374.177 254.848 369.07 249.683 369.07 243.312C369.07 236.941 374.177 231.776 380.476 231.776H420.019C420.858 231.776 421.537 232.464 421.537 233.311V253.312C421.537 254.161 420.858 254.848 420.019 254.848Z" fill="#6B75F8"/>
<path d="M501.457 235.607H410.172V231.777H501.457C502.503 231.777 503.351 232.635 503.351 233.693C503.35 234.75 502.503 235.607 501.457 235.607Z" fill="#6B75F8"/>
<path d="M501.457 254.848H410.172V251.019H501.457C502.503 251.019 503.351 251.876 503.351 252.934C503.35 253.992 502.503 254.848 501.457 254.848Z" fill="#6B75F8"/>
<path d="M500.573 251.018H420.572C416.364 251.018 412.953 247.569 412.953 243.312C412.953 239.056 416.364 235.606 420.572 235.606H500.573C498.428 240.744 498.428 245.881 500.573 251.018Z" fill="#F5F5F5"/>
<g opacity="0.4">
<path d="M412.952 254.848H380.354C374.122 254.848 369.07 249.739 369.07 243.436C369.07 236.996 374.232 231.776 380.598 231.776H413.821C405.561 236.837 406.179 248.956 412.952 254.848Z" fill="black"/>
</g>
<path d="M490.856 244.028C490.856 244.087 474.435 244.135 454.184 244.135C433.925 244.135 417.508 244.087 417.508 244.028C417.508 243.969 433.925 243.921 454.184 243.921C474.435 243.921 490.856 243.969 490.856 244.028Z" fill="#263238"/>
<path d="M498.394 247.454C498.394 247.513 481.973 247.561 461.722 247.561C441.463 247.561 425.047 247.513 425.047 247.454C425.047 247.395 441.464 247.347 461.722 247.347C481.973 247.347 498.394 247.394 498.394 247.454Z" fill="#263238"/>
<path d="M496.168 240.85C496.168 240.909 479.748 240.957 459.496 240.957C439.238 240.957 422.82 240.909 422.82 240.85C422.82 240.791 439.238 240.743 459.496 240.743C479.747 240.743 496.168 240.79 496.168 240.85Z" fill="#263238"/>
<path d="M408.939 253.232C408.939 253.291 401.253 253.339 391.773 253.339C382.29 253.339 374.605 253.291 374.605 253.232C374.605 253.173 382.29 253.125 391.773 253.125C401.252 253.125 408.939 253.173 408.939 253.232Z" fill="#263238"/>
<path d="M408.939 233.692C408.939 233.751 401.253 233.799 391.773 233.799C382.29 233.799 374.605 233.751 374.605 233.692C374.605 233.634 382.29 233.585 391.773 233.585C401.252 233.585 408.939 233.633 408.939 233.692Z" fill="#263238"/>
<path d="M441.598 220.007V227.182L444.056 225.587L446.799 227.182V220.007H441.598Z" fill="#6B75F8"/>
<path d="M390.572 213.356L390.379 194.049H399.687L400.008 213.356H390.572Z" fill="#F5F5F5"/>
<path d="M399.131 197.484C399.131 197.575 397.194 197.649 394.806 197.649C392.417 197.649 390.48 197.575 390.48 197.484C390.48 197.393 392.417 197.319 394.806 197.319C397.194 197.318 399.131 197.392 399.131 197.484Z" fill="#E0E0E0"/>
<path d="M399.131 200.464C399.131 200.555 397.194 200.629 394.806 200.629C392.417 200.629 390.48 200.555 390.48 200.464C390.48 200.373 392.417 200.299 394.806 200.299C397.194 200.299 399.131 200.373 399.131 200.464Z" fill="#E0E0E0"/>
<path d="M399.131 203.444C399.131 203.535 397.194 203.609 394.806 203.609C392.417 203.609 390.48 203.535 390.48 203.444C390.48 203.353 392.417 203.278 394.806 203.278C397.194 203.278 399.131 203.353 399.131 203.444Z" fill="#E0E0E0"/>
<path d="M399.131 206.423C399.131 206.515 397.194 206.588 394.806 206.588C392.417 206.588 390.48 206.514 390.48 206.423C390.48 206.332 392.417 206.258 394.806 206.258C397.194 206.258 399.131 206.332 399.131 206.423Z" fill="#E0E0E0"/>
<path d="M399.131 209.403C399.131 209.494 397.194 209.568 394.806 209.568C392.417 209.568 390.48 209.494 390.48 209.403C390.48 209.312 392.417 209.237 394.806 209.237C397.194 209.237 399.131 209.312 399.131 209.403Z" fill="#E0E0E0"/>
<path d="M389.574 193.41H492.735C494.008 199.803 493.829 206.839 492.735 214.279H390.014V212.859H396.291C397.928 212.859 399.255 211.361 399.255 209.512V197.963C399.255 196.115 397.928 194.616 396.291 194.616H389.574V193.41Z" fill="#6B75F8"/>
<path d="M489.181 214.677C489.101 214.677 489.035 209.883 489.035 203.971C489.035 198.057 489.101 193.265 489.181 193.265C489.262 193.265 489.328 198.057 489.328 203.971C489.328 209.884 489.263 214.677 489.181 214.677Z" fill="#263238"/>
<path d="M404.759 214.677C404.679 214.677 404.613 209.883 404.613 203.971C404.613 198.057 404.679 193.265 404.759 193.265C404.84 193.265 404.906 198.057 404.906 203.971C404.906 209.884 404.84 214.677 404.759 214.677Z" fill="#263238"/>
<path d="M490.982 214.678C490.901 214.678 490.836 209.884 490.836 203.972C490.836 198.058 490.901 193.266 490.982 193.266C491.063 193.266 491.129 198.058 491.129 203.972C491.129 209.885 491.063 214.678 490.982 214.678Z" fill="#263238"/>
<path d="M403.064 214.677C402.983 214.677 402.918 209.883 402.918 203.971C402.918 198.057 402.983 193.265 403.064 193.265C403.145 193.265 403.21 198.057 403.21 203.971C403.21 209.884 403.145 214.677 403.064 214.677Z" fill="#263238"/>
<path d="M477.303 206.259H421.579C420.804 206.259 420.176 205.624 420.176 204.84V202.048C420.176 201.265 420.803 200.629 421.579 200.629H477.303C478.078 200.629 478.706 201.264 478.706 202.048V204.84C478.706 205.623 478.078 206.259 477.303 206.259Z" fill="white"/>
<path d="M481.294 175.845C481.294 176.484 481.294 191.977 481.294 191.977H453.648V175.845H481.294Z" fill="#EBEBEB"/>
<path d="M391.998 184.06C392.003 184.202 392.008 184.345 392.014 184.487C392.239 189.368 395.91 193.144 400.238 193.144H482.572V191.977H463.026C459.081 191.977 455.883 188.365 455.883 183.911C455.883 179.456 459.081 175.845 463.026 175.845H482.572V174.13L400.214 174.445C395.565 174.463 391.828 178.815 391.998 184.06Z" fill="#455A64"/>
<path d="M481.293 184.126C481.293 184.218 475.609 184.291 468.599 184.291C461.585 184.291 455.902 184.217 455.902 184.126C455.902 184.035 461.585 183.961 468.599 183.961C475.61 183.961 481.293 184.034 481.293 184.126Z" fill="#E0E0E0"/>
<path d="M480.896 187.761C480.896 187.852 475.517 187.927 468.884 187.927C462.248 187.927 456.871 187.852 456.871 187.761C456.871 187.67 462.248 187.596 468.884 187.596C475.517 187.595 480.896 187.67 480.896 187.761Z" fill="#E0E0E0"/>
<path d="M481.281 191.085C481.281 191.176 476.445 191.25 470.481 191.25C464.515 191.25 459.68 191.176 459.68 191.085C459.68 190.994 464.515 190.919 470.481 190.919C476.445 190.919 481.281 190.993 481.281 191.085Z" fill="#E0E0E0"/>
<path d="M481.296 180.86C481.296 180.951 475.728 181.025 468.861 181.025C461.992 181.025 456.426 180.951 456.426 180.86C456.426 180.768 461.992 180.694 468.861 180.694C475.729 180.694 481.296 180.769 481.296 180.86Z" fill="#E0E0E0"/>
<path d="M480.895 177.595C480.895 177.687 475.939 177.76 469.827 177.76C463.713 177.76 458.758 177.686 458.758 177.595C458.758 177.504 463.713 177.43 469.827 177.43C475.94 177.43 480.895 177.503 480.895 177.595Z" fill="#E0E0E0"/>
<path d="M446.498 185.426H401.098C400.694 185.426 400.367 185.095 400.367 184.687V183.233C400.367 182.825 400.694 182.494 401.098 182.494H446.498C446.901 182.494 447.228 182.825 447.228 183.233V184.687C447.228 185.095 446.901 185.426 446.498 185.426Z" fill="white"/>
<path d="M417.895 193.41C418.282 193.593 470.294 199.701 470.294 199.701L480.66 193.144L417.895 193.41Z" fill="white"/>
<path d="M417.895 193.41C418.893 193.402 425.051 193.351 436.125 193.26C447.512 193.181 463.235 193.074 480.659 192.954L481.32 192.949L480.759 193.304C480.462 193.492 480.139 193.695 479.817 193.9C476.588 195.941 473.426 197.941 470.392 199.859L470.336 199.894L470.272 199.886C455.382 198.097 442.288 196.524 432.897 195.394C428.226 194.804 424.477 194.33 421.877 194.001C420.601 193.825 419.608 193.688 418.915 193.593C418.584 193.548 418.31 193.499 418.138 193.457C418.026 193.435 417.957 193.422 417.895 193.41C419.716 193.622 440.698 196.066 470.315 199.516L470.197 199.542C473.23 197.623 476.391 195.622 479.618 193.578C479.941 193.374 480.263 193.171 480.56 192.982L480.66 193.332C463.322 193.36 447.677 193.385 436.346 193.403C425.138 193.407 418.904 193.409 417.895 193.41Z" fill="#263238"/>
<path d="M429.922 231.777L453.146 243.921L473.887 231.408L429.922 231.777Z" fill="white"/>
<path d="M429.922 231.776C430.871 231.763 434.976 231.705 442.579 231.598C450.479 231.484 461.54 231.319 473.885 231.219L474.575 231.213L473.983 231.57C473.121 232.091 472.198 232.648 471.268 233.209C464.754 237.131 458.6 240.835 453.231 244.066L453.151 244.115L453.069 244.071C446.169 240.41 440.362 237.329 436.256 235.15C432.442 233.118 430.527 232.098 429.922 231.776C431.206 232.437 439.602 236.759 453.223 243.77L453.06 243.775C458.423 240.533 464.57 236.817 471.077 232.883C472.007 232.322 472.93 231.765 473.792 231.245L473.889 231.597C461.652 231.702 450.73 231.722 442.794 231.74C435.062 231.762 430.887 231.773 429.922 231.776Z" fill="#263238"/>
<path d="M72.42 227.752H40.5361C35.6447 227.752 31.6797 223.742 31.6797 218.795C31.6797 213.847 35.6447 209.837 40.5361 209.837H72.42V227.752Z" fill="#455A64"/>
<path d="M134.484 212.811H63.6016V209.837H134.484C135.296 209.837 135.954 210.502 135.954 211.324C135.954 212.145 135.296 212.811 134.484 212.811Z" fill="#455A64"/>
<path d="M134.484 227.752H63.6016V224.778H134.484C135.296 224.778 135.954 225.444 135.954 226.266C135.954 227.087 135.296 227.752 134.484 227.752Z" fill="#455A64"/>
<path d="M133.795 224.779H71.6741C68.4072 224.779 65.7578 222.1 65.7578 218.795C65.7578 215.49 68.4065 212.812 71.6741 212.812H133.795C132.129 216.8 132.129 220.789 133.795 224.779Z" fill="#F5F5F5"/>
<g opacity="0.3">
<path d="M65.7544 227.752H40.5635C35.6577 227.752 31.6797 223.73 31.6797 218.767C31.6797 213.835 35.6325 209.837 40.5088 209.837H66.4281C60.0152 213.767 60.4946 223.177 65.7544 227.752Z" fill="black"/>
</g>
<path d="M126.243 219.35C126.243 219.409 113.493 219.457 97.7671 219.457C82.0364 219.457 69.2891 219.409 69.2891 219.35C69.2891 219.291 82.0371 219.243 97.7671 219.243C113.493 219.243 126.243 219.291 126.243 219.35Z" fill="#263238"/>
<path d="M132.111 222.01C132.111 222.069 119.361 222.117 103.635 222.117C87.9043 222.117 75.1562 222.069 75.1562 222.01C75.1562 221.951 87.9043 221.903 103.635 221.903C119.361 221.903 132.111 221.951 132.111 222.01Z" fill="#263238"/>
<path d="M130.372 215.578C130.372 215.637 117.622 215.685 101.896 215.685C86.1653 215.685 73.418 215.637 73.418 215.578C73.418 215.519 86.166 215.471 101.896 215.471C117.622 215.471 130.372 215.519 130.372 215.578Z" fill="#263238"/>
<path d="M62.6358 226.497C62.6358 226.556 56.667 226.604 49.3069 226.604C41.9432 226.604 35.9766 226.556 35.9766 226.497C35.9766 226.438 41.9439 226.39 49.3069 226.39C56.667 226.39 62.6358 226.437 62.6358 226.497Z" fill="#263238"/>
<path d="M62.6358 211.324C62.6358 211.383 56.667 211.431 49.3069 211.431C41.9432 211.431 35.9766 211.383 35.9766 211.324C35.9766 211.265 41.9439 211.217 49.3069 211.217C56.667 211.217 62.6358 211.265 62.6358 211.324Z" fill="#263238"/>
<path d="M70.5162 250.498H30.9722C24.673 250.498 19.5664 245.333 19.5664 238.962C19.5664 232.59 24.673 227.425 30.9722 227.425H70.5155C71.354 227.425 72.0334 228.113 72.0334 228.961V248.962C72.0342 249.81 71.3547 250.498 70.5162 250.498Z" fill="#6B75F8"/>
<path d="M151.954 231.255H60.668V227.425H151.954C152.999 227.425 153.847 228.283 153.847 229.341C153.847 230.398 152.999 231.255 151.954 231.255Z" fill="#6B75F8"/>
<path d="M151.954 250.498H60.668V246.668H151.954C152.999 246.668 153.847 247.526 153.847 248.583C153.847 249.64 152.999 250.498 151.954 250.498Z" fill="#6B75F8"/>
<path d="M151.069 246.668H71.0677C66.8601 246.668 63.4492 243.218 63.4492 238.961C63.4492 234.706 66.8601 231.256 71.0677 231.256H151.069C148.924 236.393 148.924 241.531 151.069 246.668Z" fill="#F5F5F5"/>
<g opacity="0.4">
<path d="M63.4491 250.498H30.8498C24.6183 250.498 19.5664 245.388 19.5664 239.085C19.5664 232.646 24.7277 227.425 31.0938 227.425H64.3164C56.058 232.485 56.6749 244.605 63.4491 250.498Z" fill="black"/>
</g>
<path d="M141.352 239.677C141.352 239.736 124.931 239.784 104.68 239.784C84.4212 239.784 68.0039 239.736 68.0039 239.677C68.0039 239.618 84.4212 239.57 104.68 239.57C124.932 239.57 141.352 239.618 141.352 239.677Z" fill="#263238"/>
<path d="M148.89 243.102C148.89 243.161 132.47 243.209 112.218 243.209C91.9596 243.209 75.543 243.161 75.543 243.102C75.543 243.043 91.9603 242.995 112.218 242.995C132.47 242.995 148.89 243.043 148.89 243.102Z" fill="#263238"/>
<path d="M146.665 236.498C146.665 236.557 130.244 236.605 109.992 236.605C89.7337 236.605 73.3164 236.557 73.3164 236.498C73.3164 236.439 89.7337 236.391 109.992 236.391C130.244 236.391 146.665 236.438 146.665 236.498Z" fill="#263238"/>
<path d="M59.4347 248.88C59.4347 248.939 51.7486 248.987 42.2688 248.987C32.7862 248.987 25.1016 248.939 25.1016 248.88C25.1016 248.821 32.7862 248.773 42.2688 248.773C51.7486 248.773 59.4347 248.821 59.4347 248.88Z" fill="#263238"/>
<path d="M59.4347 229.34C59.4347 229.399 51.7486 229.447 42.2688 229.447C32.7862 229.447 25.1016 229.399 25.1016 229.34C25.1016 229.281 32.7862 229.233 42.2688 229.233C51.7486 229.233 59.4347 229.281 59.4347 229.34Z" fill="#263238"/>
<path d="M92.0938 215.655V222.83L94.5531 221.236L97.2953 222.83V215.655H92.0938Z" fill="#6B75F8"/>
<path d="M72.0478 211.997H36.2385C30.5345 211.997 25.9102 207.119 25.9102 201.102C25.9102 195.084 30.5345 190.206 36.2385 190.206H72.0478C72.8071 190.206 73.4225 190.855 73.4225 191.656V210.547C73.4225 211.348 72.8071 211.997 72.0478 211.997Z" fill="#6B75F8"/>
<path d="M145.801 193.824H63.1367V190.207H145.802C146.749 190.207 147.516 191.017 147.516 192.016C147.516 193.014 146.748 193.824 145.801 193.824Z" fill="#6B75F8"/>
<path d="M145.801 211.997H63.1367V208.38H145.802C146.749 208.38 147.516 209.189 147.516 210.188C147.516 211.188 146.748 211.997 145.801 211.997Z" fill="#6B75F8"/>
<path d="M144.995 208.38H72.5479C68.7376 208.38 65.6484 205.121 65.6484 201.102C65.6484 197.082 68.7376 193.823 72.5479 193.823H144.994C143.052 198.676 143.052 203.528 144.995 208.38Z" fill="#F5F5F5"/>
<g opacity="0.4">
<path d="M65.6478 211.998H36.1276C30.4848 211.998 25.9102 207.172 25.9102 201.22C25.9102 195.138 30.5842 190.208 36.3493 190.208H66.4345C58.9549 194.987 59.5142 206.433 65.6478 211.998Z" fill="black"/>
</g>
<path d="M136.199 201.778C136.199 201.834 121.329 201.879 102.99 201.879C84.6443 201.879 69.7773 201.834 69.7773 201.778C69.7773 201.722 84.6443 201.677 102.99 201.677C121.329 201.677 136.199 201.723 136.199 201.778Z" fill="#263238"/>
<path d="M143.026 205.013C143.026 205.069 128.156 205.114 109.817 205.114C91.4717 205.114 76.6055 205.069 76.6055 205.013C76.6055 204.957 91.4725 204.912 109.817 204.912C128.156 204.912 143.026 204.957 143.026 205.013Z" fill="#263238"/>
<path d="M141.003 198.775C141.003 198.831 126.134 198.876 107.795 198.876C89.449 198.876 74.582 198.831 74.582 198.775C74.582 198.719 89.449 198.674 107.795 198.674C126.134 198.675 141.003 198.719 141.003 198.775Z" fill="#263238"/>
<path d="M62.0094 210.47C62.0094 210.526 55.0488 210.572 46.4644 210.572C37.8772 210.572 30.918 210.526 30.918 210.47C30.918 210.414 37.8772 210.369 46.4644 210.369C55.0488 210.37 62.0094 210.415 62.0094 210.47Z" fill="#263238"/>
<path d="M62.0094 192.015C62.0094 192.071 55.0488 192.116 46.4644 192.116C37.8772 192.116 30.918 192.071 30.918 192.015C30.918 191.959 37.8772 191.914 46.4644 191.914C55.0488 191.914 62.0094 191.959 62.0094 192.015Z" fill="#263238"/>
<path d="M153.855 185.105H25.9141V190.206H153.855V185.105Z" fill="white"/>
<path d="M153.868 190.225H25.8906V185.086H153.868V190.225ZM25.9266 190.188H153.832V185.124H25.9266V190.188Z" fill="#263238"/>
<path d="M82.125 185.116C82.9657 185.625 111.354 199.231 111.354 199.231L139.667 184.597L82.125 185.116Z" fill="#E0E0E0"/>
<path d="M82.125 185.116C83.0967 185.103 88.6531 185.028 98.7518 184.891C109.167 184.768 123.582 184.597 139.665 184.407L140.463 184.398L139.753 184.766C138.815 185.25 137.81 185.769 136.798 186.293C127.58 191.049 118.9 195.527 111.429 199.38L111.356 199.418L111.282 199.383C102.574 195.165 95.2754 191.63 90.1357 189.14C87.5965 187.886 85.5906 186.896 84.2022 186.211C83.5343 185.869 83.0146 185.604 82.6461 185.416C82.4683 185.324 82.3287 185.237 82.2459 185.188C82.1948 185.158 82.1595 185.137 82.125 185.116C83.4054 185.727 94.1267 190.836 111.425 199.08L111.279 199.082C118.744 195.216 127.416 190.725 136.627 185.954C137.639 185.431 138.645 184.912 139.582 184.428L139.669 184.785C123.668 184.885 109.326 184.975 98.9641 185.039C88.7366 185.087 83.1082 185.112 82.125 185.116Z" fill="#263238"/>
<path d="M65.6524 185.105H25.9141V190.206H65.6524V185.105Z" fill="#E0E0E0"/>
<path d="M65.6643 190.225H25.8906V185.086H65.6643V190.225ZM25.9266 190.188H65.629V185.124H25.9266V190.188Z" fill="#263238"/>
<path d="M380.212 294.398L295.059 293.992C295.059 293.992 295.621 295.546 292.093 295.546L263.94 295.36C263.94 295.36 261.861 295.546 261.825 293.992C261.825 293.992 195.811 295.044 179.506 295.473C178.285 295.506 176.126 294.807 177.144 293.341L182.832 286.895L277.017 278.244L343.828 284.88L366.738 277.054H367.496C368.123 277.054 368.712 277.34 369.078 277.821L380.843 293.294C381.174 293.769 380.813 294.4 380.212 294.398Z" fill="#455A64"/>
<g opacity="0.2">
<path d="M344.206 292.557L192.512 293.669L228.188 283.219L272.662 284.398L317.159 282.725L344.206 292.557Z" fill="black"/>
</g>
<path d="M277.859 289.726L277.012 272.073C277.012 272.073 276.843 262.363 289.207 259.127C301.572 255.89 316.985 260.009 331.382 260.745C345.779 261.481 345.61 260.451 345.61 260.451L357.297 277.517L311.396 283.843C311.396 283.843 284.804 285.314 284.296 285.461C283.787 285.607 277.859 289.726 277.859 289.726Z" fill="#FAFAFA"/>
<path d="M278.019 290.353L277.023 273.765C277.023 273.765 277.192 264.055 264.828 260.819C252.464 257.583 237.05 261.701 222.653 262.437C212.582 262.952 209.458 262.865 208.491 262.767C208.209 262.739 207.935 262.86 207.789 263.072L196.738 279.208L242.64 285.534C242.64 285.534 269.232 287.005 269.74 287.152C270.248 287.299 278.019 290.353 278.019 290.353Z" fill="#FAFAFA"/>
<path d="M377.292 293.109L357.305 277.515C357.305 277.515 315.909 270.895 301.85 273.249C287.792 275.603 279.798 280.164 277.867 289.873L291.349 293.109C291.349 293.109 299.141 288.99 309.303 288.843C319.466 288.696 344.872 293.109 344.872 293.109H377.292Z" fill="#E0E0E0"/>
<path d="M263.562 293.11L277.79 289.726C277.79 289.726 276.776 274.298 253.663 271.724C253.663 271.724 247.133 269.719 223.928 273.838C200.724 277.957 198.352 277.81 198.352 277.81L179.043 293.992C179.043 293.992 190.561 294.875 200.046 293.11C209.531 291.345 226.13 285.313 244.084 287.078C262.039 288.843 263.562 293.11 263.562 293.11Z" fill="#E0E0E0"/>
<path d="M357.302 277.516L345.992 261.001L366.057 276.144L378.73 293.11H377.289L357.302 277.516Z" fill="#E0E0E0"/>
<path d="M198.426 277.81L207.642 263.16C207.642 263.16 189.282 278.26 189.119 278.684C188.957 279.107 179.117 293.992 179.117 293.992L198.426 277.81Z" fill="#E0E0E0"/>
<path d="M292.092 293.11H263.637L277.865 289.726L278.61 289.873" fill="#263238"/>
<path d="M277.865 289.726C277.959 289.723 277.863 285.87 277.65 281.124C277.437 276.375 277.189 272.53 277.095 272.534C277 272.537 277.097 276.389 277.31 281.137C277.522 285.884 277.771 289.73 277.865 289.726Z" fill="#263238"/>
<path d="M337.355 274.789C337.354 274.8 337.488 274.828 337.745 274.872C338.034 274.919 338.408 274.979 338.875 275.055C339.898 275.206 341.32 275.418 343.076 275.678C346.683 276.185 351.651 276.883 357.274 277.674L357.196 277.642C358.071 278.28 358.989 278.949 359.923 279.629C365.086 283.363 369.759 286.743 373.177 289.214C374.861 290.412 376.233 291.389 377.217 292.09C377.677 292.409 378.045 292.664 378.326 292.858C378.582 293.032 378.72 293.118 378.727 293.109C378.734 293.1 378.61 292.996 378.368 292.807C378.097 292.6 377.742 292.328 377.298 291.99C376.33 291.269 374.979 290.265 373.323 289.033C369.921 286.542 365.27 283.136 360.13 279.373C359.195 278.693 358.276 278.025 357.4 277.388L357.365 277.363L357.322 277.357C351.692 276.609 346.718 275.948 343.107 275.468C341.345 275.247 339.918 275.069 338.891 274.94C338.422 274.888 338.044 274.845 337.753 274.813C337.494 274.788 337.357 274.779 337.355 274.789Z" fill="#263238"/>
<path d="M279.727 280.463C279.732 280.467 279.774 280.423 279.854 280.336C279.944 280.233 280.058 280.104 280.199 279.944C280.501 279.599 280.96 279.099 281.592 278.496C282.857 277.297 284.868 275.69 287.723 274.289C290.555 272.86 294.224 271.7 298.416 271.051C302.608 270.385 307.297 270.206 312.207 270.185C322.039 270.131 330.914 271.033 337.272 271.979C340.454 272.449 343.014 272.915 344.781 273.247C345.644 273.414 346.325 273.544 346.814 273.639C347.031 273.678 347.206 273.709 347.345 273.734C347.465 273.754 347.527 273.761 347.528 273.756C347.53 273.751 347.47 273.732 347.352 273.702C347.216 273.669 347.044 273.627 346.829 273.575C346.368 273.47 345.688 273.309 344.808 273.124C343.048 272.754 340.492 272.253 337.31 271.754C330.952 270.749 322.06 269.809 312.205 269.863C307.287 269.884 302.581 270.071 298.363 270.758C294.147 271.427 290.452 272.62 287.61 274.087C284.746 275.526 282.74 277.174 281.497 278.408C280.875 279.029 280.431 279.543 280.145 279.903C280.014 280.072 279.909 280.208 279.826 280.316C279.756 280.41 279.723 280.46 279.727 280.463Z" fill="#263238"/>
<path d="M279.727 278.309C279.732 278.312 279.772 278.272 279.846 278.192C279.931 278.096 280.036 277.976 280.167 277.828C280.303 277.665 280.481 277.472 280.697 277.247C280.907 277.017 281.158 276.76 281.453 276.482C282.606 275.35 284.459 273.855 287.058 272.479C289.645 271.091 292.998 269.899 296.859 269.169C300.72 268.426 305.058 268.141 309.608 268.061C318.719 267.871 326.961 268.502 332.88 269.219C335.842 269.573 338.228 269.928 339.876 270.188C340.679 270.316 341.312 270.416 341.772 270.489C341.973 270.518 342.136 270.541 342.267 270.561C342.379 270.576 342.437 270.58 342.437 270.575C342.439 270.57 342.383 270.554 342.273 270.529C342.144 270.501 341.983 270.468 341.785 270.426C341.354 270.341 340.72 270.209 339.898 270.065C338.256 269.767 335.873 269.377 332.91 268.994C326.991 268.218 318.732 267.549 309.601 267.739C305.042 267.82 300.681 268.114 296.796 268.879C292.911 269.628 289.533 270.855 286.939 272.281C284.333 273.695 282.488 275.23 281.357 276.396C281.068 276.683 280.823 276.948 280.621 277.185C280.412 277.417 280.242 277.618 280.113 277.788C279.994 277.944 279.897 278.07 279.819 278.172C279.754 278.259 279.723 278.306 279.727 278.309Z" fill="#263238"/>
<path d="M279.727 276.154C279.732 276.158 279.772 276.118 279.845 276.038C279.929 275.943 280.034 275.825 280.163 275.679C280.298 275.517 280.474 275.325 280.688 275.103C280.896 274.875 281.143 274.62 281.436 274.344C282.578 273.223 284.409 271.738 286.978 270.367C289.539 268.989 292.851 267.784 296.674 267.052C300.494 266.299 304.792 266 309.299 265.913C318.324 265.709 326.491 266.308 332.356 267.001C335.291 267.343 337.658 267.686 339.29 267.938C340.085 268.061 340.714 268.157 341.17 268.229C341.369 268.257 341.53 268.28 341.66 268.298C341.771 268.312 341.828 268.316 341.829 268.31C341.831 268.305 341.775 268.29 341.666 268.265C341.538 268.238 341.379 268.205 341.182 268.165C340.755 268.082 340.127 267.954 339.312 267.814C337.686 267.524 335.321 267.147 332.386 266.776C326.52 266.024 318.336 265.387 309.29 265.591C304.775 265.679 300.454 265.987 296.609 266.761C292.762 267.515 289.425 268.754 286.859 270.17C284.281 271.578 282.459 273.104 281.339 274.259C281.053 274.542 280.811 274.806 280.61 275.041C280.403 275.271 280.234 275.471 280.108 275.64C279.99 275.794 279.894 275.918 279.817 276.02C279.753 276.105 279.723 276.151 279.727 276.154Z" fill="#263238"/>
<path d="M279.727 274C279.732 274.003 279.771 273.965 279.843 273.886C279.926 273.792 280.028 273.677 280.154 273.535C280.421 273.222 280.832 272.772 281.392 272.221C282.507 271.12 284.24 269.611 286.681 268.15C289.112 266.691 292.257 265.27 295.997 264.537C299.728 263.752 303.954 263.715 308.365 263.766C317.203 263.82 325.197 264.176 330.955 264.75C333.834 265.027 336.156 265.318 337.758 265.544C338.537 265.654 339.153 265.742 339.602 265.805C339.797 265.83 339.954 265.85 340.082 265.867C340.191 265.879 340.247 265.883 340.248 265.877C340.249 265.871 340.195 265.857 340.088 265.834C339.961 265.809 339.805 265.778 339.613 265.741C339.194 265.666 338.578 265.544 337.778 265.421C336.181 265.156 333.86 264.831 330.98 264.524C325.22 263.89 317.21 263.498 308.368 263.444C303.956 263.393 299.697 263.438 295.931 264.247C292.156 265.003 288.981 266.464 286.551 267.958C284.107 269.456 282.386 271.003 281.295 272.135C280.748 272.702 280.351 273.167 280.101 273.495C279.985 273.645 279.892 273.767 279.815 273.867C279.752 273.952 279.723 273.996 279.727 274Z" fill="#263238"/>
<path d="M279.727 271.844C279.732 271.848 279.77 271.81 279.841 271.731C279.922 271.637 280.023 271.521 280.146 271.379C280.41 271.066 280.806 270.61 281.339 270.043C282.402 268.912 284.025 267.312 286.39 265.781C287.575 265.026 288.939 264.28 290.501 263.692C292.058 263.096 293.799 262.647 295.661 262.322C299.386 261.664 303.574 261.486 307.95 261.593C316.717 261.84 324.626 262.64 330.36 263.059C333.227 263.281 335.549 263.438 337.155 263.524C337.937 263.562 338.555 263.591 339.005 263.613C339.2 263.618 339.358 263.623 339.486 263.626C339.595 263.628 339.651 263.626 339.651 263.62C339.651 263.614 339.597 263.605 339.489 263.593C339.36 263.58 339.203 263.566 339.009 263.547C338.56 263.511 337.944 263.461 337.164 263.398C335.533 263.262 333.223 263.069 330.38 262.831C324.653 262.354 316.746 261.517 307.957 261.27C303.566 261.163 299.355 261.349 295.601 262.029C293.726 262.365 291.967 262.828 290.392 263.444C288.814 264.051 287.44 264.817 286.252 265.593C283.88 267.164 282.274 268.799 281.237 269.96C280.717 270.542 280.337 271.012 280.09 271.338C279.977 271.488 279.885 271.611 279.81 271.71C279.751 271.796 279.723 271.842 279.727 271.844Z" fill="#263238"/>
<path d="M275.625 279.872C275.631 279.868 275.595 279.82 275.523 279.727C275.438 279.62 275.33 279.486 275.197 279.319C274.904 278.965 274.449 278.458 273.815 277.848C272.549 276.636 270.512 275.024 267.621 273.634C264.75 272.217 261.032 271.088 256.804 270.492C252.573 269.878 247.864 269.774 242.947 269.838C233.093 269.955 224.221 271.05 217.883 272.165C214.712 272.72 212.166 273.265 210.413 273.665C209.537 273.865 208.861 274.038 208.402 274.152C208.189 274.207 208.017 274.252 207.881 274.287C207.765 274.319 207.706 274.339 207.707 274.344C207.708 274.349 207.77 274.341 207.89 274.319C208.028 274.292 208.202 274.257 208.418 274.214C208.905 274.112 209.583 273.969 210.444 273.788C212.204 273.425 214.755 272.915 217.927 272.389C224.265 271.333 233.12 270.277 242.953 270.16C247.862 270.096 252.554 270.193 256.758 270.786C260.962 271.362 264.652 272.458 267.513 273.837C270.394 275.189 272.436 276.759 273.723 277.937C274.368 278.529 274.836 279.02 275.145 279.36C275.289 279.518 275.405 279.645 275.497 279.745C275.577 279.834 275.621 279.876 275.625 279.872Z" fill="#263238"/>
<path d="M275.58 277.719C275.586 277.715 275.553 277.669 275.487 277.583C275.407 277.483 275.308 277.358 275.185 277.205C275.054 277.036 274.879 276.838 274.666 276.61C274.459 276.375 274.209 276.115 273.914 275.833C272.761 274.687 270.886 273.185 268.254 271.816C265.632 270.436 262.231 269.268 258.332 268.585C254.433 267.889 250.066 267.67 245.507 267.669C236.373 267.637 228.129 268.449 222.225 269.328C219.272 269.763 216.895 270.194 215.26 270.521C214.441 270.679 213.809 270.822 213.38 270.914C213.183 270.959 213.023 270.996 212.894 271.026C212.784 271.053 212.73 271.07 212.73 271.075C212.732 271.081 212.789 271.075 212.901 271.058C213.032 271.037 213.194 271.01 213.394 270.978C213.853 270.897 214.484 270.785 215.285 270.643C216.927 270.354 219.307 269.958 222.261 269.552C228.164 268.732 236.393 267.958 245.505 267.99C250.056 267.991 254.4 268.2 258.274 268.877C262.147 269.538 265.524 270.673 268.138 272.016C270.762 273.346 272.644 274.809 273.819 275.921C274.119 276.194 274.375 276.446 274.589 276.673C274.809 276.893 274.991 277.084 275.13 277.245C275.263 277.39 275.371 277.508 275.457 277.602C275.535 277.683 275.576 277.722 275.58 277.719Z" fill="#263238"/>
<path d="M275.538 275.565C275.542 275.561 275.511 275.516 275.445 275.43C275.366 275.33 275.267 275.207 275.145 275.055C275.016 274.888 274.844 274.692 274.632 274.465C274.427 274.234 274.18 273.975 273.888 273.695C272.746 272.56 270.894 271.066 268.29 269.704C265.696 268.333 262.335 267.151 258.475 266.465C254.616 265.757 250.29 265.525 245.774 265.516C236.726 265.468 228.556 266.247 222.705 267.101C219.777 267.523 217.421 267.942 215.8 268.26C214.988 268.414 214.363 268.554 213.937 268.643C213.741 268.688 213.583 268.723 213.455 268.752C213.347 268.779 213.292 268.795 213.293 268.8C213.294 268.806 213.351 268.8 213.462 268.785C213.592 268.765 213.753 268.739 213.952 268.707C214.406 268.629 215.033 268.521 215.826 268.384C217.453 268.104 219.812 267.72 222.74 267.328C228.592 266.533 236.745 265.792 245.773 265.839C250.281 265.848 254.583 266.071 258.417 266.758C262.253 267.424 265.589 268.571 268.175 269.905C270.771 271.23 272.631 272.683 273.794 273.785C274.092 274.056 274.345 274.306 274.557 274.53C274.776 274.749 274.956 274.938 275.094 275.097C275.225 275.241 275.332 275.357 275.418 275.451C275.492 275.53 275.533 275.568 275.538 275.565Z" fill="#263238"/>
<path d="M275.501 271.845C275.501 271.845 275.026 271.127 273.862 270.08C272.708 269.026 270.775 267.746 268.14 266.668C266.826 266.124 265.348 265.619 263.744 265.135C262.142 264.663 260.418 264.142 258.543 263.84C254.8 263.178 250.605 263.235 246.255 263.363C237.52 263.626 229.682 264.644 224.011 265.274C221.196 265.595 218.909 265.856 217.294 266.04C216.522 266.127 215.912 266.197 215.467 266.247C215.275 266.272 215.119 266.291 214.993 266.308C214.886 266.323 214.831 266.334 214.832 266.34C214.833 266.346 214.888 266.346 214.996 266.341C215.124 266.333 215.281 266.323 215.474 266.312C215.921 266.276 216.533 266.226 217.308 266.165C218.899 266.028 221.2 265.799 224.039 265.501C229.718 264.928 237.556 263.948 246.265 263.686C250.615 263.558 254.781 263.494 258.488 264.133C260.343 264.423 262.054 264.929 263.659 265.39C265.26 265.861 266.734 266.349 268.044 266.877C270.67 267.92 272.601 269.156 273.772 270.171C274.075 270.416 274.324 270.653 274.536 270.862C274.756 271.065 274.931 271.245 275.065 271.398C275.193 271.535 275.298 271.645 275.382 271.736C275.457 271.811 275.496 271.849 275.501 271.845Z" fill="#263238"/>
<path d="M247.054 277.461V287.937L243.385 284.798L239.791 287.772L239.582 277.572C239.582 277.572 245.487 277.27 247.054 277.461Z" fill="#6B75F8"/>
<path d="M205.535 283.542C205.537 283.548 205.6 283.538 205.723 283.513C205.864 283.482 206.043 283.443 206.265 283.395C206.764 283.281 207.459 283.123 208.343 282.922C210.147 282.515 212.766 281.952 216.02 281.348C219.274 280.737 223.166 280.098 227.495 279.428C229.661 279.091 231.933 278.737 234.289 278.37C236.637 277.965 239.085 277.722 241.61 277.624C244.134 277.534 246.604 277.558 248.979 277.726C251.353 277.887 253.636 278.177 255.752 278.68C260.001 279.681 263.528 281.487 266.133 283.401C267.444 284.353 268.556 285.306 269.486 286.185C270.426 287.056 271.19 287.849 271.813 288.498C272.411 289.144 272.883 289.652 273.221 290.017C273.372 290.179 273.494 290.308 273.59 290.411C273.674 290.498 273.719 290.542 273.724 290.538C273.729 290.535 273.693 290.484 273.616 290.391C273.527 290.283 273.415 290.146 273.274 289.976C272.974 289.611 272.514 289.086 271.913 288.416C271.304 287.753 270.552 286.946 269.621 286.058C268.699 285.164 267.593 284.193 266.281 283.222C263.675 281.269 260.115 279.418 255.831 278.393C253.69 277.875 251.391 277.578 249.003 277.412C246.615 277.239 244.133 277.213 241.596 277.303C239.062 277.4 236.583 277.649 234.233 278.059C231.878 278.433 229.608 278.792 227.443 279.135C223.116 279.822 219.223 280.484 215.972 281.124C212.72 281.758 210.106 282.355 208.311 282.801C207.411 283.018 206.718 283.205 206.248 283.332C206.028 283.393 205.853 283.442 205.714 283.481C205.594 283.516 205.533 283.537 205.535 283.542Z" fill="#263238"/>
<path d="M282.723 290.706C282.727 290.71 282.783 290.657 282.887 290.553C283.001 290.435 283.152 290.28 283.342 290.084C283.543 289.879 283.777 289.613 284.079 289.32C284.388 289.03 284.743 288.7 285.14 288.328C286.759 286.865 289.337 284.948 292.912 283.223C296.487 281.516 301.07 280.059 306.323 279.37C311.575 278.664 317.453 278.788 323.528 279.486C329.611 280.2 335.335 281.346 340.541 282.362C345.746 283.388 350.451 284.26 354.436 284.801C358.42 285.343 361.674 285.581 363.924 285.645C365.048 285.675 365.922 285.687 366.515 285.671C366.796 285.666 367.019 285.662 367.188 285.659C367.34 285.655 367.418 285.65 367.418 285.644C367.418 285.638 367.34 285.632 367.188 285.626C367.019 285.621 366.797 285.615 366.515 285.607C365.924 285.601 365.052 285.569 363.929 285.52C361.685 285.417 358.444 285.145 354.471 284.575C350.498 284.006 345.805 283.113 340.604 282.071C335.402 281.039 329.672 279.881 323.568 279.165C317.472 278.464 311.563 278.348 306.278 279.074C300.993 279.783 296.387 281.274 292.801 283.019C289.216 284.781 286.645 286.739 285.046 288.237C284.656 288.617 284.308 288.957 284.003 289.253C283.708 289.553 283.482 289.827 283.288 290.039C283.108 290.245 282.966 290.407 282.858 290.531C282.765 290.643 282.719 290.702 282.723 290.706Z" fill="#263238"/>
<path d="M282.723 292.88C282.727 292.884 282.783 292.832 282.887 292.728C283.001 292.61 283.152 292.455 283.342 292.258C283.543 292.053 283.777 291.787 284.079 291.494C284.388 291.205 284.743 290.874 285.14 290.503C286.759 289.039 289.337 287.121 292.912 285.398C296.487 283.69 301.07 282.233 306.323 281.544C311.575 280.838 317.453 280.962 323.528 281.661C329.611 282.373 335.335 283.52 340.541 284.536C345.746 285.563 350.451 286.434 354.436 286.975C358.42 287.517 361.674 287.755 363.924 287.819C365.048 287.849 365.922 287.861 366.515 287.846C366.796 287.841 367.019 287.836 367.188 287.833C367.34 287.829 367.418 287.824 367.418 287.818C367.418 287.812 367.34 287.806 367.188 287.801C367.019 287.795 366.797 287.789 366.515 287.781C365.924 287.775 365.052 287.744 363.929 287.694C361.685 287.591 358.444 287.319 354.471 286.749C350.498 286.181 345.805 285.288 340.604 284.245C335.402 283.213 329.672 282.055 323.568 281.34C317.472 280.638 311.563 280.522 306.278 281.249C300.993 281.958 296.387 283.448 292.801 285.193C289.216 286.955 286.645 288.913 285.046 290.411C284.656 290.792 284.308 291.131 284.003 291.427C283.708 291.727 283.482 292.002 283.288 292.214C283.108 292.419 282.966 292.581 282.858 292.705C282.765 292.819 282.719 292.877 282.723 292.88Z" fill="#263238"/>
<path d="M289.45 291.037C289.458 291.045 289.583 290.958 289.815 290.784C290.051 290.616 290.371 290.337 290.827 290.029C291.71 289.382 293.052 288.517 294.815 287.629C296.574 286.737 298.783 285.874 301.322 285.192C303.862 284.51 306.735 284.033 309.774 283.824C315.871 283.439 321.4 284.074 325.365 284.558C327.32 284.818 328.916 285.031 330.066 285.184C330.594 285.252 331.018 285.307 331.345 285.35C331.638 285.385 331.793 285.398 331.795 285.387C331.797 285.376 331.646 285.342 331.357 285.286C331.032 285.229 330.611 285.153 330.087 285.06C328.983 284.871 327.384 284.611 325.399 284.333C321.437 283.79 315.891 283.115 309.751 283.503C306.688 283.714 303.793 284.204 301.236 284.907C298.679 285.61 296.46 286.503 294.7 287.429C292.937 288.35 291.607 289.249 290.744 289.931C290.299 290.255 289.992 290.552 289.77 290.735C289.552 290.924 289.442 291.028 289.45 291.037Z" fill="#263238"/>
<path d="M277.057 272.914C277.051 272.916 277.023 272.856 276.973 272.739C276.917 272.599 276.847 272.425 276.76 272.21C276.571 271.715 276.308 271.032 275.976 270.165C275.343 268.405 273.912 265.911 271.087 264.054C268.308 262.162 264.402 260.948 260.011 260.393C255.609 259.826 250.702 259.846 245.591 260.233C243.033 260.43 240.542 260.701 238.141 261.009C235.742 261.317 233.421 261.655 231.197 261.828C226.754 262.197 222.746 262.369 219.381 262.508C216.016 262.64 213.292 262.714 211.409 262.753C210.49 262.766 209.766 262.776 209.241 262.783C209.011 262.782 208.826 262.781 208.677 262.78C208.549 262.778 208.484 262.773 208.484 262.766C208.484 262.759 208.549 262.751 208.676 262.741C208.824 262.732 209.01 262.721 209.239 262.706C209.763 262.682 210.487 262.647 211.404 262.604C213.315 262.517 216.029 262.392 219.369 262.239C222.73 262.066 226.736 261.866 231.166 261.479C233.381 261.298 235.688 260.954 238.094 260.64C240.499 260.327 242.997 260.052 245.563 259.855C250.691 259.466 255.622 259.456 260.055 260.045C264.477 260.624 268.425 261.876 271.234 263.832C274.092 265.749 275.518 268.324 276.112 270.113C276.416 270.99 276.657 271.681 276.83 272.182C276.903 272.403 276.961 272.581 277.008 272.724C277.046 272.848 277.063 272.912 277.057 272.914Z" fill="#263238"/>
<path d="M277.138 272.743C277.132 272.742 277.131 272.675 277.136 272.543C277.143 272.389 277.154 272.197 277.166 271.958C277.197 271.444 277.289 270.685 277.51 269.729C277.743 268.779 278.095 267.621 278.725 266.375C279.344 265.137 280.274 263.774 281.686 262.726C284.399 260.511 288.318 258.816 292.835 258.016C297.351 257.178 302.429 257.1 307.687 257.545C310.319 257.767 312.877 258.108 315.334 258.505C317.793 258.894 320.144 259.394 322.394 259.739C326.898 260.445 331.007 260.699 334.453 260.785C337.901 260.856 340.695 260.758 342.621 260.647C343.561 260.584 344.303 260.534 344.838 260.497C345.073 260.48 345.263 260.466 345.415 260.455C345.545 260.447 345.612 260.444 345.613 260.451C345.613 260.457 345.548 260.473 345.419 260.494C345.268 260.515 345.08 260.541 344.845 260.574C344.341 260.639 343.594 260.715 342.631 260.795C340.704 260.951 337.907 261.09 334.449 261.053C330.992 261 326.869 260.775 322.343 260.084C320.075 259.746 317.73 259.254 315.278 258.871C312.827 258.48 310.278 258.142 307.657 257.922C302.422 257.478 297.375 257.547 292.897 258.359C288.418 259.134 284.545 260.781 281.852 262.936C280.453 263.954 279.546 265.256 278.913 266.472C278.274 267.69 277.906 268.828 277.653 269.764C277.412 270.706 277.298 271.455 277.243 271.964C277.215 272.202 277.193 272.393 277.175 272.545C277.156 272.677 277.145 272.744 277.138 272.743Z" fill="#263238"/>
<path d="M73.918 284.744L136.845 321.425L153.881 321.542L176.675 290.675C178.263 288.525 177.182 284.744 174.98 284.744L73.918 284.744Z" fill="#E0E0E0"/>
<path d="M29.6949 234.913H129.986C133.669 234.913 136.816 237.149 137.435 240.207L153.904 321.542H44.6598C40.9769 321.542 37.8302 319.306 37.2112 316.248L22.2463 242.346C21.4589 238.461 25.0137 234.913 29.6949 234.913Z" fill="#E0E0E0"/>
<path d="M79.8131 281.319C80.7351 284.778 84.2014 286.953 87.5547 286.179C90.9079 285.403 92.8793 281.971 91.9573 278.512C91.0353 275.052 87.5691 272.877 84.2151 273.652C80.8618 274.427 78.8904 277.859 79.8131 281.319Z" fill="white"/>
<path d="M175.589 286.609C175.593 286.611 175.56 286.665 175.492 286.767C175.414 286.882 175.312 287.03 175.184 287.217C174.895 287.626 174.488 288.203 173.965 288.944C172.877 290.461 171.311 292.646 169.345 295.39C165.36 300.903 159.754 308.659 153.217 317.703L152.981 318.029L152.9 317.633C151.749 311.953 150.49 305.746 149.18 299.283C146.074 283.811 143.263 269.807 141.224 259.648C140.226 254.588 139.418 250.486 138.855 247.628C138.587 246.223 138.376 245.125 138.23 244.357C138.165 243.996 138.114 243.714 138.076 243.504C138.044 243.311 138.03 243.212 138.037 243.211C138.043 243.209 138.069 243.306 138.114 243.496C138.161 243.705 138.223 243.984 138.304 244.341C138.467 245.107 138.7 246.2 138.998 247.599C139.589 250.451 140.437 254.544 141.484 259.595C143.551 269.749 146.399 283.744 149.547 299.207C150.85 305.672 152.101 311.881 153.246 317.561L152.93 317.492C159.512 308.481 165.155 300.753 169.167 295.26C171.169 292.542 172.763 290.377 173.87 288.875C174.413 288.148 174.836 287.583 175.135 287.182C175.273 287.002 175.383 286.86 175.468 286.751C175.544 286.653 175.584 286.606 175.589 286.609Z" fill="#263238"/>
<path d="M151.524 321.525C151.423 321.546 147.577 303.197 142.934 280.548C138.289 257.89 134.608 239.511 134.709 239.489C134.811 239.468 138.656 257.812 143.301 280.471C147.943 303.121 151.626 321.504 151.524 321.525Z" fill="#263238"/>
<g opacity="0.2">
<path d="M152.115 312.721L170.492 288.366H147.18L152.115 312.721Z" fill="black"/>
</g>
<path d="M323.4 4.73142C323.4 4.73142 323.74 4.61495 324.422 4.45625C325.102 4.29755 326.132 4.10245 327.499 4.05659C328.861 4.01218 330.571 4.10245 332.507 4.62223C333.474 4.88139 334.493 5.24465 335.532 5.75132C336.05 6.00465 336.576 6.30604 337.045 6.71953C337.509 7.12647 337.921 7.68628 338.022 8.36111C338.15 9.02721 337.952 9.75956 337.509 10.3085C337.083 10.8741 336.486 11.297 335.845 11.637C335.201 11.9777 334.496 12.234 333.754 12.4007C333.009 12.5426 332.252 12.6969 331.468 12.7916C328.342 13.2451 324.878 13.2866 321.221 12.8003C317.569 12.306 313.717 11.2388 309.94 9.40358C308.999 8.93403 308.072 8.3633 307.303 7.57126C306.537 6.80252 305.969 5.66469 306.164 4.49483C306.321 3.31624 307.208 2.38079 308.193 1.81442C309.192 1.23058 310.317 0.88188 311.466 0.683871C316.042 -0.141655 321.041 0.0840176 325.905 1.57637C328.334 2.32036 330.728 3.37302 332.98 4.76928C334.116 5.44994 335.201 6.26017 336.163 7.22183C337.118 8.18131 337.97 9.31404 338.444 10.6455C338.921 11.9661 338.951 13.4919 338.402 14.8277C337.87 16.1665 336.894 17.2941 335.725 18.1269C334.545 18.9583 333.177 19.4839 331.775 19.8151C330.369 20.1514 328.926 20.2992 327.476 20.415C321.669 20.8343 315.595 20.0204 309.831 17.8481C308.397 17.3072 306.947 16.6855 305.663 15.7632C304.395 14.8598 303.193 13.6288 302.799 11.9981C302.607 11.1966 302.645 10.3339 302.909 9.5499C303.167 8.76296 303.624 8.05318 304.192 7.46352C305.324 6.25508 306.911 5.59844 308.488 5.27231C310.082 4.9389 311.704 4.8792 313.328 4.83843C314.955 4.79912 316.589 4.89886 318.222 5.07284C321.486 5.43392 324.739 6.20994 327.873 7.39291C331.009 8.57369 334.025 10.165 336.811 12.1481C338.192 13.1563 339.502 14.3072 340.568 15.6918C341.629 17.0648 342.427 18.7333 342.544 20.5271C342.688 22.3179 342.119 24.1138 341.152 25.5996C340.185 27.0941 338.836 28.3295 337.282 29.1907C334.149 30.9306 330.498 31.2924 326.981 31.3186C323.435 31.3492 319.906 30.9757 316.482 30.2339C314.77 29.8634 313.083 29.4011 311.43 28.8508C309.787 28.2829 308.143 27.7049 306.603 26.8816C305.067 26.0706 303.62 25.0551 302.448 23.7505C301.308 22.4482 300.454 20.7433 300.55 18.9503C300.581 17.1624 301.487 15.5098 302.705 14.3065C303.933 13.0784 305.518 12.3046 307.131 11.8336C308.754 11.3575 310.422 11.1667 312.076 11.0474C313.732 10.9469 315.388 10.968 317.026 11.1034C320.305 11.364 323.502 12.143 326.514 13.2917C329.508 14.4892 332.36 15.9932 334.817 18.0257C336.014 19.0697 337.089 20.2861 337.785 21.7326C338.482 23.1703 338.638 24.9051 338.055 26.4026C337.485 27.9102 336.293 29.0539 335.006 29.8728C333.705 30.6991 332.272 31.2574 330.829 31.6615C327.942 32.4936 324.967 32.8372 322.052 32.7382C319.136 32.6384 316.283 32.0764 313.613 31.1279C312.279 30.6583 310.976 30.0927 309.798 29.3159C308.627 28.5443 307.586 27.5193 306.963 26.2497C306.337 25.0012 306.09 23.5125 306.513 22.165C306.927 20.8139 307.962 19.7612 309.135 19.1228C311.529 17.8379 314.236 17.7426 316.747 17.8255C319.285 17.9224 321.758 18.3577 324.085 19.0777C325.246 19.4424 326.388 19.845 327.457 20.3946C328.519 20.9435 329.524 21.6416 330.26 22.588C330.626 23.059 330.914 23.5933 331.093 24.1597C331.263 24.7311 331.327 25.3266 331.291 25.9134C331.237 26.4994 331.083 27.0643 330.865 27.5979C330.628 28.1228 330.337 28.6149 329.99 29.0611C329.286 29.9405 328.416 30.6714 327.433 31.1519C326.451 31.6462 325.389 31.8791 324.344 31.9905C322.238 32.1944 320.202 31.8522 318.278 31.4729C317.315 31.2727 316.364 31.0966 315.438 30.8359C314.518 30.571 313.622 30.1982 312.888 29.5947C312.168 28.9905 311.609 28.1774 311.436 27.2601C311.247 26.3451 311.553 25.3783 312.143 24.7224C312.731 24.0578 313.5 23.6224 314.282 23.3465C315.066 23.0575 315.883 22.9432 316.675 22.909C319.856 22.8129 322.749 24.0672 324.552 25.9723C325.467 26.9158 326.099 28.0311 326.413 29.1587C326.732 30.29 326.694 31.4191 326.478 32.4062C326.036 34.4008 324.918 35.835 323.851 36.6801C322.771 37.5479 321.704 37.8231 321.013 37.8675C320.666 37.9308 320.399 37.8689 320.222 37.874C320.045 37.8646 319.957 37.8551 319.957 37.8551C319.957 37.8296 320.318 37.8973 321.009 37.8289C321.694 37.7721 322.744 37.4875 323.804 36.6197C324.851 35.7753 325.945 34.3492 326.368 32.3814C326.576 31.4074 326.606 30.2994 326.288 29.1944C325.975 28.0893 325.35 26.9973 324.447 26.0742C322.668 24.2084 319.809 22.9825 316.681 23.0888C315.901 23.1252 315.107 23.2395 314.344 23.5234C313.583 23.7935 312.842 24.2201 312.289 24.8505C311.734 25.4729 311.456 26.3669 311.634 27.2208C311.796 28.0776 312.33 28.8544 313.02 29.4302C314.451 30.5892 316.418 30.8469 318.319 31.2502C320.239 31.6236 322.256 31.9556 324.318 31.7503C325.341 31.6396 326.38 31.4067 327.322 30.9291C328.271 30.4639 329.113 29.7527 329.79 28.9032C330.124 28.4722 330.403 27.9976 330.629 27.4953C330.836 26.985 330.981 26.447 331.031 25.893C331.063 25.3383 331.002 24.7785 330.841 24.2405C330.672 23.7054 330.4 23.2009 330.049 22.7525C329.347 21.8513 328.373 21.1735 327.332 20.6377C326.286 20.1019 325.154 19.7045 324.002 19.3448C321.696 18.6358 319.246 18.2085 316.734 18.1167C314.242 18.0359 311.579 18.1459 309.277 19.3885C308.151 20.0058 307.188 20.9959 306.803 22.256C306.41 23.5089 306.638 24.916 307.238 26.1077C307.832 27.3154 308.828 28.2982 309.969 29.048C311.114 29.8015 312.397 30.3584 313.717 30.8214C316.356 31.7554 319.178 32.3079 322.061 32.404C324.942 32.4986 327.883 32.1565 330.733 31.3317C332.16 30.9313 333.559 30.3824 334.821 29.5795C336.071 28.7838 337.2 27.6874 337.731 26.2766C338.273 24.8724 338.133 23.2577 337.467 21.8833C336.802 20.5023 335.758 19.3157 334.586 18.2958C332.184 16.3106 329.339 14.8066 326.383 13.6288C323.401 12.4938 320.238 11.7236 316.993 11.4681C315.372 11.3349 313.735 11.3145 312.096 11.415C310.46 11.5336 308.812 11.7236 307.23 12.1888C305.656 12.6496 304.133 13.398 302.961 14.5715C301.794 15.7246 300.943 17.2912 300.917 18.9597C300.827 20.6384 301.624 22.2415 302.723 23.4987C303.851 24.7552 305.265 25.7503 306.773 26.546C308.279 27.3511 309.912 27.927 311.544 28.4897C313.184 29.0357 314.858 29.4943 316.557 29.8619C319.956 30.5979 323.457 30.9684 326.976 30.9379C330.47 30.9131 334.059 30.5469 337.099 28.8573C338.602 28.0245 339.905 26.8292 340.837 25.3907C341.768 23.9602 342.307 22.248 342.17 20.5525C342.059 18.8505 341.301 17.2548 340.272 15.9197C339.238 14.5751 337.954 13.4438 336.593 12.4502C333.839 10.4883 330.849 8.90855 327.743 7.73869C324.638 6.5652 321.415 5.795 318.18 5.43538C316.563 5.26212 314.943 5.16238 313.332 5.20024C311.724 5.23882 310.109 5.29925 308.56 5.62392C307.02 5.94205 305.514 6.57102 304.446 7.71031C303.361 8.80809 302.764 10.4155 303.14 11.9136C303.498 13.4125 304.629 14.5941 305.862 15.472C307.111 16.3696 308.522 16.9782 309.95 17.5183C315.665 19.6768 321.691 20.4899 327.451 20.0801C330.306 19.8653 333.238 19.4671 335.54 17.859C336.666 17.059 337.603 15.975 338.107 14.7069C338.628 13.4431 338.602 12.0097 338.15 10.7496C337.701 9.48002 336.879 8.37859 335.946 7.4395C335.007 6.49749 333.944 5.70036 332.822 5.02625C330.595 3.64091 328.225 2.59481 325.82 1.85373C321.003 0.367929 316.049 0.135705 311.512 0.945215C310.384 1.1374 309.285 1.47737 308.324 2.03791C307.371 2.58535 306.557 3.45528 306.412 4.5305C306.232 5.60208 306.744 6.65183 307.479 7.39655C308.215 8.15874 309.121 8.72146 310.045 9.18446C313.789 11.0153 317.618 12.0862 321.249 12.5877C324.884 13.0813 328.33 13.0507 331.442 12.6103C332.223 12.5193 332.981 12.3672 333.716 12.2303C334.445 12.0702 335.138 11.8205 335.77 11.49C336.398 11.1602 336.979 10.7496 337.386 10.2124C337.811 9.68894 337.994 9.01265 337.878 8.38514C337.786 7.75253 337.401 7.21965 336.953 6.82217C336.501 6.4196 335.986 6.1204 335.474 5.86707C334.447 5.35967 333.435 4.99277 332.477 4.72997C330.556 4.20218 328.856 4.09954 327.5 4.13157C326.139 4.16506 325.11 4.34632 324.429 4.49265C324.085 4.55598 323.832 4.63315 323.659 4.67173C323.489 4.71468 323.4 4.73142 323.4 4.73142Z" fill="#263238"/>
<path d="M210.33 147.309C210.33 147.309 215.238 145.545 223.202 144.052C231.166 142.561 258.705 142.277 258.705 142.277C258.705 142.277 261.239 168.346 284.612 171.143C293.306 172.184 302.069 159.892 302.069 159.892C302.069 159.892 318.076 168.136 322.79 171.865C322.79 171.865 323.765 217.742 322.79 226.88C321.815 236.018 317.264 254.848 317.264 254.848H204.953V209.536L210.33 147.309Z" fill="#FF8E49"/>
<path d="M220.368 200.529C212.938 213.714 202.587 228.238 202.587 228.238L158.859 207.19C158.859 206.186 184.117 163.333 193.886 155.795C203.656 148.258 214.197 144.238 221.397 146.248" fill="#FF8E49"/>
<path d="M221.394 146.249C221.394 146.249 221.243 146.229 220.953 146.171C220.661 146.129 220.24 145.992 219.666 145.941C218.53 145.775 216.821 145.719 214.658 146.012C212.497 146.308 209.894 146.993 207.018 148.165C204.143 149.342 201.01 151.027 197.744 153.191C196.941 153.753 196.103 154.305 195.286 154.926C194.875 155.233 194.46 155.544 194.04 155.859C193.639 156.193 193.228 156.52 192.84 156.886C191.283 158.348 189.82 160.042 188.358 161.831C185.455 165.433 182.569 169.46 179.631 173.764C173.778 182.387 167.657 192.093 161.601 202.494C161.149 203.291 160.697 204.086 160.249 204.875C160.031 205.273 159.815 205.67 159.599 206.065L159.289 206.66C159.194 206.851 159.089 207.085 159.044 207.193L158.937 207.022C175.521 215.022 190.669 222.329 202.647 228.107L202.466 228.155C208.282 219.921 212.748 213 215.765 208.152C217.267 205.724 218.411 203.815 219.18 202.513C219.558 201.87 219.85 201.377 220.054 201.03C220.254 200.697 220.365 200.532 220.365 200.532C220.365 200.532 220.279 200.712 220.092 201.053C219.896 201.404 219.617 201.905 219.253 202.558C218.508 203.874 217.386 205.797 215.904 208.24C212.928 213.118 208.497 220.065 202.703 228.328L202.632 228.428L202.521 228.375C190.534 222.618 175.373 215.336 158.776 207.364L158.645 207.301L158.67 207.193C158.746 206.868 158.861 206.708 158.955 206.491L159.269 205.887C159.486 205.489 159.704 205.091 159.922 204.691C160.371 203.899 160.823 203.103 161.277 202.304C167.34 191.892 173.471 182.189 179.347 173.567C182.296 169.264 185.195 165.238 188.118 161.633C189.591 159.841 191.063 158.144 192.645 156.672C193.038 156.303 193.461 155.968 193.868 155.632C194.29 155.318 194.709 155.008 195.122 154.701C195.945 154.081 196.789 153.53 197.598 152.969C200.887 150.811 204.043 149.135 206.94 147.972C209.838 146.811 212.462 146.144 214.64 145.869C216.819 145.596 218.539 145.677 219.677 145.869C220.252 145.931 220.673 146.082 220.963 146.136C221.249 146.204 221.394 146.249 221.394 146.249Z" fill="#263238"/>
<path d="M223.082 148.27C223.09 148.26 223.233 148.363 223.5 148.571C223.772 148.773 224.148 149.102 224.611 149.549C225.529 150.447 226.755 151.888 227.838 153.939C228.923 155.98 229.848 158.629 230.25 161.674C230.66 164.716 230.561 168.117 230.041 171.606C228.971 178.593 226.87 184.672 225.037 188.894C224.123 191.011 223.28 192.676 222.671 193.81C222.371 194.379 222.12 194.811 221.95 195.104C221.78 195.397 221.684 195.547 221.673 195.541C221.662 195.534 221.735 195.372 221.884 195.067C222.051 194.73 222.27 194.29 222.542 193.741C223.11 192.589 223.914 190.911 224.794 188.788C226.558 184.555 228.608 178.491 229.672 171.549C230.188 168.086 230.295 164.724 229.908 161.718C229.53 158.712 228.645 156.094 227.604 154.063C226.565 152.023 225.386 150.574 224.508 149.652C223.621 148.732 223.056 148.302 223.082 148.27Z" fill="#263238"/>
<path d="M334.312 234.007L353.873 253.268L381.383 237.47L353.568 189.427L327.827 171.866L323.613 228.813L334.312 234.007Z" fill="#FF8E49"/>
<path d="M362.291 134.356C358.831 109.149 349.843 83.6862 336.453 61.041L332.992 75.5423C337.3 87.2569 340.767 99.2882 343.357 111.509C344.073 114.888 344.725 118.37 344.163 121.778C343.498 125.813 341.207 129.345 339.432 133.02C336.925 138.215 335.385 144.169 336.71 149.792C338.035 155.415 342.833 160.45 348.547 160.581C354.107 160.708 358.989 156.243 361.039 151.014C363.09 145.786 363.055 139.928 362.291 134.356Z" fill="#263238"/>
<path d="M351.621 159.283C351.623 159.27 351.813 159.28 352.17 159.31C352.359 159.328 352.578 159.347 352.829 159.371C353.097 159.372 353.397 159.374 353.731 159.376C355.077 159.345 357.077 159.148 359.298 158.155C361.513 157.208 363.967 155.466 365.774 152.798C366.671 151.467 367.36 149.902 367.744 148.19C368.139 146.481 368.245 144.644 368.123 142.783C367.877 139.044 366.857 135.582 365.898 132.481C364.923 129.376 363.881 126.636 362.94 124.363C361.996 122.091 361.152 120.287 360.557 119.046C360.271 118.452 360.042 117.977 359.869 117.618C359.712 117.291 359.635 117.116 359.647 117.11C359.658 117.104 359.757 117.267 359.936 117.582C360.116 117.898 360.37 118.368 360.688 118.979C361.323 120.202 362.206 121.992 363.184 124.257C364.159 126.523 365.23 129.264 366.227 132.374C367.206 135.479 368.246 138.96 368.498 142.759C368.621 144.649 368.512 146.525 368.102 148.274C367.705 150.025 366.987 151.638 366.06 152.996C364.191 155.72 361.669 157.47 359.402 158.402C357.128 159.381 355.09 159.539 353.731 159.525C353.395 159.51 353.092 159.496 352.822 159.484C352.57 159.447 352.351 159.415 352.161 159.387C351.805 159.33 351.619 159.296 351.621 159.283Z" fill="#263238"/>
<path d="M258.398 61.042C248.947 75.4123 239.496 89.7825 230.045 104.153C226.942 108.871 223.752 113.817 223.073 119.442C221.933 128.873 227.696 144.485 237.008 145.736C246.319 146.986 258.234 150.331 259.567 140.926L279.11 75.1342L258.398 61.042Z" fill="#263238"/>
<path d="M344.785 209.18C344.023 201.189 340.554 193.768 337.582 186.324C330.865 169.499 326.478 151.724 324.591 133.681L300.138 156.03C301.091 167.481 301.923 179.614 296.803 189.872C295.351 192.782 293.406 195.6 293.17 198.851C292.75 204.636 297.771 209.316 299.178 214.94C300.283 219.354 299.046 224.092 296.823 228.052C294.599 232.011 291.453 235.342 288.413 238.7C287.08 240.172 285.664 242.079 286.289 243.973C286.89 245.792 289.04 246.5 290.918 246.765C297.34 247.669 304.051 246.33 309.651 243.024C309.943 244.342 310.234 245.66 310.526 246.978C320.052 247.069 329.543 242.9 335.981 235.798C342.417 228.695 345.701 218.771 344.785 209.18Z" fill="#263238"/>
<path d="M263.144 55.6664C275.364 45.2323 290.038 40.6628 305.806 43.3585C314.702 44.8792 318.029 47.4344 324.096 50.3791C330.163 53.3238 335.288 57.8736 338.091 64.0614C341.421 71.4096 343.885 79.4006 343.288 87.4615C342.673 95.7422 342.101 104.091 339.947 112.104C337.762 120.233 330.308 137.787 324.705 143.064L307.054 133.378C295.672 131.64 284.137 129.857 273.599 125.173C263.06 120.49 253.457 112.478 249.354 101.602C243.652 86.4897 250.924 66.1005 263.144 55.6664Z" fill="#263238"/>
<path d="M300.193 161.403L301.444 153.39C301.444 153.39 320.041 155.025 328.637 134.247C332.911 123.913 336.62 106.157 339.19 91.5299C341.503 78.3637 333.728 58.3793 317.691 55.3014L310.713 53.1211L281.392 58.9595C277.412 58.4193 273.684 61.0495 272.812 65.0148L259.026 144.011C258.905 148.656 263.888 159.944 268.153 164.159C279.106 176.306 295.093 173.035 300.193 161.403Z" fill="#FFBF9D"/>
<path d="M297.464 123.139C297.822 122.026 298.635 121.135 299.562 120.592C301.417 119.508 303.778 119.813 305.27 121.33C306.762 122.847 307.292 125.481 306.55 127.697C305.343 128.852 303.707 129.477 302.054 129.314C301.797 129.289 301.541 129.25 301.288 129.195C300.06 128.931 298.882 128.273 298.109 127.175C297.337 126.078 297.021 124.512 297.464 123.139Z" fill="#FF9A6C"/>
<path d="M327.453 106.745C327.152 108.222 325.667 109.181 324.137 108.891C322.61 108.602 321.612 107.173 321.913 105.697C322.214 104.22 323.699 103.259 325.226 103.548C326.757 103.838 327.754 105.269 327.453 106.745Z" fill="#263238"/>
<path d="M332.942 97.9111C332.515 98.1891 330.813 96.1239 327.861 95.4054C324.924 94.6446 322.389 95.6471 322.158 95.2023C322.039 95.0021 322.543 94.435 323.652 93.9727C324.746 93.5104 326.49 93.228 328.325 93.6881C330.159 94.1511 331.54 95.2154 332.26 96.1341C332.998 97.0608 333.148 97.7909 332.942 97.9111Z" fill="#263238"/>
<path d="M309.434 117.944C309.461 117.771 311.371 117.902 314.434 118.249C315.206 118.355 315.956 118.38 316.207 117.891C316.518 117.384 316.4 116.486 316.248 115.51C315.984 113.492 315.708 111.377 315.417 109.161C314.313 100.142 313.708 92.7993 314.067 92.7585C314.427 92.7163 315.615 99.9931 316.72 109.013C316.974 111.232 317.219 113.349 317.449 115.372C317.526 116.309 317.779 117.411 317.12 118.458C316.78 118.978 316.128 119.254 315.614 119.267C315.095 119.297 314.67 119.201 314.291 119.132C311.262 118.559 309.404 118.115 309.434 117.944Z" fill="#263238"/>
<path d="M301.452 153.375C301.452 153.375 286.85 150.773 274.691 138.606C274.691 138.606 278.71 155.466 300.585 158.71L301.452 153.375Z" fill="#FF9A6C"/>
<path d="M325.093 80.3325C325.974 80.1461 327.313 82.1321 329.434 83.8625C331.498 85.662 333.676 86.6419 333.646 87.5467C333.613 87.9712 332.9 88.2922 331.704 88.1808C330.521 88.0767 328.886 87.4594 327.447 86.2473C326.01 85.0331 325.12 83.5225 324.812 82.3679C324.494 81.2024 324.684 80.4402 325.093 80.3325Z" fill="#263238"/>
<path d="M294.909 101.261C294.559 102.728 295.498 104.235 297.005 104.632C298.508 105.029 300.013 104.166 300.363 102.701C300.712 101.234 299.773 99.7254 298.27 99.3293C296.764 98.9311 295.258 99.796 294.909 101.261Z" fill="#263238"/>
<path d="M292.875 89.1538C293.144 89.5891 295.554 88.4549 298.527 89.0759C301.505 89.6539 303.376 91.6529 303.772 91.3501C303.964 91.2198 303.746 90.4896 302.939 89.5942C302.143 88.7046 300.684 87.6971 298.831 87.3222C296.976 86.9502 295.278 87.3185 294.241 87.839C293.183 88.3603 292.74 88.955 292.875 89.1538Z" fill="#263238"/>
<path d="M307.207 81.8991C306.605 81.2068 304.267 81.9464 301.452 82.0018C298.639 82.1452 296.249 81.5715 295.705 82.3046C295.467 82.6606 295.848 83.3558 296.894 84.0088C297.926 84.6589 299.646 85.1837 301.581 85.1175C303.515 85.0476 305.188 84.4041 306.162 83.6826C307.152 82.9583 307.473 82.2376 307.207 81.8991Z" fill="#263238"/>
<path d="M269.79 102.412C270.174 100.802 269.248 96.5531 267.736 95.9183C263.699 94.2236 256.052 92.7014 253.387 103.465C249.744 118.178 265.101 118.842 265.231 118.427C265.332 118.102 268.465 107.973 269.79 102.412Z" fill="#FFBF9D"/>
<path d="M262.54 112.037C262.488 111.973 262.242 112.152 261.765 112.242C261.299 112.329 260.548 112.281 259.86 111.802C258.465 110.842 257.782 108.047 258.368 105.376C258.663 104.027 259.255 102.823 259.985 101.885C260.697 100.921 261.571 100.344 262.379 100.401C263.193 100.416 263.625 101.023 263.701 101.482C263.795 101.943 263.629 102.214 263.7 102.258C263.732 102.305 264.074 102.091 264.107 101.454C264.119 101.146 264.035 100.755 263.762 100.386C263.484 100.011 263.008 99.7346 262.453 99.6567C261.312 99.4514 260.044 100.24 259.242 101.268C258.377 102.285 257.679 103.632 257.348 105.146C256.707 108.135 257.521 111.289 259.472 112.436C260.428 112.965 261.359 112.87 261.886 112.634C262.425 112.386 262.584 112.076 262.54 112.037Z" fill="#FF9A6C"/>
<path d="M267.109 95.8454L270.126 100.472C289.147 87.8792 327.9 54.6813 325.709 56.6817C325.709 56.6817 315.496 49.9989 303.11 49.8082C290.724 49.6174 266.835 51.409 264.55 65.796C262.265 80.183 267.109 95.8454 267.109 95.8454Z" fill="#263238"/>
<path d="M306.449 128.761C306.376 128.716 306.45 128.498 306.467 128.138C306.484 127.782 306.41 127.261 306.081 126.724C305.919 126.459 305.7 126.194 305.426 125.971C305.154 125.76 304.795 125.567 304.389 125.4C303.578 125.065 302.606 124.788 301.595 124.607C299.512 124.271 297.598 124.178 296.212 124.228C294.821 124.269 293.939 124.339 293.907 124.176C293.878 124.032 294.704 123.681 296.134 123.428C297.564 123.166 299.594 123.13 301.784 123.485C302.9 123.687 303.916 124.009 304.816 124.445C305.264 124.664 305.685 124.925 306.044 125.265C306.39 125.607 306.632 125.989 306.791 126.361C307.115 127.109 307.065 127.822 306.893 128.236C306.719 128.66 306.503 128.8 306.449 128.761Z" fill="#263238"/>
<path d="M313.286 80.6672C313.312 80.6388 313.708 80.9744 314.032 81.73C314.357 82.4667 314.548 83.6745 314.092 84.872C313.628 86.0673 312.679 86.8266 311.948 87.1469C311.204 87.4818 310.688 87.4585 310.688 87.4199C310.675 87.3566 311.163 87.2816 311.829 86.9074C312.488 86.5463 313.323 85.8162 313.743 84.7344C314.156 83.6512 314.029 82.5417 313.785 81.8247C313.543 81.0938 313.234 80.7058 313.286 80.6672Z" fill="#FF9A6C"/>
<path d="M321.567 87.8376C321.568 87.8769 321.024 87.9257 320.204 87.6447C319.396 87.3753 318.317 86.7005 317.62 85.5401C316.926 84.3768 316.835 83.097 316.973 82.2474C317.107 81.3826 317.401 80.9182 317.435 80.9371C317.495 80.9596 317.296 81.451 317.236 82.2766C317.171 83.0912 317.301 84.2719 317.94 85.3428C318.583 86.4115 319.556 87.0754 320.3 87.3942C321.052 87.724 321.575 87.7735 321.567 87.8376Z" fill="#FF9A6C"/>
<path d="M291.739 106.813C291.726 106.908 290.39 106.573 289.221 105.402C288.04 104.242 287.683 102.898 287.776 102.883C287.881 102.837 288.371 104.044 289.483 105.131C290.58 106.234 291.783 106.706 291.739 106.813Z" fill="#FF9A6C"/>
<path d="M327.457 111.225C327.486 111.325 326.954 111.567 326.271 111.765C325.588 111.962 325.01 112.041 324.982 111.94C324.953 111.84 325.484 111.598 326.168 111.4C326.852 111.203 327.429 111.124 327.457 111.225Z" fill="#FF9A6C"/>
<path d="M326.984 112.656C327.013 112.756 326.666 112.945 326.21 113.077C325.755 113.208 325.362 113.234 325.334 113.133C325.306 113.032 325.652 112.844 326.107 112.712C326.563 112.58 326.956 112.555 326.984 112.656Z" fill="#FF9A6C"/>
<path d="M347.137 83.0871C347.124 83.0857 347.136 82.8775 347.169 82.4822C347.204 82.0869 347.276 81.5053 347.397 80.7605C347.633 79.2696 348.151 77.1476 348.762 74.5312C349.34 71.9273 350.018 68.7278 349.45 65.227C349.176 63.4966 348.579 61.6977 347.444 60.1777C346.879 59.4213 346.187 58.7429 345.386 58.1911C344.58 57.6444 343.682 57.2134 342.737 56.8683C340.844 56.1833 338.887 55.82 337.022 55.3782C335.155 54.9508 333.353 54.5388 331.635 54.1457C328.212 53.3537 325.125 52.6395 322.519 52.0367C319.954 51.4296 317.867 50.9353 316.38 50.583C315.684 50.4097 315.13 50.2721 314.716 50.1688C314.336 50.0698 314.138 50.0122 314.141 49.9991C314.144 49.9868 314.347 50.0195 314.732 50.0938C315.15 50.1797 315.71 50.294 316.412 50.4381C317.904 50.7613 320.001 51.2156 322.577 51.7739C325.188 52.3541 328.28 53.0414 331.71 53.8035C333.43 54.1894 335.233 54.5949 337.102 55.0149C338.965 55.4517 340.927 55.8113 342.864 56.5109C343.829 56.8632 344.756 57.308 345.594 57.8773C346.428 58.4524 347.151 59.1644 347.737 59.9535C348.914 61.5405 349.52 63.399 349.79 65.1702C350.35 68.7547 349.63 71.9913 349.019 74.5917C348.373 77.2073 347.819 79.3082 347.54 80.786C347.397 81.5235 347.302 82.0993 347.243 82.4909C347.187 82.8833 347.15 83.0886 347.137 83.0871Z" fill="#263238"/>
<path d="M234.486 132.834C234.486 132.84 234.402 132.847 234.237 132.855C234.052 132.862 233.811 132.87 233.505 132.881C233.182 132.908 232.785 132.86 232.314 132.821C231.841 132.804 231.31 132.677 230.706 132.563C229.517 132.272 228.08 131.773 226.577 130.87C225.076 129.973 223.514 128.681 222.114 126.966C221.397 126.122 220.773 125.137 220.173 124.086C219.627 123.007 219.093 121.856 218.751 120.589C218.027 118.076 217.795 115.239 218.099 112.317C218.7 106.451 221.497 100.358 225.732 95.1404C229.945 89.8706 234.831 85.7007 239.111 81.8017C243.419 77.9238 247.299 74.4309 250.566 71.4914C253.822 68.5787 256.463 66.2157 258.309 64.5647C259.215 63.7653 259.926 63.1385 260.427 62.6959C260.66 62.4957 260.844 62.3378 260.985 62.2169C261.111 62.1106 261.179 62.0582 261.183 62.0633C261.187 62.0684 261.129 62.1296 261.01 62.2453C260.877 62.3734 260.7 62.5409 260.478 62.752C259.987 63.2077 259.292 63.852 258.406 64.6739C256.579 66.3467 253.965 68.7396 250.742 71.6901C247.492 74.6471 243.629 78.1611 239.341 82.0616C235.071 85.9766 230.205 90.1465 226.024 95.3777C221.82 100.557 219.055 106.57 218.443 112.354C218.133 115.234 218.351 118.027 219.05 120.502C219.378 121.747 219.897 122.881 220.428 123.946C221.011 124.984 221.619 125.959 222.319 126.796C223.686 128.497 225.214 129.785 226.685 130.688C228.159 131.596 229.569 132.109 230.741 132.419C231.335 132.542 231.859 132.681 232.327 132.708C232.792 132.759 233.186 132.818 233.507 132.804C233.811 132.809 234.052 132.813 234.237 132.816C234.401 132.821 234.486 132.827 234.486 132.834Z" fill="#263238"/>
<path d="M347.888 68.0213C340.006 64.0167 329.542 64.4418 323.106 69.0266L323.156 69.1082L317.766 68.6656C311.763 64.4477 299.886 61.7862 292.298 64.5889L267.983 74.5185L266.699 77.5971L292.689 67.0582L292.793 67.2926C293.382 69.9381 296.192 78.3644 297.051 79.8073C298.264 81.847 309.767 83.062 312.628 81.4539C315.377 79.9077 316.956 71.5622 317.713 69.7262L323.242 70.1536C323.702 72.5595 325.288 80.4843 326.405 81.6141C327.434 82.6544 333.779 82.6049 334.499 82.5954C335.095 82.5881 335.92 82.5677 336.829 82.5161C339.2 82.3821 342.14 82.037 343.056 81.1584C344.411 79.8582 345.972 74.8002 347.32 70.024L347.539 69.2501C347.592 69.0681 347.63 68.9415 347.651 68.8876L347.644 68.884L347.888 68.0213ZM312.173 80.5229C309.336 82.1164 298.632 80.5236 297.871 79.2467C297.275 78.245 294.693 71.7755 293.574 67.1019C300.342 64.1587 310.632 66.2734 316.502 70.2824C315.463 73.6071 314.137 79.4178 312.173 80.5229ZM346.386 69.7131C345.663 72.2785 343.739 79.0924 342.404 80.3736C340.827 81.8864 328.193 81.8536 327.068 80.8497C326.426 80.2004 325.162 74.8505 324.34 70.6842C329.935 66.807 339.364 66.438 346.416 69.6068C346.406 69.644 346.398 69.6738 346.386 69.7131Z" fill="#455A64"/>
<g opacity="0.3">
<path d="M315.352 70.9133C315.352 70.9133 313.776 79.0827 311.416 79.3353C309.056 79.5879 306.934 66.9917 306.934 66.9917C306.934 66.9917 313.976 68.8124 315.352 70.9133Z" fill="white"/>
</g>
<g opacity="0.3">
<path d="M345.469 69.924C345.469 69.924 343.833 79.2049 341.473 79.4576C339.113 79.7102 335.02 68.0582 335.02 68.0582C335.02 68.0582 344.093 67.823 345.469 69.924Z" fill="white"/>
</g>
<path d="M275.442 67.1215C275.477 67.1761 274.624 67.7199 273.427 68.8148C272.224 69.9009 270.73 71.5898 269.366 73.6653C267.999 75.7407 266.964 77.7529 266.207 79.203C265.455 80.6568 264.982 81.5551 264.933 81.5311C264.91 81.5194 264.997 81.2799 265.175 80.857C265.354 80.434 265.622 79.8269 265.97 79.0836C266.668 77.6 267.671 75.5551 269.054 73.4549C270.434 71.3539 271.988 69.6614 273.253 68.6124C273.882 68.0839 274.425 67.6988 274.813 67.4564C275.202 67.2139 275.429 67.1011 275.442 67.1215Z" fill="#455A64"/>
<path d="M231.13 119.192C231.124 119.191 231.123 119.126 231.129 118.999C231.138 118.849 231.148 118.664 231.162 118.435C231.184 117.937 231.263 117.209 231.387 116.273C231.644 114.404 232.216 111.715 233.371 108.541C234.537 105.375 236.32 101.746 238.796 98.0439C241.261 94.3327 244.425 90.5829 247.995 86.9139C251.572 83.2478 255.185 79.9741 258.455 76.9908C261.731 74.0119 264.659 71.3082 267.039 68.9547C269.419 66.6018 271.262 64.613 272.499 63.2066C273.097 62.5157 273.57 61.9705 273.912 61.5759C274.062 61.4041 274.184 61.265 274.282 61.1529C274.367 61.059 274.413 61.0132 274.418 61.0168C274.423 61.0212 274.387 61.075 274.311 61.177C274.221 61.2949 274.109 61.4419 273.97 61.6239C273.671 62.0178 273.211 62.5827 272.609 63.3034C271.404 64.7426 269.586 66.7635 267.225 69.1454C264.865 71.5281 261.951 74.2565 258.688 77.25C255.43 80.2478 251.829 83.5251 248.262 87.1803C244.705 90.8376 241.549 94.562 239.083 98.2405C236.605 101.909 234.81 105.502 233.619 108.637C232.439 111.779 231.832 114.442 231.531 116.296C231.386 117.225 231.284 117.948 231.237 118.442C231.208 118.67 231.185 118.854 231.167 119.002C231.149 119.128 231.137 119.192 231.13 119.192Z" fill="#455A64"/>
<path d="M252.155 72.3118C252.142 72.3126 252.127 72.1517 252.108 71.8437C252.099 71.5358 252.046 71.0816 252.068 70.4955C252.062 69.3242 252.189 67.6207 252.629 65.5671C253.064 63.515 253.879 61.1243 255.217 58.6907C256.548 56.2592 258.444 53.8132 260.877 51.7414C263.334 49.6965 266.058 48.2551 268.664 47.3735C271.273 46.4854 273.746 46.109 275.821 46.0493C277.897 45.9845 279.576 46.168 280.713 46.3864C281.287 46.4716 281.719 46.607 282.017 46.6718C282.313 46.746 282.466 46.7911 282.463 46.8035C282.455 46.8392 281.83 46.7009 280.691 46.532C279.553 46.3594 277.885 46.219 275.832 46.3165C273.781 46.4097 271.344 46.8093 268.776 47.7033C266.211 48.5914 263.536 50.0204 261.118 52.0318C258.724 54.0709 256.848 56.4718 255.519 58.861C254.183 61.2517 253.352 63.603 252.888 65.6261C252.42 67.6499 252.253 69.3344 252.214 70.4977C252.171 71.6632 252.191 72.3104 252.155 72.3118Z" fill="#263238"/>
<path d="M346.96 150.662C346.96 150.662 385.264 209.848 388.947 220.089C392.628 230.329 389.168 254.675 375.975 254.627C357.687 254.562 353.059 246.804 347.844 234.08C342.628 221.357 329.539 161.497 329.539 161.497L346.96 150.662Z" fill="#FFBF9D"/>
<path d="M330.192 164.065C328.901 158.624 321.84 149.71 324.699 143.065C327.039 137.623 332.193 130.462 333.886 126.794C335.578 123.125 336.546 111.877 336.546 111.877L337.352 98.2801C337.352 98.2801 334.11 89.0108 336.287 85.8317C337.375 84.2425 338.583 84.2425 339.52 84.6393C340.496 85.0535 341.155 85.9977 341.36 87.0482L341.865 89.6237C341.865 89.6237 343.316 87.6677 345.733 89.8683C348.151 92.069 350.393 106.72 351.383 111.941C352.496 117.811 352.166 121.214 351.216 124.644C349.611 130.436 346.218 142.2 345.976 145.134C345.734 148.069 349.149 154.069 349.149 154.069" fill="#FFBF9D"/>
<path d="M349.15 154.068C349.15 154.068 349.08 153.969 348.962 153.765C348.845 153.561 348.673 153.256 348.459 152.847C348.032 152.032 347.413 150.816 346.774 149.173C346.461 148.35 346.139 147.416 345.958 146.346C345.755 145.258 346.024 144.074 346.27 142.852C346.794 140.389 347.518 137.613 348.339 134.539C349.184 131.472 350.11 128.103 351.109 124.474C351.604 122.669 351.913 120.743 351.924 118.741C351.94 116.739 351.709 114.676 351.331 112.586C350.551 108.392 349.828 103.954 348.828 99.3881C348.317 97.111 347.78 94.78 346.961 92.5153C346.522 91.4088 346.104 90.212 345.08 89.5852C344.603 89.2438 344.048 89.0101 343.483 89.013C342.927 89.0217 342.367 89.3107 342.015 89.7373L341.779 90.0234L341.684 89.6609C341.263 88.0521 341.376 86.0334 339.904 85.0652C339.226 84.6015 338.306 84.4333 337.579 84.8482C336.847 85.2443 336.308 86.0152 336.04 86.8225C335.74 87.7427 335.697 88.7502 335.744 89.73C335.782 90.7143 335.91 91.6927 336.086 92.6529C336.431 94.5747 336.937 96.4435 337.527 98.2183L337.54 98.2561L337.538 98.2925C337.232 103.231 336.981 108.02 336.654 112.632C336.426 114.931 336.152 117.178 335.819 119.366C335.465 121.549 335.111 123.687 334.466 125.71C334.149 126.73 333.652 127.659 333.158 128.55C332.66 129.443 332.14 130.303 331.628 131.15C330.596 132.834 329.595 134.466 328.63 136.042C327.678 137.624 326.785 139.163 325.996 140.675C325.221 142.19 324.445 143.659 324.26 145.196C324.052 146.724 324.204 148.216 324.517 149.573C324.844 150.93 325.252 152.185 325.717 153.324C326.626 155.611 327.576 157.505 328.295 159.074C329.021 160.641 329.541 161.875 329.823 162.738C330.102 163.601 330.192 164.067 330.192 164.067C330.192 164.067 330.148 163.957 330.078 163.736C330 163.519 329.927 163.181 329.759 162.761C329.456 161.91 328.918 160.689 328.174 159.133C327.437 157.575 326.469 155.69 325.538 153.397C325.062 152.257 324.642 150.994 324.302 149.624C323.976 148.251 323.811 146.733 324.016 145.16C325.503 138.941 330.793 133.183 334.154 125.606C334.781 123.623 335.133 121.487 335.479 119.314C335.807 117.133 336.076 114.89 336.3 112.597C336.618 108.004 336.865 103.203 337.166 98.2707L337.176 98.3442C336.577 96.5432 336.069 94.6694 335.717 92.7213C335.539 91.7487 335.407 90.7558 335.368 89.7461C335.321 88.7415 335.36 87.7019 335.683 86.7024C335.989 85.8033 336.551 84.9822 337.403 84.5134C337.826 84.2811 338.329 84.1909 338.803 84.2491C339.276 84.3132 339.722 84.4864 340.112 84.7521C340.892 85.2872 341.385 86.1564 341.55 87.0504C341.717 87.9065 341.883 88.7531 342.046 89.5881L341.715 89.5117C342.157 88.9751 342.797 88.657 343.473 88.6388C344.147 88.6359 344.773 88.9111 345.286 89.2787C345.544 89.4716 345.79 89.6471 346.014 89.9004C346.236 90.145 346.398 90.418 346.556 90.6902C346.856 91.2413 347.086 91.8135 347.301 92.3864C348.131 94.689 348.663 97.0244 349.174 99.311C350.17 103.892 350.884 108.333 351.654 112.527C352.029 114.633 352.257 116.716 352.234 118.745C352.217 120.774 351.896 122.733 351.389 124.554C350.375 128.177 349.433 131.542 348.576 134.606C347.739 137.673 346.999 140.445 346.458 142.894C346.202 144.119 345.931 145.269 346.119 146.321C346.287 147.371 346.596 148.305 346.898 149.126C347.514 150.768 348.112 151.992 348.518 152.816C348.721 153.217 348.877 153.526 348.99 153.749C349.101 153.957 349.15 154.068 349.15 154.068Z" fill="#FF9A6C"/>
<path d="M338.154 131.542C338.181 131.594 337.338 132.073 336.017 132.902C334.706 133.736 332.894 134.941 331.317 136.712C329.745 138.484 328.877 140.523 328.613 142.05C328.331 143.586 328.531 144.566 328.455 144.571C328.434 144.575 328.366 144.338 328.312 143.894C328.256 143.452 328.243 142.8 328.352 142.006C328.554 140.419 329.416 138.284 331.037 136.459C332.659 134.638 334.527 133.451 335.881 132.67C336.562 132.28 337.126 131.99 337.522 131.8C337.916 131.61 338.141 131.519 338.154 131.542Z" fill="#FF9A6C"/>
<path d="M343.535 114.995C343.509 114.994 343.497 114.611 343.498 113.921C343.49 113.231 343.495 112.234 343.453 111.003C343.384 108.542 343.116 105.142 342.321 101.474C341.571 97.8204 340.246 94.5635 340.569 91.9879C340.775 90.7278 341.414 89.8411 341.97 89.4203C342.244 89.199 342.498 89.0913 342.667 89.0243C342.842 88.9697 342.934 88.9486 342.938 88.9609C342.956 89.0017 342.567 89.0847 342.064 89.5339C341.563 89.9677 340.994 90.8289 340.832 92.0279C340.677 93.2167 341.003 94.677 341.38 96.2458C341.78 97.8168 342.301 99.5436 342.688 101.394C343.489 105.091 343.718 108.527 343.718 110.998C343.726 112.236 343.681 113.235 343.644 113.925C343.598 114.616 343.561 114.996 343.535 114.995Z" fill="#FF9A6C"/>
<path d="M336.878 102.445C336.927 102.435 337.114 103.118 337.358 104.236C337.594 105.355 337.902 106.914 338.024 108.67C338.139 110.426 338.044 112.013 337.959 113.154C337.869 114.296 337.774 114.998 337.725 114.995C337.671 114.992 337.672 114.283 337.694 113.142C337.712 112 337.764 110.424 337.651 108.696C337.531 106.969 337.268 105.415 337.098 104.287C336.921 103.158 336.825 102.455 336.878 102.445Z" fill="#FF9A6C"/>
<path d="M339.296 115.047C339.27 115.047 339.243 114.763 339.216 114.251C339.182 113.656 339.141 112.932 339.094 112.082C338.983 110.252 338.766 107.73 338.378 104.962C337.994 102.193 337.513 99.7077 337.135 97.9147C336.956 97.0819 336.804 96.3736 336.679 95.7919C336.572 95.2904 336.524 95.0094 336.55 95.0021C336.575 94.9955 336.67 95.2634 336.82 95.7548C336.974 96.2455 337.17 96.9625 337.394 97.8543C337.839 99.6371 338.364 102.127 338.75 104.909C339.139 107.69 339.316 110.231 339.359 112.069C339.384 112.989 339.38 113.734 339.362 114.248C339.344 114.763 339.322 115.047 339.296 115.047Z" fill="#FF9A6C"/>
<path d="M340.706 114.849C340.729 114.969 339.915 115.112 338.953 115.038C337.989 114.967 337.238 114.937 337.219 114.849C337.197 114.729 338.009 114.587 338.972 114.66C339.936 114.731 340.687 114.761 340.706 114.849Z" fill="#FF9A6C"/>
<path d="M343.536 114.995C343.507 115.039 343.389 115.016 343.221 114.951C343.053 114.894 342.826 114.757 342.663 114.787C342.129 114.904 341.631 114.772 341.653 114.672C341.672 114.56 342.076 114.527 342.622 114.41C342.802 114.381 342.986 114.458 343.09 114.522C343.204 114.589 343.289 114.66 343.359 114.722C343.498 114.849 343.564 114.952 343.536 114.995Z" fill="#FF9A6C"/>
<path d="M150.989 226.391C150.989 226.391 141.302 239.03 143.335 252.037C144.889 261.982 149.246 266.652 167.495 266.554C182.183 266.475 243.318 246.587 243.318 246.587L248.436 222.021C249.154 222.747 190.839 232.463 190.839 232.463L196.137 225.414L161.694 208.557L150.989 226.391Z" fill="#FFBF9D"/>
<path d="M281.063 202.904C281.979 202.507 310.289 185.572 310.289 185.572L316.921 185.105L313.08 191.087L278.926 211.348L281.063 202.904Z" fill="#455A64"/>
<path d="M230.684 227.933C230.684 227.933 238.068 226.08 238.613 225.345C239.158 224.611 250.232 204.043 251.322 203.125C252.412 202.207 269.296 192.474 273.291 192.291C277.285 192.107 292.15 197.603 292.876 198.522C293.603 199.44 294.678 204.048 289.268 203.86C286.314 203.757 286.138 203.623 286.138 203.623L287.41 210.912C287.597 211.984 286.842 212.994 285.771 213.095C284.686 213.197 283.557 213.212 283.557 212.831C283.557 212.369 283.59 215.697 283.613 218.228C283.629 219.873 282.119 221.11 280.537 220.734C278.803 220.323 276.913 219.264 276.507 216.644L273.374 220.678L275.573 225.991L275.029 233.039C275.029 233.039 270.711 233.121 269.679 229.72C268.396 225.493 268.721 224.798 268.721 224.798C268.721 224.798 266.067 231.742 262.397 235.813C256.45 242.409 239.596 247.894 239.596 247.894L230.684 227.933Z" fill="#FFBF9D"/>
<path d="M262.133 211.11C262.131 211.105 262.176 211.082 262.267 211.042C262.376 210.996 262.509 210.941 262.673 210.872C263.059 210.719 263.586 210.51 264.257 210.244C265.672 209.699 267.687 208.923 270.205 207.954L270.26 207.933L270.311 207.966C272.049 209.101 274.088 210.432 276.349 211.909L276.434 211.965L276.413 212.075C276.115 213.581 276.2 215.299 276.729 216.938C277.006 217.755 277.345 218.594 277.979 219.198C278.603 219.816 279.444 220.214 280.337 220.438C280.784 220.553 281.247 220.626 281.717 220.666C282.182 220.737 282.603 220.631 282.933 220.331C283.259 220.024 283.402 219.613 283.367 219.113C283.368 218.612 283.37 218.108 283.372 217.6C283.38 215.569 283.388 213.484 283.396 211.358C283.399 210.691 283.402 210.027 283.405 209.367C283.443 208.704 283.26 208.136 282.962 207.565C282.371 206.445 281.525 205.479 280.676 204.575C278.948 202.778 277.079 201.245 275.257 199.855C274.342 199.163 273.432 198.513 272.529 197.913C272.078 197.616 271.625 197.319 271.175 197.073C270.752 196.86 270.232 196.85 269.743 196.885C267.756 197.127 265.982 197.903 264.4 198.574C261.235 199.981 258.78 201.358 257.074 202.282C256.242 202.738 255.586 203.099 255.113 203.358C254.888 203.479 254.715 203.568 254.596 203.624C254.477 203.681 254.412 203.702 254.41 203.696C254.41 203.696 255.325 203.134 257.003 202.152C258.689 201.187 261.127 199.773 264.294 198.328C265.884 197.638 267.643 196.84 269.715 196.571C270.232 196.534 270.793 196.525 271.325 196.785C271.801 197.043 272.249 197.334 272.709 197.632C273.623 198.232 274.541 198.882 275.463 199.574C277.302 200.964 279.185 202.5 280.94 204.316C281.804 205.233 282.665 206.207 283.293 207.389C283.606 207.96 283.825 208.69 283.78 209.354C283.777 210.015 283.774 210.68 283.772 211.349C283.762 213.478 283.753 215.568 283.743 217.604C283.74 218.113 283.738 218.618 283.735 219.12C283.738 219.357 283.734 219.658 283.633 219.918C283.538 220.18 283.381 220.417 283.18 220.604C282.783 220.987 282.171 221.113 281.688 221.03C281.201 220.987 280.72 220.909 280.251 220.789C279.318 220.551 278.418 220.126 277.739 219.45C277.042 218.773 276.691 217.879 276.413 217.045C275.876 215.334 275.795 213.59 276.119 212.001L276.183 212.166C273.936 210.669 271.909 209.319 270.181 208.168L270.287 208.179C267.753 209.105 265.725 209.846 264.301 210.367C263.621 210.608 263.086 210.797 262.695 210.936C262.527 210.992 262.39 211.038 262.278 211.075C262.184 211.104 262.135 211.116 262.133 211.11Z" fill="#FF9A6C"/>
<path d="M283.38 212.832C283.389 212.799 283.779 212.946 284.511 213.016C284.876 213.038 285.337 213.099 285.816 212.945C286.292 212.797 286.793 212.434 287.069 211.863C287.207 211.58 287.285 211.252 287.277 210.91C287.264 210.579 287.172 210.187 287.113 209.802C286.974 209.022 286.827 208.193 286.672 207.323C286.349 205.58 285.984 203.663 285.499 201.682C285.267 200.674 284.97 199.766 284.386 199.023C283.834 198.262 283.114 197.679 282.44 197.132C281.046 196.08 279.657 195.313 278.488 194.687C277.314 194.066 276.347 193.591 275.694 193.226C275.036 192.872 274.714 192.593 274.731 192.576C274.75 192.554 275.086 192.782 275.76 193.095C276.429 193.416 277.414 193.854 278.608 194.448C279.799 195.047 281.212 195.794 282.648 196.852C283.344 197.405 284.088 197.995 284.677 198.797C284.846 198.978 284.951 199.213 285.092 199.422C285.239 199.63 285.331 199.872 285.424 200.115C285.642 200.599 285.719 201.09 285.863 201.589C286.351 203.588 286.707 205.51 287.012 207.261C287.155 208.135 287.291 208.967 287.419 209.751C287.473 210.148 287.556 210.503 287.566 210.906C287.568 211.298 287.469 211.67 287.305 211.985C286.976 212.622 286.404 213.006 285.874 213.149C285.33 213.297 284.86 213.206 284.493 213.163C284.121 213.106 283.839 213.024 283.654 212.958C283.467 212.892 283.375 212.843 283.38 212.832Z" fill="#FF9A6C"/>
<path d="M248.739 243.673C248.642 243.605 250.211 242.54 251.49 239.634C252.814 236.794 253.82 232.267 253.709 226.799L253.708 226.734L253.748 226.689C254.861 225.406 256.047 224.038 257.286 222.61L257.336 222.552H257.413C259.837 222.549 262.448 222.544 265.167 222.539H265.216L265.258 222.564C266.384 223.221 267.586 223.923 268.808 224.636L268.925 224.705L268.894 224.853C268.718 225.664 268.823 226.609 269.05 227.488C269.283 228.378 269.669 229.243 270.137 230.065C270.659 230.976 271.304 231.82 272.166 232.348C273 232.884 274.058 233.094 274.967 232.862L274.84 233.023C275.071 230.44 275.294 227.948 275.506 225.581L275.518 225.664C273.945 222.028 272.109 218.751 269.877 216.356C268.763 215.149 267.352 214.494 266.007 214.031C264.659 213.573 263.368 213.281 262.193 213.061C259.838 212.634 257.942 212.452 256.646 212.315C255.349 212.195 254.644 212.078 254.655 212.038C254.655 212.038 255.351 212.113 256.656 212.198C257.956 212.298 259.859 212.445 262.232 212.843C263.416 213.05 264.718 213.328 266.092 213.78C267.448 214.228 268.937 214.909 270.091 216.144C272.387 218.578 274.242 221.856 275.846 225.528L275.862 225.566L275.858 225.612C275.652 227.98 275.435 230.472 275.209 233.056L275.198 233.188L275.081 233.218C274.013 233.493 272.891 233.248 271.97 232.669C271.035 232.096 270.352 231.194 269.814 230.254C268.868 228.57 268.18 226.652 268.539 224.745L268.624 224.961C267.403 224.246 266.202 223.542 265.077 222.882L265.168 222.907C262.45 222.902 259.839 222.898 257.414 222.894L257.541 222.836C256.295 224.258 255.102 225.619 253.983 226.896L254.021 226.785C254.099 232.314 253.039 236.857 251.653 239.712C251.344 240.445 250.926 241.024 250.625 241.557C250.248 242.041 249.952 242.473 249.669 242.782C249.383 243.064 249.156 243.287 248.985 243.455C248.826 243.605 248.744 243.679 248.739 243.673Z" fill="#FF9A6C"/>
<path d="M271.971 209.208C272.03 209.33 270.357 210.047 268.557 211.312C267.664 211.958 266.88 212.6 266.285 213.025C265.693 213.456 265.306 213.696 265.276 213.655C265.243 213.613 265.572 213.299 266.121 212.815C266.673 212.337 267.427 211.664 268.341 211.002C269.259 210.343 270.176 209.885 270.846 209.593C271.519 209.299 271.951 209.163 271.971 209.208Z" fill="#FF9A6C"/>
<path d="M160.84 240.926C160.824 240.907 161.158 240.601 161.778 240.064C162.085 239.791 162.469 239.467 162.941 239.125C163.409 238.78 163.927 238.361 164.548 237.971C165.157 237.562 165.828 237.12 166.583 236.703C167.32 236.252 168.149 235.852 169.015 235.414C170.769 234.591 172.756 233.81 174.906 233.196C177.063 232.603 179.165 232.239 181.088 232.032C182.053 231.957 182.968 231.869 183.829 231.872C184.689 231.837 185.489 231.866 186.219 231.9C186.951 231.912 187.607 232.001 188.185 232.054C188.764 232.102 189.257 232.179 189.659 232.253C190.464 232.391 190.906 232.479 190.902 232.505C190.898 232.531 190.448 232.492 189.64 232.4C189.237 232.348 188.743 232.292 188.166 232.265C187.59 232.232 186.937 232.161 186.211 232.168C185.485 232.151 184.691 232.137 183.839 232.186C182.986 232.196 182.079 232.296 181.125 232.38C179.221 232.605 177.143 232.975 175.007 233.562C172.878 234.17 170.907 234.934 169.161 235.731C168.301 236.157 167.473 236.542 166.736 236.978C165.981 237.38 165.306 237.805 164.693 238.196C164.067 238.569 163.542 238.97 163.065 239.297C162.584 239.621 162.189 239.925 161.87 240.179C161.223 240.679 160.857 240.947 160.84 240.926Z" fill="#FF9A6C"/>
</svg>
